# Blender v2.80 (sub 75) OBJ File: 'untitled7.blend'
# www.blender.org
mtllib shell.1.mtl
o Cube.003
v -2.854186 0.465865 13.708797
v -2.786420 1.578274 13.636801
v -2.854186 0.465865 11.830866
v -2.786420 1.578274 11.902862
v -1.726091 0.465865 13.708797
v -1.793856 1.222129 13.636801
v -1.726091 0.465865 11.830866
v -1.793856 1.222129 11.902862
v -2.854186 1.602589 13.708797
v -2.854186 1.602589 11.830866
v -1.726091 1.197814 11.830866
v -1.726091 1.197814 13.708797
v -2.812794 1.504770 13.636801
v -2.812794 1.504770 11.902862
v -1.820230 1.148625 11.902862
v -1.820230 1.148625 13.636801
v -2.323981 1.329378 11.979222
v -2.293387 1.318400 11.979222
v -2.293387 1.318400 13.560440
v -2.323981 1.329378 13.560440
v -2.330549 1.331734 11.902862
v -2.286820 1.316044 11.902862
v -2.286820 1.316044 13.636801
v -2.330549 1.331734 13.636801
v -2.305277 1.381505 11.979222
v -2.274683 1.370527 11.979222
v -2.274683 1.370527 13.560440
v -2.305277 1.381505 13.560440
vt 0.375000 0.000000
vt 0.625000 0.000000
vt 0.625000 0.250000
vt 0.375000 0.250000
vt 0.625000 0.500000
vt 0.375000 0.500000
vt 0.625000 0.750000
vt 0.375000 0.750000
vt 0.625000 1.000000
vt 0.375000 1.000000
vt 0.125000 0.500000
vt 0.125000 0.750000
vt 0.859982 0.740416
vt 0.640018 0.740416
vt 0.640018 0.740416
vt 0.743420 0.740415
vt 0.753111 0.740415
vt 0.859982 0.740416
vt 0.859982 0.509584
vt 0.875000 0.500000
vt 0.875000 0.750000
vt 0.640018 0.509584
vt 0.859982 0.509584
vt 0.753111 0.509584
vt 0.743420 0.509584
vt 0.640018 0.509584
vt 0.751655 0.510513
vt 0.751655 0.739487
vt 0.750412 0.737139
vt 0.750412 0.512861
vt 0.746118 0.512861
vt 0.746118 0.737139
vt 0.744875 0.739487
vt 0.744875 0.510513
vn -1.0000 0.0000 0.0000
vn -0.0000 0.0000 -1.0000
vn 1.0000 0.0000 0.0000
vn 0.0000 0.0000 1.0000
vn 0.0000 -1.0000 0.0000
vn 0.3377 0.9412 0.0000
vn -0.9412 0.3377 0.0000
vn 0.9412 -0.3377 0.0000
usemtl Material.007
s off
f 1/1/1 9/2/1 10/3/1 3/4/1
f 3/4/2 10/3/2 11/5/2 7/6/2
f 7/6/3 11/5/3 12/7/3 5/8/3
f 5/8/4 12/7/4 9/9/4 1/10/4
f 3/11/5 7/6/5 5/8/5 1/12/5
f 2/13/2 6/14/2 16/15/2 23/16/2 24/17/2 13/18/2
f 2/13/6 4/19/6 10/20/6 9/21/6
f 4/19/6 8/22/6 11/5/6 10/20/6
f 8/22/6 6/14/6 12/7/6 11/5/6
f 6/14/6 2/13/6 9/21/6 12/7/6
f 8/22/4 4/19/4 14/23/4 21/24/4 22/25/4 15/26/4
f 6/14/7 8/22/7 15/26/7 16/15/7
f 4/19/8 2/13/8 13/18/8 14/23/8
f 17/27/7 20/28/7 28/29/7 25/30/7
f 26/31/6 25/30/6 28/29/6 27/32/6
f 20/28/4 19/33/4 27/32/4 28/29/4
f 19/33/8 18/34/8 26/31/8 27/32/8
f 18/34/2 17/27/2 25/30/2 26/31/2
usemtl Material.008
f 21/24/6 14/23/6 13/18/6 24/17/6
f 15/26/6 22/25/6 23/16/6 16/15/6
f 17/27/6 18/34/6 22/25/6 21/24/6
f 19/33/6 20/28/6 24/17/6 23/16/6
f 18/34/6 19/33/6 23/16/6 22/25/6
f 20/28/6 17/27/6 21/24/6 24/17/6
