# Blender v2.80 (sub 75) OBJ File: 'untitled7.blend'
# www.blender.org
mtllib table.mtl
o Cube.002
v -2.321479 0.465170 11.789919
v -2.321479 1.555177 11.789919
v -1.706601 0.465170 11.789919
v -1.706601 1.555177 11.789919
v -1.706601 0.465170 8.811411
v -1.706601 1.555177 8.811411
v -2.321479 0.465170 9.268925
v -2.321479 1.555177 9.268925
v -2.714764 1.533997 9.082555
v -2.714764 1.533997 8.997781
v -2.714764 0.505196 8.997781
v -2.714764 0.505196 9.082555
v -3.644734 1.555177 9.268925
v -3.644734 1.555177 8.811411
v -3.644734 0.465170 8.811411
v -3.644734 0.465170 9.268925
v -4.444439 1.555177 9.268925
v -4.444439 1.555177 8.811411
v -4.444439 0.465170 8.811411
v -4.444439 0.465170 9.268925
v -2.714764 1.555177 9.268925
v -2.714764 1.555177 8.811411
v -2.714764 0.465170 8.811411
v -2.714764 0.465170 9.268925
v -3.601486 1.533997 9.082555
v -3.601486 1.533997 8.997781
v -3.601486 0.505196 8.997781
v -3.601486 0.505196 9.082555
v -2.741838 1.666118 8.784336
v -2.741838 1.555177 8.784336
v -1.679527 1.555177 8.784336
v -1.679527 1.555177 11.816994
v -2.348553 1.555177 11.816994
v -2.348553 1.555177 9.296000
v -2.741838 1.555177 9.296000
v -2.741838 1.666118 9.296000
v -3.617660 1.555177 9.296000
v -3.617660 1.555177 8.784336
v -4.471514 1.555177 9.296000
v -4.471514 1.555177 8.784336
v -1.679527 1.666118 8.784336
v -1.679527 1.666118 11.816994
v -2.348553 1.666118 11.816994
v -2.348553 1.666118 9.296000
v -3.617660 1.666118 9.296000
v -3.617660 1.666118 8.784336
v -4.471514 1.666118 9.296000
v -4.471514 1.666118 8.784336
vt 0.000194 0.207795
vt 0.166657 0.184399
vt 0.230588 0.639268
vt 0.064125 0.662664
vt 0.269653 0.788177
vt 0.261265 0.659724
vt 0.333725 0.654993
vt 0.342113 0.783445
vt 0.074586 0.888544
vt 0.000194 0.788565
vt 0.484498 0.788565
vt 0.484498 0.888544
vt 0.566257 0.631980
vt 0.357933 0.631980
vt 0.357978 0.171518
vt 0.566258 0.150161
vt 0.898582 0.755933
vt 0.888835 0.765680
vt 0.786884 0.663727
vt 0.796631 0.653980
vt 0.181824 0.160465
vt 0.095034 0.080467
vt 0.169025 0.000194
vt 0.255815 0.080192
vt 0.074586 0.952492
vt 0.000194 0.952492
vt 0.330687 0.098257
vt 0.551367 0.053455
vt 0.999806 0.380751
vt 0.947203 0.433354
vt 0.821879 0.308030
vt 0.874482 0.255427
vt 0.619249 0.000194
vt 0.744573 0.125518
vt 0.691970 0.178121
vt 0.566646 0.052797
vt 0.999806 0.092141
vt 0.874482 0.217464
vt 0.782536 0.125518
vt 0.907860 0.000195
vt 0.783916 0.308030
vt 0.658592 0.433353
vt 0.566646 0.341407
vt 0.691970 0.216084
vt 0.906996 0.768998
vt 0.906996 0.843389
vt 0.776964 0.843389
vt 0.776964 0.768998
vt 0.740436 0.814558
vt 0.740436 0.800774
vt 0.743880 0.770470
vt 0.743880 0.844862
vt 0.573154 0.814558
vt 0.566646 0.844862
vt 0.573154 0.800774
vt 0.566646 0.770470
vt 0.668598 0.545440
vt 0.678344 0.535693
vt 0.566647 0.443489
vt 0.576394 0.433742
vt 0.684932 0.765678
vt 0.566646 0.647391
vt 0.780296 0.433742
vt 0.898582 0.552029
vt 0.874482 0.223690
vt 0.776310 0.125518
vt 0.327382 0.175530
vt 0.190826 0.172750
vt 0.268791 0.088166
vt 0.312050 0.099530
vt 0.335854 0.638520
vt 0.257012 0.643668
vt 0.861726 0.236446
vt 0.802898 0.295274
vt 0.704725 0.197102
vt 0.763554 0.138274
vt 0.815653 0.308030
vt 0.874482 0.249201
vt 0.351610 0.638339
vt 0.351266 0.172621
vt 0.748283 0.766068
vt 0.748283 0.849264
vt 0.336708 0.651594
vt 0.257866 0.656742
vt 0.766322 0.766068
vt 0.766322 0.849264
vt 0.173598 0.175172
vt 0.239785 0.646089
vt 0.325375 0.095678
vt 0.691970 0.184347
vt 0.750799 0.125518
vt 0.790142 0.308030
vt 0.691970 0.209858
vt 0.259958 0.080024
vt 0.181992 0.164608
vn 1.0000 0.0000 0.0000
vn 0.0000 0.0000 1.0000
vn 0.0000 -1.0000 0.0000
vn -1.0000 0.0000 0.0000
vn 0.0000 0.0000 -1.0000
vn 0.0000 1.0000 0.0000
usemtl Material.007
s off
f 5/1/1 6/2/1 4/3/1 3/4/1
f 3/5/2 4/6/2 2/7/2 1/8/2
f 7/9/3 5/10/3 3/11/3 1/12/3
f 1/13/4 2/14/4 8/15/4 7/16/4
f 11/17/3 12/18/3 28/19/3 27/20/3
f 6/21/5 5/22/5 23/23/5 22/24/5
f 5/10/3 7/9/3 24/25/3 23/26/3
f 7/16/2 8/15/2 21/27/2 24/28/2
f 16/29/1 15/30/1 14/31/1 13/32/1
f 20/33/4 17/34/4 18/35/4 19/36/4
f 16/37/2 13/38/2 17/39/2 20/40/2
f 14/41/5 15/42/5 19/43/5 18/44/5
f 15/45/3 16/46/3 20/47/3 19/48/3
f 10/49/4 9/50/4 21/51/4 22/52/4
f 11/53/4 10/49/4 22/52/4 23/54/4
f 12/55/4 11/53/4 23/54/4 24/56/4
f 9/50/4 12/55/4 24/56/4 21/51/4
f 28/19/4 25/57/4 26/58/4 27/20/4
f 9/59/6 10/60/6 26/58/6 25/57/6
f 12/61/2 9/62/2 25/57/2 28/19/2
f 10/63/5 11/64/5 27/20/5 26/58/5
usemtl Material.009
f 17/39/3 13/38/3 37/65/3 39/66/3
f 44/67/6 41/68/6 29/69/6 36/70/6
f 41/68/6 44/67/6 43/71/6 42/72/6
f 45/73/6 46/74/6 48/75/6 47/76/6
f 13/32/3 14/31/3 38/77/3 37/78/3
f 8/15/3 2/14/3 33/79/3 34/80/3
f 22/52/3 21/51/3 35/81/3 30/82/3
f 33/83/2 32/84/2 42/72/2 43/71/2
f 37/78/1 38/77/1 46/74/1 45/73/1
f 30/82/4 35/81/4 36/85/4 29/86/4
f 4/3/3 6/2/3 31/87/3 32/88/3
f 35/89/2 34/80/2 44/67/2 36/70/2
f 40/90/4 39/91/4 47/76/4 48/75/4
f 38/92/5 40/93/5 48/75/5 46/74/5
f 39/66/2 37/65/2 45/73/2 47/76/2
f 34/80/4 33/79/4 43/71/4 44/67/4
f 41/68/1 42/72/1 32/88/1 31/87/1
f 14/41/3 18/44/3 40/93/3 38/92/3
f 18/35/3 17/34/3 39/91/3 40/90/3
f 21/27/3 8/15/3 34/80/3 35/89/3
f 2/7/3 4/6/3 32/84/3 33/83/3
f 6/21/3 22/24/3 30/94/3 31/95/3
f 29/69/5 41/68/5 31/95/5 30/94/5
