# Blender v2.80 (sub 75) OBJ File: 'untitled7.blend'
# www.blender.org
mtllib table.2.mtl
o Cube.383_Cube.387
v -2.173355 1.662477 11.597813
v -2.173355 1.738613 11.597813
v -2.173355 1.662477 10.957519
v -2.173355 1.738613 10.957519
v -1.854939 1.662477 11.597813
v -1.854939 1.738613 11.597813
v -1.854939 1.662477 10.957519
v -1.854939 1.738613 10.957519
v -1.896018 1.738613 11.074778
v -2.132276 1.738613 11.074778
v -2.132276 1.738613 11.480553
v -1.896018 1.738613 11.480553
v -2.132276 1.970155 11.074778
v -2.017919 1.970155 11.074778
v -2.017919 1.970155 11.480553
v -2.132276 1.970155 11.480553
v -2.067011 1.970155 11.216983
v -2.083181 1.970155 11.216983
v -2.083181 1.970155 11.338346
v -2.067011 1.970155 11.338346
v -2.083181 1.996374 11.216983
v -2.067011 1.996374 11.216983
v -2.067011 1.996374 11.338346
v -2.083181 1.996374 11.338346
v -2.090949 1.996851 11.132840
v -2.059245 1.996851 11.132840
v -2.059245 1.996851 11.422497
v -2.090949 1.996851 11.422497
v -2.090949 2.076757 11.132840
v -2.059245 2.076757 11.132840
v -2.059245 2.076757 11.422497
v -2.090949 2.076757 11.422497
vt 0.375000 0.000000
vt 0.625000 0.000000
vt 0.625000 0.250000
vt 0.375000 0.250000
vt 0.625000 0.500000
vt 0.375000 0.500000
vt 0.625000 0.750000
vt 0.375000 0.750000
vt 0.625000 1.000000
vt 0.375000 1.000000
vt 0.125000 0.500000
vt 0.125000 0.750000
vt 0.842747 0.516039
vt 0.842747 0.733961
vt 0.829993 0.718977
vt 0.829993 0.531023
vt 0.875000 0.500000
vt 0.657253 0.516039
vt 0.875000 0.750000
vt 0.657253 0.733961
vt 0.789823 0.705678
vt 0.710177 0.705678
vt 0.715915 0.694053
vt 0.784086 0.694053
vt 0.670007 0.531023
vt 0.670007 0.718977
vt 0.789823 0.544322
vt 0.710177 0.544323
vt 0.784085 0.555947
vt 0.780071 0.685920
vt 0.780071 0.564080
vt 0.715915 0.555947
vt 0.719929 0.564080
vt 0.775220 0.573908
vt 0.724781 0.573908
vt 0.719929 0.685920
vt 0.775220 0.676092
vt 0.724780 0.676092
vn -1.0000 0.0000 0.0000
vn 0.0000 0.0000 -1.0000
vn 1.0000 0.0000 0.0000
vn 0.0000 0.0000 1.0000
vn 0.0000 -1.0000 0.0000
vn 0.0000 1.0000 0.0000
vn 0.8849 0.4659 0.0000
vn -0.0614 -0.9981 0.0000
vn 0.0000 -1.0000 -0.0057
vn 0.0000 -1.0000 0.0057
vn 0.0614 -0.9981 0.0000
usemtl Material.007
s off
f 1/1/1 2/2/1 4/3/1 3/4/1
f 3/4/2 4/3/2 8/5/2 7/6/2
f 7/6/3 8/5/3 6/7/3 5/8/3
f 5/8/4 6/7/4 2/9/4 1/10/4
f 3/11/5 7/6/5 5/8/5 1/12/5
f 10/13/1 11/14/1 16/15/1 13/16/1
f 8/5/6 4/17/6 10/13/6 9/18/6
f 4/17/6 2/19/6 11/14/6 10/13/6
f 2/19/6 6/7/6 12/20/6 11/14/6
f 6/7/6 8/5/6 9/18/6 12/20/6
f 19/21/4 20/22/4 23/23/4 24/24/4
f 9/18/2 10/13/2 13/16/2 14/25/2
f 11/14/4 12/20/4 15/26/4 16/15/4
f 12/20/7 9/18/7 14/25/7 15/26/7
f 14/25/6 13/16/6 18/27/6 17/28/6
f 13/16/6 16/15/6 19/21/6 18/27/6
f 16/15/6 15/26/6 20/22/6 19/21/6
f 15/26/6 14/25/6 17/28/6 20/22/6
f 21/29/8 24/24/8 28/30/8 25/31/8
f 20/22/3 17/28/3 22/32/3 23/23/3
f 18/27/1 19/21/1 24/24/1 21/29/1
f 17/28/2 18/27/2 21/29/2 22/32/2
f 26/33/2 25/31/2 29/34/2 30/35/2
f 22/32/9 21/29/9 25/31/9 26/33/9
f 24/24/10 23/23/10 27/36/10 28/30/10
f 23/23/11 22/32/11 26/33/11 27/36/11
f 30/35/6 29/34/6 32/37/6 31/38/6
f 28/30/4 27/36/4 31/38/4 32/37/4
f 27/36/3 26/33/3 30/35/3 31/38/3
f 25/31/1 28/30/1 32/37/1 29/34/1
