# Blender v2.80 (sub 75) OBJ File: 'untitled7.blend'
# www.blender.org
mtllib table.3.mtl
o Cube.384_Cube.388
v -2.139252 1.648486 10.496549
v -2.139252 1.687594 10.496549
v -2.139252 1.648486 9.949460
v -2.139252 1.687594 9.949460
v -1.865712 1.648486 10.496549
v -1.865712 1.687594 10.496549
v -1.865712 1.648486 9.949460
v -1.865712 1.687594 9.949460
v -1.974817 1.687594 10.167593
v -2.030147 1.687594 10.167593
v -2.030147 1.687594 10.278415
v -1.974817 1.687594 10.278415
v -2.030147 1.716369 10.167593
v -1.974817 1.716369 10.167593
v -1.974817 1.716369 10.278415
v -2.030147 1.716369 10.278415
v -2.028980 1.728499 10.739468
v -1.928020 1.776786 10.639229
v -1.928020 1.776786 9.806783
v -2.028980 1.728499 9.706543
v -2.028980 2.226075 10.739468
v -1.928020 2.177788 10.639229
v -1.928020 2.177788 9.806783
v -2.028980 2.226075 9.706543
vt 0.069879 0.070389
vt 0.523871 0.070389
vt 0.523871 0.186439
vt 0.069879 0.186439
vt 0.523871 0.271484
vt 0.069879 0.271484
vt 0.523871 0.725477
vt 0.069879 0.725477
vt 0.523871 0.959341
vt 0.069879 0.959341
vt 0.012737 0.271484
vt 0.012737 0.725477
vt 0.816237 0.692754
vt 0.685498 0.692754
vt 0.699923 0.649884
vt 0.801812 0.649884
vt 0.977864 0.271484
vt 0.816237 0.304207
vt 0.685498 0.304207
vt 0.977864 0.725477
vt 0.801812 0.347077
vt 0.787077 0.606092
vt 0.787077 0.390869
vt 0.699923 0.347077
vt 0.714658 0.606092
vt 0.724197 0.577743
vt 0.777538 0.577743
vt 0.714658 0.390869
vt 0.724197 0.419218
vt 0.777538 0.419218
vn -1.0000 0.0000 0.0000
vn 0.0000 0.0000 -1.0000
vn 1.0000 0.0000 0.0000
vn 0.0000 0.0000 1.0000
vn 0.0000 -1.0000 0.0000
vn 0.0000 1.0000 0.0000
vn 0.9954 -0.0959 0.0000
vn -0.7046 0.0000 0.7096
vn -0.3244 0.9446 -0.0508
vn -0.3244 0.9446 0.0508
vn -0.7906 0.6124 0.0000
vn -0.4315 -0.9021 0.0000
vn -0.7046 0.0000 -0.7096
usemtl Material.010
s off
f 1/1/1 2/2/1 4/3/1 3/4/1
f 3/4/2 4/3/2 8/5/2 7/6/2
f 7/6/3 8/5/3 6/7/3 5/8/3
f 5/8/4 6/7/4 2/9/4 1/10/4
f 3/11/5 7/6/5 5/8/5 1/12/5
f 11/13/4 12/14/4 15/15/4 16/16/4
f 8/5/6 4/17/6 10/18/6 9/19/6
f 4/17/6 2/20/6 11/13/6 10/18/6
f 2/20/6 6/7/6 12/14/6 11/13/6
f 6/7/6 8/5/6 9/19/6 12/14/6
f 13/21/7 16/16/7 20/22/7 17/23/7
f 12/14/3 9/19/3 14/24/3 15/15/3
f 10/18/1 11/13/1 16/16/1 13/21/1
f 9/19/2 10/18/2 13/21/2 14/24/2
f 20/22/8 19/25/8 23/26/8 24/27/8
f 14/24/9 13/21/9 17/23/9 18/28/9
f 16/16/10 15/15/10 19/25/10 20/22/10
f 15/15/11 14/24/11 18/28/11 19/25/11
f 22/29/12 21/30/12 24/27/12 23/26/12
f 19/25/1 18/28/1 22/29/1 23/26/1
f 18/28/13 17/23/13 21/30/13 22/29/13
usemtl light.2
f 17/23/3 20/22/3 24/27/3 21/30/3
