# Blender v2.80 (sub 75) OBJ File: 'untitled7.blend'
# www.blender.org
mtllib wall.3.mtl
o Cube.006
v -4.010529 3.299937 -5.896312
v -4.010529 3.440495 -5.896312
v -4.010529 3.299937 -6.036871
v -4.010529 3.440495 -6.036871
v 9.116058 3.299937 -5.896312
v 9.116058 3.440495 -5.896312
v 9.116058 3.299937 -6.036871
v 9.116058 3.440495 -6.036871
v -4.010529 2.976652 -5.896312
v -4.010529 3.117211 -5.896312
v -4.010529 2.976652 -6.036871
v -4.010529 3.117211 -6.036871
v 8.814238 2.976652 -5.896312
v 8.814238 3.117211 -5.896312
v 8.814238 2.976652 -6.036871
v 8.814238 3.117211 -6.036871
v -4.010529 2.653367 -5.896312
v -4.010529 2.793926 -5.896312
v -4.010529 2.653367 -6.036871
v -4.010529 2.793926 -6.036871
v 8.489486 2.653367 -5.896312
v 8.489486 2.793926 -5.896312
v 8.489486 2.653367 -6.036871
v 8.489486 2.793926 -6.036871
v -4.010529 2.330082 -5.896312
v -4.010529 2.470641 -5.896312
v -4.010529 2.330082 -6.036871
v -4.010529 2.470641 -6.036871
v 9.116058 2.330082 -5.896312
v 9.116058 2.470641 -5.896312
v 9.116058 2.330082 -6.036871
v 9.116058 2.470641 -6.036871
v -4.010529 2.006797 -5.896312
v -4.010529 2.147356 -5.896312
v -4.010529 2.006797 -6.036871
v -4.010529 2.147356 -6.036871
v 9.228297 2.006797 -5.896312
v 9.228297 2.147356 -5.896312
v 9.228297 2.006797 -6.036871
v 9.228297 2.147356 -6.036871
v -4.010529 1.683512 -5.896312
v -4.010529 1.824071 -5.896312
v -4.010529 1.683512 -6.036871
v -4.010529 1.824071 -6.036871
v 9.116058 1.683512 -5.896312
v 9.116058 1.824071 -5.896312
v 9.116058 1.683512 -6.036871
v 9.116058 1.824071 -6.036871
v -4.010529 1.360227 -5.896312
v -4.010529 1.500786 -5.896312
v -4.010529 1.360227 -6.036871
v -4.010529 1.500786 -6.036871
v 8.780908 1.360227 -5.896312
v 8.780908 1.500786 -5.896312
v 8.780908 1.360227 -6.036871
v 8.780908 1.500786 -6.036871
v -4.010529 1.036942 -5.896312
v -4.010529 1.177501 -5.896312
v -4.010529 1.036942 -6.036871
v -4.010529 1.177501 -6.036871
v 8.910218 1.036942 -5.896312
v 8.910218 1.177501 -5.896312
v 8.910218 1.036942 -6.036871
v 8.910218 1.177501 -6.036871
v -4.010529 0.713657 -5.896312
v -4.010529 0.854216 -5.896312
v -4.010529 0.713657 -6.036871
v -4.010529 0.854216 -6.036871
v 7.566347 0.713657 -5.896312
v 7.566347 0.854216 -5.896312
v 7.566347 0.713657 -6.036871
v 7.566347 0.854216 -6.036871
vt 0.528856 0.321306
vt 0.618939 0.321306
vt 0.618939 0.411389
vt 0.528856 0.411389
vt 0.618939 0.501472
vt 0.528856 0.501472
vt 0.618939 0.591554
vt 0.528856 0.591554
vt 0.618939 0.681637
vt 0.528856 0.681637
vt 0.438773 0.501472
vt 0.438773 0.591554
vt 0.709021 0.501472
vt 0.709021 0.591554
vt 0.669045 0.038565
vt 0.759128 0.038565
vt 0.759128 0.128648
vt 0.669045 0.128648
vt 0.759128 0.218730
vt 0.669045 0.218730
vt 0.759128 0.308813
vt 0.669045 0.308813
vt 0.759128 0.398895
vt 0.669045 0.398895
vt 0.578963 0.218730
vt 0.578963 0.308813
vt 0.849210 0.218730
vt 0.849210 0.308813
vt 0.386402 0.038565
vt 0.476485 0.038565
vt 0.476485 0.128648
vt 0.386402 0.128648
vt 0.476485 0.218730
vt 0.386402 0.218730
vt 0.476485 0.308813
vt 0.386402 0.308813
vt 0.476485 0.398895
vt 0.386402 0.398895
vt 0.296320 0.218730
vt 0.296320 0.308813
vt 0.566567 0.218730
vt 0.566567 0.308813
vt 0.805732 0.324827
vt 0.895814 0.324827
vt 0.895814 0.414909
vt 0.805732 0.414909
vt 0.895814 0.504992
vt 0.805732 0.504992
vt 0.895814 0.595074
vt 0.805732 0.595074
vt 0.895814 0.685157
vt 0.805732 0.685157
vt 0.715649 0.504992
vt 0.715649 0.595074
vt 0.985897 0.504992
vt 0.985897 0.595074
vt 0.389257 0.602293
vt 0.479340 0.602293
vt 0.479340 0.692375
vt 0.389257 0.692375
vt 0.479340 0.782458
vt 0.389257 0.782458
vt 0.479340 0.872540
vt 0.389257 0.872540
vt 0.479340 0.962623
vt 0.389257 0.962623
vt 0.299175 0.782458
vt 0.299175 0.872540
vt 0.569422 0.782458
vt 0.569422 0.872540
vt 0.246917 0.322270
vt 0.337000 0.322270
vt 0.337000 0.412353
vt 0.246917 0.412353
vt 0.337000 0.502435
vt 0.246917 0.502435
vt 0.337000 0.592518
vt 0.246917 0.592518
vt 0.337000 0.682601
vt 0.246917 0.682601
vt 0.156834 0.502435
vt 0.156834 0.592518
vt 0.427082 0.502435
vt 0.427082 0.592518
vt 0.667438 0.602714
vt 0.757521 0.602714
vt 0.757521 0.692797
vt 0.667438 0.692797
vt 0.757521 0.782879
vt 0.667438 0.782879
vt 0.757521 0.872962
vt 0.667438 0.872962
vt 0.757521 0.963044
vt 0.667438 0.963044
vt 0.577356 0.782879
vt 0.577356 0.872962
vt 0.847603 0.782879
vt 0.847603 0.872962
vt 0.113032 0.601282
vt 0.203114 0.601282
vt 0.203114 0.691364
vt 0.113032 0.691364
vt 0.203114 0.781447
vt 0.113032 0.781447
vt 0.203114 0.871529
vt 0.113032 0.871529
vt 0.203114 0.961612
vt 0.113032 0.961612
vt 0.022949 0.781447
vt 0.022949 0.871529
vt 0.293197 0.781447
vt 0.293197 0.871529
vt 0.107092 0.039140
vt 0.197175 0.039140
vt 0.197175 0.129223
vt 0.107092 0.129223
vt 0.197175 0.219306
vt 0.107092 0.219306
vt 0.197175 0.309388
vt 0.107092 0.309388
vt 0.197175 0.399471
vt 0.107092 0.399471
vt 0.017009 0.219306
vt 0.017009 0.309388
vt 0.287257 0.219306
vt 0.287257 0.309388
vn -1.0000 0.0000 0.0000
vn 0.0000 0.0000 -1.0000
vn 1.0000 0.0000 0.0000
vn 0.0000 0.0000 1.0000
vn 0.0000 -1.0000 0.0000
vn 0.0000 1.0000 0.0000
usemtl Material.003
s off
f 1/1/1 2/2/1 4/3/1 3/4/1
f 3/4/2 4/3/2 8/5/2 7/6/2
f 7/6/3 8/5/3 6/7/3 5/8/3
f 5/8/4 6/7/4 2/9/4 1/10/4
f 3/11/5 7/6/5 5/8/5 1/12/5
f 8/5/6 4/13/6 2/14/6 6/7/6
f 9/15/1 10/16/1 12/17/1 11/18/1
f 11/18/2 12/17/2 16/19/2 15/20/2
f 15/20/3 16/19/3 14/21/3 13/22/3
f 13/22/4 14/21/4 10/23/4 9/24/4
f 11/25/5 15/20/5 13/22/5 9/26/5
f 16/19/6 12/27/6 10/28/6 14/21/6
f 17/29/1 18/30/1 20/31/1 19/32/1
f 19/32/2 20/31/2 24/33/2 23/34/2
f 23/34/3 24/33/3 22/35/3 21/36/3
f 21/36/4 22/35/4 18/37/4 17/38/4
f 19/39/5 23/34/5 21/36/5 17/40/5
f 24/33/6 20/41/6 18/42/6 22/35/6
f 25/43/1 26/44/1 28/45/1 27/46/1
f 27/46/2 28/45/2 32/47/2 31/48/2
f 31/48/3 32/47/3 30/49/3 29/50/3
f 29/50/4 30/49/4 26/51/4 25/52/4
f 27/53/5 31/48/5 29/50/5 25/54/5
f 32/47/6 28/55/6 26/56/6 30/49/6
f 33/57/1 34/58/1 36/59/1 35/60/1
f 35/60/2 36/59/2 40/61/2 39/62/2
f 39/62/3 40/61/3 38/63/3 37/64/3
f 37/64/4 38/63/4 34/65/4 33/66/4
f 35/67/5 39/62/5 37/64/5 33/68/5
f 40/61/6 36/69/6 34/70/6 38/63/6
f 41/71/1 42/72/1 44/73/1 43/74/1
f 43/74/2 44/73/2 48/75/2 47/76/2
f 47/76/3 48/75/3 46/77/3 45/78/3
f 45/78/4 46/77/4 42/79/4 41/80/4
f 43/81/5 47/76/5 45/78/5 41/82/5
f 48/75/6 44/83/6 42/84/6 46/77/6
f 49/85/1 50/86/1 52/87/1 51/88/1
f 51/88/2 52/87/2 56/89/2 55/90/2
f 55/90/3 56/89/3 54/91/3 53/92/3
f 53/92/4 54/91/4 50/93/4 49/94/4
f 51/95/5 55/90/5 53/92/5 49/96/5
f 56/89/6 52/97/6 50/98/6 54/91/6
f 57/99/1 58/100/1 60/101/1 59/102/1
f 59/102/2 60/101/2 64/103/2 63/104/2
f 63/104/3 64/103/3 62/105/3 61/106/3
f 61/106/4 62/105/4 58/107/4 57/108/4
f 59/109/5 63/104/5 61/106/5 57/110/5
f 64/103/6 60/111/6 58/112/6 62/105/6
f 65/113/1 66/114/1 68/115/1 67/116/1
f 67/116/2 68/115/2 72/117/2 71/118/2
f 71/118/3 72/117/3 70/119/3 69/120/3
f 69/120/4 70/119/4 66/121/4 65/122/4
f 67/123/5 71/118/5 69/120/5 65/124/5
f 72/117/6 68/125/6 66/126/6 70/119/6
