# Blender v2.80 (sub 75) OBJ File: 'untitled7.blend'
# www.blender.org
mtllib wall.2.mtl
o Cube.382_Cube.386
v -4.488917 0.905707 13.273909
v -4.488917 3.372401 13.273909
v -4.488917 0.905707 13.173037
v -4.488917 3.372401 13.173037
v -4.360845 0.905707 13.273909
v -4.360845 3.372401 13.273909
v -4.360845 0.905707 13.173037
v -4.360845 3.372401 13.173037
v -4.488917 1.367569 12.972067
v -4.488917 3.372401 12.972067
v -4.488917 1.367569 12.871195
v -4.488917 3.372401 12.871195
v -4.360845 1.367569 12.972067
v -4.360845 3.372401 12.972067
v -4.360845 1.367569 12.871195
v -4.360845 3.372401 12.871195
v -4.488917 1.499362 12.678366
v -4.488917 3.372401 12.678366
v -4.488917 1.499362 12.577494
v -4.488917 3.372401 12.577494
v -4.360845 1.499362 12.678366
v -4.360845 3.372401 12.678366
v -4.360845 1.499362 12.577494
v -4.360845 3.372401 12.577494
v -4.488917 1.233327 12.385355
v -4.488917 3.372401 12.385355
v -4.488917 1.233327 12.284483
v -4.488917 3.372401 12.284483
v -4.360845 1.233327 12.385355
v -4.360845 3.372401 12.385355
v -4.360845 1.233327 12.284483
v -4.360845 3.372401 12.284483
v -4.488917 1.767250 12.095654
v -4.488917 3.372401 12.095654
v -4.488917 1.767250 11.994782
v -4.488917 3.372401 11.994782
v -4.360845 1.767250 12.095654
v -4.360845 3.372401 12.095654
v -4.360845 1.767250 11.994782
v -4.360845 3.372401 11.994782
v -4.488917 1.548458 11.802644
v -4.488917 3.372401 11.802644
v -4.488917 1.548458 11.701772
v -4.488917 3.372401 11.701772
v -4.360845 1.548458 11.802644
v -4.360845 3.372401 11.802644
v -4.360845 1.548458 11.701772
v -4.360845 3.372401 11.701772
vt 0.382174 0.461538
vt 0.472862 0.461538
vt 0.472862 0.552225
vt 0.382174 0.552225
vt 0.472862 0.642913
vt 0.382174 0.642913
vt 0.472862 0.733601
vt 0.382174 0.733601
vt 0.472862 0.824288
vt 0.382174 0.824288
vt 0.291486 0.642913
vt 0.291486 0.733601
vt 0.563550 0.642913
vt 0.563550 0.733601
vt 0.661418 0.461906
vt 0.752106 0.461906
vt 0.752106 0.552594
vt 0.661418 0.552594
vt 0.752106 0.643281
vt 0.661418 0.643281
vt 0.752106 0.733969
vt 0.661418 0.733969
vt 0.752106 0.824657
vt 0.661418 0.824657
vt 0.570730 0.643281
vt 0.570730 0.733969
vt 0.842793 0.643281
vt 0.842793 0.733969
vt 0.103753 0.464432
vt 0.194441 0.464432
vt 0.194441 0.555120
vt 0.103753 0.555120
vt 0.194441 0.645807
vt 0.103753 0.645807
vt 0.194441 0.736495
vt 0.103753 0.736495
vt 0.194441 0.827183
vt 0.103753 0.827183
vt 0.013065 0.645807
vt 0.013065 0.736495
vt 0.285128 0.645807
vt 0.285128 0.736495
vt 0.795883 0.183296
vt 0.886571 0.183296
vt 0.886571 0.273984
vt 0.795883 0.273984
vt 0.886571 0.364671
vt 0.795883 0.364671
vt 0.886571 0.455359
vt 0.795883 0.455359
vt 0.886571 0.546047
vt 0.795883 0.546047
vt 0.705196 0.364671
vt 0.705196 0.455359
vt 0.977259 0.364671
vt 0.977259 0.455359
vt 0.237470 0.184204
vt 0.328158 0.184204
vt 0.328158 0.274892
vt 0.237470 0.274892
vt 0.328158 0.365580
vt 0.237470 0.365580
vt 0.328158 0.456267
vt 0.237470 0.456267
vt 0.328158 0.546955
vt 0.237470 0.546955
vt 0.146783 0.365580
vt 0.146783 0.456267
vt 0.418846 0.365580
vt 0.418846 0.456267
vt 0.518880 0.184515
vt 0.609568 0.184515
vt 0.609568 0.275203
vt 0.518880 0.275203
vt 0.609568 0.365890
vt 0.518880 0.365890
vt 0.609568 0.456578
vt 0.518880 0.456578
vt 0.609568 0.547266
vt 0.518880 0.547266
vt 0.428193 0.365890
vt 0.428193 0.456578
vt 0.700256 0.365890
vt 0.700256 0.456578
vn -1.0000 0.0000 0.0000
vn 0.0000 0.0000 -1.0000
vn 1.0000 0.0000 0.0000
vn 0.0000 0.0000 1.0000
vn 0.0000 -1.0000 0.0000
vn 0.0000 1.0000 0.0000
usemtl Material.003
s off
f 1/1/1 2/2/1 4/3/1 3/4/1
f 3/4/2 4/3/2 8/5/2 7/6/2
f 7/6/3 8/5/3 6/7/3 5/8/3
f 5/8/4 6/7/4 2/9/4 1/10/4
f 3/11/5 7/6/5 5/8/5 1/12/5
f 8/5/6 4/13/6 2/14/6 6/7/6
f 9/15/1 10/16/1 12/17/1 11/18/1
f 11/18/2 12/17/2 16/19/2 15/20/2
f 15/20/3 16/19/3 14/21/3 13/22/3
f 13/22/4 14/21/4 10/23/4 9/24/4
f 11/25/5 15/20/5 13/22/5 9/26/5
f 16/19/6 12/27/6 10/28/6 14/21/6
f 17/29/1 18/30/1 20/31/1 19/32/1
f 19/32/2 20/31/2 24/33/2 23/34/2
f 23/34/3 24/33/3 22/35/3 21/36/3
f 21/36/4 22/35/4 18/37/4 17/38/4
f 19/39/5 23/34/5 21/36/5 17/40/5
f 24/33/6 20/41/6 18/42/6 22/35/6
f 25/43/1 26/44/1 28/45/1 27/46/1
f 27/46/2 28/45/2 32/47/2 31/48/2
f 31/48/3 32/47/3 30/49/3 29/50/3
f 29/50/4 30/49/4 26/51/4 25/52/4
f 27/53/5 31/48/5 29/50/5 25/54/5
f 32/47/6 28/55/6 26/56/6 30/49/6
f 33/57/1 34/58/1 36/59/1 35/60/1
f 35/60/2 36/59/2 40/61/2 39/62/2
f 39/62/3 40/61/3 38/63/3 37/64/3
f 37/64/4 38/63/4 34/65/4 33/66/4
f 35/67/5 39/62/5 37/64/5 33/68/5
f 40/61/6 36/69/6 34/70/6 38/63/6
f 41/71/1 42/72/1 44/73/1 43/74/1
f 43/74/2 44/73/2 48/75/2 47/76/2
f 47/76/3 48/75/3 46/77/3 45/78/3
f 45/78/4 46/77/4 42/79/4 41/80/4
f 43/81/5 47/76/5 45/78/5 41/82/5
f 48/75/6 44/83/6 42/84/6 46/77/6
