# Blender v2.80 (sub 75) OBJ File: 'untitled3.blend'
# www.blender.org
mtllib book.mtl
o Cube.007
v 7.884963 3.203710 11.596416
v 7.884963 3.112076 11.596416
v 7.349124 3.203710 10.677676
v 7.349124 3.112076 10.677676
v 9.114740 3.203710 10.879170
v 9.114740 3.112076 10.879170
v 8.578902 3.203710 9.960431
v 8.578902 3.112076 9.960431
v 7.756931 3.292929 11.182468
v 7.756931 3.201295 11.182468
v 7.532560 3.292929 10.142824
v 7.532560 3.201295 10.142824
v 9.148548 3.292929 10.882137
v 9.148548 3.201295 10.882137
v 8.924176 3.292929 9.842492
v 8.924176 3.201295 9.842492
v 7.827295 3.381600 11.153150
v 7.827295 3.296941 11.153150
v 7.580629 3.381600 10.201982
v 7.580629 3.296941 10.201982
v 9.100478 3.381600 10.822978
v 9.100478 3.296941 10.822978
v 8.853813 3.381600 9.871811
v 8.853813 3.296941 9.871811
v 7.661358 3.434401 10.397409
v 7.661358 3.380417 10.397409
v 8.144819 3.434401 9.541939
v 8.144819 3.380417 9.541939
v 8.806444 3.434401 11.044544
v 8.806444 3.380417 11.044544
v 9.289907 3.434401 10.189076
v 9.289907 3.380417 10.189076
vt 0.750694 0.493011
vt 0.750694 0.612717
vt 0.870399 0.612717
vt 0.870399 0.493011
vt 0.750694 0.732422
vt 0.870399 0.732422
vt 0.750694 0.852127
vt 0.870399 0.852127
vt 0.750694 0.971832
vt 0.870399 0.971832
vt 0.630989 0.732422
vt 0.630989 0.852127
vt 0.990105 0.852127
vt 0.990105 0.732422
vt 0.546741 0.038526
vt 0.546741 0.148169
vt 0.656384 0.148169
vt 0.656384 0.038526
vt 0.546741 0.257812
vt 0.656384 0.257812
vt 0.546741 0.367456
vt 0.656384 0.367456
vt 0.546741 0.477099
vt 0.656384 0.477099
vt 0.437097 0.257812
vt 0.437097 0.367456
vt 0.766028 0.367456
vt 0.766028 0.257812
vt 0.194647 0.050072
vt 0.194647 0.156872
vt 0.301447 0.156872
vt 0.301447 0.050072
vt 0.194647 0.263672
vt 0.301447 0.263672
vt 0.194647 0.370472
vt 0.301447 0.370472
vt 0.194647 0.477272
vt 0.301447 0.477272
vt 0.087847 0.263672
vt 0.087847 0.370472
vt 0.408247 0.370472
vt 0.408247 0.263672
vt 0.185298 0.502910
vt 0.185298 0.616689
vt 0.299077 0.616689
vt 0.299077 0.502910
vt 0.185298 0.730469
vt 0.299077 0.730469
vt 0.185298 0.844248
vt 0.299077 0.844248
vt 0.185298 0.958027
vt 0.299077 0.958027
vt 0.071518 0.730469
vt 0.071518 0.844248
vt 0.412857 0.844248
vt 0.412857 0.730469
vn -0.8638 0.0000 0.5038
vn -0.5038 0.0000 -0.8638
vn 0.8638 0.0000 -0.5038
vn 0.5038 0.0000 0.8638
vn 0.0000 1.0000 0.0000
vn 0.0000 -1.0000 0.0000
vn -0.9775 0.0000 0.2110
vn -0.2110 0.0000 -0.9775
vn 0.9775 0.0000 -0.2110
vn 0.2110 0.0000 0.9775
vn -0.9680 0.0000 0.2510
vn -0.2510 0.0000 -0.9680
vn 0.9680 0.0000 -0.2510
vn 0.2510 0.0000 0.9680
vn -0.8706 0.0000 -0.4920
vn 0.4920 0.0000 -0.8706
vn 0.8706 0.0000 0.4920
vn -0.4920 0.0000 0.8706
usemtl book.1
s off
f 1/1/1 3/2/1 4/3/1 2/4/1
f 3/2/2 7/5/2 8/6/2 4/3/2
f 7/5/3 5/7/3 6/8/3 8/6/3
f 5/7/4 1/9/4 2/10/4 6/8/4
f 3/11/5 1/12/5 5/7/5 7/5/5
f 8/6/6 6/8/6 2/13/6 4/14/6
f 9/15/7 11/16/7 12/17/7 10/18/7
f 11/16/8 15/19/8 16/20/8 12/17/8
f 15/19/9 13/21/9 14/22/9 16/20/9
f 13/21/10 9/23/10 10/24/10 14/22/10
f 11/25/5 9/26/5 13/21/5 15/19/5
f 16/20/6 14/22/6 10/27/6 12/28/6
usemtl book.3
f 17/29/11 19/30/11 20/31/11 18/32/11
f 19/30/12 23/33/12 24/34/12 20/31/12
f 23/33/13 21/35/13 22/36/13 24/34/13
f 21/35/14 17/37/14 18/38/14 22/36/14
f 19/39/5 17/40/5 21/35/5 23/33/5
f 24/34/6 22/36/6 18/41/6 20/42/6
usemtl book.2
f 25/43/15 27/44/15 28/45/15 26/46/15
f 27/44/16 31/47/16 32/48/16 28/45/16
f 31/47/17 29/49/17 30/50/17 32/48/17
f 29/49/18 25/51/18 26/52/18 30/50/18
f 27/53/5 25/54/5 29/49/5 31/47/5
f 32/48/6 30/50/6 26/55/6 28/56/6
