# Blender v2.80 (sub 75) OBJ File: 'untitled3.blend'
# www.blender.org
mtllib cup1.mtl
o Cube.014
v 1.502425 2.671474 4.096391
v 1.090470 2.671474 3.684437
v 1.090470 2.638848 3.684437
v 1.502425 2.638848 4.096391
v 1.090471 2.671474 3.046485
v 1.502425 2.671474 2.634531
v 1.502425 2.638848 2.634531
v 1.090471 2.638848 3.046485
v 2.552332 2.671474 3.684438
v 2.140377 2.671474 4.096392
v 2.140377 2.638848 4.096392
v 2.552332 2.638848 3.684438
v 2.140377 2.671474 2.634530
v 2.552332 2.671474 3.046484
v 2.552332 2.638848 3.046484
v 2.140377 2.638848 2.634530
v 2.169655 2.548141 3.204994
v 1.981867 2.548141 3.017208
v 1.660935 2.548141 3.017208
v 1.473147 2.548141 3.204995
v 1.473147 2.548141 3.525927
v 1.660935 2.548141 3.713715
v 1.981867 2.548141 3.713715
v 2.169655 2.548141 3.525927
v 1.473147 2.580768 3.204995
v 1.660935 2.580768 3.017208
v 1.981867 2.580768 3.017208
v 2.169655 2.580768 3.204994
v 2.169655 2.580768 3.525927
v 1.981867 2.580768 3.713715
v 1.660935 2.580768 3.713715
v 1.473147 2.580768 3.525927
v 1.981867 2.532798 3.017208
v 2.169655 2.532798 3.204994
v 2.169655 2.532798 3.525927
v 1.660935 2.532798 3.017208
v 1.473147 2.532798 3.204995
v 1.473147 2.532798 3.525927
v 1.660935 2.532798 3.713715
v 1.981867 2.532798 3.713715
vt 0.375000 0.820450
vt 0.375000 0.929550
vt 0.625000 0.929550
vt 0.625000 0.820450
vt 0.375000 0.570450
vt 0.375000 0.679550
vt 0.625000 0.679550
vt 0.625000 0.570450
vt 0.777442 0.684557
vt 0.777442 0.684557
vt 0.722558 0.684556
vt 0.722558 0.684556
vt 0.375000 0.070450
vt 0.375000 0.179550
vt 0.625000 0.179550
vt 0.625000 0.070450
vt 0.375000 0.320450
vt 0.375000 0.429550
vt 0.625000 0.429550
vt 0.625000 0.320450
vt 0.375000 1.000000
vt 0.625000 1.000000
vt 0.190443 0.597558
vt 0.190443 0.652442
vt 0.222558 0.684556
vt 0.277442 0.684557
vt 0.309557 0.652442
vt 0.309557 0.597558
vt 0.277442 0.565443
vt 0.222558 0.565443
vt 0.690443 0.597558
vt 0.722558 0.565443
vt 0.695450 0.500000
vt 0.777442 0.565443
vt 0.804550 0.500000
vt 0.809557 0.597558
vt 0.875000 0.570450
vt 0.809557 0.652442
vt 0.875000 0.679550
vt 0.804550 0.750000
vt 0.695450 0.750000
vt 0.690443 0.652442
vt 0.125000 0.570450
vt 0.195450 0.500000
vt 0.304550 0.500000
vt 0.304550 0.750000
vt 0.195450 0.750000
vt 0.125000 0.679550
vt 0.690443 0.597558
vt 0.690443 0.652442
vt 0.809557 0.652442
vt 0.809557 0.597558
vt 0.777442 0.565443
vt 0.722558 0.565443
vn -0.0000 0.0000 1.0000
vn 1.0000 0.0000 0.0000
vn -1.0000 0.0000 -0.0000
vn -0.0000 0.0000 -1.0000
vn -0.7071 0.0000 0.7071
vn -0.7071 0.0000 -0.7071
vn 0.7071 0.0000 -0.7071
vn 0.7071 0.0000 0.7071
vn 0.0000 1.0000 -0.0000
vn 0.1631 -0.9730 -0.1631
vn 0.0000 -0.9730 -0.2306
vn -0.1631 -0.9730 -0.1631
vn -0.2306 -0.9730 -0.0000
vn -0.1631 -0.9730 0.1631
vn -0.0000 -0.9730 0.2306
vn 0.1631 -0.9730 0.1631
vn 0.2306 -0.9730 0.0000
vn 0.1631 0.9730 0.1631
vn 0.0000 0.9730 0.2306
vn -0.1631 0.9730 0.1631
vn -0.2306 0.9730 0.0000
vn -0.1631 0.9730 -0.1631
vn 0.0000 0.9730 -0.2306
vn 0.1631 0.9730 -0.1631
vn 0.2306 0.9730 0.0000
vn 0.0000 -1.0000 0.0000
usemtl wood.2
s off
f 10/1/1 1/2/1 4/3/1 11/4/1
f 14/5/2 9/6/2 12/7/2 15/8/2
f 22/9/1 39/10/1 40/11/1 23/12/1
f 2/13/3 5/14/3 8/15/3 3/16/3
f 6/17/4 13/18/4 16/19/4 7/20/4
f 1/2/5 2/21/5 3/22/5 4/3/5
f 7/20/6 8/15/6 5/14/6 6/17/6
f 15/8/7 16/19/7 13/18/7 14/5/7
f 11/4/8 12/7/8 9/6/8 10/1/8
f 25/23/9 32/24/9 31/25/9 30/26/9 29/27/9 28/28/9 27/29/9 26/30/9
f 15/8/10 17/31/10 18/32/10 16/33/10
f 16/33/11 18/32/11 19/34/11 7/35/11
f 7/35/12 19/34/12 20/36/12 8/37/12
f 8/37/13 20/36/13 21/38/13 3/39/13
f 3/39/14 21/38/14 22/9/14 4/40/14
f 4/40/15 22/9/15 23/12/15 11/41/15
f 11/41/16 23/12/16 24/42/16 12/7/16
f 12/7/17 24/42/17 17/31/17 15/8/17
f 5/43/18 25/23/18 26/30/18 6/44/18
f 6/44/19 26/30/19 27/29/19 13/45/19
f 13/45/20 27/29/20 28/28/20 14/5/20
f 14/5/21 28/28/21 29/27/21 9/6/21
f 9/6/22 29/27/22 30/26/22 10/46/22
f 10/46/23 30/26/23 31/25/23 1/47/23
f 1/47/24 31/25/24 32/24/24 2/48/24
f 2/48/25 32/24/25 25/23/25 5/43/25
f 34/49/26 35/50/26 40/11/26 39/10/26 38/51/26 37/52/26 36/53/26 33/54/26
f 20/36/3 37/52/3 38/51/3 21/38/3
f 18/32/4 33/54/4 36/53/4 19/34/4
f 17/31/7 34/49/7 33/54/7 18/32/7
f 23/12/8 40/11/8 35/50/8 24/42/8
f 21/38/5 38/51/5 39/10/5 22/9/5
f 19/34/6 36/53/6 37/52/6 20/36/6
f 24/42/2 35/50/2 34/49/2 17/31/2
