# Blender v2.80 (sub 75) OBJ File: 'untitled3.blend'
# www.blender.org
mtllib cup6.mtl
o Cube.028
v -1.658116 4.251736 -11.290294
v -2.047834 4.251736 -11.329651
v -1.890906 5.752869 -11.624265
v -1.752972 5.752869 -11.610334
v -2.300303 4.251736 -11.638842
v -2.260947 4.251736 -12.028559
v -1.966333 5.752869 -11.871630
v -1.980263 5.752869 -11.733696
v -1.309570 4.251736 -11.932481
v -1.348926 4.251736 -11.542763
v -1.643540 5.752869 -11.699691
v -1.629610 5.752869 -11.837626
v -1.951757 4.251736 -12.281027
v -1.562038 4.251736 -12.241671
v -1.718967 5.752869 -11.947058
v -1.856900 5.752869 -11.960987
v -1.667681 5.029076 -11.322565
v -2.032010 5.029076 -11.359358
v -2.231238 5.029076 -12.012734
v -2.268031 5.029076 -11.648405
v -1.577863 5.029076 -12.211963
v -1.942191 5.029076 -12.248755
v -1.378634 5.029076 -11.558586
v -1.341842 5.029076 -11.922916
v -1.684033 5.370212 -11.377736
v -2.212861 5.370212 -11.664758
v -1.925839 5.370212 -12.193585
v -1.397012 5.370212 -11.906564
v -2.004957 5.370212 -11.410145
v -2.180451 5.370212 -11.985682
v -1.604915 5.370212 -12.161177
v -1.429421 5.370212 -11.585639
v -1.705845 5.642225 -11.451328
v -2.139270 5.642225 -11.686569
v -1.904028 5.642225 -12.119994
v -1.470603 5.642225 -11.884752
v -1.968873 5.642225 -11.477890
v -2.112707 5.642225 -11.949597
v -1.641000 5.642225 -12.093431
v -1.497166 5.642225 -11.621723
v -2.040018 4.220368 -11.344324
v -1.662841 4.220368 -11.306233
v -2.246273 4.220368 -12.020743
v -2.284364 4.220368 -11.643564
v -1.569855 4.220368 -12.226997
v -1.947033 4.220368 -12.265089
v -1.363600 4.220368 -11.550579
v -1.325509 4.220368 -11.927757
v -1.981755 5.614537 -11.485672
v -2.119448 5.615158 -11.953188
v -1.637408 5.615158 -12.100172
v -1.490425 5.615158 -11.618133
v -1.703674 5.615158 -11.444004
v -2.134220 5.614537 -11.672391
v -1.906199 5.615158 -12.127317
v -1.463280 5.615158 -11.886923
v -1.708477 5.610446 -11.459993
v -1.710656 5.637514 -11.467315
v -2.134655 5.617125 -11.672727
v -2.123282 5.637514 -11.691381
v -1.901395 5.610446 -12.111326
v -1.899217 5.637514 -12.104007
v -1.479270 5.610446 -11.882119
v -1.486590 5.637514 -11.879940
v -1.511869 5.637514 -11.629635
v -1.648911 5.637514 -12.078728
v -2.098004 5.637514 -11.941687
v -1.960962 5.637514 -11.492593
v -1.981513 5.617125 -11.485179
v -2.104742 5.610446 -11.945285
v -1.645313 5.610446 -12.085466
v -1.505131 5.610446 -11.626037
v -2.174069 4.251736 -11.484246
v -1.935584 5.752869 -11.678980
v -2.150021 5.029076 -11.503881
v -2.108909 5.370212 -11.537451
v -2.054072 5.642225 -11.582230
v -2.162192 4.220368 -11.493944
v -2.173604 5.691453 -11.484625
v -2.042122 5.637514 -11.591987
v -2.058144 5.616964 -11.578905
v -2.146592 5.615158 -11.684399
v -2.130603 5.610446 -11.689201
v -2.191905 5.702050 -11.469683
v -2.047582 5.610446 -11.587529
v -1.972464 5.615158 -11.471148
v -1.964561 5.610446 -11.485856
v -2.161603 5.605565 -11.494425
v -2.088666 5.558508 -11.553983
v -2.136724 5.556976 -11.613039
v -2.136999 5.558610 -11.613252
v -2.040410 5.556976 -11.495088
v -2.040257 5.558610 -11.494776
v -1.500241 4.563813 -11.935577
v -1.500241 4.717000 -11.935577
v -1.597129 4.563813 -12.054232
v -1.597129 4.717000 -12.054232
v -1.298530 4.563813 -12.100283
v -1.298530 4.717000 -12.100283
v -1.395417 4.563813 -12.218938
v -1.395417 4.717000 -12.218938
v -1.500241 5.388064 -11.935577
v -1.500241 5.541251 -11.935577
v -1.597129 5.388064 -12.054232
v -1.597129 5.541251 -12.054232
v -1.298530 5.388064 -12.100283
v -1.298530 5.541251 -12.100283
v -1.395417 5.388064 -12.218938
v -1.395417 5.541251 -12.218938
v -1.296488 4.499572 -12.067622
v -1.296488 5.581758 -12.067622
v -1.427010 4.499572 -12.227468
v -1.427010 5.581758 -12.227468
v -1.214632 4.499572 -12.184344
v -1.220123 4.499572 -12.129978
v -1.220123 5.581758 -12.129978
v -1.214632 5.581758 -12.184344
v -1.350645 4.499572 -12.289825
v -1.296280 4.499572 -12.284334
v -1.296280 5.581758 -12.284334
v -1.350645 5.581758 -12.289825
vt 0.501910 0.791660
vt 0.533005 0.791660
vt 0.533005 0.897490
vt 0.501910 0.897490
vt 0.501910 0.538965
vt 0.533005 0.538965
vt 0.533005 0.644795
vt 0.501910 0.644795
vt 0.606437 0.465533
vt 0.712267 0.465533
vt 0.785699 0.538965
vt 0.785699 0.591880
vt 0.785699 0.644795
vt 0.712267 0.718227
vt 0.606437 0.718227
vt 0.501910 0.086491
vt 0.533005 0.086491
vt 0.533005 0.139406
vt 0.501910 0.139406
vt 0.501910 0.286270
vt 0.533005 0.286270
vt 0.533005 0.392100
vt 0.501910 0.392100
vt 0.533005 0.970922
vt 0.501910 0.970922
vt 0.280310 0.392100
vt 0.280310 0.538965
vt 0.280310 0.538965
vt 0.280310 0.392100
vt 0.501910 0.139406
vt 0.501910 0.086491
vt 0.978962 0.601438
vt 0.947223 0.601407
vt 0.978962 0.601407
vt 0.978962 0.601438
vt 0.501910 0.392100
vt 0.501910 0.286270
vt 0.947223 0.834921
vt 0.947223 0.794132
vt 0.978962 0.794132
vt 0.978962 0.834921
vt 0.501910 0.970922
vt 0.501910 0.897490
vt 0.027616 0.538965
vt 0.101048 0.465533
vt 0.206878 0.465533
vt 0.280310 0.644795
vt 0.206878 0.718227
vt 0.101048 0.718227
vt 0.027616 0.644795
vt 0.027616 0.591880
vt 0.280310 0.791660
vt 0.280310 0.897490
vt 0.280310 0.897490
vt 0.280310 0.791660
vt 0.280310 0.286270
vt 0.280310 0.286270
vt 0.280310 0.139406
vt 0.280310 0.139406
vt 0.280310 0.970922
vt 0.280310 0.970922
vt 0.280310 0.644795
vt 0.280310 0.086491
vt 0.280310 0.086491
vt 0.095188 0.314416
vt 0.154382 0.211050
vt 0.257000 0.219468
vt 0.947223 0.932315
vt 0.947223 0.891526
vt 0.978962 0.891526
vt 0.978962 0.932315
vt 0.947223 0.696738
vt 0.947223 0.640134
vt 0.978962 0.640134
vt 0.978962 0.696738
vt 0.497705 0.897490
vt 0.497705 0.970922
vt 0.497705 0.286270
vt 0.497705 0.392100
vt 0.497705 0.086491
vt 0.497705 0.139406
vt 0.497705 0.538965
vt 0.501910 0.538965
vt 0.501910 0.644795
vt 0.497705 0.644795
vt 0.497705 0.791660
vt 0.501910 0.791660
vt 0.947223 0.737527
vt 0.978962 0.737527
vt 0.947223 0.960617
vt 0.978962 0.960617
vt 0.497705 0.033576
vt 0.501910 0.033576
vt 0.095188 0.126804
vt 0.280310 0.033576
vt 0.280310 0.033576
vt 0.947223 0.619739
vt 0.978962 0.619739
vt 0.501910 0.033576
vt 0.533005 0.033576
vt 0.978962 0.638039
vt 0.947223 0.638071
vt 0.158026 0.204685
vt 0.253919 0.212648
vt 0.978962 0.619739
vt 0.978962 0.599344
vt 0.978962 0.599344
vt 0.102629 0.126009
vt 0.173554 0.177571
vt 0.152887 0.121988
vt 0.153048 0.120986
vt 0.196470 0.137557
vt 0.231953 0.167267
vt 0.232737 0.166621
vt 0.978962 0.638071
vt 0.978962 0.638039
vt 0.853845 0.046989
vt 0.910850 0.046989
vt 0.910850 0.103995
vt 0.853845 0.103995
vt 0.910850 0.161001
vt 0.853845 0.161001
vt 0.910850 0.218006
vt 0.853845 0.218006
vt 0.910850 0.275012
vt 0.853845 0.275012
vt 0.796839 0.161001
vt 0.796839 0.218006
vt 0.967856 0.161001
vt 0.967856 0.218006
vt 0.668514 0.117387
vt 0.737217 0.117387
vt 0.737217 0.186090
vt 0.668514 0.186090
vt 0.737217 0.254793
vt 0.668514 0.254793
vt 0.737217 0.323497
vt 0.668514 0.323497
vt 0.737217 0.392200
vt 0.668514 0.392200
vt 0.599810 0.254793
vt 0.599810 0.323497
vt 0.805920 0.254793
vt 0.805920 0.323497
vt 0.118007 0.750422
vt 0.173760 0.750422
vt 0.173760 0.806175
vt 0.118007 0.806175
vt 0.118007 0.933380
vt 0.173760 0.933380
vt 0.173760 0.973436
vt 0.118007 0.973436
vt 0.173760 0.872367
vt 0.189458 0.861929
vt 0.229514 0.861929
vt 0.229514 0.917682
vt 0.189458 0.917682
vt 0.173760 0.907243
vt 0.118007 0.872367
vt 0.118007 0.907243
vt 0.173760 0.846231
vt 0.118007 0.846231
vt 0.062253 0.861929
vt 0.102309 0.861929
vt 0.102309 0.917682
vt 0.062253 0.917682
vt 0.406657 0.286270
vt 0.406657 0.139406
vt 0.406657 0.538965
vt 0.406657 0.392100
vt 0.406657 0.791660
vt 0.406657 0.644795
vt 0.459653 0.791660
vt 0.459652 0.644795
vt 0.459653 0.538965
vt 0.459653 0.392100
vt 0.459652 0.286270
vt 0.459653 0.139406
vt 0.406657 0.897490
vt 0.406657 0.970922
vt 0.406657 0.086491
vt 0.497705 0.286270
vt 0.497705 0.139406
vt 0.497705 0.538965
vt 0.497705 0.392100
vt 0.497705 0.791660
vt 0.497705 0.644795
vt 0.459653 0.897490
vt 0.459653 0.970922
vt 0.459653 0.086491
vt 0.497705 0.897490
vt 0.497705 0.970922
vt 0.406657 0.033576
vt 0.459653 0.033576
vt 0.497705 0.033576
vn 0.3707 0.8103 0.4540
vn 0.4540 0.8103 -0.3707
vn 0.0000 1.0000 0.0000
vn -0.4540 0.8103 0.3707
vn -0.3707 0.8103 -0.4540
vn -0.0588 0.8112 0.5819
vn 0.0902 -0.4403 -0.8933
vn 0.5819 0.8112 0.0588
vn 0.0588 0.8112 -0.5819
vn -0.5819 0.8112 -0.0588
vn -0.2262 -0.9564 0.1847
vn 0.0286 -0.1899 0.9814
vn -0.1847 -0.9564 -0.2262
vn -0.2263 0.9564 0.1848
vn -0.0294 -0.9564 0.2907
vn 0.0000 -1.0000 -0.0000
vn 0.5682 -0.4392 0.6959
vn -0.5682 -0.4392 -0.6959
vn -0.8933 -0.4403 -0.0902
vn -0.0902 -0.4403 0.8933
vn 0.6959 -0.4392 -0.5682
vn -0.6959 -0.4392 0.5682
vn 0.8933 -0.4403 0.0902
vn -0.9689 -0.2186 -0.1160
vn -0.1848 0.9564 -0.2263
vn -0.2907 -0.9564 -0.0294
vn 0.2906 0.9564 0.0294
vn -0.0972 0.2525 0.9627
vn -0.6121 0.2520 -0.7496
vn -0.7496 0.2520 0.6121
vn 0.7496 0.2520 -0.6121
vn 0.6121 0.2520 0.7496
vn 0.9627 0.2525 0.0972
vn 0.0972 0.2525 -0.9627
vn -0.9627 0.2525 -0.0972
vn 0.1848 0.9564 0.2263
vn 0.2262 -0.9564 -0.1847
vn 0.0293 0.9564 -0.2906
vn 0.1847 -0.9564 0.2262
vn -0.2906 0.9564 -0.0294
vn 0.2907 -0.9564 0.0294
vn -0.0293 0.9564 0.2906
vn 0.0294 -0.9564 -0.2907
vn -0.0801 -0.2186 0.9725
vn -0.6424 0.5590 0.5243
vn -0.4539 0.8103 0.3707
vn 0.0589 0.9728 -0.2241
vn 0.3013 0.9036 -0.3044
vn 0.3388 0.8996 -0.2757
vn 0.2313 0.9728 -0.0128
vn 0.3585 0.9036 -0.2344
vn 0.3379 0.8996 -0.2768
vn 0.3477 0.9004 -0.2614
vn 0.3257 0.9004 -0.2884
vn 0.9804 0.1191 0.1569
vn 0.0423 0.1191 -0.9920
vn -0.6421 0.5590 0.5246
vn -0.9558 -0.1899 -0.2246
vn -0.7746 0.0000 0.6325
vn -0.6325 0.0000 -0.7746
vn 0.7746 0.0000 -0.6325
vn 0.6325 0.0000 0.7746
vn 0.1005 0.0000 -0.9949
vn 0.9949 0.0000 0.1005
vn -0.9941 0.0400 -0.1004
vn 0.1004 0.0400 -0.9941
vn 0.9941 0.0400 0.1004
vn 0.9830 0.1542 0.0993
vn 0.0993 0.1542 -0.9830
vn -0.9830 0.1542 -0.0993
vn -0.1004 0.0400 0.9941
vn -0.6320 0.0399 -0.7740
vn -0.7740 0.0399 0.6320
vn 0.7740 0.0399 -0.6320
vn 0.6320 0.0399 0.7740
vn -0.9627 0.2526 -0.0972
vn 0.0972 0.2526 -0.9627
vn 0.9627 0.2526 0.0972
vn -0.0993 0.1542 0.9830
vn -0.6250 0.1537 -0.7654
vn -0.7654 0.1537 0.6250
vn 0.7654 0.1537 -0.6250
vn 0.6250 0.1537 0.7654
vn 0.6121 0.2519 0.7496
vn 0.7496 0.2519 -0.6121
vn -0.6121 0.2519 -0.7496
vn -0.0972 0.2526 0.9627
vn -0.7496 0.2519 0.6121
usemtl matel.3
s off
f 40/1/1 11/2/1 4/3/1 33/4/1
f 39/5/2 15/6/2 12/7/2 36/8/2
f 15/6/3 16/9/3 7/10/3 8/11/3 74/12/3 3/13/3 4/14/3 11/15/3 12/7/3
f 77/16/4 74/17/4 8/18/4 34/19/4
f 38/20/5 7/21/5 16/22/5 35/23/5
f 33/4/6 4/3/6 3/24/6 37/25/6
f 13/26/7 14/27/7 45/28/7 46/29/7
f 11/2/8 40/1/8 36/8/8 12/7/8
f 15/6/9 39/5/9 35/23/9 16/22/9
f 7/21/10 38/20/10 34/19/10 8/18/10
f 77/16/11 34/19/11 60/30/11 80/31/11
f 49/32/12 69/33/12 93/34/12 92/35/12
f 38/20/13 35/23/13 62/36/13 67/37/13
f 56/38/14 51/39/14 71/40/14 63/41/14
f 33/4/15 37/25/15 68/42/15 58/43/15
f 44/44/16 43/45/16 46/46/16 45/28/16 48/47/16 47/48/16 42/49/16 41/50/16 78/51/16
f 10/52/17 1/53/17 42/54/17 47/55/17
f 6/56/18 13/26/18 46/29/18 43/57/18
f 5/58/19 6/56/19 43/57/19 44/59/19
f 1/53/20 2/60/20 41/61/20 42/54/20
f 14/27/21 9/62/21 48/47/21 45/28/21
f 73/63/22 5/58/22 44/59/22 78/64/22
f 9/62/23 10/52/23 47/55/23 48/47/23
f 76/65/24 84/66/24 82/67/24
f 53/68/25 52/69/25 72/70/25 57/71/25
f 34/19/26 38/20/26 67/37/26 60/30/26
f 50/72/27 82/73/27 83/74/27 70/75/27
f 57/76/28 58/43/28 68/42/28 87/77/28
f 70/78/29 67/37/29 62/36/29 61/79/29
f 85/80/30 80/31/30 60/30/30 83/81/30
f 71/82/31 66/83/31 64/84/31 63/85/31
f 72/86/32 65/87/32 58/43/32 57/76/32
f 65/87/33 72/86/33 63/85/33 64/84/33
f 66/83/34 71/82/34 61/79/34 62/36/34
f 67/37/35 70/78/35 83/81/35 60/30/35
f 55/88/36 50/72/36 70/75/36 61/89/36
f 39/5/37 36/8/37 64/84/37 66/83/37
f 86/90/38 53/68/38 57/71/38 87/91/38
f 40/1/39 33/4/39 58/43/39 65/87/39
f 52/69/40 56/38/40 63/41/40 72/70/40
f 36/8/41 40/1/41 65/87/41 64/84/41
f 51/39/42 55/88/42 61/89/42 71/40/42
f 35/23/43 39/5/43 66/83/43 62/36/43
f 87/92/30 68/93/30 80/31/30 85/80/30
f 86/94/44 84/66/44 76/65/44
f 2/95/22 73/63/22 78/64/22 41/96/22
f 69/33/45 81/97/45 89/98/45 93/34/45
f 37/99/11 77/16/11 80/31/11 68/93/11
f 37/99/46 3/100/46 74/17/46 77/16/46
f 54/101/47 59/102/47 83/74/47 82/73/47
f 79/103/48 54/104/48 82/67/48 84/66/48
f 59/102/49 81/97/49 85/105/49 83/74/49
f 69/33/50 49/32/50 86/106/50 87/107/50
f 49/108/51 79/103/51 84/66/51 86/94/51
f 81/97/52 69/33/52 87/107/52 85/105/52
f 88/109/53 92/110/53 93/111/53 89/112/53
f 90/113/54 88/109/54 89/112/54 91/114/54
f 54/104/55 79/103/55 88/109/55 90/113/55
f 79/103/56 49/108/56 92/110/56 88/109/56
f 81/97/57 59/102/57 91/115/57 89/98/57
f 59/102/58 54/101/58 90/116/58 91/115/58
f 94/117/59 95/118/59 97/119/59 96/120/59
f 96/120/60 97/119/60 101/121/60 100/122/60
f 100/122/61 101/121/61 99/123/61 98/124/61
f 98/124/62 99/123/62 95/125/62 94/126/62
f 96/127/16 100/122/16 98/124/16 94/128/16
f 101/121/3 97/129/3 95/130/3 99/123/3
f 102/131/59 103/132/59 105/133/59 104/134/59
f 104/134/60 105/133/60 109/135/60 108/136/60
f 108/136/61 109/135/61 107/137/61 106/138/61
f 106/138/62 107/137/62 103/139/62 102/140/62
f 104/141/16 108/136/16 106/138/16 102/142/16
f 109/135/3 105/143/3 103/144/3 107/137/3
f 110/145/59 111/146/59 113/147/59 112/148/59
f 115/149/62 116/150/62 111/151/62 110/152/62
f 120/153/3 121/154/3 113/155/3 111/156/3 116/157/3 117/158/3
f 119/159/61 120/153/61 117/158/61 114/160/61
f 112/148/60 113/147/60 121/161/60 118/162/60
f 120/153/63 119/159/63 118/162/63 121/161/63
f 116/150/64 115/149/64 114/160/64 117/158/64
f 112/163/16 118/164/16 119/159/16 114/160/16 115/165/16 110/166/16
usemtl matel.4
f 19/167/65 6/56/65 5/58/65 20/168/65
f 21/169/66 14/27/66 13/26/66 22/170/66
f 23/171/67 10/52/67 9/62/67 24/172/67
f 32/173/68 23/171/68 24/172/68 28/174/68
f 31/175/69 21/169/69 22/170/69 27/176/69
f 30/177/70 19/167/70 20/168/70 26/178/70
f 1/53/71 17/179/71 18/180/71 2/60/71
f 6/56/72 19/167/72 22/170/72 13/26/72
f 73/63/73 75/181/73 20/168/73 5/58/73
f 14/27/74 21/169/74 24/172/74 9/62/74
f 10/52/75 23/171/75 17/179/75 1/53/75
f 50/182/76 30/177/76 26/178/76 82/183/76
f 51/184/77 31/175/77 27/176/77 55/185/77
f 52/186/78 32/173/78 28/174/78 56/187/78
f 17/179/79 25/188/79 29/189/79 18/180/79
f 19/167/80 30/177/80 27/176/80 22/170/80
f 75/181/81 76/190/81 26/178/81 20/168/81
f 21/169/82 31/175/82 28/174/82 24/172/82
f 23/171/83 32/173/83 25/188/83 17/179/83
f 32/173/84 52/186/84 53/191/84 25/188/84
f 31/175/85 51/184/85 56/187/85 28/174/85
f 30/177/86 50/182/86 55/185/86 27/176/86
f 25/188/87 53/191/87 86/192/87 29/189/87
f 18/193/81 29/194/81 76/190/81 75/181/81
f 2/95/73 18/193/73 75/181/73 73/63/73
f 26/178/88 76/190/88 82/183/88
f 29/194/88 86/195/88 76/190/88
