# Blender v2.80 (sub 75) OBJ File: 'untitled3.blend'
# www.blender.org
mtllib cupboard.6.mtl
o Cube.006
v 9.885618 0.756522 10.022826
v 9.885618 3.983705 10.022826
v 9.885617 0.756522 7.386396
v 9.885617 3.983705 7.386396
v 12.599782 0.756522 10.022825
v 12.599782 3.983705 10.022825
v 12.599782 0.756522 7.386399
v 12.599782 3.983705 7.386399
v 9.885618 2.370113 10.022826
v 9.885617 2.370113 7.386396
v 12.599782 2.370113 7.386399
v 12.599782 2.370113 10.022825
v 9.885618 2.428294 9.964644
v 9.885618 3.925523 9.964644
v 9.885619 3.925523 7.444579
v 9.885619 2.428294 7.444579
v 9.885618 0.814703 9.964644
v 9.885618 2.311932 9.964644
v 9.885619 2.311932 7.444579
v 9.885619 0.814703 7.444579
v 9.726141 2.428294 9.964644
v 9.726141 3.925523 9.964644
v 9.726142 2.428294 7.444579
v 9.726142 3.925523 7.444579
v 9.726141 0.814703 9.964644
v 9.726141 2.311932 9.964644
v 9.726142 0.814703 7.444579
v 9.726142 2.311932 7.444579
v 9.668981 2.559527 8.835988
v 9.668981 2.641493 8.835988
v 9.668981 2.559527 8.550309
v 9.668981 2.641493 8.550309
v 9.954658 2.559527 8.835986
v 9.954658 2.641493 8.835986
v 9.954658 2.559527 8.550308
v 9.954658 2.641493 8.550308
v 9.668981 2.121935 8.835988
v 9.668981 2.203900 8.835988
v 9.668981 2.121935 8.550309
v 9.668981 2.203900 8.550309
v 9.954658 2.121935 8.835986
v 9.954658 2.203900 8.835986
v 9.954658 2.121935 8.550308
v 9.954658 2.203900 8.550308
v 10.205312 2.246790 10.266158
v 10.205312 4.246790 10.266158
v 10.205312 2.246790 8.266158
v 10.205312 4.246790 8.266158
v 12.205312 2.246790 10.266158
v 12.205312 4.246790 10.266158
v 12.205312 2.246790 8.266160
v 12.205312 4.246790 8.266160
vt 0.269494 0.061342
vt 0.353686 0.061342
vt 0.353686 0.072106
vt 0.269494 0.072106
vt 0.369141 0.274554
vt 0.485770 0.274554
vt 0.485770 0.507812
vt 0.369141 0.507812
vt 0.485770 0.741071
vt 0.369141 0.741071
vt 0.485770 0.974330
vt 0.369141 0.974330
vt 0.019252 0.507812
vt 0.252511 0.507812
vt 0.252511 0.741071
vt 0.019252 0.741071
vt 0.719029 0.507812
vt 0.719029 0.741071
vt 0.252511 0.974330
vt 0.252511 0.274554
vt 0.362318 0.072106
vt 0.362318 0.245566
vt 0.353686 0.245566
vt 0.369141 0.041295
vt 0.485770 0.041295
vt 0.481565 0.046443
vt 0.373346 0.046443
vt 0.481565 0.269406
vt 0.373346 0.269406
vt 0.252511 0.041295
vt 0.364935 0.046443
vt 0.256717 0.046443
vt 0.364935 0.269406
vt 0.256717 0.269406
vt 0.384511 0.070566
vt 0.469910 0.070566
vt 0.469910 0.246514
vt 0.384511 0.246514
vt 0.269494 0.245566
vt 0.478666 0.070566
vt 0.478666 0.246514
vt 0.353686 0.256330
vt 0.269494 0.256330
vt 0.384511 0.059647
vt 0.469910 0.059647
vt 0.260862 0.245566
vt 0.260862 0.072106
vt 0.469910 0.257432
vt 0.384511 0.257432
vt 0.375755 0.246514
vt 0.375755 0.070566
vt 0.813419 0.764629
vt 0.870281 0.764629
vt 0.870281 0.821491
vt 0.813419 0.821491
vt 0.870281 0.878352
vt 0.813419 0.878352
vt 0.870281 0.935213
vt 0.813419 0.935213
vt 0.870281 0.992074
vt 0.813419 0.992074
vt 0.756558 0.878352
vt 0.756558 0.935213
vt 0.927142 0.878352
vt 0.927142 0.935213
vt 0.617358 0.770526
vt 0.670250 0.770526
vt 0.670250 0.823418
vt 0.617358 0.823418
vt 0.670250 0.876310
vt 0.617358 0.876310
vt 0.670250 0.929202
vt 0.617358 0.929202
vt 0.670250 0.982094
vt 0.617358 0.982094
vt 0.564466 0.876310
vt 0.564466 0.929202
vt 0.723142 0.876310
vt 0.723142 0.929202
vt 0.852613 0.480428
vt 0.743141 0.480428
vt 0.743141 0.370956
vt 0.852613 0.370956
vt 0.743141 0.261484
vt 0.852613 0.261484
vt 0.743141 0.152012
vt 0.852613 0.152012
vt 0.743141 0.042540
vt 0.852613 0.042540
vt 0.962085 0.261484
vt 0.962085 0.152012
vt 0.633669 0.261484
vt 0.633669 0.152012
vn 0.0000 0.0000 1.0000
vn 0.0000 0.0000 -1.0000
vn 1.0000 0.0000 0.0000
vn 0.0000 -1.0000 0.0000
vn 0.0000 1.0000 0.0000
vn -1.0000 0.0000 0.0000
usemtl wood.2
s off
f 17/1/1 18/2/1 26/3/1 25/4/1
f 10/5/2 4/6/2 8/7/2 11/8/2
f 11/8/3 8/7/3 6/9/3 12/10/3
f 12/10/1 6/9/1 2/11/1 9/12/1
f 3/13/4 7/14/4 5/15/4 1/16/4
f 8/7/5 4/17/5 2/18/5 6/9/5
f 5/15/1 12/10/1 9/12/1 1/19/1
f 7/14/3 11/8/3 12/10/3 5/15/3
f 3/20/2 10/5/2 11/8/2 7/14/2
f 18/21/5 19/22/5 28/23/5 26/3/5
f 9/24/6 2/25/6 14/26/6 13/27/6
f 2/25/6 4/6/6 15/28/6 14/26/6
f 4/6/6 10/5/6 16/29/6 15/28/6
f 10/5/6 9/24/6 13/27/6 16/29/6
f 1/30/6 9/24/6 18/31/6 17/32/6
f 9/24/6 10/5/6 19/33/6 18/31/6
f 10/5/6 3/20/6 20/34/6 19/33/6
f 3/20/6 1/30/6 17/32/6 20/34/6
f 21/35/6 22/36/6 24/37/6 23/38/6
f 25/4/6 26/3/6 28/23/6 27/39/6
f 14/40/5 15/41/5 24/37/5 22/36/5
f 19/42/2 20/43/2 27/39/2 28/23/2
f 13/44/1 14/45/1 22/36/1 21/35/1
f 20/46/4 17/47/4 25/4/4 27/39/4
f 15/48/2 16/49/2 23/38/2 24/37/2
f 16/50/4 13/51/4 21/35/4 23/38/4
f 29/52/6 30/53/6 32/54/6 31/55/6
f 31/55/2 32/54/2 36/56/2 35/57/2
f 35/57/3 36/56/3 34/58/3 33/59/3
f 33/59/1 34/58/1 30/60/1 29/61/1
f 31/62/4 35/57/4 33/59/4 29/63/4
f 36/56/5 32/64/5 30/65/5 34/58/5
f 37/66/6 38/67/6 40/68/6 39/69/6
f 39/69/2 40/68/2 44/70/2 43/71/2
f 43/71/3 44/70/3 42/72/3 41/73/3
f 41/73/1 42/72/1 38/74/1 37/75/1
f 39/76/4 43/71/4 41/73/4 37/77/4
f 44/70/5 40/78/5 38/79/5 42/72/5
f 45/80/6 46/81/6 48/82/6 47/83/6
f 47/83/2 48/82/2 52/84/2 51/85/2
f 51/85/3 52/84/3 50/86/3 49/87/3
f 49/87/1 50/86/1 46/88/1 45/89/1
f 47/90/4 51/85/4 49/87/4 45/91/4
f 52/84/5 48/92/5 46/93/5 50/86/5
