# Blender v2.80 (sub 75) OBJ File: 'untitled3.blend'
# www.blender.org
mtllib cupboard.5.mtl
o Cube.033
v -14.259407 10.290294 6.714355
v -14.259407 12.812449 6.714355
v -14.259405 10.290294 -6.147116
v -14.259405 12.812449 -6.147116
v -10.702158 10.290294 6.714353
v -10.702158 12.812449 6.714353
v -10.702158 10.290294 -6.147117
v -10.702158 12.812449 -6.147117
v -14.259408 10.290294 -1.859959
v -14.259406 10.290294 2.427196
v -14.259406 12.812449 2.427196
v -14.259408 12.812449 -1.859959
v -10.702160 10.290294 2.427198
v -10.702159 10.290294 -1.859960
v -10.702159 12.812449 -1.859960
v -10.702160 12.812449 2.427198
v -10.702159 10.481855 2.625876
v -10.702159 12.620888 2.625876
v -10.702160 12.620888 6.515675
v -10.702160 10.481855 6.515675
v -10.702159 10.481855 -5.948438
v -10.702159 12.620888 -5.948438
v -10.702160 12.620888 -2.058638
v -10.702160 10.481855 -2.058638
v -10.702158 10.481855 -1.661282
v -10.702158 12.620888 -1.661282
v -10.702158 12.620888 2.228517
v -10.702158 10.481855 2.228517
v -12.496984 12.620888 2.625875
v -12.496984 10.481855 2.625875
v -12.496984 10.481855 6.515673
v -12.496984 12.620888 6.515673
v -12.496984 12.620888 -5.948438
v -12.496984 10.481855 -5.948438
v -12.496984 10.481855 -2.058639
v -12.496984 12.620888 -2.058639
v -12.496986 12.620888 -1.661281
v -12.496986 10.481855 -1.661281
v -12.496985 10.481855 2.228518
v -12.496985 12.620888 2.228518
vt 0.375000 0.166667
vt 0.625000 0.166667
vt 0.625000 0.250000
vt 0.375000 0.250000
vt 0.625000 0.500000
vt 0.375000 0.500000
vt 0.409211 0.736667
vt 0.409211 0.680000
vt 0.448818 0.692361
vt 0.448818 0.724306
vt 0.375000 0.750000
vt 0.625000 0.750000
vt 0.625000 1.000000
vt 0.375000 1.000000
vt 0.125000 0.666667
vt 0.375000 0.666667
vt 0.125000 0.750000
vt 0.625000 0.666667
vt 0.875000 0.666667
vt 0.875000 0.750000
vt 0.875000 0.500000
vt 0.875000 0.583333
vt 0.625000 0.583333
vt 0.125000 0.500000
vt 0.375000 0.583333
vt 0.125000 0.583333
vt 0.588355 0.597426
vt 0.588355 0.652574
vt 0.548830 0.640239
vt 0.548830 0.609761
vt 0.590123 0.569792
vt 0.409877 0.569792
vt 0.450244 0.557194
vt 0.549756 0.557194
vt 0.375000 0.000000
vt 0.625000 0.000000
vt 0.625000 0.083333
vt 0.375000 0.083333
vt 0.590789 0.680000
vt 0.590789 0.736667
vt 0.590123 0.513541
vt 0.409877 0.513541
vt 0.411645 0.597426
vt 0.411645 0.652574
vt 0.551182 0.692361
vt 0.551182 0.724306
vt 0.450244 0.526139
vt 0.549756 0.526139
vt 0.451170 0.609761
vt 0.451170 0.640239
vn -1.0000 0.0000 -0.0000
vn -0.0000 0.0000 -1.0000
vn 0.0000 1.0000 0.0000
vn 0.0000 0.0000 1.0000
vn 0.0000 -1.0000 0.0000
vn 1.0000 0.0000 -0.0000
usemtl wood.2
s off
f 9/1/1 12/2/1 4/3/1 3/4/1
f 3/4/2 4/3/2 8/5/2 7/6/2
f 20/7/3 17/8/3 30/9/3 31/10/3
f 5/11/4 6/12/4 2/13/4 1/14/4
f 10/15/5 13/16/5 5/11/5 1/17/5
f 16/18/3 11/19/3 2/20/3 6/12/3
f 8/5/3 4/21/3 12/22/3 15/23/3
f 15/23/3 12/22/3 11/19/3 16/18/3
f 3/24/5 7/6/5 14/25/5 9/26/5
f 9/26/5 14/25/5 13/16/5 10/15/5
f 26/27/5 27/28/5 40/29/5 37/30/5
f 23/31/2 24/32/2 35/33/2 36/34/2
f 1/35/1 2/36/1 11/37/1 10/38/1
f 10/38/1 11/37/1 12/2/1 9/1/1
f 13/16/6 16/18/6 18/39/6 17/8/6
f 16/18/6 6/12/6 19/40/6 18/39/6
f 6/12/6 5/11/6 20/7/6 19/40/6
f 5/11/6 13/16/6 17/8/6 20/7/6
f 7/6/6 8/5/6 22/41/6 21/42/6
f 8/5/6 15/23/6 23/31/6 22/41/6
f 15/23/6 14/25/6 24/32/6 23/31/6
f 14/25/6 7/6/6 21/42/6 24/32/6
f 14/25/6 15/23/6 26/27/6 25/43/6
f 15/23/6 16/18/6 27/28/6 26/27/6
f 16/18/6 13/16/6 28/44/6 27/28/6
f 13/16/6 14/25/6 25/43/6 28/44/6
f 30/9/6 29/45/6 32/46/6 31/10/6
f 34/47/6 33/48/6 36/34/6 35/33/6
f 38/49/6 37/30/6 40/29/6 39/50/6
f 21/42/4 22/41/4 33/48/4 34/47/4
f 27/28/2 28/44/2 39/50/2 40/29/2
f 18/39/5 19/40/5 32/46/5 29/45/5
f 24/32/3 21/42/3 34/47/3 35/33/3
f 25/43/4 26/27/4 37/30/4 38/49/4
f 19/40/2 20/7/2 31/10/2 32/46/2
f 22/41/5 23/31/5 36/34/5 33/48/5
f 28/44/3 25/43/3 38/49/3 39/50/3
f 17/8/4 18/39/4 29/45/4 30/9/4
