# Blender v2.80 (sub 75) OBJ File: 'untitled3.blend'
# www.blender.org
mtllib cupboard.4.mtl
o Cube.039
v -12.824910 0.824615 7.226373
v -12.824910 3.453964 7.226373
v -12.824911 0.824615 -6.340688
v -12.824911 3.453964 -6.340688
v -7.878068 0.824615 7.226373
v -7.878068 3.453964 7.226373
v -7.878069 0.824615 -6.340689
v -7.878069 3.453964 -6.340689
v -7.878069 0.937520 -6.188622
v -7.878069 3.341059 -6.188622
v -7.878070 3.341059 7.074307
v -7.878070 0.937520 7.074307
v -8.030529 3.341059 -6.188622
v -8.030529 0.937520 -6.188622
v -8.030529 0.937520 7.074307
v -8.030529 3.341059 7.074307
v -8.030530 0.937520 3.682219
v -8.030530 3.341059 3.682219
v -8.030529 0.937520 -2.872890
v -8.030529 3.341059 -2.872890
v -8.030531 0.937520 3.758576
v -8.030531 3.341059 3.758576
v -8.030529 0.937520 -2.798691
v -8.030530 3.341059 -2.797827
v -7.957154 0.937520 3.758575
v -7.957153 0.937520 3.682219
v -7.957153 3.341059 3.682219
v -7.957154 0.937520 -2.798692
v -7.957153 0.937520 -2.872891
v -7.957153 3.341059 -2.872891
v -7.957154 3.341059 3.758575
v -7.957153 3.341059 -2.797827
v -8.030530 1.843242 3.682219
v -8.030530 1.759896 3.682219
v -8.030529 1.843242 -2.798115
v -8.030529 1.759896 -2.798404
v -8.103079 1.843242 3.682219
v -8.103079 1.759896 3.682219
v -8.103079 1.843242 -2.798115
v -8.103079 1.759896 -2.798403
v -8.372639 1.929100 0.490861
v -8.372639 2.025550 0.490861
v -8.372640 1.929100 0.072320
v -8.372640 2.025550 0.072320
v -7.954097 1.929100 0.490862
v -7.954097 2.025550 0.490862
v -7.954097 1.929100 0.072320
v -7.954097 2.025550 0.072320
v -8.372639 1.584104 0.490861
v -8.372639 1.680554 0.490861
v -8.372640 1.584104 0.072320
v -8.372640 1.680554 0.072320
v -7.954097 1.584104 0.490862
v -7.954097 1.680554 0.490862
v -7.954097 1.584104 0.072320
v -7.954097 1.680554 0.072320
v -8.372638 1.862724 3.949320
v -8.372640 1.862724 4.045772
v -8.372638 2.281266 3.949320
v -8.372640 2.281266 4.045772
v -7.954096 1.862724 3.949320
v -7.954099 1.862724 4.045772
v -7.954096 2.281266 3.949320
v -7.954099 2.281266 4.045772
v -8.372639 1.862724 -3.155852
v -8.372639 1.862724 -3.059402
v -8.372639 2.281266 -3.155852
v -8.372639 2.281266 -3.059402
v -7.954098 1.862724 -3.155852
v -7.954098 1.862724 -3.059402
v -7.954098 2.281266 -3.155852
v -7.954098 2.281266 -3.059402
vt 0.765030 0.095549
vt 0.830805 0.095549
vt 0.830805 0.161324
vt 0.765030 0.161324
vt 0.830805 0.227099
vt 0.765030 0.227099
vt 0.830805 0.292874
vt 0.765030 0.292874
vt 0.699255 0.161324
vt 0.699255 0.227099
vt 0.896580 0.161324
vt 0.896580 0.227099
vt 0.540424 0.099089
vt 0.607491 0.099089
vt 0.607491 0.166155
vt 0.540424 0.166155
vt 0.607491 0.233222
vt 0.540424 0.233222
vt 0.607491 0.300289
vt 0.540424 0.300289
vt 0.473357 0.166155
vt 0.473357 0.233222
vt 0.674557 0.166155
vt 0.674557 0.233222
vt 0.308759 0.035340
vt 0.375086 0.035340
vt 0.375086 0.101668
vt 0.308759 0.101668
vt 0.375086 0.167995
vt 0.308759 0.167995
vt 0.375086 0.234323
vt 0.308759 0.234323
vt 0.375086 0.300650
vt 0.308759 0.300650
vt 0.242431 0.167995
vt 0.242431 0.234323
vt 0.441414 0.167995
vt 0.441414 0.234323
vt 0.094022 0.107195
vt 0.154914 0.107195
vt 0.154914 0.168087
vt 0.094022 0.168087
vt 0.154914 0.228980
vt 0.094022 0.228980
vt 0.154914 0.289872
vt 0.094022 0.289872
vt 0.033130 0.168087
vt 0.033130 0.228980
vt 0.215807 0.168087
vt 0.215807 0.228980
vt 0.296332 0.849224
vt 0.212902 0.849224
vt 0.212902 0.475599
vt 0.296331 0.475599
vt 0.212902 0.339368
vt 0.296331 0.339368
vt 0.880365 0.925428
vt 0.863391 0.919878
vt 0.863546 0.781281
vt 0.296332 0.985455
vt 0.212903 0.985455
vt 0.453294 0.475599
vt 0.453294 0.849224
vt 0.055940 0.475599
vt 0.055940 0.849224
vt 0.498199 0.361441
vt 0.900739 0.359107
vt 0.879093 0.366951
vt 0.518316 0.369529
vt 0.900739 0.933622
vt 0.492461 0.935652
vt 0.514374 0.927734
vt 0.531679 0.787318
vt 0.533368 0.918810
vt 0.860697 0.375740
vt 0.535068 0.374992
vt 0.534116 0.512298
vt 0.533944 0.520635
vt 0.531545 0.777136
vt 0.674778 0.519275
vt 0.863053 0.513222
vt 0.863689 0.772300
vt 0.671524 0.773223
vt 0.862857 0.502652
vt 0.848058 0.778833
vt 0.846099 0.774979
vt 0.628830 0.774566
vt 0.550109 0.778917
vt 0.549779 0.782901
vt 0.548857 0.514562
vt 0.843831 0.507304
vt 0.843516 0.511229
vt 0.550733 0.518227
vt 0.632196 0.519586
vt 0.647973 0.526975
vt 0.640025 0.765737
vt 0.663553 0.527563
vt 0.655675 0.766193
vt 0.765030 0.029774
vt 0.830805 0.029774
vt 0.540424 0.032022
vt 0.607491 0.032022
vt 0.094022 0.046303
vt 0.154914 0.046303
vn -0.0000 0.0000 -1.0000
vn 1.0000 0.0000 0.0000
vn -0.0000 0.0000 1.0000
vn 0.0000 -1.0000 0.0000
vn 0.0000 1.0000 0.0000
vn -1.0000 0.0000 -0.0000
vn 0.0011 -0.0004 1.0000
vn 0.0000 -0.0035 1.0000
usemtl matel.3
s off
f 43/1/1 44/2/1 48/3/1 47/4/1
f 47/4/2 48/3/2 46/5/2 45/6/2
f 45/6/3 46/5/3 42/7/3 41/8/3
f 43/9/4 47/4/4 45/6/4 41/10/4
f 48/3/5 44/11/5 42/12/5 46/5/5
f 51/13/1 52/14/1 56/15/1 55/16/1
f 55/16/2 56/15/2 54/17/2 53/18/2
f 53/18/3 54/17/3 50/19/3 49/20/3
f 51/21/4 55/16/4 53/18/4 49/22/4
f 56/15/5 52/23/5 50/24/5 54/17/5
f 57/25/6 58/26/6 60/27/6 59/28/6
f 59/28/5 60/27/5 64/29/5 63/30/5
f 63/30/2 64/29/2 62/31/2 61/32/2
f 61/32/4 62/31/4 58/33/4 57/34/4
f 59/35/1 63/30/1 61/32/1 57/36/1
f 64/29/3 60/37/3 58/38/3 62/31/3
f 67/39/5 68/40/5 72/41/5 71/42/5
f 71/42/2 72/41/2 70/43/2 69/44/2
f 69/44/4 70/43/4 66/45/4 65/46/4
f 67/47/1 71/42/1 69/44/1 65/48/1
f 72/41/3 68/49/3 66/50/3 70/43/3
usemtl wood.2
f 1/51/6 2/52/6 4/53/6 3/54/6
f 3/54/1 4/53/1 8/55/1 7/56/1
f 11/57/4 16/58/4 22/59/4
f 5/60/3 6/61/3 2/52/3 1/51/3
f 3/54/4 7/62/4 5/63/4 1/51/4
f 8/64/5 4/53/5 2/52/5 6/65/5
f 7/66/2 8/67/2 10/68/2 9/69/2
f 8/67/2 6/70/2 11/57/2 10/68/2
f 6/70/2 5/71/2 12/72/2 11/57/2
f 5/71/2 7/66/2 9/69/2 12/72/2
f 21/73/2 22/59/2 16/58/2 15/74/2
f 9/69/3 10/68/3 13/75/3 14/76/3
f 11/57/1 12/72/1 15/74/1 16/58/1
f 12/72/5 9/69/5 14/76/5 19/77/5 23/78/5 17/79/5 21/73/5 15/74/5
f 35/80/2 24/81/2 18/82/2 33/83/2
f 10/68/4 20/84/4 13/75/4
f 14/76/2 13/75/2 20/84/2 19/77/2
f 18/82/5 22/59/5 31/85/5 27/86/5
f 10/68/4 11/57/4 22/59/4 18/82/4
f 17/79/1 34/87/1 33/83/1 18/82/1 27/86/1 26/88/1
f 26/88/2 27/86/2 31/85/2 25/89/2
f 29/90/2 30/91/2 32/92/2 28/93/2
f 21/73/4 17/79/4 26/88/4 25/89/4
f 24/81/7 35/80/7 36/94/7 23/78/7 28/93/7 32/92/7
f 22/59/3 21/73/3 25/89/3 31/85/3
f 19/77/1 20/84/1 30/91/1 29/90/1
f 20/84/5 24/81/5 32/92/5 30/91/5
f 23/78/4 19/77/4 29/90/4 28/93/4
f 23/78/2 36/94/2 34/87/2 17/79/2
f 34/87/5 36/94/5 40/95/5 38/96/5
f 40/95/2 39/97/2 37/98/2 38/96/2
f 35/80/4 33/83/4 37/98/4 39/97/4
f 36/94/8 35/80/8 39/97/8 40/95/8
f 33/83/1 34/87/1 38/96/1 37/98/1
f 41/99/6 42/100/6 44/2/6 43/1/6
f 49/101/6 50/102/6 52/14/6 51/13/6
f 65/103/6 66/104/6 68/40/6 67/39/6
f 24/81/4 20/84/4 10/68/4 18/82/4
