# Blender v2.80 (sub 75) OBJ File: 'untitled3.blend'
# www.blender.org
mtllib cupboard.3.mtl
o Cube.036
v -12.888186 0.754633 13.595891
v -12.888186 13.941940 13.595891
v -12.888186 0.754633 7.379293
v -12.888186 13.941940 7.379293
v -9.158848 0.754633 13.595889
v -9.158848 13.941940 13.595889
v -9.158849 0.754633 7.379294
v -9.158849 13.941940 7.379294
v -12.888186 4.959873 13.595891
v -12.888186 4.959873 7.379293
v -9.158849 4.959873 7.379294
v -9.158848 4.959873 13.595889
v -12.888186 0.754633 10.439940
v -12.888186 0.754633 10.535245
v -12.888186 13.941940 10.535245
v -12.888186 13.941940 10.439940
v -9.158848 0.754633 10.535245
v -9.158849 0.754633 10.439941
v -9.158849 13.941940 10.439941
v -9.158848 13.941940 10.535245
v -9.158849 4.959873 10.439941
v -9.158848 4.959873 10.535245
v -12.888186 4.959873 10.535245
v -12.888186 4.959873 10.439940
v -9.158849 5.110353 10.685725
v -9.158849 13.791461 10.685725
v -9.158849 13.791461 13.445409
v -9.158849 5.110353 13.445409
v -9.158849 5.110353 7.529773
v -9.158849 13.791461 7.529773
v -9.158850 13.791461 10.289461
v -9.158850 5.110353 10.289461
v -9.289725 13.791461 10.685725
v -9.289725 5.110353 10.685725
v -9.289726 5.110353 13.445409
v -9.289726 13.791461 13.445409
v -9.289725 13.791461 7.529773
v -9.289725 5.110353 7.529773
v -9.289727 5.110353 10.289460
v -9.289727 13.791461 10.289460
v -9.225447 13.941940 10.439940
v -9.225448 13.941940 10.535245
v -9.225447 4.959873 10.439940
v -9.225448 4.959873 10.535245
v -8.935194 4.920269 7.408117
v -8.935194 0.794237 7.408117
v -8.935195 0.794237 10.411116
v -8.935194 4.918165 13.565534
v -8.935194 0.796341 13.565534
v -8.935196 4.918165 10.565601
v -8.935196 0.796341 10.565601
v -8.935195 4.920269 10.411116
v -9.241862 2.617806 10.854059
v -9.241862 3.066176 10.854059
v -9.241861 2.617806 10.713592
v -9.241861 3.066176 10.713592
v -8.793492 2.617806 10.854058
v -8.793492 3.066176 10.854058
v -8.793492 2.617806 10.713593
v -8.793492 3.066176 10.713593
v -9.241861 2.617806 10.279118
v -9.241861 3.066176 10.279118
v -9.241863 2.617806 10.138651
v -9.241863 3.066176 10.138651
v -8.793491 2.617806 10.279117
v -8.793491 3.066176 10.279117
v -8.793491 2.617806 10.138652
v -8.793491 3.066176 10.138652
v -9.559399 9.194675 10.140574
v -9.559399 9.643045 10.140574
v -9.559399 9.194675 10.000108
v -9.559399 9.643045 10.000108
v -9.111029 9.194675 10.140574
v -9.111029 9.643045 10.140574
v -9.111029 9.194675 10.000109
v -9.111029 9.643045 10.000109
v -9.559399 9.194675 10.996210
v -9.559399 9.643045 10.996210
v -9.559399 9.194675 10.855744
v -9.559399 9.643045 10.855744
v -9.111028 9.194675 10.996211
v -9.111028 9.643045 10.996211
v -9.111029 9.194675 10.855744
v -9.111029 9.643045 10.855744
vt 0.729442 0.355452
vt 0.779441 0.355452
vt 0.779441 0.405450
vt 0.729442 0.405450
vt 0.779441 0.455449
vt 0.729442 0.455449
vt 0.779441 0.505447
vt 0.729442 0.505447
vt 0.679444 0.405450
vt 0.679444 0.455449
vt 0.829440 0.405450
vt 0.829440 0.455449
vt 0.728047 0.102573
vt 0.779193 0.102573
vt 0.779193 0.153720
vt 0.728047 0.153720
vt 0.779193 0.204866
vt 0.728047 0.204866
vt 0.779193 0.256012
vt 0.728047 0.256012
vt 0.676901 0.153720
vt 0.676901 0.204866
vt 0.830339 0.153720
vt 0.830339 0.204866
vt 0.727314 0.580096
vt 0.779581 0.580096
vt 0.779581 0.632362
vt 0.727314 0.632362
vt 0.779581 0.684628
vt 0.727314 0.684628
vt 0.779581 0.736894
vt 0.727314 0.736894
vt 0.675048 0.632362
vt 0.675048 0.684628
vt 0.831847 0.632362
vt 0.831847 0.684628
vt 0.724893 0.769811
vt 0.778049 0.769811
vt 0.778049 0.822967
vt 0.724893 0.822967
vt 0.778049 0.876123
vt 0.724893 0.876123
vt 0.778049 0.929279
vt 0.724893 0.929279
vt 0.778049 0.982434
vt 0.724893 0.982434
vt 0.671737 0.876123
vt 0.671737 0.929279
vt 0.831204 0.876123
vt 0.831204 0.929279
vt 0.261850 0.263966
vt 0.517643 0.263966
vt 0.517643 0.389150
vt 0.261850 0.389150
vt 0.517643 0.501557
vt 0.261850 0.501557
vt 0.482295 0.606404
vt 0.297199 0.606404
vt 0.335178 0.589063
vt 0.444316 0.589063
vt 0.261850 0.877109
vt 0.517643 0.877109
vt 0.517643 0.980201
vt 0.261850 0.980201
vt 0.027356 0.751925
vt 0.142092 0.751925
vt 0.142092 0.877109
vt 0.027356 0.877109
vt 0.517643 0.751925
vt 0.630050 0.751925
vt 0.630050 0.877109
vt 0.142092 0.980201
vt 0.261850 0.626741
vt 0.142092 0.626741
vt 0.155687 0.612530
vt 0.248255 0.612530
vt 0.142092 0.389150
vt 0.142092 0.501557
vt 0.142092 0.263966
vt 0.142092 0.013599
vt 0.261850 0.013599
vt 0.261850 0.138783
vt 0.142092 0.138783
vt 0.155687 0.515768
vt 0.261850 0.751925
vt 0.630050 0.501557
vt 0.630050 0.626741
vt 0.517643 0.626741
vt 0.027356 0.501557
vt 0.027356 0.626741
vt 0.483353 0.771779
vt 0.483353 0.857255
vt 0.432929 0.834232
vt 0.432929 0.794801
vt 0.293327 0.642145
vt 0.293327 0.736520
vt 0.517643 0.013599
vt 0.517643 0.138783
vt 0.296140 0.771779
vt 0.296140 0.857255
vt 0.482295 0.521894
vt 0.297199 0.521894
vt 0.346564 0.794801
vt 0.335178 0.539234
vt 0.346564 0.834232
vt 0.444316 0.539234
vt 0.486167 0.642145
vt 0.486167 0.736520
vt 0.164050 0.774877
vt 0.239892 0.774877
vt 0.239892 0.854156
vt 0.164050 0.854156
vt 0.248255 0.515768
vt 0.729442 0.305453
vt 0.779441 0.305453
vt 0.728047 0.051427
vt 0.779193 0.051427
vt 0.727314 0.527829
vt 0.779581 0.527829
vn 0.0000 0.0000 -1.0000
vn 1.0000 0.0000 0.0000
vn 0.0000 0.0000 1.0000
vn 0.0000 -1.0000 0.0000
vn 0.0000 1.0000 0.0000
vn -1.0000 0.0000 0.0000
vn 0.1278 0.0000 0.9918
vn 0.1744 -0.9847 0.0000
vn 0.1744 0.9847 -0.0000
vn 0.1278 0.0000 -0.9918
vn 0.1833 0.9831 -0.0000
vn 0.1345 0.0000 -0.9909
vn 0.1833 -0.9831 -0.0000
vn 0.1345 0.0000 0.9909
usemtl matel.3
s off
f 55/1/1 56/2/1 60/3/1 59/4/1
f 59/4/2 60/3/2 58/5/2 57/6/2
f 57/6/3 58/5/3 54/7/3 53/8/3
f 55/9/4 59/4/4 57/6/4 53/10/4
f 60/3/5 56/11/5 54/12/5 58/5/5
f 63/13/1 64/14/1 68/15/1 67/16/1
f 67/16/2 68/15/2 66/17/2 65/18/2
f 65/18/3 66/17/3 62/19/3 61/20/3
f 63/21/4 67/16/4 65/18/4 61/22/4
f 68/15/5 64/23/5 62/24/5 66/17/5
f 71/25/1 72/26/1 76/27/1 75/28/1
f 75/28/2 76/27/2 74/29/2 73/30/2
f 73/30/3 74/29/3 70/31/3 69/32/3
f 71/33/4 75/28/4 73/30/4 69/34/4
f 76/27/5 72/35/5 70/36/5 74/29/5
f 77/37/6 78/38/6 80/39/6 79/40/6
f 79/40/1 80/39/1 84/41/1 83/42/1
f 83/42/2 84/41/2 82/43/2 81/44/2
f 81/44/3 82/43/3 78/45/3 77/46/3
f 79/47/4 83/42/4 81/44/4 77/48/4
f 84/41/5 80/49/5 78/50/5 82/43/5
usemtl wood.2
f 24/51/6 16/52/6 4/53/6 10/54/6
f 10/54/1 4/53/1 8/55/1 11/56/1
f 31/57/1 32/58/1 39/59/1 40/60/1
f 12/61/3 6/62/3 2/63/3 9/64/3
f 14/65/4 17/66/4 5/67/4 1/68/4
f 20/69/5 15/70/5 2/71/5 6/62/5
f 5/67/3 12/61/3 9/64/3 1/72/3
f 21/73/7 18/74/7 47/75/7 52/76/7
f 3/77/1 10/54/1 11/56/1 7/78/1
f 13/79/6 24/51/6 10/54/6 3/77/6
f 1/80/6 9/81/6 23/82/6 14/83/6
f 14/83/6 23/82/6 24/51/6 13/79/6
f 18/74/8 7/78/8 46/84/8 47/75/8
f 18/74/2 21/73/2 22/85/2 17/66/2
f 8/55/5 4/86/5 16/87/5 19/88/5
f 19/88/5 16/87/5 15/70/5 20/69/5
f 3/89/4 7/78/4 18/74/4 13/90/4
f 13/90/4 18/74/4 17/66/4 14/65/4
f 26/91/4 27/92/4 36/93/4 33/94/4
f 22/85/5 21/73/5 43/95/5 44/96/5
f 9/81/6 2/97/6 15/98/6 23/82/6
f 23/82/6 15/98/6 16/52/6 24/51/6
f 22/85/2 20/69/2 26/91/2 25/99/2
f 20/69/2 6/62/2 27/92/2 26/91/2
f 6/62/2 12/61/2 28/100/2 27/92/2
f 12/61/2 22/85/2 25/99/2 28/100/2
f 11/56/2 8/55/2 30/101/2 29/102/2
f 8/55/2 19/88/2 31/57/2 30/101/2
f 19/88/2 21/73/2 32/58/2 31/57/2
f 21/73/2 11/56/2 29/102/2 32/58/2
f 25/99/3 26/91/3 33/94/3 34/103/3
f 32/58/5 29/102/5 38/104/5 39/59/5
f 27/92/1 28/100/1 35/105/1 36/93/1
f 28/100/5 25/99/5 34/103/5 35/105/5
f 30/101/4 31/57/4 40/60/4 37/106/4
f 29/102/3 30/101/3 37/106/3 38/104/3
f 43/95/2 41/107/2 42/108/2 44/96/2
f 21/73/3 19/88/3 41/107/3 43/95/3
f 19/88/4 20/69/4 42/108/4 41/107/4
f 20/69/1 22/85/1 44/96/1 42/108/1
f 51/109/2 50/110/2 48/111/2 49/112/2
f 46/84/2 45/113/2 52/76/2 47/75/2
f 11/56/9 21/73/9 52/76/9 45/113/9
f 7/78/10 11/56/10 45/113/10 46/84/10
f 22/85/11 12/61/11 48/111/11 50/110/11
f 17/66/12 22/85/12 50/110/12 51/109/12
f 5/67/13 17/66/13 51/109/13 49/112/13
f 12/61/14 5/67/14 49/112/14 48/111/14
f 53/114/6 54/115/6 56/2/6 55/1/6
f 61/116/6 62/117/6 64/14/6 63/13/6
f 69/118/6 70/119/6 72/26/6 71/25/6
usemtl glass.1
f 34/103/2 33/94/2 36/93/2 35/105/2
f 38/104/2 37/106/2 40/60/2 39/59/2
