# Blender v2.80 (sub 75) OBJ File: 'untitled3.blend'
# www.blender.org
mtllib curtain.mtl
o Cube.023
v -5.687006 13.347403 -12.978735
v -5.687006 13.415328 -12.910810
v -5.687006 13.558778 -12.910810
v -5.687006 13.626703 -12.978735
v -5.687005 13.415328 -13.190111
v -5.687005 13.347403 -13.122185
v -5.687005 13.626703 -13.122185
v -5.687005 13.558778 -13.190111
v 6.922552 13.415328 -12.910809
v 6.922553 13.347403 -12.978735
v 6.922553 13.626703 -12.978735
v 6.922552 13.558778 -12.910809
v 6.922553 13.347403 -13.122186
v 6.922553 13.415328 -13.190111
v 6.922553 13.558778 -13.190111
v 6.922553 13.626703 -13.122186
v 6.398897 13.347403 -13.123069
v 6.398897 13.414444 -13.190111
v -5.163349 13.414444 -13.190111
v -5.163349 13.347403 -13.123069
v -5.163349 13.626703 -13.123069
v -5.163349 13.559662 -13.190111
v 6.398897 13.559662 -13.190111
v 6.398897 13.626703 -13.123069
v -5.163349 13.347403 -12.977851
v -5.163350 13.414444 -12.910810
v 6.398897 13.347403 -12.977852
v 6.398897 13.414444 -12.910810
v 6.398897 13.559662 -12.910810
v 6.398897 13.626703 -12.977852
v -5.163350 13.559662 -12.910810
v -5.163349 13.626703 -12.977851
v -5.687005 13.383173 -13.221718
v -5.687005 13.315796 -13.154340
v -5.687006 13.383173 -12.879204
v -5.687005 13.315796 -12.946581
v -5.687005 13.658310 -12.946581
v -5.687006 13.590933 -12.879204
v -5.687005 13.658310 -13.154340
v -5.687005 13.590933 -13.221718
v -5.163350 13.315796 -13.154512
v -5.163349 13.382999 -13.221717
v 6.398896 13.658310 -13.154512
v 6.398897 13.591104 -13.221718
v 6.922553 13.658310 -13.154340
v 6.922553 13.590933 -13.221717
v 6.922553 13.383173 -13.221717
v 6.922553 13.315796 -13.154340
v 6.922553 13.315796 -12.946580
v 6.922553 13.383173 -12.879203
v 6.922553 13.590933 -12.879203
v 6.922553 13.658310 -12.946580
v 6.398897 13.382999 -12.879203
v 6.398896 13.315796 -12.946407
v -5.163349 13.658310 -12.946408
v -5.163349 13.591104 -12.879204
v 6.398897 13.382999 -13.221718
v 6.398896 13.315796 -13.154512
v -5.163349 13.591104 -13.221717
v -5.163350 13.658310 -13.154512
v -5.163349 13.382999 -12.879204
v -5.163349 13.315796 -12.946408
v 6.398896 13.658310 -12.946407
v 6.398897 13.591104 -12.879203
v -5.120811 13.358796 -13.096393
v -5.120811 13.620323 -13.096393
v -5.120811 13.358796 -13.357920
v -5.120811 13.620323 -13.357920
v -4.859284 13.358796 -13.096392
v -4.859284 13.620323 -13.096392
v -4.859284 13.358796 -13.357920
v -4.859284 13.620323 -13.357920
v 6.116220 13.358796 -13.096392
v 6.116220 13.620323 -13.096392
v 6.116221 13.358796 -13.357919
v 6.116221 13.620323 -13.357919
v 6.377748 13.358796 -13.096392
v 6.377748 13.620323 -13.096392
v 6.377748 13.358796 -13.357919
v 6.377748 13.620323 -13.357919
v -5.212684 4.785889 -13.009805
v -4.686626 4.785889 -12.653401
v -5.212684 13.293867 -13.009805
v -4.686626 13.293867 -12.653401
v -4.487281 4.785889 -12.907113
v -4.487282 13.293867 -12.907112
v -4.420833 4.785889 -12.804420
v -4.420833 13.293867 -12.804420
v -4.372507 4.785889 -12.937317
v -4.372507 13.293867 -12.937316
v -4.167122 4.785889 -12.635279
v -4.167122 13.293867 -12.635279
v -4.034225 4.785889 -12.592994
v -4.034225 13.293867 -12.592994
v -3.889247 4.785889 -12.683604
v -3.889247 13.293867 -12.683604
v -3.816759 4.785889 -12.973560
v -3.816759 13.293867 -12.973560
v -3.732188 4.785889 -13.003764
v -3.732188 13.293867 -13.003764
v -3.665740 4.785889 -12.798379
v -3.665740 13.293867 -12.798379
v -3.810718 4.785889 -12.629238
v -3.810718 13.293867 -12.629238
v -3.683862 4.785889 -12.508423
v -3.683862 13.293867 -12.508423
v -3.490559 4.785889 -12.574871
v -3.490559 13.293867 -12.574871
v -3.448273 4.785889 -12.725890
v -3.448273 13.293867 -12.725890
v -3.526803 4.785889 -12.876908
v -3.526803 13.293867 -12.876908
v -3.387866 4.785889 -12.979601
v -3.387866 13.293867 -12.979601
v -3.224766 4.785889 -12.762135
v -3.224766 13.293867 -12.762135
v -3.037503 4.785889 -12.756094
v -3.037503 13.293867 -12.756094
v -2.910647 4.785889 -12.913154
v -2.910647 13.293867 -12.913154
v -2.995218 4.785889 -13.003764
v -2.995218 13.293867 -13.003764
v 3.944874 4.785889 -12.653402
v 3.944874 13.293867 -12.653402
v 4.265630 4.785889 -12.907112
v 4.265630 13.293867 -12.907112
v 4.372549 4.785889 -12.804420
v 4.372549 13.293867 -12.804420
v 4.450306 4.785889 -12.937317
v 4.450307 13.293867 -12.937316
v 4.780782 4.785889 -12.635280
v 4.780782 13.293867 -12.635280
v 4.994619 4.785889 -12.592995
v 4.994619 13.293867 -12.592995
v 5.227896 4.785889 -12.683605
v 5.227896 13.293867 -12.683605
v 5.344534 4.785889 -12.973560
v 5.344534 13.293867 -12.973560
v 5.480612 4.785889 -13.003763
v 5.480612 13.293867 -13.003763
v 5.587532 4.785889 -12.798378
v 5.587532 13.293867 -12.798378
v 5.354254 4.785889 -12.629238
v 5.354254 13.293867 -12.629238
v 5.558371 4.785889 -12.508423
v 5.558371 13.293867 -12.508423
v 5.869407 4.785889 -12.574871
v 5.869407 13.293867 -12.574871
v 5.937446 4.785889 -12.725890
v 5.937446 13.293867 -12.725890
v 5.811087 4.785889 -12.876908
v 5.811087 13.293867 -12.876908
v 6.034645 4.785889 -12.979602
v 6.034645 13.293867 -12.979602
v 6.297081 4.785889 -12.762135
v 6.297081 13.293867 -12.762135
v 6.598397 4.785889 -12.756094
v 6.598397 13.293867 -12.756094
v 6.802514 4.785889 -12.913153
v 6.802514 13.293867 -12.913153
v 6.666435 4.785889 -13.003765
v 6.666436 13.293867 -13.003764
vt 0.453891 0.034793
vt 0.346786 0.034793
vt 0.328550 0.024134
vt 0.472127 0.024134
vt 0.507367 0.670861
vt 0.507367 0.560920
vt 0.518690 0.544102
vt 0.518690 0.687679
vt 0.345368 0.722919
vt 0.455309 0.722919
vt 0.472127 0.734242
vt 0.328550 0.734242
vt 0.616083 0.554356
vt 0.660310 0.554356
vt 0.660310 0.677425
vt 0.616083 0.677425
vt 0.185981 0.677425
vt 0.185981 0.554356
vt 0.203086 0.543983
vt 0.203086 0.687798
vt 0.338804 0.875862
vt 0.461873 0.875862
vt 0.472246 0.892043
vt 0.328430 0.892043
vt 0.143140 0.554356
vt 0.143140 0.677425
vt 0.124185 0.687798
vt 0.124185 0.543983
vt 0.597590 0.687798
vt 0.597590 0.543983
vt 0.676491 0.543983
vt 0.676491 0.687798
vt 0.338804 0.397356
vt 0.461873 0.397356
vt 0.472246 0.418638
vt 0.328430 0.418638
vt 0.293310 0.560920
vt 0.345368 0.508862
vt 0.455309 0.508862
vt 0.293310 0.670861
vt 0.461873 0.853364
vt 0.338804 0.853364
vt 0.328430 0.813143
vt 0.472246 0.813143
vt 0.281987 0.544102
vt 0.281987 0.687679
vt 0.755392 0.544102
vt 0.755392 0.687679
vt 0.472127 0.497539
vt 0.328550 0.497539
vt 0.328550 0.260837
vt 0.472127 0.260837
vt 0.472246 0.322858
vt 0.328430 0.322858
vt 0.472127 0.970944
vt 0.328550 0.970944
vt 0.461873 0.339738
vt 0.338804 0.339738
vt 0.296071 0.085508
vt 0.504606 0.085508
vt 0.504606 0.192613
vt 0.461124 0.249187
vt 0.339552 0.249187
vt 0.296071 0.192613
vt 0.518690 0.070697
vt 0.518690 0.214274
vt 0.045285 0.544102
vt 0.045285 0.687679
vt 0.185981 0.497539
vt 0.203086 0.497539
vt 0.597590 0.497539
vt 0.616083 0.497539
vt 0.660310 0.497539
vt 0.676491 0.497539
vt 0.124185 0.497539
vt 0.143140 0.497539
vt 0.281987 0.214274
vt 0.143140 0.734242
vt 0.124185 0.734242
vt 0.185981 0.734242
vt 0.676491 0.734242
vt 0.660773 0.734242
vt 0.616083 0.734242
vt 0.045285 0.497539
vt 0.518690 0.497539
vt 0.281987 0.734242
vt 0.203086 0.734242
vt 0.755392 0.734242
vt 0.281987 0.497539
vt 0.755392 0.497539
vt 0.045285 0.734242
vt 0.597590 0.734242
vt 0.518690 0.734242
vt 0.518690 0.813143
vt 0.518690 0.853364
vt 0.281987 0.070697
vt 0.281987 0.853364
vt 0.281987 0.813143
vt 0.112154 0.101355
vt 0.191053 0.101355
vt 0.191053 0.180253
vt 0.112154 0.180253
vt 0.191053 0.259151
vt 0.112154 0.259151
vt 0.191053 0.338049
vt 0.112154 0.338049
vt 0.191053 0.416947
vt 0.112154 0.416947
vt 0.033256 0.259151
vt 0.033256 0.338049
vt 0.269951 0.259151
vt 0.269951 0.338049
vt 0.592699 0.882674
vt 0.592699 0.788710
vt 0.686663 0.788710
vt 0.686663 0.882674
vt 0.780627 0.788710
vt 0.780627 0.882674
vt 0.874591 0.788710
vt 0.874591 0.882674
vt 0.968555 0.788710
vt 0.968555 0.882674
vt 0.780627 0.976638
vt 0.874591 0.976638
vt 0.780627 0.694746
vt 0.874591 0.694746
vt 0.988681 0.018978
vt 0.988681 0.422332
vt 0.958557 0.422332
vt 0.958556 0.018978
vt 0.943260 0.422332
vt 0.943259 0.018978
vt 0.936220 0.422311
vt 0.936219 0.018957
vt 0.929179 0.422305
vt 0.929179 0.018951
vt 0.911863 0.422305
vt 0.911862 0.018951
vt 0.904823 0.422298
vt 0.904822 0.018943
vt 0.896717 0.422298
vt 0.896716 0.018944
vt 0.882548 0.422298
vt 0.882545 0.018944
vt 0.875508 0.422249
vt 0.875505 0.018895
vt 0.865274 0.422249
vt 0.865271 0.018895
vt 0.854713 0.422249
vt 0.854709 0.018895
vt 0.846407 0.422249
vt 0.846403 0.018895
vt 0.836717 0.422249
vt 0.836712 0.018896
vt 0.829282 0.422249
vt 0.829277 0.018896
vt 0.821212 0.422249
vt 0.821207 0.018896
vt 0.813021 0.422250
vt 0.813015 0.018896
vt 0.800134 0.422250
vt 0.800126 0.018896
vt 0.791251 0.422250
vt 0.791243 0.018896
vt 0.781680 0.422250
vt 0.781671 0.018896
vt 0.774640 0.422230
vt 0.774631 0.018876
vt 0.760124 0.015160
vt 0.760124 0.420824
vt 0.740624 0.420824
vt 0.740624 0.015160
vt 0.733543 0.420824
vt 0.733543 0.015160
vt 0.726202 0.420824
vt 0.726201 0.015160
vt 0.704855 0.420824
vt 0.704854 0.015160
vt 0.694462 0.420824
vt 0.694462 0.015160
vt 0.682529 0.420824
vt 0.682529 0.015160
vt 0.667627 0.420824
vt 0.667628 0.015160
vt 0.660547 0.420832
vt 0.660548 0.015167
vt 0.649506 0.420831
vt 0.649508 0.015167
vt 0.635767 0.420831
vt 0.635770 0.015167
vt 0.624458 0.420831
vt 0.624459 0.015167
vt 0.609293 0.420831
vt 0.609294 0.015167
vt 0.601395 0.420831
vt 0.601396 0.015167
vt 0.592006 0.420831
vt 0.592008 0.015167
vt 0.580276 0.420831
vt 0.580277 0.015167
vt 0.564025 0.420831
vt 0.564025 0.015167
vt 0.549655 0.420831
vt 0.549655 0.015167
vt 0.537376 0.420831
vt 0.537376 0.015167
vt 0.529580 0.420831
vt 0.529581 0.015167
vn -1.0000 0.0000 0.0000
vn 1.0000 0.0000 -0.0000
vn 0.0000 1.0000 0.0000
vn 0.0000 0.0000 1.0000
vn 0.0000 -1.0000 0.0000
vn 0.0000 0.0000 -1.0000
vn 0.0000 -0.7071 -0.7071
vn 0.0000 0.7071 -0.7071
vn 0.0000 -0.7071 0.7071
vn 0.0000 0.7071 0.7071
vn -0.0002 -0.7071 -0.7071
vn 0.0002 0.7071 -0.7071
vn 0.0002 -0.7071 0.7071
vn -0.0002 0.7071 0.7071
vn 0.0002 -0.7071 -0.7071
vn -0.0002 0.7071 -0.7071
vn -0.0002 -0.7071 0.7071
vn 0.0002 0.7071 0.7071
vn 0.5609 0.0000 -0.8279
vn -0.7863 -0.0000 -0.6178
vn 0.8396 0.0000 -0.5433
vn -0.9398 0.0000 -0.3417
vn 0.8269 0.0000 -0.5623
vn 0.3032 0.0000 -0.9529
vn -0.5300 0.0000 -0.8480
vn -0.9701 0.0000 -0.2425
vn -0.3363 0.0000 -0.9417
vn 0.9514 0.0000 -0.3078
vn 0.7593 0.0000 0.6508
vn 0.6897 0.0000 -0.7241
vn -0.3251 0.0000 -0.9457
vn -0.9630 0.0000 -0.2696
vn -0.8872 0.0000 0.4614
vn -0.5944 0.0000 -0.8042
vn 0.8000 0.0000 -0.6000
vn 0.0322 0.0000 -0.9995
vn -0.7779 0.0000 -0.6283
vn -0.7311 0.0000 0.6823
vn 0.6204 0.0000 0.7843
vn -0.6927 0.0000 0.7212
vn 0.8631 -0.0000 0.5050
vn -0.6746 -0.0000 0.7382
vn -0.1940 0.0000 0.9810
vn 0.3621 0.0000 0.9322
vn 0.9278 0.0000 0.3732
vn 0.2167 0.0000 0.9762
vn -0.8870 0.0000 0.4618
vn -0.5870 0.0000 -0.8096
vn -0.5094 0.0000 0.8606
vn 0.2089 0.0000 0.9779
vn 0.9117 -0.0000 0.4108
vn 0.7669 0.0000 -0.6417
vn 0.4174 0.0000 0.9087
vn -0.6381 0.0000 0.7700
vn -0.0200 0.0000 0.9998
vn 0.6098 0.0000 0.7925
vn 0.5542 0.0000 -0.8324
usemtl wood
s off
f 3/1/1 2/2/1 35/3/1 38/4/1
f 11/5/2 16/6/2 45/7/2 52/8/2
f 9/9/2 12/10/2 51/11/2 50/12/2
f 24/13/3 21/14/3 32/15/3 30/16/3
f 27/17/1 17/18/1 58/19/1 54/20/1
f 26/21/2 31/22/2 56/23/2 61/24/2
f 20/25/2 25/26/2 62/27/2 41/28/2
f 24/13/1 30/16/1 63/29/1 43/30/1
f 32/15/2 21/14/2 60/31/2 55/32/2
f 18/33/1 23/34/1 44/35/1 57/36/1
f 13/37/2 14/38/2 15/39/2 16/6/2 11/5/2 12/10/2 9/9/2 10/40/2
f 29/41/1 28/42/1 53/43/1 64/44/1
f 28/42/4 29/41/4 31/22/4 26/21/4
f 20/25/5 17/18/5 27/17/5 25/26/5
f 58/19/5 48/45/5 49/46/5 54/20/5
f 60/31/3 39/47/3 37/48/3 55/32/3
f 50/12/4 51/11/4 64/44/4 53/43/4
f 45/7/3 43/30/3 63/29/3 52/8/3
f 57/36/6 44/35/6 46/49/6 47/50/6
f 33/51/6 40/52/6 59/53/6 42/54/6
f 61/24/4 56/23/4 38/55/4 35/56/4
f 22/57/2 19/58/2 42/54/2 59/53/2
f 1/59/1 2/2/1 3/1/1 4/60/1 7/61/1 8/62/1 5/63/1 6/64/1
f 15/39/2 14/38/2 47/50/2 46/49/2
f 19/58/6 22/57/6 23/34/6 18/33/6
f 7/61/1 4/60/1 37/65/1 39/66/1
f 13/37/2 10/40/2 49/46/2 48/45/2
f 34/67/5 41/28/5 62/27/5 36/68/5
f 5/63/1 8/62/1 40/52/1 33/51/1
f 58/19/1 17/18/1 18/69/1 57/70/1
f 24/13/1 43/30/1 44/71/1 23/72/1
f 60/31/2 21/14/2 22/73/2 59/74/2
f 20/25/2 41/28/2 42/75/2 19/76/2
f 34/77/1 6/64/1 5/63/1 33/51/1
f 17/18/7 20/25/7 19/76/7 18/69/7
f 7/61/1 39/66/1 40/52/1 8/62/1
f 21/14/8 24/13/8 23/72/8 22/73/8
f 62/27/2 25/26/2 26/78/2 61/79/2
f 25/26/9 27/17/9 28/80/9 26/78/9
f 32/15/2 55/32/2 56/81/2 31/82/2
f 30/16/10 32/15/10 31/82/10 29/83/10
f 41/28/11 34/67/11 33/84/11 42/75/11
f 43/30/12 45/7/12 46/85/12 44/71/12
f 54/20/13 49/46/13 50/86/13 53/87/13
f 55/32/14 37/48/14 38/88/14 56/81/14
f 48/45/15 58/19/15 57/70/15 47/89/15
f 39/47/16 60/31/16 59/74/16 40/90/16
f 36/68/17 62/27/17 61/79/17 35/91/17
f 52/8/18 63/29/18 64/92/18 51/93/18
f 29/41/1 64/44/1 63/94/1 30/95/1
f 13/37/2 48/45/2 47/50/2 14/38/2
f 45/7/2 16/6/2 15/39/2 46/49/2
f 9/9/2 50/12/2 49/46/2 10/40/2
f 35/3/1 2/2/1 1/59/1 36/96/1
f 51/11/2 12/10/2 11/5/2 52/8/2
f 53/43/1 28/42/1 27/97/1 54/98/1
f 37/65/1 4/60/1 3/1/1 38/4/1
f 1/59/1 6/64/1 34/77/1 36/96/1
f 65/99/1 66/100/1 68/101/1 67/102/1
f 67/102/6 68/101/6 72/103/6 71/104/6
f 71/104/2 72/103/2 70/105/2 69/106/2
f 69/106/4 70/105/4 66/107/4 65/108/4
f 67/109/5 71/104/5 69/106/5 65/110/5
f 72/103/3 68/111/3 66/112/3 70/105/3
f 73/113/1 74/114/1 76/115/1 75/116/1
f 75/116/6 76/115/6 80/117/6 79/118/6
f 79/118/2 80/117/2 78/119/2 77/120/2
f 77/120/4 78/119/4 74/121/4 73/122/4
f 75/123/5 79/118/5 77/120/5 73/124/5
f 80/117/3 76/125/3 74/126/3 78/119/3
usemtl floor.2
f 81/127/19 83/128/19 84/129/19 82/130/19
f 84/129/20 86/131/20 85/132/20 82/130/20
f 86/131/21 88/133/21 87/134/21 85/132/21
f 88/133/22 90/135/22 89/136/22 87/134/22
f 90/135/23 92/137/23 91/138/23 89/136/23
f 92/137/24 94/139/24 93/140/24 91/138/24
f 94/139/25 96/141/25 95/142/25 93/140/25
f 96/141/26 98/143/26 97/144/26 95/142/26
f 98/143/27 100/145/27 99/146/27 97/144/27
f 100/145/28 102/147/28 101/148/28 99/146/28
f 102/147/29 104/149/29 103/150/29 101/148/29
f 104/149/30 106/151/30 105/152/30 103/150/30
f 106/151/31 108/153/31 107/154/31 105/152/31
f 108/153/32 110/155/32 109/156/32 107/154/32
f 110/155/33 112/157/33 111/158/33 109/156/33
f 112/157/34 114/159/34 113/160/34 111/158/34
f 114/159/35 116/161/35 115/162/35 113/160/35
f 116/161/36 118/163/36 117/164/36 115/162/36
f 118/163/37 120/165/37 119/166/37 117/164/37
f 120/165/38 122/167/38 121/168/38 119/166/38
f 124/169/39 123/170/39 125/171/39 126/172/39
f 126/172/40 125/171/40 127/173/40 128/174/40
f 128/174/41 127/173/41 129/175/41 130/176/41
f 130/176/42 129/175/42 131/177/42 132/178/42
f 132/178/43 131/177/43 133/179/43 134/180/43
f 134/180/44 133/179/44 135/181/44 136/182/44
f 136/182/45 135/181/45 137/183/45 138/184/45
f 138/184/46 137/183/46 139/185/46 140/186/46
f 140/186/47 139/185/47 141/187/47 142/188/47
f 142/188/48 141/187/48 143/189/48 144/190/48
f 144/190/49 143/189/49 145/191/49 146/192/49
f 146/192/50 145/191/50 147/193/50 148/194/50
f 148/194/51 147/193/51 149/195/51 150/196/51
f 150/196/52 149/195/52 151/197/52 152/198/52
f 152/198/53 151/197/53 153/199/53 154/200/53
f 154/200/54 153/199/54 155/201/54 156/202/54
f 156/202/55 155/201/55 157/203/55 158/204/55
f 158/204/56 157/203/56 159/205/56 160/206/56
f 160/206/57 159/205/57 161/207/57 162/208/57
