# Blender v2.80 (sub 75) OBJ File: 'untitled3.blend'
# www.blender.org
mtllib door.mtl
o Cube.011
v -7.621544 -0.003535 25.510464
v -7.621544 10.104151 25.510464
v -7.621544 -0.003535 20.974464
v -7.621544 10.104151 20.974464
v -6.155589 0.272635 25.234293
v -6.155589 9.827981 25.234293
v -6.155586 0.272635 21.250637
v -6.155586 9.827981 21.250637
v -6.155589 10.104151 20.974466
v -6.155589 -0.003535 20.974466
v -6.155589 -0.003535 25.510462
v -6.155589 10.104151 25.510462
v -6.267336 9.827981 21.250637
v -6.267336 0.272635 21.250637
v -6.267336 0.272635 25.234291
v -6.267336 9.827981 25.234291
v -6.267336 6.735836 21.250637
v -6.267337 0.272635 23.242466
v -6.267337 9.827981 23.242466
v -6.267336 6.735836 25.234291
v -6.267337 6.735836 23.242466
v -6.185170 6.945340 23.451969
v -6.185170 9.618476 23.451969
v -6.185169 9.618476 25.024788
v -6.185169 6.945340 25.024788
v -6.185170 0.482140 23.451969
v -6.185170 6.526330 23.451969
v -6.185169 6.526330 25.024788
v -6.185169 0.482140 25.024788
v -6.185170 0.482140 21.460140
v -6.185170 6.526330 21.460140
v -6.185170 6.526330 23.032961
v -6.185170 0.482140 23.032961
v -6.185170 6.945340 21.460140
v -6.185170 9.618476 21.460140
v -6.185170 9.618476 23.032961
v -6.185170 6.945340 23.032961
v -6.217959 4.239390 21.818304
v -6.217959 4.375317 21.818304
v -6.217960 4.239390 21.682377
v -6.217960 4.375317 21.682377
v -5.950386 4.239390 21.818302
v -5.950386 4.375317 21.818302
v -5.950383 4.239390 21.682379
v -5.950383 4.375317 21.682379
v -6.007208 4.219844 22.310339
v -6.007208 4.394862 22.310339
v -6.007207 4.219844 21.584824
v -6.007207 4.394862 21.584824
v -5.824853 4.219844 22.310337
v -5.824853 4.394862 22.310337
v -5.824852 4.219844 21.584824
v -5.824852 4.394862 21.584824
vt 0.453386 0.140371
vt 0.423342 0.681727
vt 0.146439 0.708249
vt 0.176483 0.166894
vt 0.046689 0.820022
vt 0.046689 0.007465
vt 0.977909 0.020956
vt 0.979493 0.822247
vt 0.970156 0.812613
vt 0.971077 0.286009
vt 0.968381 0.030681
vt 0.553136 0.028599
vt 0.553136 0.841156
vt 0.626777 0.022437
vt 0.634192 0.822085
vt 0.612527 0.842589
vt 0.606161 0.000200
vt 0.999865 0.844359
vt 0.999865 0.000135
vt 0.822360 0.267947
vt 0.823958 0.050974
vt 0.950722 0.049499
vt 0.952421 0.267905
vt 0.643372 0.812613
vt 0.804955 0.814820
vt 0.803946 0.029142
vt 0.636432 0.032204
vt 0.636573 0.286991
vt 0.822831 0.796174
vt 0.822284 0.304905
vt 0.948911 0.306235
vt 0.951641 0.794745
vt 0.660720 0.794199
vt 0.655169 0.305114
vt 0.785718 0.305267
vt 0.785192 0.793187
vt 0.658489 0.266826
vt 0.655382 0.050078
vt 0.785765 0.048138
vt 0.785436 0.268213
vt 0.803946 0.286636
vt 0.170644 0.933510
vt 0.170644 0.886064
vt 0.218090 0.886064
vt 0.218090 0.933510
vt 0.265536 0.886064
vt 0.265536 0.933510
vt 0.312982 0.886064
vt 0.312982 0.933510
vt 0.360428 0.886064
vt 0.360428 0.933510
vt 0.265536 0.980956
vt 0.312982 0.980956
vt 0.265536 0.838618
vt 0.312982 0.838618
vt 0.391420 0.948532
vt 0.391420 0.903031
vt 0.436921 0.903031
vt 0.436921 0.948532
vt 0.482422 0.903031
vt 0.482422 0.948532
vt 0.527923 0.903031
vt 0.527923 0.948532
vt 0.573424 0.903031
vt 0.573424 0.948532
vt 0.482422 0.994033
vt 0.527923 0.994033
vt 0.482422 0.857530
vt 0.527923 0.857530
vn -1.0000 0.0000 0.0000
vn 0.0000 0.0000 -1.0000
vn 0.0000 0.0000 1.0000
vn 0.0000 -1.0000 -0.0000
vn 0.0000 1.0000 0.0000
vn 1.0000 0.0000 -0.0000
vn 0.9310 0.0000 -0.3651
vn 0.9310 0.3651 -0.0000
vn 0.9310 0.0000 0.3651
vn 0.9310 -0.3651 -0.0000
usemtl wood
s off
f 1/1/1 2/2/1 4/3/1 3/4/1
f 3/4/2 4/3/2 9/5/2 10/6/2
f 6/7/2 5/8/2 15/9/2 20/10/2 16/11/2
f 11/12/3 12/13/3 2/2/3 1/1/3
f 3/4/4 10/6/4 11/12/4 1/1/4
f 9/5/5 4/3/5 2/2/5 12/13/5
f 8/14/6 7/15/6 10/16/6 9/17/6
f 7/15/6 5/8/6 11/18/6 10/16/6
f 6/7/6 8/14/6 9/17/6 12/19/6
f 5/8/6 6/7/6 12/19/6 11/18/6
f 22/20/6 23/21/6 24/22/6 25/23/6
f 5/8/5 7/15/5 14/24/5 18/25/5 15/9/5
f 8/14/4 6/7/4 16/11/4 19/26/4 13/27/4
f 7/15/3 8/14/3 13/27/3 17/28/3 14/24/3
f 26/29/6 27/30/6 28/31/6 29/32/6
f 30/33/6 31/34/6 32/35/6 33/36/6
f 34/37/6 35/38/6 36/39/6 37/40/6
f 21/41/7 19/26/7 23/21/7 22/20/7
f 19/26/8 16/11/8 24/22/8 23/21/8
f 16/11/9 20/10/9 25/23/9 24/22/9
f 20/10/10 21/41/10 22/20/10 25/23/10
f 18/25/7 21/41/7 27/30/7 26/29/7
f 21/41/8 20/10/8 28/31/8 27/30/8
f 20/10/9 15/9/9 29/32/9 28/31/9
f 15/9/10 18/25/10 26/29/10 29/32/10
f 14/24/7 17/28/7 31/34/7 30/33/7
f 17/28/8 21/41/8 32/35/8 31/34/8
f 21/41/9 18/25/9 33/36/9 32/35/9
f 18/25/10 14/24/10 30/33/10 33/36/10
f 17/28/7 13/27/7 35/38/7 34/37/7
f 13/27/8 19/26/8 36/39/8 35/38/8
f 19/26/9 21/41/9 37/40/9 36/39/9
f 21/41/10 17/28/10 34/37/10 37/40/10
usemtl glass.2
f 38/42/1 39/43/1 41/44/1 40/45/1
f 40/45/2 41/44/2 45/46/2 44/47/2
f 44/47/6 45/46/6 43/48/6 42/49/6
f 42/49/3 43/48/3 39/50/3 38/51/3
f 40/52/4 44/47/4 42/49/4 38/53/4
f 45/46/5 41/54/5 39/55/5 43/48/5
f 46/56/1 47/57/1 49/58/1 48/59/1
f 48/59/2 49/58/2 53/60/2 52/61/2
f 52/61/6 53/60/6 51/62/6 50/63/6
f 50/63/3 51/62/3 47/64/3 46/65/3
f 48/66/4 52/61/4 50/63/4 46/67/4
f 53/60/5 49/68/5 47/69/5 51/62/5
