# Blender v2.80 (sub 75) OBJ File: 'untitled3.blend'
# www.blender.org
mtllib lamp.3.mtl
o Cube.030
v -6.235324 1.047017 -11.775842
v -6.171256 1.047017 -11.839910
v -6.171256 1.047017 -11.931245
v -6.235324 1.047017 -11.995312
v -6.326658 1.047017 -11.995313
v -6.390726 1.047017 -11.931245
v -6.390725 1.047017 -11.839910
v -6.326657 1.047017 -11.775842
v -6.697147 0.734188 -10.885577
v -7.280991 0.734188 -11.469420
v -7.280991 0.945748 -11.469420
v -6.697147 0.945748 -10.885577
v -7.280991 0.734188 -12.301735
v -6.697148 0.734188 -12.885578
v -6.697148 0.945748 -12.885578
v -7.280991 0.945748 -12.301735
v -5.280991 0.734188 -11.469420
v -5.864834 0.734188 -10.885578
v -5.864834 0.945748 -10.885578
v -5.280991 0.945748 -11.469420
v -5.864834 0.734188 -12.885578
v -5.280990 0.734188 -12.301736
v -5.280990 0.945748 -12.301736
v -5.864834 0.945748 -12.885578
v -6.171256 6.899012 -11.839910
v -6.171256 6.899012 -11.931245
v -6.235324 6.899012 -11.775842
v -6.326657 6.899012 -11.775842
v -6.390725 6.899012 -11.839910
v -6.390726 6.899012 -11.931245
v -6.326658 6.899012 -11.995313
v -6.235324 6.899012 -11.995312
v -5.854590 7.064981 -11.708128
v -5.854591 7.064981 -12.063025
v -6.103540 7.064981 -11.459178
v -6.458439 7.064981 -11.459180
v -6.707388 7.064981 -11.708130
v -6.707387 7.064981 -12.063025
v -6.458437 7.064981 -12.311975
v -6.103541 7.064981 -12.311975
v -5.364996 6.142490 -11.504381
v -5.364996 6.142490 -12.266776
v -5.899792 6.142490 -10.969584
v -6.662187 6.142490 -10.969586
v -7.196982 6.142490 -11.504381
v -7.196982 6.142490 -12.266776
v -6.662186 6.142490 -12.801573
v -5.899791 6.142490 -12.801572
v -5.364996 7.689647 -11.504381
v -5.364996 7.689647 -12.266776
v -5.899792 7.689647 -10.969584
v -6.662187 7.689647 -10.969586
v -7.196982 7.689647 -11.504381
v -7.196982 7.689647 -12.266776
v -6.662186 7.689647 -12.801573
v -5.899791 7.689647 -12.801572
v -5.446465 7.689647 -12.233031
v -5.933537 7.689647 -12.720102
v -6.628440 7.689647 -12.720103
v -7.115513 7.689647 -12.233032
v -7.115513 7.689647 -11.538128
v -6.628441 7.689647 -11.051055
v -5.933538 7.689647 -11.051056
v -5.446465 7.689647 -11.538129
v -5.933537 7.107681 -12.720102
v -5.446465 7.107681 -12.233031
v -5.446465 7.107681 -11.538129
v -6.628440 7.107681 -12.720103
v -7.115513 7.107681 -12.233032
v -7.115513 7.107681 -11.538128
v -6.628441 7.107681 -11.051055
v -5.933538 7.107681 -11.051056
vt 0.534302 0.959721
vt 0.534302 0.941204
vt 0.634806 0.941204
vt 0.634806 0.959721
vt 0.334116 0.959721
vt 0.334116 0.941204
vt 0.434621 0.941204
vt 0.434621 0.959721
vt 0.234434 0.856340
vt 0.133930 0.856340
vt 0.133930 0.344138
vt 0.234434 0.344138
vt 0.234434 0.941204
vt 0.133930 0.941204
vt 0.734488 0.959721
vt 0.734488 0.941204
vt 0.834992 0.941204
vt 0.834992 0.959721
vt 0.133930 0.959721
vt 0.234434 0.959721
vt 0.034248 0.959721
vt 0.034248 0.941204
vt 0.955803 0.347667
vt 0.989933 0.381797
vt 0.989933 0.430451
vt 0.955803 0.464581
vt 0.907148 0.464581
vt 0.873019 0.430451
vt 0.873019 0.381797
vt 0.907148 0.347667
vt 0.434621 0.856340
vt 0.534302 0.856340
vt 0.634806 0.856340
vt 0.334116 0.856340
vt 0.034248 0.856340
vt 0.734488 0.856340
vt 0.834992 0.856340
vt 0.334116 0.344138
vt 0.234434 0.310788
vt 0.334116 0.310788
vt 0.434621 0.344138
vt 0.534302 0.344138
vt 0.734488 0.344138
vt 0.834992 0.344138
vt 0.034248 0.344138
vt 0.634806 0.344138
vt 0.634806 0.310788
vt 0.534302 0.310788
vt 0.534302 0.217655
vt 0.634806 0.217655
vt 0.434621 0.310788
vt 0.734488 0.310788
vt 0.834992 0.310788
vt 0.133930 0.310788
vt 0.034248 0.310788
vt 0.234434 0.217655
vt 0.334116 0.217655
vt 0.434621 0.217655
vt 0.734488 0.217655
vt 0.834992 0.217655
vt 0.133930 0.217655
vt 0.034248 0.217655
vt 0.434621 0.074521
vt 0.334116 0.074521
vt 0.334116 0.023583
vt 0.434621 0.023583
vt 0.334116 0.082239
vt 0.234434 0.082239
vt 0.234434 0.074521
vt 0.133930 0.082239
vt 0.133930 0.074521
vt 0.034248 0.082239
vt 0.034248 0.074521
vt 0.834992 0.082239
vt 0.734488 0.082239
vt 0.734488 0.074521
vt 0.834992 0.074521
vt 0.634806 0.082239
vt 0.634806 0.074521
vt 0.534302 0.082239
vt 0.534302 0.074521
vt 0.434621 0.082239
vt 0.873410 0.612631
vt 0.906977 0.579064
vt 0.954868 0.579064
vt 0.988436 0.612632
vt 0.988436 0.660522
vt 0.954868 0.694090
vt 0.906977 0.694090
vt 0.873409 0.660522
vt 0.534302 0.023583
vt 0.634806 0.023583
vt 0.734488 0.023583
vt 0.834992 0.023583
vt 0.133930 0.023583
vt 0.234434 0.023583
vt 0.034248 0.023583
vn 0.0000 0.0000 1.0000
vn 1.0000 0.0000 0.0000
vn 0.0000 0.0000 -1.0000
vn 0.0000 0.9936 -0.1130
vn -1.0000 0.0000 0.0000
vn -0.7071 0.0000 0.7071
vn -0.7071 0.0000 -0.7071
vn 0.7071 0.0000 -0.7071
vn 0.7071 0.0000 0.7071
vn 0.0000 -1.0000 -0.0000
vn 0.0798 0.9936 0.0798
vn 0.0000 0.9936 0.1130
vn 0.0798 0.9936 -0.0798
vn -0.0798 0.9936 -0.0798
vn -0.0798 0.9936 0.0798
vn 0.1130 0.9936 -0.0000
vn -0.1130 0.9936 0.0000
vn 0.3279 -0.8860 -0.3279
vn 0.0000 -0.4688 -0.8833
vn 0.3279 -0.8860 0.3279
vn -0.4642 -0.8857 -0.0000
vn 0.4642 -0.8857 -0.0000
vn 0.0000 -0.8857 -0.4642
vn -0.3279 -0.8860 -0.3279
vn -0.3279 -0.8860 0.3279
vn -0.0000 -0.8857 0.4642
vn -0.6244 -0.4693 0.6244
vn -0.6244 -0.4693 -0.6244
vn 0.8833 -0.4688 0.0000
vn -0.8833 -0.4688 0.0000
vn 0.0000 -0.4688 0.8833
vn 0.6244 -0.4693 0.6244
vn 0.6244 -0.4693 -0.6244
vn 0.0000 1.0000 0.0000
usemtl matel.3
s off
f 18/1/1 19/2/1 12/3/1 9/4/1
f 22/5/2 23/6/2 20/7/2 17/8/2
f 4/9/3 5/10/3 31/11/3 32/12/3
f 24/13/4 15/14/4 5/10/4 4/9/4
f 10/15/5 11/16/5 16/17/5 13/18/5
f 14/19/3 15/14/3 24/13/3 21/20/3
f 9/4/6 12/3/6 11/16/6 10/15/6
f 15/14/7 14/19/7 13/21/7 16/22/7
f 23/6/8 22/5/8 21/20/8 24/13/8
f 19/2/9 18/1/9 17/8/9 20/7/9
f 13/23/10 14/24/10 21/25/10 22/26/10 17/27/10 18/28/10 9/29/10 10/30/10
f 19/2/11 20/7/11 2/31/11 1/32/11
f 12/3/12 19/2/12 1/32/12 8/33/12
f 23/6/13 24/13/13 4/9/13 3/34/13
f 15/14/14 16/22/14 6/35/14 5/10/14
f 11/16/15 12/3/15 8/33/15 7/36/15
f 20/7/16 23/6/16 3/34/16 2/31/16
f 16/17/17 11/16/17 7/36/17 6/37/17
f 26/38/18 32/12/18 40/39/18 34/40/18
f 3/34/8 4/9/8 32/12/8 26/38/8
f 1/32/9 2/31/9 25/41/9 27/42/9
f 6/37/5 7/36/5 29/43/5 30/44/5
f 2/31/2 3/34/2 26/38/2 25/41/2
f 5/10/7 6/35/7 30/45/7 31/11/7
f 7/36/6 8/33/6 28/46/6 29/43/6
f 8/33/1 1/32/1 27/42/1 28/46/1
f 36/47/19 35/48/19 43/49/19 44/50/19
f 27/42/20 25/41/20 33/51/20 35/48/20
f 30/44/21 29/43/21 37/52/21 38/53/21
f 25/41/22 26/38/22 34/40/22 33/51/22
f 32/12/23 31/11/23 39/54/23 40/39/23
f 31/11/24 30/45/24 38/55/24 39/54/24
f 29/43/25 28/46/25 36/47/25 37/52/25
f 28/46/26 27/42/26 35/48/26 36/47/26
f 34/40/27 40/39/27 48/56/27 42/57/27
f 35/48/28 33/51/28 41/58/28 43/49/28
f 38/53/29 37/52/29 45/59/29 46/60/29
f 33/51/30 34/40/30 42/57/30 41/58/30
f 40/39/31 39/54/31 47/61/31 48/56/31
f 39/54/32 38/55/32 46/62/32 47/61/32
f 37/52/33 36/47/33 44/50/33 45/59/33
usemtl light.3
f 64/63/5 57/64/5 66/65/5 67/66/5
f 50/67/34 56/68/34 58/69/34 57/64/34
f 56/68/34 55/70/34 59/71/34 58/69/34
f 55/70/34 54/72/34 60/73/34 59/71/34
f 54/74/34 53/75/34 61/76/34 60/77/34
f 53/75/34 52/78/34 62/79/34 61/76/34
f 52/78/34 51/80/34 63/81/34 62/79/34
f 51/80/34 49/82/34 64/63/34 63/81/34
f 49/82/34 50/67/34 57/64/34 64/63/34
f 66/83/34 65/84/34 68/85/34 69/86/34 70/87/34 71/88/34 72/89/34 67/90/34
f 62/79/3 63/81/3 72/91/3 71/92/3
f 60/77/2 61/76/2 70/93/2 69/94/2
f 58/69/1 59/71/1 68/95/1 65/96/1
f 57/64/6 58/69/6 65/96/6 66/65/6
f 63/81/7 64/63/7 67/66/7 72/91/7
f 61/76/8 62/79/8 71/92/8 70/93/8
f 59/71/9 60/73/9 69/97/9 68/95/9
usemtl light.4
f 48/56/3 47/61/3 55/70/3 56/68/3
f 47/61/7 46/62/7 54/72/7 55/70/7
f 45/59/6 44/50/6 52/78/6 53/75/6
f 44/50/1 43/49/1 51/80/1 52/78/1
f 42/57/8 48/56/8 56/68/8 50/67/8
f 43/49/9 41/58/9 49/82/9 51/80/9
f 46/60/5 45/59/5 53/75/5 54/74/5
f 41/58/2 42/57/2 50/67/2 49/82/2
