# Blender v2.80 (sub 75) OBJ File: 'untitled3.blend'
# www.blender.org
mtllib lamp.2.mtl
o Cube.005
v 11.222622 4.188441 10.023422
v 11.001240 4.188441 9.802041
v 11.001240 4.322149 9.802041
v 11.222622 4.322149 10.023422
v 11.001240 4.188441 9.477049
v 11.222622 4.188441 9.255667
v 11.222622 4.322149 9.255667
v 11.001240 4.322149 9.477049
v 11.768997 4.188441 9.802041
v 11.547615 4.188441 10.023424
v 11.547615 4.322149 10.023424
v 11.768997 4.322149 9.802041
v 11.547615 4.188441 9.255667
v 11.768997 4.188441 9.477049
v 11.768997 4.322149 9.477049
v 11.547615 4.322149 9.255667
v 11.579879 4.371604 9.555383
v 11.469280 4.371604 9.444783
v 11.300957 4.371604 9.444783
v 11.190357 4.371604 9.555384
v 11.190357 4.371604 9.723707
v 11.300957 4.371604 9.834307
v 11.469280 4.371604 9.834307
v 11.579880 4.371604 9.723705
v 11.485077 4.371604 9.594653
v 11.430012 4.371604 9.539586
v 11.340225 4.371604 9.539586
v 11.285159 4.371604 9.594652
v 11.285160 4.371604 9.684438
v 11.340225 4.371604 9.739504
v 11.430011 4.371604 9.739503
v 11.485077 4.371604 9.684439
v 11.430012 5.337743 9.539586
v 11.485077 5.337743 9.594653
v 11.485077 5.337743 9.684439
v 11.340225 5.337743 9.539586
v 11.285159 5.337743 9.594652
v 11.285160 5.337743 9.684438
v 11.340225 5.337743 9.739504
v 11.430011 5.337743 9.739503
v 11.509995 5.458848 9.361494
v 11.663170 5.458848 9.514668
v 11.663170 5.458848 9.764423
v 11.260241 5.458848 9.361493
v 11.107067 5.458848 9.514670
v 11.107067 5.458848 9.764423
v 11.260242 5.458848 9.917599
v 11.509996 5.458848 9.917599
v 11.631967 5.312987 9.089913
v 11.934752 5.312987 9.392698
v 11.934752 5.312987 9.886395
v 11.138270 5.312987 9.089913
v 10.835485 5.312987 9.392698
v 10.835485 5.312987 9.886394
v 11.138270 5.312987 10.189178
v 11.631967 5.312987 10.189178
v 11.600454 6.325207 9.160078
v 11.864586 6.325207 9.424210
v 11.864586 6.325207 9.854881
v 11.169783 6.325207 9.160078
v 10.905649 6.325207 9.424209
v 10.905649 6.325207 9.854882
v 11.169782 6.325207 10.119014
v 11.600454 6.325207 10.119015
v 11.776545 6.325207 9.460678
v 11.563986 6.325207 9.248119
v 11.206249 6.325207 9.248118
v 10.993691 6.325207 9.460677
v 10.993692 6.325207 9.818415
v 11.206250 6.325207 10.030973
v 11.563988 6.325207 10.030973
v 11.776546 6.325207 9.818415
v 11.563986 6.038720 9.248119
v 11.776545 6.038720 9.460678
v 11.776546 6.038720 9.818415
v 11.206249 6.038720 9.248118
v 10.993691 6.038720 9.460677
v 10.993692 6.038720 9.818415
v 11.206250 6.038720 10.030973
v 11.563988 6.038720 10.030973
vt 0.868587 0.207730
vt 0.868587 0.237668
vt 0.768786 0.237668
vt 0.769143 0.207730
vt 0.305977 0.207730
vt 0.303956 0.237668
vt 0.204155 0.237668
vt 0.206533 0.207730
vt 0.767949 0.307795
vt 0.868587 0.307795
vt 0.868587 0.524119
vt 0.765367 0.524119
vt 0.681050 0.207730
vt 0.680377 0.237668
vt 0.580576 0.237668
vt 0.581607 0.207730
vt 0.493514 0.207730
vt 0.492166 0.237668
vt 0.392365 0.237668
vt 0.394070 0.207730
vt 0.956680 0.207730
vt 0.956996 0.237668
vt 0.365556 0.035289
vt 0.405474 0.075288
vt 0.405413 0.133947
vt 0.365414 0.173864
vt 0.306755 0.173804
vt 0.266838 0.133805
vt 0.266898 0.075146
vt 0.306897 0.035229
vt 0.389681 0.284820
vt 0.300773 0.284820
vt 0.490044 0.284820
vt 0.578952 0.284820
vt 0.679315 0.284820
vt 0.768223 0.284820
vt 0.868587 0.284820
vt 0.957495 0.284820
vt 0.200409 0.284820
vt 0.388372 0.307795
vt 0.299222 0.307795
vt 0.489010 0.307795
vt 0.578161 0.307795
vt 0.678798 0.307795
vt 0.957738 0.307795
vt 0.198584 0.307795
vt 0.673930 0.524119
vt 0.764754 0.575560
vt 0.672772 0.575560
vt 0.570711 0.524119
vt 0.479273 0.524119
vt 0.376054 0.524119
vt 0.284616 0.524119
vt 0.960025 0.524119
vt 0.181397 0.524119
vt 0.568939 0.575560
vt 0.476958 0.575560
vt 0.281143 0.575560
vt 0.177310 0.575560
vt 0.868587 0.575560
vt 0.373124 0.575560
vt 0.960568 0.575560
vt 0.368897 0.649790
vt 0.276131 0.649790
vt 0.961353 0.649790
vt 0.868587 0.649790
vt 0.763868 0.649790
vt 0.671102 0.649790
vt 0.566383 0.649790
vt 0.473616 0.649790
vt 0.171412 0.649790
vt 0.868587 0.898422
vt 0.963982 0.898422
vt 0.964660 0.962568
vt 0.868587 0.962568
vt 0.260784 0.877085
vt 0.355953 0.877085
vt 0.354738 0.898422
vt 0.259344 0.898422
vt 0.463385 0.877085
vt 0.462425 0.898422
vt 0.558554 0.877085
vt 0.557820 0.898422
vt 0.665986 0.877085
vt 0.665506 0.898422
vt 0.761155 0.877085
vt 0.760900 0.898422
vt 0.868587 0.877085
vt 0.963756 0.877085
vt 0.153353 0.877085
vt 0.151658 0.898422
vt 0.215709 0.093044
vt 0.206877 0.162210
vt 0.141242 0.212982
vt 0.072076 0.204150
vt 0.021304 0.138514
vt 0.030136 0.069348
vt 0.095772 0.018577
vt 0.164938 0.027409
vt 0.760135 0.962568
vt 0.664062 0.962568
vt 0.555611 0.962568
vt 0.459538 0.962568
vt 0.255013 0.962568
vt 0.146561 0.962568
vt 0.351086 0.962568
vn -0.0000 0.0000 1.0000
vn 1.0000 0.0000 0.0000
vn -1.0000 0.0000 0.0000
vn 0.0000 0.0000 -1.0000
vn -0.7071 0.0000 0.7071
vn -0.7071 0.0000 -0.7071
vn 0.7071 0.0000 -0.7071
vn 0.7071 0.0000 0.7071
vn 0.0000 -1.0000 0.0000
vn 0.1789 0.9675 -0.1789
vn 0.0000 0.9675 -0.2530
vn -0.1789 0.9675 -0.1789
vn -0.2530 0.9675 0.0000
vn -0.1789 0.9675 0.1789
vn -0.0000 0.9675 0.2530
vn 0.1789 0.9675 0.1789
vn 0.2530 0.9675 -0.0000
vn 0.0000 1.0000 0.0000
vn -0.3910 -0.8332 0.3910
vn -0.3910 -0.8332 -0.3910
vn 0.5623 -0.8269 0.0000
vn 0.0000 -0.8269 0.5623
vn -0.5623 -0.8269 0.0000
vn 0.0000 -0.8269 -0.5623
vn 0.3910 -0.8332 -0.3910
vn 0.3910 -0.8332 0.3910
vn -0.3283 -0.8857 0.3283
vn -0.3283 -0.8857 -0.3283
vn 0.3283 -0.8857 -0.3283
vn 0.3283 -0.8857 0.3283
vn -0.4732 -0.8810 0.0000
vn 0.0000 -0.8810 -0.4732
vn 0.4732 -0.8810 0.0000
vn -0.0000 -0.8810 0.4732
vn 0.0000 0.0692 0.9976
vn -0.9976 0.0692 0.0000
vn 0.0000 0.0692 -0.9976
vn 0.7053 0.0709 -0.7053
vn 0.7053 0.0709 0.7053
vn -0.7053 0.0708 0.7053
vn -0.7053 0.0708 -0.7053
vn 0.9976 0.0692 0.0000
usemtl matel.3
s off
f 10/1/1 11/2/1 4/3/1 1/4/1
f 14/5/2 15/6/2 12/7/2 9/8/2
f 30/9/1 31/10/1 40/11/1 39/12/1
f 2/13/3 3/14/3 8/15/3 5/16/3
f 6/17/4 7/18/4 16/19/4 13/20/4
f 1/4/5 4/3/5 3/14/5 2/13/5
f 7/18/6 6/17/6 5/16/6 8/15/6
f 15/6/7 14/5/7 13/20/7 16/19/7
f 11/2/8 10/1/8 9/21/8 12/22/8
f 5/23/9 6/24/9 13/25/9 14/26/9 9/27/9 10/28/9 1/29/9 2/30/9
f 15/6/10 16/19/10 18/31/10 17/32/10
f 16/19/11 7/18/11 19/33/11 18/31/11
f 7/18/12 8/15/12 20/34/12 19/33/12
f 8/15/13 3/14/13 21/35/13 20/34/13
f 3/14/14 4/3/14 22/36/14 21/35/14
f 4/3/15 11/2/15 23/37/15 22/36/15
f 11/2/16 12/22/16 24/38/16 23/37/16
f 12/7/17 15/6/17 17/32/17 24/39/17
f 17/32/18 18/31/18 26/40/18 25/41/18
f 18/31/18 19/33/18 27/42/18 26/40/18
f 19/33/18 20/34/18 28/43/18 27/42/18
f 20/34/18 21/35/18 29/44/18 28/43/18
f 21/35/18 22/36/18 30/9/18 29/44/18
f 22/36/18 23/37/18 31/10/18 30/9/18
f 23/37/18 24/38/18 32/45/18 31/10/18
f 24/39/18 17/32/18 25/41/18 32/46/18
f 38/47/19 39/12/19 47/48/19 46/49/19
f 28/43/3 29/44/3 38/47/3 37/50/3
f 26/40/4 27/42/4 36/51/4 33/52/4
f 25/41/7 26/40/7 33/52/7 34/53/7
f 31/10/8 32/45/8 35/54/8 40/11/8
f 29/44/5 30/9/5 39/12/5 38/47/5
f 27/42/6 28/43/6 37/50/6 36/51/6
f 32/46/2 25/41/2 34/53/2 35/55/2
f 36/51/20 37/50/20 45/56/20 44/57/20
f 35/55/21 34/53/21 42/58/21 43/59/21
f 39/12/22 40/11/22 48/60/22 47/48/22
f 37/50/23 38/47/23 46/49/23 45/56/23
f 33/52/24 36/51/24 44/57/24 41/61/24
f 34/53/25 33/52/25 41/61/25 42/58/25
f 40/11/26 35/54/26 43/62/26 48/60/26
usemtl light.3
f 42/58/27 41/61/27 49/63/27 50/64/27
f 48/60/28 43/62/28 51/65/28 56/66/28
f 46/49/29 47/48/29 55/67/29 54/68/29
f 44/57/30 45/56/30 53/69/30 52/70/30
f 43/59/31 42/58/31 50/64/31 51/71/31
f 47/48/32 48/60/32 56/66/32 55/67/32
f 45/56/33 46/49/33 54/68/33 53/69/33
f 41/61/34 44/57/34 52/70/34 49/63/34
f 71/72/6 72/73/6 75/74/6 80/75/6
f 58/76/18 57/77/18 66/78/18 65/79/18
f 57/77/18 60/80/18 67/81/18 66/78/18
f 60/80/18 61/82/18 68/83/18 67/81/18
f 61/82/18 62/84/18 69/85/18 68/83/18
f 62/84/18 63/86/18 70/87/18 69/85/18
f 63/86/18 64/88/18 71/72/18 70/87/18
f 64/88/18 59/89/18 72/73/18 71/72/18
f 59/90/18 58/76/18 65/79/18 72/91/18
f 74/92/18 73/93/18 76/94/18 77/95/18 78/96/18 79/97/18 80/98/18 75/99/18
f 69/85/7 70/87/7 79/100/7 78/101/7
f 67/81/8 68/83/8 77/102/8 76/103/8
f 72/91/3 65/79/3 74/104/3 75/105/3
f 70/87/4 71/72/4 80/75/4 79/100/4
f 68/83/2 69/85/2 78/101/2 77/102/2
f 66/78/1 67/81/1 76/103/1 73/106/1
f 65/79/5 66/78/5 73/106/5 74/104/5
usemtl light.4
f 55/67/35 56/66/35 64/88/35 63/86/35
f 53/69/36 54/68/36 62/84/36 61/82/36
f 49/63/37 52/70/37 60/80/37 57/77/37
f 50/64/38 49/63/38 57/77/38 58/76/38
f 56/66/39 51/65/39 59/89/39 64/88/39
f 54/68/40 55/67/40 63/86/40 62/84/40
f 52/70/41 53/69/41 61/82/41 60/80/41
f 51/71/42 50/64/42 58/76/42 59/90/42
