# Blender v2.80 (sub 75) OBJ File: 'untitled3.blend'
# www.blender.org
mtllib ps4.mtl
o Cube.037
v -10.847512 3.486912 -4.017936
v -10.847512 4.922491 -4.017936
v -11.260664 3.486912 -4.411454
v -11.260664 4.922491 -4.411454
v -9.623612 3.486912 -4.034532
v -9.623612 4.922491 -4.034532
v -9.898177 3.486912 -4.425117
v -9.898177 4.922491 -4.425117
v -11.143920 3.486912 -4.300259
v -11.121696 3.486912 -4.279089
v -11.000922 3.486912 -4.164054
v -10.975877 3.486912 -4.140200
v -10.975877 4.922491 -4.140200
v -11.000922 4.922491 -4.164054
v -11.121696 4.922491 -4.279089
v -11.143920 4.922491 -4.300259
v -9.708919 3.486912 -4.155885
v -9.725562 3.486912 -4.179562
v -9.805823 3.486912 -4.293739
v -9.820594 3.486912 -4.314751
v -9.820594 4.922491 -4.314751
v -9.805823 4.922491 -4.293739
v -9.725562 4.922491 -4.179562
v -9.708919 4.922491 -4.155885
v -11.107979 3.522586 -4.337993
v -11.085753 3.522586 -4.316824
v -10.964978 3.522586 -4.201790
v -10.939935 3.522586 -4.177935
v -10.939935 4.886817 -4.177935
v -10.964978 4.886817 -4.201790
v -11.085753 4.886817 -4.316824
v -11.107979 4.886817 -4.337993
v -9.746125 3.520234 -4.153949
v -9.758561 3.524550 -4.177845
v -9.843030 3.520234 -4.291802
v -9.853591 3.524550 -4.313033
v -9.853591 4.884853 -4.313033
v -9.843030 4.889168 -4.291802
v -9.758561 4.884853 -4.177845
v -9.746125 4.889168 -4.153949
vt 0.375000 0.179358
vt 0.625000 0.179358
vt 0.625000 0.250000
vt 0.375000 0.250000
vt 0.625000 0.500000
vt 0.375000 0.500000
vt 0.375000 0.672326
vt 0.625000 0.672326
vt 0.625000 0.750000
vt 0.375000 0.750000
vt 0.625000 1.000000
vt 0.375000 1.000000
vt 0.125000 0.672326
vt 0.125000 0.750000
vt 0.875000 0.672326
vt 0.875000 0.750000
vt 0.875000 0.500000
vt 0.875000 0.570642
vt 0.625000 0.570642
vt 0.875000 0.584091
vt 0.625000 0.584091
vt 0.625000 0.584091
vt 0.875000 0.584091
vt 0.875000 0.657172
vt 0.625000 0.657171
vt 0.375000 0.570642
vt 0.625000 0.570642
vt 0.375000 0.570642
vt 0.125000 0.500000
vt 0.125000 0.570642
vt 0.375000 0.179358
vt 0.625000 0.179358
vt 0.125000 0.584091
vt 0.375000 0.584091
vt 0.375000 0.657172
vt 0.125000 0.657171
vt 0.875000 0.570642
vt 0.125000 0.672326
vt 0.375000 0.672326
vt 0.375000 0.165909
vt 0.625000 0.165909
vt 0.625000 0.165909
vt 0.375000 0.165909
vt 0.375000 0.000000
vt 0.625000 0.000000
vt 0.625000 0.077674
vt 0.375000 0.077674
vt 0.375000 0.657172
vt 0.125000 0.657171
vt 0.375000 0.092828
vt 0.625000 0.092828
vt 0.375000 0.092828
vt 0.625000 0.092828
vt 0.625000 0.657171
vt 0.875000 0.657172
vt 0.875000 0.672326
vt 0.625000 0.672326
vt 0.125000 0.570642
vt 0.375000 0.584091
vt 0.125000 0.584091
vt 0.375000 0.077674
vt 0.625000 0.077674
vn -0.6897 0.0000 0.7241
vn -0.0100 0.0000 -0.9999
vn 0.8181 0.0000 -0.5751
vn 0.0136 0.0000 0.9999
vn 0.0000 -1.0000 0.0000
vn 0.0000 1.0000 -0.0000
vn 0.0032 0.4605 -0.8877
vn 0.0520 0.0000 0.9986
vn 0.7241 0.0000 0.6897
vn -0.0040 -0.4411 0.8975
vn 0.0026 -0.4605 -0.8876
vn -0.7241 0.0000 -0.6897
vn -0.0034 0.4411 0.8975
vn 0.0019 0.9947 -0.1027
vn 0.0017 0.9958 -0.0913
vn 0.0019 -0.9947 -0.1027
vn 0.0017 -0.9958 -0.0913
vn 0.8953 0.0000 -0.4454
vn 0.8871 0.0000 -0.4617
vn -0.0520 0.0000 -0.9986
vn -0.0034 -0.4411 0.8975
vn 0.0026 0.4605 -0.8877
vn -0.0040 0.4411 0.8975
vn 0.0032 -0.4605 -0.8877
usemtl TV
s off
f 9/1/1 16/2/1 4/3/1 3/4/1
f 3/4/2 4/3/2 8/5/2 7/6/2
f 17/7/3 24/8/3 6/9/3 5/10/3
f 5/10/4 6/9/4 2/11/4 1/12/4
f 12/13/5 17/7/5 5/10/5 1/14/5
f 24/8/6 13/15/6 2/16/6 6/9/6
f 8/5/6 4/17/6 16/18/6 21/19/6
f 15/20/7 22/21/7 38/22/7 31/23/7
f 22/21/6 15/20/6 14/24/6 23/25/6
f 20/26/8 21/19/8 37/27/8 36/28/8
f 3/29/5 7/6/5 20/26/5 9/30/5
f 16/2/9 9/1/9 25/31/9 32/32/9
f 10/33/5 19/34/5 18/35/5 11/36/5
f 21/19/10 16/18/10 32/37/10 37/27/10
f 7/6/3 8/5/3 21/19/3 20/26/3
f 17/7/11 12/13/11 28/38/11 33/39/11
f 19/34/3 22/21/3 23/25/3 18/35/3
f 10/40/12 15/41/12 31/42/12 26/43/12
f 1/44/1 2/45/1 13/46/1 12/47/1
f 11/36/13 18/35/13 34/48/13 27/49/13
f 11/50/1 14/51/1 15/41/1 10/40/1
f 14/51/9 11/50/9 27/52/9 30/53/9
f 37/27/14 32/37/14 31/23/14 38/22/14
f 39/54/15 30/55/15 29/56/15 40/57/15
f 25/58/16 36/28/16 35/59/16 26/60/16
f 27/49/17 34/48/17 33/39/17 28/38/17
f 36/28/18 37/27/18 38/22/18 35/59/18
f 34/48/19 39/54/19 40/57/19 33/39/19
f 28/61/1 29/62/1 30/53/1 27/52/1
f 26/43/1 31/42/1 32/32/1 25/31/1
f 22/21/20 19/34/20 35/59/20 38/22/20
f 23/25/21 14/24/21 30/55/21 39/54/21
f 18/35/8 23/25/8 39/54/8 34/48/8
f 13/15/22 24/8/22 40/57/22 29/56/22
f 24/8/20 17/7/20 33/39/20 40/57/20
f 9/30/23 20/26/23 36/28/23 25/58/23
f 12/47/12 13/46/12 29/62/12 28/61/12
f 19/34/24 10/33/24 26/60/24 35/59/24
