# Blender v2.80 (sub 75) OBJ File: 'untitled3.blend'
# www.blender.org
mtllib sofa3.mtl
o Cube.003
v 9.157056 3.770466 -5.351842
v 9.436261 3.770466 -5.232135
v 9.323321 0.210869 -5.232134
v 9.157057 0.210869 -5.351783
v 9.157056 0.210869 -6.182971
v 9.323321 0.210869 -6.302618
v 9.436261 3.770466 -6.302619
v 9.157057 3.770466 -6.182910
v 13.195975 0.210869 -5.351783
v 13.029709 0.210869 -5.232134
v 12.916770 3.770466 -5.232135
v 13.195973 3.770466 -5.351842
v 13.029710 0.210869 -6.302618
v 13.195975 0.210869 -6.182970
v 13.195974 3.770466 -6.182910
v 12.916769 3.770466 -6.302618
v 9.157057 2.756656 -5.351798
v 9.324106 2.756656 -5.232134
v 9.157057 2.756656 -6.182954
v 9.324107 2.756656 -6.354849
v 13.028924 2.756656 -6.302619
v 13.195975 2.756656 -6.182955
v 13.195975 2.756656 -5.351798
v 13.028925 2.756656 -5.179904
v 9.234340 2.756656 -5.147935
v 9.060026 2.756656 -5.267614
v 9.234340 3.655133 -5.147935
v 9.060026 3.655133 -5.267627
v 9.060027 3.655133 -6.267126
v 9.234341 3.655133 -6.386817
v 13.118692 3.655133 -6.386818
v 13.293005 3.655133 -6.267126
v 13.293005 3.655133 -5.267628
v 13.118691 3.655133 -5.147936
v 9.060027 2.756656 -6.267139
v 9.234341 2.756656 -6.386817
v 13.118692 2.756656 -6.386818
v 13.293005 2.756656 -6.267139
v 13.293005 2.756656 -5.267613
v 13.118691 2.756656 -5.147936
v 8.430793 -0.512458 5.979694
v 8.430794 -0.512458 -5.232977
v 12.886071 -0.512458 5.979694
v 12.886071 -0.512458 -5.232976
v 9.383379 2.723724 5.979694
v 8.430793 1.617776 5.979694
v 8.601357 2.399799 5.979695
v 8.430794 1.617776 -5.232977
v 9.383380 2.723724 -5.232977
v 8.601356 2.399799 -5.232977
v 12.886071 2.440760 5.979694
v 12.603107 2.723724 5.979694
v 12.603106 2.723724 -5.232976
v 12.886071 2.440760 -5.232976
v 12.895727 0.347385 5.944687
v 12.845138 0.211896 5.575086
v 13.504183 4.688769 5.575085
v 13.504182 4.816905 5.944687
v 12.895728 0.347385 -5.073129
v 12.845138 0.211896 -4.703526
v 13.504182 4.816905 -5.073129
v 13.504183 4.688769 -4.703526
v 13.453591 0.347385 5.944687
v 13.504183 0.211896 5.575085
v 13.504182 5.137763 5.944687
v 13.504183 5.251049 5.575085
v 13.453592 0.347385 -5.073128
v 13.504183 0.211896 -4.703526
v 13.504183 5.251049 -4.703526
v 13.504182 5.137763 -5.073129
v 12.978077 5.091412 5.944687
v 12.947983 5.202952 5.575086
v 12.895727 4.863634 5.944687
v 12.845138 4.918478 5.575086
v 12.895728 4.863634 -5.073129
v 12.845138 4.918478 -4.703526
v 12.978077 5.091412 -5.073129
v 12.947983 5.202952 -4.703526
v 13.831180 5.131614 5.944688
v 13.860609 5.241475 5.575086
v 13.715120 4.698344 5.575085
v 13.749786 4.827758 5.944687
v 13.860609 5.241475 -4.703526
v 13.831181 5.131614 -5.073127
v 13.749786 4.827758 -5.073127
v 13.715119 4.698344 -4.703526
v 14.334311 4.683403 -4.703526
v 14.235139 4.659162 -5.073127
v 13.876120 4.571403 -5.073127
v 13.788112 4.549890 -4.703526
v 14.235138 4.659162 5.944687
v 14.334311 4.683403 5.575084
v 13.788113 4.549890 5.575086
v 13.876118 4.571403 5.944687
v 13.749804 4.354364 -5.073127
v 13.649563 4.313173 -4.703525
v 13.749805 4.354364 5.944686
v 13.649563 4.313173 5.575085
v 14.101120 4.304894 -5.073127
v 14.147528 4.192163 -4.703526
v 13.902768 4.195464 -5.073127
v 13.898373 4.054705 -4.703526
v 13.902767 4.195464 5.944684
v 13.898371 4.054705 5.575083
v 14.101120 4.304894 5.944685
v 14.147527 4.192163 5.575084
v 9.157057 3.770466 6.914702
v 9.436260 3.770466 7.034411
v 9.323321 0.210869 7.034410
v 9.157057 0.210869 6.914764
v 9.157057 0.210869 6.083576
v 9.323321 0.210869 5.963926
v 9.436261 3.770466 5.963927
v 9.157057 3.770466 6.083635
v 13.195974 0.210869 6.914763
v 13.029710 0.210869 7.034410
v 12.916770 3.770466 7.034410
v 13.195974 3.770466 6.914701
v 13.029709 0.210869 5.963926
v 13.195975 0.210869 6.083576
v 13.195974 3.770466 6.083635
v 12.916771 3.770466 5.963928
v 9.157057 2.756656 6.914747
v 9.324106 2.756656 7.034410
v 9.157057 2.756656 6.083591
v 9.324106 2.756656 5.911696
v 13.028925 2.756656 5.963928
v 13.195974 2.756656 6.083591
v 13.195974 2.756656 6.914746
v 13.028925 2.756656 7.086640
v 9.234340 2.756656 7.118609
v 9.060027 2.756656 6.998931
v 9.234340 3.655133 7.118609
v 9.060027 3.655133 6.998917
v 9.060028 3.655133 5.999420
v 9.234340 3.655133 5.879728
v 13.118691 3.655133 5.879729
v 13.293005 3.655133 5.999420
v 13.293005 3.655133 6.998917
v 13.118691 3.655133 7.118610
v 9.060028 2.756656 5.999406
v 9.234340 2.756656 5.879728
v 13.118691 2.756656 5.879729
v 13.293005 2.756656 5.999405
v 13.293005 2.756656 6.998931
v 13.118691 2.756656 7.118610
vt 0.334015 0.629386
vt 0.368200 0.629387
vt 0.368200 0.699900
vt 0.334015 0.699901
vt 0.334015 0.811018
vt 0.368200 0.811019
vt 0.368200 0.881531
vt 0.334015 0.881533
vt 0.368200 0.800481
vt 0.368200 0.711718
vt 0.402035 0.710420
vt 0.402035 0.800499
vt 0.402035 0.809640
vt 0.402035 0.882910
vt 0.334015 0.892050
vt 0.368200 0.892069
vt 0.368200 0.982113
vt 0.334015 0.982132
vt 0.427943 0.891683
vt 0.512535 0.891683
vt 0.515278 0.891683
vt 0.425200 0.891683
vt 0.334015 0.710418
vt 0.368200 0.710438
vt 0.334015 0.800500
vt 0.428215 0.811023
vt 0.428215 0.881527
vt 0.424831 0.882909
vt 0.424831 0.809641
vt 0.512535 0.800867
vt 0.427943 0.800867
vt 0.425200 0.800867
vt 0.515278 0.800867
vt 0.243199 0.811018
vt 0.243567 0.800867
vt 0.333648 0.800867
vt 0.333648 0.891683
vt 0.243567 0.891683
vt 0.243199 0.881533
vt 0.424831 0.710420
vt 0.424831 0.800499
vt 0.402035 0.628009
vt 0.424831 0.628010
vt 0.424831 0.701277
vt 0.402035 0.701278
vt 0.368200 0.893350
vt 0.402035 0.892051
vt 0.402035 0.982130
vt 0.424831 0.892051
vt 0.424831 0.982130
vt 0.513186 0.881220
vt 0.513186 0.810715
vt 0.515647 0.809641
vt 0.515647 0.882909
vt 0.368200 0.619236
vt 0.402035 0.619236
vt 0.368200 0.982499
vt 0.334015 0.982499
vt 0.424831 0.982499
vt 0.402035 0.982499
vt 0.177023 0.191989
vt 0.285870 0.191989
vt 0.314893 0.204011
vt 0.326914 0.233033
vt 0.326914 0.333087
vt 0.316413 0.341880
vt 0.177023 0.341880
vt 0.177023 0.491771
vt 0.316413 0.491771
vt 0.326914 0.500564
vt 0.326914 0.600618
vt 0.314893 0.629640
vt 0.285870 0.641662
vt 0.177023 0.641662
vt 0.177023 0.042098
vt 0.285870 0.042098
vt 0.027132 0.341880
vt 0.027132 0.491771
vt 0.435761 0.491771
vt 0.435761 0.341880
vt 0.476805 0.341880
vt 0.476805 0.491771
vt 0.326914 0.042098
vt 0.326914 0.191989
vt 0.335707 0.341880
vt 0.335707 0.491771
vt 0.593838 0.531713
vt 0.584129 0.210750
vt 0.593526 0.209873
vt 0.603631 0.532035
vt 0.934874 0.559960
vt 0.932827 0.161724
vt 0.941087 0.161213
vt 0.942951 0.560273
vt 0.743648 0.201051
vt 0.720299 0.035387
vt 0.722142 0.026606
vt 0.741201 0.022186
vt 0.742860 0.033956
vt 0.764111 0.198167
vt 0.771972 0.706040
vt 0.772587 0.694428
vt 0.781455 0.695291
vt 0.783819 0.706444
vt 0.779318 0.532569
vt 0.753020 0.703355
vt 0.750476 0.694953
vt 0.759128 0.531500
vt 0.753228 0.020721
vt 0.751813 0.032288
vt 0.786518 0.686255
vt 0.799344 0.690119
vt 0.759808 0.518711
vt 0.745227 0.213742
vt 0.555371 0.211084
vt 0.564133 0.533129
vt 0.540693 0.534310
vt 0.532064 0.211360
vt 0.566623 0.210278
vt 0.575741 0.533251
vt 0.765792 0.212302
vt 0.780215 0.518965
vt 0.958857 0.163460
vt 0.972847 0.163018
vt 0.972847 0.558411
vt 0.959671 0.558066
vt 0.947921 0.161655
vt 0.949516 0.559819
vt 0.757772 0.041038
vt 0.770488 0.035963
vt 0.767404 0.049651
vt 0.760693 0.054691
vt 0.754261 0.049653
vt 0.782363 0.678158
vt 0.788203 0.672700
vt 0.795172 0.677041
vt 0.523968 0.535807
vt 0.515101 0.210866
vt 0.514673 0.537090
vt 0.505518 0.210075
vt 0.931568 0.146920
vt 0.934102 0.573933
vt 0.604930 0.545028
vt 0.595849 0.545028
vt 0.585319 0.197808
vt 0.594040 0.197287
vt 0.576260 0.546712
vt 0.566402 0.197192
vt 0.939969 0.145654
vt 0.942074 0.575028
vt 0.554442 0.197709
vt 0.563989 0.546792
vt 0.951555 0.573826
vt 0.541201 0.547014
vt 0.531878 0.198623
vt 0.949999 0.146797
vt 0.959029 0.149062
vt 0.959982 0.571602
vt 0.509921 0.196340
vt 0.518142 0.197630
vt 0.527674 0.548672
vt 0.519667 0.550351
vt 0.967790 0.148277
vt 0.968211 0.572262
vt 0.617370 0.634668
vt 0.653659 0.634669
vt 0.653659 0.702620
vt 0.617370 0.702621
vt 0.617370 0.809702
vt 0.653659 0.809703
vt 0.653659 0.877654
vt 0.617370 0.877655
vt 0.653659 0.799548
vt 0.653659 0.714009
vt 0.682919 0.712758
vt 0.682919 0.799565
vt 0.682919 0.808374
vt 0.682919 0.878983
vt 0.617370 0.887790
vt 0.653659 0.887809
vt 0.653659 0.974581
vt 0.617370 0.974600
vt 0.707885 0.887437
vt 0.789404 0.887437
vt 0.792048 0.887437
vt 0.705242 0.887437
vt 0.617370 0.712757
vt 0.653659 0.712775
vt 0.617370 0.799566
vt 0.707405 0.809707
vt 0.707405 0.877650
vt 0.704886 0.878982
vt 0.704886 0.808375
vt 0.789404 0.799920
vt 0.707885 0.799920
vt 0.705242 0.799920
vt 0.792048 0.799920
vt 0.529853 0.809702
vt 0.530207 0.799920
vt 0.617016 0.799920
vt 0.617016 0.887437
vt 0.530207 0.887437
vt 0.529853 0.877655
vt 0.704886 0.712758
vt 0.704886 0.799565
vt 0.682919 0.633341
vt 0.704886 0.633342
vt 0.704886 0.703948
vt 0.682919 0.703949
vt 0.653659 0.889043
vt 0.682919 0.887792
vt 0.682919 0.974599
vt 0.704886 0.887792
vt 0.704886 0.974599
vt 0.789303 0.877650
vt 0.789303 0.809707
vt 0.792403 0.808375
vt 0.792403 0.878982
vt 0.653659 0.624886
vt 0.682919 0.624886
vt 0.682919 0.974954
vt 0.617370 0.974954
vt 0.704886 0.974954
vt 0.682919 0.974954
vn -1.0000 0.0000 0.0000
vn 1.0000 -0.0000 0.0000
vn 0.0000 -1.0000 0.0000
vn -0.0070 -0.0103 0.9999
vn 0.0000 0.5896 0.8077
vn 0.0070 -0.0103 -0.9999
vn 0.7652 0.6438 0.0000
vn 0.0000 0.5896 -0.8077
vn -0.0000 0.0000 -1.0000
vn 0.0000 0.0000 1.0000
vn -0.7652 0.6438 -0.0000
vn -0.6583 -0.0076 -0.7527
vn 0.5832 0.0001 -0.8123
vn 0.6583 -0.0076 0.7527
vn -0.5832 0.0001 0.8123
vn -0.5660 0.0000 0.8244
vn -0.5660 0.0000 -0.8244
vn 0.5660 0.0000 -0.8244
vn 0.5660 0.0000 0.8244
vn 0.2915 0.7810 -0.5523
vn -0.2915 0.7810 -0.5523
vn -0.2915 0.7810 0.5523
vn 0.2915 0.7810 0.5523
vn 0.0000 1.0000 -0.0000
vn -0.3827 0.9239 -0.0000
vn -0.9770 0.2131 0.0000
vn 0.7071 0.7071 -0.0000
vn -0.9404 0.3400 0.0000
vn 0.0453 -0.9990 -0.0000
vn 0.7624 0.6471 0.0000
vn 0.0269 0.9996 0.0000
vn -0.0862 0.9963 0.0000
vn -0.7204 -0.6935 -0.0000
vn -0.8974 -0.4412 0.0000
vn -0.8630 0.5051 0.0000
vn 0.9347 -0.3554 0.0000
vn 0.4831 -0.8756 0.0000
vn 0.0000 -0.9389 -0.3442
vn 0.9975 -0.0056 -0.0703
vn 0.9975 -0.0056 0.0703
vn 0.0000 -0.9389 0.3442
vn -0.9257 0.3347 0.1764
vn -0.9257 0.3347 -0.1764
vn -0.0831 0.9525 0.2931
vn -0.9908 0.0000 0.1356
vn -0.9908 0.0000 -0.1356
vn -0.0831 0.9525 -0.2931
vn 0.0422 -0.9441 -0.3270
vn 0.0422 -0.9441 0.3270
vn 0.0220 0.9569 -0.2897
vn 0.0220 0.9569 0.2897
vn -0.8725 -0.4296 0.2325
vn 0.7386 0.6290 0.2426
vn 0.7386 0.6290 -0.2426
vn -0.8725 -0.4296 -0.2325
vn -0.8504 0.4964 -0.1745
vn -0.8504 0.4964 0.1745
vn 0.4590 -0.8320 -0.3114
vn 0.4590 -0.8320 0.3114
vn -0.6951 -0.6691 -0.2631
vn -0.6951 -0.6691 0.2631
vn 0.9118 -0.3460 -0.2210
vn 0.9118 -0.3460 0.2210
usemtl leather
s off
f 4/1/1 17/2/1 19/3/1 5/4/1
f 14/5/2 22/6/2 23/7/2 9/8/2
f 21/9/3 20/10/3 36/11/3 37/12/3
f 23/7/3 22/6/3 38/13/3 39/14/3
f 10/15/4 24/16/4 18/17/4 3/18/4
f 11/19/5 2/20/5 27/21/5 34/22/5
f 6/23/6 20/24/6 21/9/6 13/25/6
f 15/26/7 12/27/7 33/28/7 32/29/7
f 7/30/8 16/31/8 31/32/8 30/33/8
f 5/34/3 6/35/3 13/36/3 14/5/3 9/8/3 10/37/3 3/38/3 4/39/3
f 36/11/9 30/40/9 31/41/9 37/12/9
f 38/13/2 32/29/2 33/28/2 39/14/2
f 26/42/1 28/43/1 29/44/1 35/45/1
f 18/17/3 24/46/3 40/47/3 25/48/3
f 19/3/3 17/2/3 26/42/3 35/45/3
f 40/47/10 34/49/10 27/50/10 25/48/10
f 1/51/11 8/52/11 29/53/11 28/54/11
f 26/42/3 17/2/3 18/55/3 25/56/3
f 20/24/12 6/23/12 5/4/12 19/3/12
f 22/6/13 14/5/13 13/25/13 21/9/13
f 24/16/14 10/15/14 9/8/14 23/7/14
f 3/18/15 18/17/15 17/57/15 4/58/15
f 23/7/3 39/14/3 40/47/3 24/46/3
f 38/13/3 22/6/3 21/9/3 37/12/3
f 19/3/3 35/45/3 36/11/3 20/10/3
f 25/48/16 27/50/16 28/59/16 26/60/16
f 30/40/17 36/11/17 35/45/17 29/44/17
f 32/29/18 38/13/18 37/12/18 31/41/18
f 34/49/19 40/47/19 39/14/19 33/28/19
f 15/26/20 32/29/20 31/32/20 16/31/20
f 29/53/21 8/52/21 7/30/21 30/33/21
f 27/21/22 2/20/22 1/51/22 28/54/22
f 11/19/23 34/22/23 33/28/23 12/27/23
f 15/26/24 16/31/24 7/30/24 8/52/24 1/51/24 2/20/24 11/19/24 12/27/24
f 42/61/9 48/62/9 50/63/9 49/64/9 53/65/9 54/66/9 44/67/9
f 43/68/10 51/69/10 52/70/10 45/71/10 47/72/10 46/73/10 41/74/10
f 41/75/1 46/76/1 48/62/1 42/61/1
f 42/77/3 44/67/3 43/68/3 41/78/3
f 45/79/25 49/80/25 50/81/25 47/82/25
f 47/83/26 50/84/26 48/62/26 46/76/26
f 53/85/24 49/80/24 45/79/24 52/86/24
f 53/85/27 52/86/27 51/69/27 54/66/27
f 44/67/2 54/66/2 51/69/2 43/68/2
f 72/87/28 78/88/28 76/89/28 74/90/28
f 57/91/29 62/92/29 86/93/29 81/94/29
f 59/95/9 75/96/9 77/97/9 70/98/9 61/99/9 67/100/9
f 65/101/10 58/102/10 82/103/10 79/104/10
f 63/105/10 58/102/10 65/101/10 71/106/10 73/107/10 55/108/10
f 61/99/9 70/98/9 84/109/9 85/110/9
f 79/104/10 82/103/10 94/111/10 91/112/10
f 56/113/1 74/90/1 76/89/1 60/114/1
f 83/115/30 80/116/30 92/117/30 87/118/30
f 69/119/31 66/120/31 80/116/31 83/115/31
f 68/121/2 62/92/2 57/91/2 64/122/2
f 69/119/32 78/88/32 72/87/32 66/120/32
f 96/123/33 102/124/33 104/125/33 98/126/33
f 81/94/34 86/93/34 90/127/34 93/128/34
f 89/129/9 88/130/9 99/131/9 101/132/9 95/133/9
f 85/110/9 84/109/9 88/130/9 89/129/9
f 93/128/35 90/127/35 96/123/35 98/126/35
f 91/112/10 94/111/10 97/134/10 103/135/10 105/136/10
f 87/118/36 92/117/36 106/137/36 100/138/36
f 100/138/37 106/137/37 104/139/37 102/140/37
f 68/121/38 60/114/38 59/95/38 67/100/38
f 62/92/39 68/121/39 67/100/39 61/141/39
f 58/142/40 63/105/40 64/122/40 57/91/40
f 56/113/41 64/122/41 63/105/41 55/108/41
f 73/143/42 71/144/42 72/87/42 74/90/42
f 77/145/43 75/146/43 76/89/43 78/88/43
f 66/120/44 72/87/44 71/144/44 65/147/44
f 74/90/45 56/113/45 55/108/45 73/143/45
f 75/146/46 59/95/46 60/114/46 76/89/46
f 70/148/47 77/145/47 78/88/47 69/119/47
f 61/141/48 85/149/48 86/93/48 62/92/48
f 82/150/49 58/142/49 57/91/49 81/94/49
f 69/119/50 83/115/50 84/151/50 70/148/50
f 80/116/51 66/120/51 65/147/51 79/152/51
f 81/94/52 93/128/52 94/153/52 82/150/52
f 92/117/53 80/116/53 79/152/53 91/154/53
f 88/155/54 84/151/54 83/115/54 87/118/54
f 90/127/55 86/93/55 85/149/55 89/156/55
f 96/123/56 90/127/56 89/156/56 95/157/56
f 97/158/57 94/153/57 93/128/57 98/126/57
f 101/159/58 99/160/58 100/138/58 102/140/58
f 105/161/59 103/162/59 104/139/59 106/137/59
f 95/157/60 101/163/60 102/124/60 96/123/60
f 103/164/61 97/158/61 98/126/61 104/125/61
f 99/160/62 88/155/62 87/118/62 100/138/62
f 91/154/63 105/161/63 106/137/63 92/117/63
f 60/114/3 68/121/3 64/122/3 56/113/3
f 110/165/1 123/166/1 125/167/1 111/168/1
f 120/169/2 128/170/2 129/171/2 115/172/2
f 127/173/3 126/174/3 142/175/3 143/176/3
f 129/171/3 128/170/3 144/177/3 145/178/3
f 116/179/4 130/180/4 124/181/4 109/182/4
f 117/183/5 108/184/5 133/185/5 140/186/5
f 112/187/6 126/188/6 127/173/6 119/189/6
f 121/190/7 118/191/7 139/192/7 138/193/7
f 113/194/8 122/195/8 137/196/8 136/197/8
f 111/198/3 112/199/3 119/200/3 120/169/3 115/172/3 116/201/3 109/202/3 110/203/3
f 142/175/9 136/204/9 137/205/9 143/176/9
f 144/177/2 138/193/2 139/192/2 145/178/2
f 132/206/1 134/207/1 135/208/1 141/209/1
f 124/181/3 130/210/3 146/211/3 131/212/3
f 125/167/3 123/166/3 132/206/3 141/209/3
f 146/211/10 140/213/10 133/214/10 131/212/10
f 107/215/11 114/216/11 135/217/11 134/218/11
f 132/206/3 123/166/3 124/219/3 131/220/3
f 126/188/12 112/187/12 111/168/12 125/167/12
f 128/170/13 120/169/13 119/189/13 127/173/13
f 130/180/14 116/179/14 115/172/14 129/171/14
f 109/182/15 124/181/15 123/221/15 110/222/15
f 129/171/3 145/178/3 146/211/3 130/210/3
f 144/177/3 128/170/3 127/173/3 143/176/3
f 125/167/3 141/209/3 142/175/3 126/174/3
f 131/212/16 133/214/16 134/223/16 132/224/16
f 136/204/17 142/175/17 141/209/17 135/208/17
f 138/193/18 144/177/18 143/176/18 137/205/18
f 140/213/19 146/211/19 145/178/19 139/192/19
f 121/190/20 138/193/20 137/196/20 122/195/20
f 135/217/21 114/216/21 113/194/21 136/197/21
f 133/185/22 108/184/22 107/215/22 134/218/22
f 117/183/23 140/186/23 139/192/23 118/191/23
f 121/190/24 122/195/24 113/194/24 114/216/24 107/215/24 108/184/24 117/183/24 118/191/24
