# Blender v2.80 (sub 75) OBJ File: 'untitled3.blend'
# www.blender.org
mtllib table.mtl
o Cube.020
v -1.004612 2.044815 4.964417
v -1.004612 2.599161 4.964417
v -1.004613 2.044815 -4.003430
v -1.004613 2.599161 -4.003430
v 6.012375 2.044815 4.964417
v 6.012375 2.599161 4.964417
v 6.012375 2.044815 -4.003430
v 6.012375 2.599161 -4.003430
v -1.004614 2.044815 -3.577375
v -1.004614 2.044815 4.538363
v -1.004614 2.599161 4.538363
v -1.004614 2.599161 -3.577375
v 6.012375 2.044815 4.538362
v 6.012375 2.044815 -3.577376
v 6.012375 2.599161 -3.577376
v 6.012375 2.599161 4.538362
v -1.004613 2.044815 -3.355841
v -1.004613 2.044815 4.316829
v -1.004613 2.599161 4.316829
v -1.004613 2.599161 -3.355841
v 6.012375 2.044815 4.316828
v 6.012375 2.044815 -3.355841
v 6.012375 2.599161 -3.355841
v 6.012375 2.599161 4.316828
v 5.508403 2.044815 -4.003430
v -0.500642 2.044815 -4.003430
v -0.500642 2.599161 -4.003430
v 5.508403 2.599161 -4.003430
v -0.500642 2.044815 4.964418
v 5.508403 2.044815 4.964417
v 5.508403 2.599161 4.964417
v -0.500642 2.599161 4.964417
v -0.500642 2.599161 -3.577375
v 5.508403 2.599161 -3.577375
v -0.500642 2.599161 4.538363
v 5.508404 2.599161 4.538362
v 5.508403 2.044815 -3.577375
v -0.500642 2.044815 -3.577376
v 5.508403 2.044815 4.538363
v -0.500642 2.044815 4.538363
v 5.508404 2.044815 -3.355841
v -0.500642 2.044815 -3.355841
v 5.508403 2.044815 4.316829
v -0.500643 2.044815 4.316830
v -0.500642 2.599161 -3.355841
v 5.508404 2.599161 -3.355841
v -0.500641 2.599161 4.316829
v 5.508404 2.599161 4.316829
v 5.227213 2.044815 -4.003430
v -0.219451 2.044815 -4.003430
v -0.219451 2.599161 -4.003430
v 5.227214 2.599161 -4.003430
v -0.219450 2.044815 4.964417
v 5.227215 2.044815 4.964418
v 5.227213 2.599161 4.964417
v -0.219452 2.599161 4.964418
v -0.219451 2.599161 -3.577375
v 5.227214 2.599161 -3.577375
v -0.219452 2.599161 4.538363
v 5.227215 2.599161 4.538363
v 5.227213 2.044815 -3.577375
v -0.219451 2.044815 -3.577375
v 5.227213 2.044815 4.538363
v -0.219452 2.044815 4.538363
v 5.227213 2.044815 -3.355841
v -0.219452 2.044815 -3.355841
v 5.227213 2.044815 4.316829
v -0.219451 2.044815 4.316829
v -0.219451 2.599161 -3.355841
v 5.227214 2.599161 -3.355841
v -0.219451 2.599161 4.316829
v 5.227215 2.599161 4.316830
v -0.219451 0.319892 -3.577375
v -0.500642 0.319892 -3.577376
v -0.219452 0.319892 4.538363
v -0.500642 0.319892 4.538363
v -0.219452 0.319892 -3.355841
v -0.500642 0.319892 -3.355841
v -0.219451 0.319892 4.316829
v -0.500643 0.319892 4.316830
v 5.508403 0.319892 -3.577375
v 5.508404 0.319892 -3.355841
v 5.508403 0.319892 4.316829
v 5.508403 0.319892 4.538363
v 5.227213 0.319892 -3.577375
v 5.227213 0.319892 4.538363
v 5.227213 0.319892 -3.355841
v 5.227213 0.319892 4.316829
v -0.219451 2.536183 -3.355841
v 5.227214 2.536183 -3.355841
v -0.219451 2.536183 4.316829
v 5.227215 2.536183 4.316830
vt 0.595661 0.499365
vt 0.595661 0.471117
vt 0.617342 0.471117
vt 0.617342 0.499365
vt 0.161324 0.956347
vt 0.161324 0.984596
vt 0.135679 0.984596
vt 0.135679 0.956347
vt 0.113999 0.499365
vt 0.113999 0.471117
vt 0.135679 0.471117
vt 0.135679 0.499365
vt 0.467101 0.499365
vt 0.467101 0.471117
vt 0.492746 0.471117
vt 0.492746 0.499365
vt 0.161324 0.521076
vt 0.135679 0.521076
vt 0.161324 0.499365
vt 0.467101 0.449406
vt 0.492746 0.449406
vt 0.467101 0.014134
vt 0.492746 0.014134
vt 0.492746 0.035845
vt 0.467101 0.035845
vt 0.467101 0.438117
vt 0.492746 0.438117
vt 0.135679 0.934636
vt 0.161324 0.934636
vt 0.161324 0.532365
vt 0.135679 0.532365
vt 0.007985 0.499365
vt 0.007985 0.471117
vt 0.029665 0.471117
vt 0.029665 0.499365
vt 0.102726 0.499365
vt 0.102726 0.471117
vt 0.514426 0.471117
vt 0.514426 0.499365
vt 0.584388 0.499365
vt 0.584388 0.471117
vt 0.525699 0.471117
vt 0.525699 0.499365
vt 0.040938 0.471117
vt 0.040938 0.499365
vt 0.135679 0.923348
vt 0.161324 0.923348
vt 0.492746 0.047134
vt 0.467101 0.047134
vt 0.135679 0.047134
vt 0.161324 0.047134
vt 0.161324 0.438117
vt 0.135679 0.438117
vt 0.452792 0.047134
vt 0.452792 0.438117
vt 0.135679 0.035845
vt 0.161324 0.035845
vt 0.452792 0.035845
vt 0.492746 0.923348
vt 0.467101 0.923348
vt 0.467101 0.532365
vt 0.492746 0.532365
vt 0.175633 0.923348
vt 0.175633 0.532365
vt 0.492746 0.934636
vt 0.467101 0.934636
vt 0.727648 0.261811
vt 0.693874 0.261811
vt 0.693874 0.054629
vt 0.727648 0.054629
vt 0.467101 0.521076
vt 0.492746 0.521076
vt 0.754257 0.503356
vt 0.727648 0.503356
vt 0.727648 0.296173
vt 0.754257 0.296173
vt 0.492746 0.956347
vt 0.467101 0.956347
vt 0.175633 0.956347
vt 0.175633 0.934636
vt 0.161324 0.449406
vt 0.135679 0.449406
vt 0.452792 0.449406
vt 0.135679 0.014134
vt 0.161324 0.014134
vt 0.452792 0.014134
vt 0.161324 0.471117
vt 0.452792 0.471117
vt 0.175633 0.521076
vt 0.175633 0.499365
vt 0.452792 0.499365
vt 0.492746 0.984596
vt 0.467101 0.984596
vt 0.175633 0.984596
vt 0.452792 0.984596
vt 0.452792 0.956347
vt 0.175633 0.471117
vt 0.452792 0.521076
vt 0.175633 0.449406
vt 0.175633 0.014134
vt 0.175633 0.035845
vt 0.175633 0.438117
vt 0.452792 0.934636
vt 0.788031 0.503356
vt 0.788031 0.296173
vt 0.452792 0.532365
vt 0.814640 0.261811
vt 0.788031 0.261811
vt 0.788031 0.054629
vt 0.814640 0.054629
vt 0.452792 0.923348
vt 0.175633 0.047134
vt 0.184566 0.429963
vt 0.184566 0.060123
vt 0.187503 0.060123
vt 0.187503 0.429963
vt 0.788031 0.262399
vt 0.814640 0.262399
vt 0.814640 0.296173
vt 0.780865 0.745489
vt 0.814639 0.745489
vt 0.814639 0.772097
vt 0.780865 0.772097
vt 0.788031 0.537718
vt 0.788031 0.503944
vt 0.814640 0.503944
vt 0.814640 0.537718
vt 0.788031 0.020855
vt 0.814640 0.020855
vt 0.814640 0.744901
vt 0.788031 0.744901
vt 0.814639 0.979280
vt 0.780865 0.979280
vt 0.720482 0.979280
vt 0.693874 0.979280
vt 0.693874 0.772097
vt 0.720482 0.772097
vt 0.754256 0.744901
vt 0.754256 0.537718
vt 0.727648 0.744901
vt 0.727648 0.537718
vt 0.693874 0.503356
vt 0.693874 0.296173
vt 0.754256 0.979280
vt 0.754256 0.772097
vt 0.754256 0.261811
vt 0.754256 0.054629
vt 0.814640 0.503356
vt 0.693874 0.744901
vt 0.693874 0.537718
vt 0.187503 0.057087
vt 0.441543 0.057087
vt 0.441543 0.060123
vt 0.441543 0.432998
vt 0.187503 0.432998
vt 0.441543 0.429963
vt 0.444480 0.060123
vt 0.444480 0.429963
vn -1.0000 0.0000 -0.0000
vn 0.0000 0.0000 -1.0000
vn 1.0000 0.0000 0.0000
vn -0.0000 0.0000 1.0000
vn 0.0000 -1.0000 0.0000
vn 0.0000 1.0000 0.0000
usemtl wood.2
s off
f 9/1/1 12/2/1 4/3/1 3/4/1
f 25/5/2 28/6/2 8/7/2 7/8/2
f 13/9/3 16/10/3 6/11/3 5/12/3
f 29/13/4 32/14/4 2/15/4 1/16/4
f 39/17/5 13/18/5 5/12/5 30/19/5
f 35/20/6 11/21/6 2/15/6 32/14/6
f 27/22/6 4/23/6 12/24/6 33/25/6
f 47/26/6 19/27/6 11/21/6 35/20/6
f 25/5/5 7/8/5 14/28/5 37/29/5
f 43/30/5 21/31/5 13/18/5 39/17/5
f 7/32/3 8/33/3 15/34/3 14/35/3
f 21/36/3 24/37/3 16/10/3 13/9/3
f 1/16/1 2/15/1 11/38/1 10/39/1
f 17/40/1 20/41/1 12/2/1 9/1/1
f 10/39/1 11/38/1 19/42/1 18/43/1
f 18/43/1 19/42/1 20/41/1 17/40/1
f 14/35/3 15/34/3 23/44/3 22/45/3
f 22/45/3 23/44/3 24/37/3 21/36/3
f 37/29/5 14/28/5 22/46/5 41/47/5
f 41/47/5 22/46/5 21/31/5 43/30/5
f 33/25/6 12/24/6 20/48/6 45/49/6
f 45/49/6 20/48/6 19/27/6 47/26/6
f 23/50/6 46/51/6 48/52/6 24/53/6
f 69/54/6 45/49/6 47/26/6 71/55/6
f 15/56/6 34/57/6 46/51/6 23/50/6
f 57/58/6 33/25/6 45/49/6 69/54/6
f 17/59/5 42/60/5 44/61/5 18/62/5
f 65/63/5 41/47/5 43/30/5 67/64/5
f 9/65/5 38/66/5 42/60/5 17/59/5
f 66/67/4 42/68/4 78/69/4 77/70/4
f 18/62/5 44/61/5 40/71/5 10/72/5
f 37/73/3 41/74/3 82/75/3 81/76/3
f 3/77/5 26/78/5 38/66/5 9/65/5
f 49/79/5 25/5/5 37/29/5 61/80/5
f 24/53/6 48/52/6 36/81/6 16/82/6
f 71/55/6 47/26/6 35/20/6 59/83/6
f 8/84/6 28/85/6 34/57/6 15/56/6
f 51/86/6 27/22/6 33/25/6 57/58/6
f 16/82/6 36/81/6 31/87/6 6/11/6
f 59/83/6 35/20/6 32/14/6 56/88/6
f 10/72/5 40/71/5 29/13/5 1/16/5
f 63/89/5 39/17/5 30/19/5 54/90/5
f 5/12/4 6/11/4 31/87/4 30/19/4
f 53/91/4 56/88/4 32/14/4 29/13/4
f 3/77/2 4/92/2 27/93/2 26/78/2
f 49/79/2 52/94/2 28/6/2 25/5/2
f 26/78/2 27/93/2 51/95/2 50/96/2
f 50/96/2 51/95/2 52/94/2 49/79/2
f 30/19/4 31/87/4 55/97/4 54/90/4
f 54/90/4 55/97/4 56/88/4 53/91/4
f 40/71/5 64/98/5 53/91/5 29/13/5
f 64/98/5 63/89/5 54/90/5 53/91/5
f 36/81/6 60/99/6 55/97/6 31/87/6
f 60/99/6 59/83/6 56/88/6 55/97/6
f 28/85/6 52/100/6 58/101/6 34/57/6
f 52/100/6 51/86/6 57/58/6 58/101/6
f 48/52/6 72/102/6 60/99/6 36/81/6
f 72/102/6 71/55/6 59/83/6 60/99/6
f 26/78/5 50/96/5 62/103/5 38/66/5
f 50/96/5 49/79/5 61/80/5 62/103/5
f 61/104/2 37/73/2 81/76/2 85/105/2
f 68/106/5 67/64/5 63/89/5 64/98/5
f 42/107/1 38/108/1 74/109/1 78/110/1
f 62/103/5 61/80/5 65/63/5 66/111/5
f 42/60/5 66/111/5 68/106/5 44/61/5
f 66/111/5 65/63/5 67/64/5 68/106/5
f 34/57/6 58/101/6 70/112/6 46/51/6
f 58/101/6 57/58/6 69/54/6 70/112/6
f 46/51/6 70/112/6 72/102/6 48/52/6
f 69/113/3 71/114/3 91/115/3 89/116/3
f 85/105/5 81/117/5 82/118/5 87/119/5
f 88/120/5 83/121/5 84/122/5 86/123/5
f 80/124/5 79/125/5 75/126/5 76/127/5
f 74/109/5 73/128/5 77/129/5 78/110/5
f 40/130/1 44/131/1 80/124/1 76/127/1
f 39/132/4 63/133/4 86/123/4 84/122/4
f 43/134/3 39/135/3 84/136/3 83/137/3
f 44/131/2 68/138/2 79/139/2 80/124/2
f 68/138/3 64/140/3 75/141/3 79/139/3
f 41/74/4 65/142/4 87/143/4 82/75/4
f 63/133/1 67/144/1 88/145/1 86/123/1
f 38/108/2 62/146/2 73/147/2 74/109/2
f 62/146/3 66/67/3 77/70/3 73/147/3
f 67/144/2 43/134/2 83/137/2 88/145/2
f 65/148/1 61/104/1 85/105/1 87/119/1
f 64/140/4 40/149/4 76/150/4 75/141/4
f 71/151/2 72/152/2 92/153/2 91/115/2
f 70/154/4 69/155/4 89/116/4 90/156/4
f 72/157/1 70/158/1 90/156/1 92/153/1
usemtl glass.1
f 90/156/6 89/116/6 91/115/6 92/153/6
