# Blender v2.80 (sub 75) OBJ File: ''
# www.blender.org
mtllib block.1.mtl
o SM_Prop_Cone_7_SM_Prop_Cone_01
v 0.246696 -0.325240 -0.195030
v 0.166008 -0.301011 -0.095741
v 0.295067 -0.325240 -0.126137
v -0.192284 -0.325240 -0.256722
v -0.095718 -0.301011 -0.165871
v -0.115952 -0.325240 -0.292198
v -0.246544 -0.325240 0.195160
v -0.165848 -0.301011 0.095863
v -0.294907 -0.325240 0.126266
v 0.192444 -0.325240 0.256851
v 0.095879 -0.301011 0.165993
v 0.116112 -0.325240 0.292328
v 0.049667 -0.301011 -0.185005
v 0.133919 -0.076450 -0.079132
v 0.040649 -0.085510 -0.151352
v -0.078293 -0.085510 -0.135689
v -0.184982 -0.301011 -0.049530
v -0.151337 -0.085510 -0.040512
v -0.135666 -0.085510 0.078438
v -0.049507 -0.301011 0.185135
v -0.040489 -0.085510 0.151474
v 0.078468 -0.085510 0.135818
v 0.185143 -0.301011 0.049652
v 0.151497 -0.085510 0.040634
v -0.031204 0.590391 0.018135
v -0.009270 0.590391 0.034966
v 0.000084 0.590391 0.000061
v 0.018143 0.590391 0.031357
v 0.065376 -0.325240 -0.243614
v -0.243591 -0.325240 -0.065231
v -0.065216 -0.325240 0.243744
v 0.243752 -0.325240 0.065353
v 0.256752 -0.365501 -0.202980
v 0.068031 -0.365501 -0.253548
v 0.068031 -0.346551 -0.253548
v 0.256752 -0.346551 -0.202980
v -0.120689 -0.346551 -0.304115
v -0.120689 -0.365501 -0.304115
v 0.200287 -0.365501 0.267319
v 0.253685 -0.346551 0.068016
v 0.200287 -0.346551 0.267319
v 0.253685 -0.365501 0.068016
v 0.307091 -0.365501 -0.131287
v 0.307091 -0.346551 -0.131287
v -0.200127 -0.365501 -0.267197
v -0.200127 -0.346551 -0.267197
v -0.256599 -0.346551 0.203110
v -0.306931 -0.346551 0.131409
v -0.306931 -0.365501 0.131409
v -0.256599 -0.365501 0.203110
v 0.120850 -0.365501 0.304245
v 0.120850 -0.346551 0.304245
v 0.060440 0.452894 -0.034782
v 0.041183 0.590391 -0.023666
v 0.067406 0.452894 0.018097
v 0.045921 0.590391 0.012344
v 0.023811 0.590391 0.041161
v 0.034927 0.452894 0.060425
v -0.012207 0.590391 0.045906
v -0.017960 0.452894 0.067383
v -0.041023 0.590391 0.023789
v -0.062500 0.446002 0.035065
v -0.067245 0.452894 -0.017975
v -0.045761 0.590391 -0.012222
v -0.023651 0.590391 -0.041038
v -0.034775 0.452894 -0.060295
v 0.012367 0.590391 -0.045784
v 0.017288 0.441542 -0.070091
v 0.119705 0.029597 -0.069008
v 0.088303 0.253856 -0.050880
v 0.133514 0.029597 0.035812
v 0.098495 0.253856 0.026428
v 0.049118 0.263996 0.088097
v 0.069145 0.017857 0.119774
v -0.026291 0.253856 0.098473
v -0.035675 0.029597 0.133492
v -0.088142 0.253856 0.051003
v -0.119553 0.029597 0.069138
v -0.135429 0.018226 -0.037384
v -0.097481 0.265378 -0.023430
v -0.050850 0.253856 -0.088165
v -0.068985 0.029597 -0.119568
v 0.026451 0.253856 -0.098343
v 0.037956 0.017964 -0.135536
v -0.067879 -0.346551 0.253677
v -0.253525 -0.346551 -0.067894
v -0.253525 -0.365501 -0.067894
v -0.067879 -0.365501 0.253677
v -0.034821 0.590391 -0.009293
v -0.017982 0.590391 -0.031227
v 0.009430 0.590391 -0.034836
v 0.031364 0.590391 -0.018005
v 0.034981 0.590391 0.009415
v 0.000084 -0.365501 0.000061
v 0.104004 0.141727 -0.059944
v 0.116005 0.141727 0.031120
v 0.059132 0.140927 0.103935
v -0.030983 0.141727 0.115982
v -0.103848 0.141727 0.060070
v -0.116455 0.141802 -0.030407
v -0.059917 0.141727 -0.103867
v 0.032204 0.135910 -0.116940
v 0.063327 0.089371 0.110570
v -0.032949 0.094754 0.123317
v -0.110427 0.094754 0.063869
v -0.063716 0.094754 -0.110444
v 0.034614 0.086501 -0.124730
v 0.110581 0.094754 -0.063741
v 0.123340 0.094754 0.033086
v -0.124404 0.090034 -0.033330
v 0.142979 -0.030985 0.038350
v 0.127186 -0.026217 -0.074336
v 0.074052 -0.036546 0.128218
v -0.038209 -0.030985 0.142956
v -0.128033 -0.030985 0.074032
v -0.143802 -0.036372 -0.039030
v -0.073884 -0.030985 -0.128053
v 0.039374 -0.036496 -0.143860
vt 0.336410 0.251843
vt 0.313464 0.297839
vt 0.316001 0.249939
vt 0.469203 0.273409
vt 0.457241 0.321366
vt 0.448547 0.269231
vt 0.614663 0.233728
vt 0.622428 0.304656
vt 0.589360 0.248912
vt 0.209476 0.191908
vt 0.160826 0.236121
vt 0.188939 0.169515
vt 0.532717 0.298405
vt 0.529732 0.451964
vt 0.446863 0.444628
vt 0.224281 0.852331
vt 0.258387 0.934935
vt 0.240969 0.952348
vt 0.182473 0.868572
vt 0.192930 0.548931
vt 0.195071 0.494636
vt 0.277528 0.502070
vt 0.272485 0.552957
vt 0.112528 0.390063
vt 0.249678 0.255704
vt 0.205354 0.404951
vt 0.383118 0.876623
vt 0.326531 0.945134
vt 0.311203 0.933104
vt 0.346036 0.857458
vt 0.199542 0.446299
vt 0.283358 0.460632
vt 0.329336 0.968409
vt 0.326710 0.994975
vt 0.288622 0.968643
vt 0.242334 0.985733
vt 0.248619 0.956574
vt 0.727360 0.190847
vt 0.733963 0.252728
vt 0.067222 0.152616
vt 0.091849 0.094065
vt 0.528210 0.266096
vt 0.262924 0.226162
vt 0.391605 0.266949
vt 0.386838 0.295707
vt 0.318901 0.240284
vt 0.270219 0.213156
vt 0.432164 0.000086
vt 0.337341 0.240061
vt 0.337761 0.966795
vt 0.320703 0.949718
vt 0.217847 0.182233
vt 0.267026 0.218771
vt 0.214162 0.186067
vt 0.000099 0.377071
vt 0.203886 0.157225
vt 0.197377 0.162732
vt 0.336696 0.245156
vt 0.317898 0.244428
vt 0.469067 0.263391
vt 0.524970 0.251149
vt 0.526427 0.257732
vt 0.468993 0.267442
vt 0.103806 0.079737
vt 0.113458 0.069134
vt 0.583837 0.237270
vt 0.604262 0.218100
vt 0.608661 0.225026
vt 0.586630 0.242022
vt 0.624219 0.465201
vt 0.266073 0.845272
vt 0.277126 0.927685
vt 0.450254 0.262676
vt 0.140877 0.892598
vt 0.057626 0.718902
vt 0.129851 0.707332
vt 0.455499 0.735039
vt 0.393777 0.703623
vt 0.733963 0.483160
vt 0.309130 0.838730
vt 0.329886 0.690583
vt 0.294977 0.926930
vt 0.368556 0.431864
vt 0.264990 0.684565
vt 0.583378 0.619922
vt 0.502941 0.590203
vt 0.516251 0.532143
vt 0.602065 0.563296
vt 0.198346 0.686926
vt 0.491123 0.633009
vt 0.416234 0.612671
vt 0.348999 0.555583
vt 0.356450 0.503956
vt 0.422577 0.899796
vt 0.521035 0.755573
vt 0.584321 0.796411
vt 0.452697 0.943342
vt 0.289156 0.425291
vt 0.392868 0.258965
vt 0.000086 0.433535
vt 0.107466 0.432297
vt 0.105219 0.481027
vt 0.004559 0.496017
vt 0.337296 0.999914
vt 0.699028 0.596185
vt 0.670200 0.657442
vt 0.343456 0.594524
vt 0.193130 0.589208
vt 0.110697 0.594050
vt 0.228181 0.986685
vt 0.720266 0.173996
vt 0.025179 0.609120
vt 0.451115 0.257466
vt 0.393846 0.252626
vt 0.714269 0.161289
vt 0.308299 0.937923
vt 0.293971 0.932768
vt 0.278426 0.933752
vt 0.262657 0.941222
vt 0.567102 0.660501
vt 0.647339 0.699743
vt 0.269543 0.591081
vt 0.424392 0.575400
vt 0.434132 0.525556
vt 0.106780 0.546402
vt 0.014958 0.562553
vt 0.362890 0.465147
vt 0.441505 0.481589
vt 0.524574 0.489444
vt 0.615590 0.511151
vt 0.719732 0.536925
vn 0.1398 0.9822 -0.1251
vn 0.1502 0.9833 -0.1026
vn 0.1636 0.9778 -0.1309
vn -0.0741 0.9853 -0.1538
vn -0.0689 0.9815 -0.1788
vn -0.0735 0.9775 -0.1977
vn -0.1428 0.9817 0.1262
vn -0.1673 0.9805 0.1032
vn -0.1664 0.9774 0.1301
vn 0.0710 0.9844 0.1610
vn 0.0763 0.9827 0.1686
vn 0.0845 0.9774 0.1936
vn -0.8197 0.0778 -0.5674
vn -0.7803 0.1458 -0.6081
vn -0.7874 0.1431 -0.5996
vn -0.7886 0.1356 -0.5997
vn 0.7864 0.1501 0.5993
vn 0.7815 0.1479 0.6061
vn 0.7875 0.1436 0.5993
vn 0.7873 0.1532 0.5972
vn 0.9805 0.1445 -0.1335
vn 0.9803 0.1438 -0.1356
vn 0.9790 0.1527 -0.1348
vn 0.9803 0.1536 -0.1243
vn 0.7895 0.1407 0.5974
vn 0.7822 0.1412 0.6068
vn 0.8360 0.1265 0.5340
vn 0.7820 0.1492 0.6052
vn -0.7890 0.1492 -0.5960
vn -0.7893 0.1484 -0.5959
vn -0.7798 0.1498 -0.6079
vn -0.7878 0.1522 -0.5968
vn 0.9803 0.1422 -0.1368
vn 0.9800 0.1493 -0.1317
vn 0.9804 0.1517 -0.1254
vn 0.9821 0.1398 -0.1262
vn 0.0055 1.0000 0.0008
vn 0.0006 1.0000 -0.0055
vn -0.0024 1.0000 0.0049
vn 0.0053 1.0000 -0.0015
vn -0.0028 1.0000 -0.0048
vn 0.0018 1.0000 0.0052
vn -0.0859 0.9743 0.2080
vn -0.0177 0.9715 0.2366
vn -0.1185 0.9653 0.2325
vn -0.1157 0.9610 0.2511
vn -0.0190 0.9688 0.2471
vn -0.0528 0.9838 0.1710
vn 0.0016 0.9616 0.2744
vn -0.0034 0.9664 0.2570
vn -0.2450 0.9689 -0.0334
vn -0.1751 0.9821 -0.0702
vn -0.2688 0.9632 0.0046
vn -0.2373 0.9714 -0.0080
vn 0.2223 0.9691 0.1069
vn 0.2380 0.9672 0.0884
vn 0.1962 0.9753 0.1013
vn 0.1655 0.9854 0.0406
vn -0.0077 0.9659 -0.2586
vn 0.0033 0.9632 -0.2689
vn 0.0288 0.9696 -0.2432
vn 0.0943 0.9742 -0.2048
vn 0.0057 -1.0000 -0.0019
vn -0.0044 -1.0000 -0.0034
vn 0.0055 -1.0000 0.0008
vn -0.0007 -1.0000 -0.0058
vn -0.0006 1.0000 0.0068
vn -0.0046 1.0000 -0.0030
vn -0.0037 1.0000 0.0041
vn 0.0007 1.0000 -0.0077
vn -0.2026 0.9754 -0.0873
vn -0.2182 0.9758 -0.0156
vn -0.2254 0.9672 -0.1167
vn -0.2459 0.9653 -0.0876
vn 0.9671 -0.0017 0.2543
vn 0.9654 0.0051 0.2608
vn 0.9645 -0.0021 0.2643
vn 0.9667 -0.0037 0.2559
vn 0.0497 0.1198 0.9916
vn 0.1360 0.1430 0.9803
vn 0.1226 0.1408 0.9824
vn 0.1302 0.1430 0.9811
vn 0.4252 -0.0031 0.9051
vn 0.4230 0.0047 0.9061
vn 0.4182 -0.0030 0.9084
vn 0.4174 -0.0010 0.9087
vn 0.8205 0.0064 -0.5716
vn 0.8215 -0.0037 -0.5702
vn 0.8212 -0.0035 -0.5706
vn 0.8167 -0.0051 -0.5770
vn -0.9649 -0.0032 -0.2625
vn -0.9669 -0.0039 -0.2550
vn -0.9647 0.0059 -0.2633
vn -0.9653 0.0052 -0.2612
vn -0.2558 0.0041 0.9667
vn -0.2598 0.0046 0.9657
vn -0.2639 -0.0029 0.9645
vn -0.2568 -0.0051 0.9665
vn 0.9668 -0.0049 0.2555
vn 0.9649 0.0054 0.2624
vn 0.9665 -0.0057 0.2568
vn 0.9672 0.0021 0.2539
vn -0.8211 -0.0037 0.5708
vn -0.8151 0.0002 0.5793
vn -0.8191 0.0055 0.5736
vn -0.8219 -0.0018 0.5696
vn -0.9815 0.1457 0.1238
vn -0.9814 0.1403 0.1307
vn -0.9930 0.1032 0.0571
vn -0.9781 0.1566 0.1368
vn 0.9813 0.1428 -0.1288
vn 0.9808 0.1444 -0.1312
vn 0.9796 0.1505 -0.1332
vn 0.9809 0.1496 -0.1244
vn -0.3402 0.5231 -0.7814
vn -0.3405 0.5274 -0.7784
vn -0.3598 0.5108 -0.7808
vn -0.3648 0.5107 -0.7785
vn 0.1227 0.1410 0.9824
vn 0.1262 0.1555 0.9797
vn 0.1283 0.1518 0.9801
vn 0.1157 0.1447 0.9827
vn -0.7848 0.1583 -0.5992
vn -0.7864 0.1534 -0.5983
vn -0.7914 0.1399 -0.5950
vn -0.7846 0.1401 -0.6040
vn -0.6012 0.1423 0.7863
vn -0.5961 0.1393 0.7907
vn -0.5811 0.0698 0.8108
vn -0.6060 0.1464 0.7819
vn -0.1445 0.1378 -0.9799
vn -0.1335 0.1393 -0.9812
vn -0.1285 0.1477 -0.9806
vn -0.1413 0.1392 -0.9801
vn -0.1365 0.1572 -0.9781
vn -0.1433 0.1595 -0.9767
vn -0.1369 0.1468 -0.9796
vn -0.1396 0.1417 -0.9800
vn -0.1247 0.1438 -0.9817
vn -0.1302 0.1433 -0.9811
vn -0.0875 0.0779 -0.9931
vn -0.1409 0.1527 -0.9782
vn 0.5979 0.1570 -0.7860
vn 0.6061 0.1455 -0.7819
vn 0.6018 0.1438 -0.7856
vn 0.5979 0.1505 -0.7873
vn -0.9813 0.1436 0.1282
vn -0.9821 0.1327 0.1335
vn -0.9793 0.1484 0.1375
vn -0.9802 0.1494 0.1302
vn 0.9813 0.1458 -0.1258
vn 0.9795 0.1519 -0.1324
vn 0.9798 0.1491 -0.1330
vn 0.9803 0.1519 -0.1266
vn -0.7835 0.1566 -0.6013
vn -0.7789 0.1476 -0.6095
vn -0.7815 0.1579 -0.6036
vn -0.7822 0.1459 -0.6057
vn 0.6064 0.1527 -0.7804
vn 0.6046 0.1433 -0.7835
vn 0.6015 0.1433 -0.7859
vn 0.5951 0.1440 -0.7907
vn 0.6096 0.1542 -0.7775
vn 0.6132 0.1494 -0.7756
vn 0.6074 0.1441 -0.7812
vn 0.6070 0.1505 -0.7803
vn -0.6030 0.1559 0.7824
vn -0.5926 0.1479 0.7918
vn -0.6031 0.1523 0.7830
vn -0.6070 0.1433 0.7816
vn -0.7166 0.5055 0.4806
vn -0.7033 0.5095 0.4957
vn -0.6980 0.5159 0.4966
vn -0.6925 0.5332 0.4860
vn 0.9810 0.1447 -0.1290
vn 0.9922 0.0654 -0.1060
vn 0.9797 0.1427 -0.1406
vn 0.9804 0.1502 -0.1272
vn 0.2550 0.4365 -0.8628
vn 0.2308 0.4286 -0.8735
vn 0.2345 0.4409 -0.8664
vn 0.2648 0.4315 -0.8624
vn -0.2309 0.4298 0.8729
vn -0.2288 0.4364 0.8702
vn -0.2300 0.4517 0.8620
vn -0.2510 0.4067 0.8784
vn 0.3632 0.5110 0.7791
vn 0.3577 0.5179 0.7771
vn 0.3446 0.5173 0.7833
vn 0.3435 0.5178 0.7835
vn 0.8743 0.4203 0.2428
vn 0.8699 0.4368 0.2289
vn 0.8670 0.4397 0.2345
vn 0.8623 0.4292 0.2687
vn -0.9784 0.1526 0.1393
vn -0.9815 0.1474 0.1223
vn -0.9787 0.1480 0.1425
vn -0.9794 0.1563 0.1279
vn 0.6964 0.5181 -0.4966
vn 0.6934 0.5344 -0.4833
vn 0.7164 0.5038 -0.4827
vn 0.7018 0.5101 -0.4972
vn 0.5434 0.1072 -0.8326
vn 0.6035 0.1448 -0.7841
vn 0.6017 0.1427 -0.7859
vn 0.6059 0.1364 -0.7838
vn 0.1463 0.1562 0.9768
vn 0.1335 0.1619 0.9777
vn 0.1339 0.1568 0.9785
vn 0.1416 0.1493 0.9786
vn -0.6028 0.1524 0.7832
vn -0.6063 0.1442 0.7821
vn -0.5997 0.1584 0.7844
vn -0.6012 0.1455 0.7857
vn -0.6021 0.1392 0.7862
vn -0.5986 0.1493 0.7870
vn -0.6028 0.1534 0.7830
vn -0.6068 0.1464 0.7813
vn -0.1357 0.1474 -0.9797
vn -0.1362 0.1538 -0.9787
vn -0.1240 0.1456 -0.9815
vn -0.1325 0.1427 -0.9809
vn 0.7827 0.1510 0.6038
vn 0.7798 0.1402 0.6101
vn 0.7765 0.1443 0.6134
vn 0.7825 0.1367 0.6074
vn 0.1384 0.1500 0.9790
vn 0.1232 0.1528 0.9805
vn 0.1252 0.1437 0.9817
vn 0.1327 0.1443 0.9806
vn -0.9802 0.1580 0.1189
vn -0.9804 0.1595 0.1160
vn -0.9826 0.1444 0.1167
vn -0.9824 0.1421 0.1209
vn 0.7881 0.1421 0.5989
vn 0.7849 0.1397 0.6036
vn 0.7812 0.1508 0.6058
vn 0.7824 0.1508 0.6042
vn 0.1109 0.9690 -0.2210
vn 0.1133 0.9606 -0.2536
vn 0.1021 0.9741 -0.2017
vn 0.0345 0.9820 -0.1860
vn -0.2529 0.4386 0.8623
vn -0.2331 0.4295 0.8724
vn -0.2276 0.4371 0.8701
vn -0.2609 0.4480 0.8551
vn 0.1309 0.1467 0.9805
vn 0.1253 0.1488 0.9809
vn 0.1233 0.1497 0.9810
vn 0.1301 0.1364 0.9821
vn -0.4262 0.0025 -0.9046
vn -0.4169 0.0028 -0.9089
vn -0.4180 -0.0035 -0.9084
vn -0.4243 -0.0039 -0.9055
vn 0.2626 -0.0039 -0.9649
vn 0.2555 -0.0038 -0.9668
vn 0.2561 0.0050 -0.9666
vn 0.2566 -0.0071 -0.9665
vn -0.9654 0.0061 -0.2606
vn -0.9644 -0.0046 -0.2645
vn -0.9649 -0.0039 -0.2626
vn -0.9669 -0.0045 -0.2552
vn -0.2586 -0.0058 0.9660
vn -0.2539 0.0021 0.9672
vn -0.2616 0.0053 0.9652
vn -0.2641 -0.0012 0.9645
vn -0.8594 0.4493 -0.2442
vn -0.8809 0.4038 -0.2469
vn -0.8736 0.4293 -0.2293
vn -0.8700 0.4375 -0.2275
vn 0.2197 0.4537 -0.8636
vn 0.2336 0.4051 -0.8840
vn 0.2259 0.4366 -0.8708
vn 0.2281 0.4329 -0.8721
vn -0.8695 0.4388 -0.2268
vn -0.8562 0.4438 -0.2645
vn -0.8728 0.4193 -0.2498
vn -0.8691 0.4333 -0.2386
vn 0.8597 0.4476 0.2460
vn 0.8861 0.4015 0.2316
vn 0.8705 0.4365 0.2274
vn 0.8689 0.4391 0.2285
vn 0.0039 1.0000 0.0039
vn 0.0028 1.0000 -0.0048
vn -0.0052 1.0000 0.0018
vn 0.0009 1.0000 0.0054
vn 0.0051 1.0000 -0.0022
vn -0.0049 1.0000 -0.0024
vn -0.0026 1.0000 0.0049
vn 0.0054 1.0000 0.0013
vn -0.0018 1.0000 -0.0052
vn -0.0050 1.0000 0.0024
vn 0.0035 1.0000 0.0042
vn 0.0024 1.0000 -0.0049
vn -0.0011 1.0000 -0.0054
vn 0.0003 1.0000 0.0055
vn 0.0052 1.0000 -0.0018
vn 0.0034 1.0000 -0.0044
vn -0.0054 1.0000 -0.0010
vn 0.0049 1.0000 0.0024
vn -0.0078 1.0000 0.0012
vn 0.0005 1.0000 -0.0055
vn -0.0054 1.0000 -0.0013
vn -0.0058 1.0000 -0.0045
vn -0.0017 1.0000 -0.0047
vn -0.0051 1.0000 -0.0022
vn -0.0010 1.0000 0.0054
vn -0.0065 1.0000 0.0021
vn -0.0028 1.0000 0.0048
vn 0.0028 1.0000 0.0048
vn 0.0004 1.0000 -0.0057
vn -0.0049 1.0000 -0.0014
vn 0.0032 1.0000 -0.0045
vn -0.0039 1.0000 -0.0039
vn -0.0024 1.0000 -0.0045
vn -0.0064 1.0000 0.0036
vn -0.0068 1.0000 -0.0036
vn -0.0024 1.0000 -0.0050
vn -0.0053 1.0000 0.0017
vn -0.0041 1.0000 -0.0067
vn -0.0006 1.0000 -0.0050
vn -0.0051 1.0000 0.0006
vn -0.0055 1.0000 0.0007
vn -0.0001 1.0000 0.0056
vn 0.0037 1.0000 -0.0034
vn -0.0052 1.0000 -0.0026
vn -0.0028 -1.0000 -0.0048
vn 0.0051 -1.0000 -0.0028
vn 0.0040 -1.0000 -0.0038
vn 0.0010 -1.0000 -0.0054
vn -0.0040 -1.0000 -0.0032
vn 0.0048 -1.0000 -0.0028
vn -0.0048 -1.0000 0.0028
vn -0.0041 -1.0000 -0.0029
vn 0.0017 -1.0000 -0.0048
vn -0.0026 -1.0000 -0.0049
vn -0.0037 -1.0000 0.0033
vn -0.0044 -1.0000 -0.0026
vn 0.0026 -1.0000 0.0049
vn -0.0034 -1.0000 0.0044
vn -0.0048 -1.0000 0.0032
vn -0.0057 -1.0000 0.0015
vn -0.0055 -1.0000 -0.0008
vn 0.2417 0.9701 0.0197
vn 0.2169 0.9700 0.1102
vn 0.2551 0.9669 -0.0107
vn 0.2355 0.9718 0.0104
vn -0.0010 -1.0000 0.0054
vn -0.0045 -1.0000 0.0024
vn -0.0044 -1.0000 -0.0033
vn -0.0033 -1.0000 0.0044
vn -0.0043 -1.0000 -0.0039
vn -0.0040 -1.0000 0.0038
vn 0.2657 -0.0022 -0.9641
vn 0.2650 -0.0036 -0.9643
vn 0.2637 -0.0029 -0.9646
vn 0.2551 -0.0039 -0.9669
vn -0.6022 0.1392 0.7861
vn -0.5951 0.1490 0.7897
vn -0.6029 0.1534 0.7829
vn -0.6071 0.1428 0.7817
vn 0.6064 0.1557 -0.7797
vn 0.6079 0.1494 -0.7798
vn 0.6043 0.1465 -0.7832
vn 0.6016 0.1506 -0.7845
vn -0.9806 0.1452 0.1319
vn -0.9810 0.1326 0.1417
vn -0.9772 0.1471 0.1531
vn -0.9790 0.1494 0.1387
vn 0.9801 0.1515 -0.1279
vn -0.7776 0.1567 -0.6089
vn -0.7768 0.1486 -0.6119
vn -0.7759 0.1585 -0.6107
vn -0.7797 0.1452 -0.6091
vn -0.1364 0.1475 -0.9796
vn -0.1306 0.1542 -0.9794
vn -0.1247 0.1455 -0.9815
vn -0.1305 0.1442 -0.9809
vn 0.7778 0.1510 0.6101
vn 0.7719 0.1479 0.6183
vn 0.7716 0.1438 0.6196
vn 0.7807 0.1443 0.6081
vn 0.1469 0.1428 0.9788
vn 0.1414 0.1489 0.9787
vn 0.1343 0.1433 0.9805
vn 0.1456 0.1360 0.9799
vn 0.6072 0.1495 -0.7804
vn 0.6129 0.1414 -0.7774
vn 0.6048 0.1394 -0.7841
vn 0.6084 0.1500 -0.7793
vn -0.7776 0.1410 -0.6127
vn -0.7770 0.1450 -0.6126
vn -0.7807 0.1374 -0.6096
vn -0.7787 0.1507 -0.6090
vn -0.9813 0.1452 0.1262
vn -0.9810 0.1416 0.1329
vn -0.9794 0.1500 0.1355
vn -0.9800 0.1524 0.1277
vn 0.7764 0.1487 0.6124
vn 0.7807 0.1548 0.6054
vn 0.7766 0.1595 0.6094
vn 0.7717 0.1586 0.6159
vn -0.6013 0.1435 0.7860
vn -0.5986 0.1492 0.7870
vn -0.6029 0.1524 0.7832
vn -0.6068 0.1463 0.7813
vn -0.1304 0.1534 -0.9795
vn -0.1262 0.1471 -0.9810
vn -0.1303 0.1434 -0.9811
vn -0.1259 0.1515 -0.9804
vn -0.1251 0.1432 -0.9818
vn -0.1256 0.1472 -0.9811
vn -0.1338 0.1484 -0.9798
vn -0.1254 0.1516 -0.9805
vn -0.6014 0.1435 0.7860
vn -0.5976 0.1496 0.7877
vn -0.6029 0.1524 0.7831
vn 0.7816 0.1487 0.6059
vn 0.7850 0.1619 0.5979
vn 0.7818 0.1595 0.6028
vn 0.7788 0.1567 0.6074
vn -0.9816 0.1449 0.1242
vn -0.9811 0.1415 0.1322
vn -0.9793 0.1489 0.1368
vn -0.9801 0.1524 0.1272
vn -0.7794 0.1418 -0.6102
vn -0.7799 0.1448 -0.6089
vn -0.7863 0.1471 -0.6001
vn -0.7816 0.1507 -0.6053
vn 0.6038 0.1448 -0.7839
vn 0.6054 0.1415 -0.7833
vn 0.5977 0.1438 -0.7887
vn 0.6009 0.1501 -0.7851
vn 0.1412 0.1466 0.9791
vn 0.1355 0.1489 0.9795
vn 0.1283 0.1430 0.9814
vn 0.1399 0.1361 0.9808
vn 0.7796 0.1510 0.6078
vn 0.7738 0.1482 0.6159
vn 0.7734 0.1440 0.6173
vn 0.7796 0.1367 0.6111
vn -0.1361 0.1474 -0.9797
vn -0.1305 0.1542 -0.9794
vn -0.1245 0.1455 -0.9815
vn -0.1330 0.1428 -0.9808
vn -0.7798 0.1567 -0.6061
vn -0.7792 0.1484 -0.6090
vn -0.7780 0.1584 -0.6079
vn -0.7783 0.1460 -0.6106
vn -0.6022 0.1392 0.7862
vn -0.6029 0.1534 0.7830
vn 0.6077 0.1542 -0.7790
vn 0.6113 0.1494 -0.7772
vn 0.6077 0.1465 -0.7805
vn 0.6050 0.1505 -0.7819
vn -0.9809 0.1438 0.1312
vn -0.9817 0.1327 0.1365
vn -0.9779 0.1477 0.1477
vn -0.9797 0.1494 0.1333
vn 0.1371 0.1565 0.9781
vn 0.1252 0.1618 0.9789
vn 0.1259 0.1484 0.9809
vn 0.1335 0.1493 0.9797
vn 0.9801 0.1447 -0.1362
vn 0.9797 0.1493 -0.1335
vn 0.9807 0.1475 -0.1286
vn 0.9819 0.1397 -0.1280
usemtl Material.001
s off
f 1/1/1 2/2/2 3/3/3
f 4/4/4 5/5/5 6/6/6
f 7/7/7 8/8/8 9/9/9
f 10/10/10 11/11/11 12/12/12
f 17/13/13 18/14/14 16/15/15 5/5/16
f 55/16/17 56/17/18 57/18/19 58/19/20
f 109/20/21 71/21/22 69/22/23 108/23/24
f 22/24/25 11/11/26 23/25/27 24/26/28
f 63/27/29 64/28/30 65/29/31 66/30/32
f 111/31/33 112/32/34 69/22/35 71/21/36
f 25/33/37 26/34/38 27/35/39
f 26/36/40 28/37/41 27/35/42
f 31/38/43 20/39/44 8/8/45 7/7/46
f 11/11/47 20/40/48 31/41/49 12/12/50
f 8/8/51 17/13/52 30/42/53 9/9/54
f 11/11/55 10/10/56 32/43/57 23/25/58
f 29/44/59 6/6/60 5/5/61 13/45/62
f 43/46/63 42/47/64 94/48/65 33/49/66
f 61/50/67 25/33/68 89/51/69 64/28/70
f 30/42/71 17/13/72 5/5/73 4/4/74
f 39/52/75 42/47/76 40/53/77 41/54/78
f 20/40/79 11/11/80 22/24/81 21/55/82
f 51/56/83 39/52/84 41/54/85 52/57/86
f 36/58/87 44/59/88 43/46/89 33/49/90
f 45/60/91 87/61/92 86/62/93 46/63/94
f 51/56/95 52/57/96 85/64/97 88/65/98
f 43/46/99 44/59/100 40/53/101 42/47/102
f 49/66/103 50/67/104 47/68/105 48/69/106
f 19/70/107 18/14/108 17/13/109 8/8/110
f 56/17/111 55/16/112 53/71/113 54/72/114
f 4/4/115 6/6/116 37/73/117 46/63/118
f 60/74/119 75/75/120 73/76/121 58/19/122
f 80/77/123 63/27/124 66/30/125 81/78/126
f 19/70/127 8/8/128 20/39/129 21/79/130
f 81/78/131 66/30/132 68/80/133 83/81/134
f 66/30/135 65/29/136 67/82/137 68/80/138
f 16/15/139 15/83/140 13/45/141 5/5/142
f 68/80/143 53/71/144 70/84/145 83/81/146
f 105/85/147 110/86/148 79/87/149 78/88/150
f 55/16/151 72/89/152 70/84/153 53/71/154
f 100/90/155 80/77/156 81/78/157 101/91/158
f 67/82/159 54/72/160 53/71/161 68/80/162
f 107/92/163 108/23/164 69/22/165 84/93/166
f 62/94/167 77/95/168 75/96/169 60/97/170
f 9/9/171 48/69/172 47/68/173 7/7/174
f 24/26/175 23/25/176 2/2/177 14/98/178
f 1/1/179 36/58/180 35/99/181 29/44/182
f 85/64/183 52/57/184 12/12/185 31/41/186
f 52/57/187 41/54/188 10/10/189 12/12/190
f 10/10/191 41/54/192 40/53/193 32/43/194
f 62/94/195 63/27/196 80/77/197 77/95/198
f 36/58/199 1/1/200 3/3/201 44/59/202
f 13/45/203 15/83/204 14/98/205 2/2/206
f 114/100/207 113/101/208 74/102/209 76/103/210
f 61/50/211 62/94/212 60/97/213 59/104/214
f 105/85/215 78/88/216 76/105/217 104/106/218
f 101/91/219 81/78/220 83/81/221 102/107/222
f 96/108/223 72/89/224 73/76/225 97/109/226
f 60/74/227 58/19/228 57/18/229 59/110/230
f 61/50/231 64/28/232 63/27/233 62/94/234
f 58/19/235 73/76/236 72/89/237 55/16/238
f 2/2/239 1/1/240 29/44/241 13/45/242
f 7/7/243 47/68/244 85/111/245 31/38/246
f 98/112/247 97/109/248 73/76/249 75/75/250
f 46/63/251 37/73/252 38/113/253 45/60/254
f 34/114/255 38/113/256 37/73/257 35/99/258
f 48/69/259 86/62/260 87/61/261 49/66/262
f 50/67/263 88/115/264 85/111/265 47/68/266
f 9/9/267 30/42/268 86/62/269 48/69/270
f 6/6/271 29/44/272 35/99/273 37/73/274
f 86/62/275 30/42/276 4/4/277 46/63/278
f 3/3/279 32/43/280 40/53/281 44/59/282
f 89/51/283 25/33/284 27/35/285
f 90/116/286 89/51/287 27/35/288
f 91/117/289 90/116/290 27/35/291
f 92/118/292 91/117/293 27/35/294
f 93/119/295 92/118/296 27/35/297
f 28/37/298 93/119/299 27/35/300
f 65/29/301 90/116/302 91/117/303 67/82/304
f 59/104/305 26/34/306 25/33/307 61/50/308
f 93/119/309 28/37/310 57/18/311 56/17/312
f 91/117/313 92/118/314 54/72/315 67/82/316
f 64/28/317 89/51/318 90/116/319 65/29/320
f 92/118/287 93/119/37 56/17/321 54/72/322
f 28/37/323 26/36/324 59/110/325 57/18/326
f 34/114/327 33/49/328 94/48/329
f 94/48/330 38/113/331 34/114/332
f 87/61/333 45/60/334 38/113/335 94/48/336
f 39/52/337 51/56/338 94/48/339 42/47/340
f 50/67/341 49/66/342 87/61/327 94/48/343
f 2/2/344 23/25/345 32/43/346 3/3/347
f 94/48/348 51/56/349 88/65/350
f 88/115/351 50/67/352 94/48/353
f 35/99/354 36/58/355 33/49/356 34/114/357
f 77/95/358 99/120/359 98/121/360 75/96/361
f 83/81/362 70/84/363 95/122/364 102/107/365
f 77/95/366 80/77/367 100/90/368 99/120/369
f 72/89/21 96/108/152 95/122/23 70/84/370
f 79/87/371 110/86/372 106/123/373 82/124/374
f 82/124/375 106/123/376 107/92/377 84/93/378
f 71/21/379 109/20/380 103/125/381 74/102/382
f 76/103/383 74/102/384 103/125/385 104/126/386
f 84/93/387 69/22/388 112/32/389 118/127/390
f 79/87/391 82/124/392 117/128/393 116/129/394
f 78/88/395 79/87/396 116/129/397 115/130/398
f 74/102/399 113/101/400 111/31/401 71/21/402
f 78/88/403 115/130/404 114/131/405 76/105/406
f 82/124/407 84/93/408 118/127/409 117/128/410
usemtl Material.002
f 117/128/411 118/127/412 15/83/413 16/15/414
f 115/130/415 19/70/416 21/79/417 114/131/130
f 113/101/418 22/24/419 24/26/420 111/31/421
f 115/130/422 116/129/423 18/14/424 19/70/425
f 116/129/426 117/128/427 16/15/428 18/14/429
f 118/127/430 112/32/431 14/98/432 15/83/433
f 104/126/434 103/125/435 97/109/436 98/112/437
f 109/20/438 96/108/439 97/109/440 103/125/441
f 106/123/442 101/91/443 102/107/444 107/92/445
f 110/86/446 100/90/447 101/91/448 106/123/449
f 99/120/450 105/85/359 104/106/451 98/121/218
f 102/107/452 95/122/453 108/23/454 107/92/455
f 99/120/456 100/90/457 110/86/458 105/85/459
f 96/108/21 109/20/152 108/23/23 95/122/24
f 21/55/460 22/24/461 113/101/462 114/100/463
f 24/26/464 14/98/465 112/32/466 111/31/467
