# Blender v2.80 (sub 75) OBJ File: ''
# www.blender.org
mtllib block.2.mtl
o SM_Prop_Barrier_3_SM_Prop_Barrier_01
v -0.606404 0.678411 -0.014057
v -0.606404 0.850042 -0.014057
v 0.672989 0.650943 0.034276
v -0.650008 0.650943 0.024100
v -0.649563 0.650943 -0.033912
v 0.673435 0.650943 -0.023737
v -0.649563 0.877510 -0.033912
v -0.650008 0.877510 0.024100
v -0.606702 0.678411 0.024432
v 0.629683 0.678411 0.033944
v 0.629831 0.678411 0.014420
v -0.606555 0.678411 0.004908
v 0.629683 0.850042 0.033944
v 0.629831 0.850042 0.014420
v -0.606702 0.850042 0.024432
v -0.606555 0.850042 0.004908
v 0.673435 0.877510 -0.023737
v 0.672989 0.877510 0.034276
v 0.630129 0.850042 -0.024069
v 0.630129 0.678411 -0.024069
v 0.629979 0.678411 -0.004552
v -0.606256 0.678411 -0.033581
v 0.629979 0.850042 -0.004552
v -0.606256 0.850042 -0.033581
v 0.727049 -0.086965 0.336837
v 0.664889 -0.086965 0.336357
v 0.665713 -0.086965 0.228814
v 0.727873 -0.086965 0.229294
v 0.729882 0.895562 -0.031595
v 0.667157 0.895562 0.040835
v 0.729325 0.895562 0.041313
v 0.667724 0.895562 -0.032067
v 0.731326 -0.086965 -0.219574
v 0.669166 -0.086965 -0.220054
v 0.669992 -0.086965 -0.327589
v 0.732152 -0.086965 -0.327109
v 0.729325 0.634418 0.041313
v 0.667157 0.634418 0.040835
v 0.667724 0.634418 -0.032067
v 0.729882 0.634418 -0.031595
v 0.666316 0.195103 0.150345
v 0.728476 0.195103 0.150825
v 0.668542 0.204287 -0.139025
v 0.730702 0.204287 -0.138545
v 0.668898 0.036844 -0.185609
v 0.731065 0.036844 -0.185131
v 0.665965 0.029549 0.196399
v 0.728125 0.029549 0.196879
v -0.645518 -0.086965 0.326277
v -0.707669 -0.086965 0.325803
v -0.706845 -0.086965 0.218261
v -0.644687 -0.086965 0.218733
v -0.642684 0.895562 -0.042147
v -0.705394 0.895562 0.030280
v -0.643243 0.895562 0.030754
v -0.704836 0.895562 -0.042629
v -0.641240 -0.086965 -0.230126
v -0.703392 -0.086965 -0.230608
v -0.702567 -0.086965 -0.338143
v -0.640408 -0.086965 -0.337671
v -0.643243 0.634418 0.030754
v -0.705394 0.634418 0.030280
v -0.704836 0.634418 -0.042629
v -0.642684 0.634418 -0.042147
v -0.706242 0.195103 0.139791
v -0.644084 0.195103 0.140264
v -0.704016 0.204287 -0.149579
v -0.641858 0.204287 -0.149107
v -0.703653 0.036844 -0.196164
v -0.641501 0.036844 -0.195683
v -0.706593 0.029549 0.185845
v -0.644442 0.029549 0.186320
v 0.665538 0.184470 0.251207
v 0.727704 0.184470 0.251677
v 0.731470 0.195692 -0.238443
v 0.669310 0.195692 -0.238923
v -0.707012 0.184470 0.240651
v -0.644862 0.184470 0.241125
v -0.641088 0.195692 -0.248997
v -0.703248 0.195692 -0.249477
vt 0.999790 0.064839
vt 0.999791 0.442221
vt 0.983242 0.442221
vt 0.983241 0.064838
vt 0.999790 0.506850
vt 0.983241 0.506850
vt 0.343188 0.818537
vt 0.018615 0.816232
vt 0.010988 0.810980
vt 0.349339 0.811298
vt 0.433422 0.568967
vt 0.376230 0.535328
vt 0.386162 0.519085
vt 0.442637 0.553489
vt 0.717873 0.212250
vt 0.709948 0.203704
vt 0.778307 0.202164
vt 0.771086 0.208464
vt 0.665092 0.193516
vt 0.648890 0.199389
vt 0.578808 0.006083
vt 0.595010 0.000209
vt 0.018122 0.865303
vt 0.013447 0.869739
vt 0.853236 0.675650
vt 0.826712 0.707244
vt 0.730899 0.731237
vt 0.704879 0.719419
vt 0.443393 0.379699
vt 0.507198 0.380638
vt 0.506648 0.398891
vt 0.443055 0.397065
vt 0.777456 0.541546
vt 0.772118 0.533781
vt 0.983242 0.000209
vt 0.999791 0.000209
vt 0.735046 0.751575
vt 0.702558 0.769830
vt 0.730905 0.619636
vt 0.704880 0.631454
vt 0.702558 0.581039
vt 0.735054 0.599300
vt 0.833918 0.775208
vt 0.853236 0.796208
vt 0.721091 0.535510
vt 0.716547 0.540376
vt 0.691977 0.267673
vt 0.675775 0.273546
vt 0.318764 0.230934
vt 0.415142 0.021166
vt 0.433009 0.029375
vt 0.336631 0.239143
vt 0.702140 0.492169
vt 0.685497 0.492771
vt 0.666690 0.456306
vt 0.689068 0.452130
vt 0.853658 0.932062
vt 0.853658 0.554672
vt 0.870207 0.554672
vt 0.870207 0.932062
vt 0.658547 0.615741
vt 0.573237 0.841734
vt 0.553990 0.834468
vt 0.639297 0.608474
vt 0.853239 0.554672
vt 0.833920 0.575671
vt 0.008353 0.316804
vt 0.192260 0.347078
vt 0.182379 0.370301
vt 0.067739 0.346096
vt 0.318719 0.414511
vt 0.304402 0.435309
vt 0.612725 0.453915
vt 0.614598 0.429786
vt 0.424767 0.000209
vt 0.442637 0.008418
vt 0.689700 0.335215
vt 0.666836 0.330436
vt 0.693175 0.524005
vt 0.673926 0.516739
vt 0.564713 0.864311
vt 0.545467 0.857043
vt 0.275006 0.336939
vt 0.281309 0.341646
vt 0.270908 0.383126
vt 0.244710 0.370651
vt 0.685163 0.296136
vt 0.702140 0.295708
vt 0.172347 0.527579
vt 0.178557 0.530667
vt 0.175288 0.548804
vt 0.159912 0.542769
vt 0.147668 0.619169
vt 0.132291 0.613132
vt 0.826715 0.643634
vt 0.853239 0.675232
vt 0.702558 0.084507
vt 0.902195 0.025502
vt 0.899743 0.053998
vt 0.777049 0.084507
vt 0.708781 0.554254
vt 0.702558 0.190023
vt 0.000948 0.876239
vt 0.000209 0.804574
vt 0.364348 0.803008
vt 0.342097 0.873605
vt 0.351340 0.881754
vt 0.180811 0.488062
vt 0.205205 0.501881
vt 0.249542 0.524669
vt 0.260367 0.502898
vt 0.297510 0.324292
vt 0.206001 0.502433
vt 0.271915 0.383572
vt 0.059342 0.363181
vt 0.148809 0.443179
vt 0.136360 0.464361
vt 0.000209 0.332922
vt 0.777049 0.105304
vt 0.702558 0.105304
vt 0.279642 0.316083
vt 0.243784 0.370022
vt 0.179849 0.487656
vt 0.075672 0.802589
vt 0.060295 0.796553
vt 0.618193 0.329460
vt 0.619052 0.353156
vt 0.665812 0.330263
vt 0.665667 0.456505
vt 0.902363 0.136543
vt 0.905396 0.165315
vt 0.982823 0.000209
vt 0.982823 0.030884
vt 0.947506 0.040710
vt 0.949587 0.149681
vt 0.982823 0.158927
vt 0.982823 0.189605
vt 0.785048 0.553634
vt 0.364348 0.890049
vt 0.785048 0.190637
vn 0.0038 1.0000 0.0040
vn -0.0039 1.0000 -0.0039
vn -0.0055 1.0000 -0.0000
vn -0.0008 1.0000 -0.0054
vn 1.0000 -0.0039 0.0038
vn 1.0000 -0.0055 0.0077
vn 1.0000 -0.0021 0.0025
vn 0.9999 -0.0000 0.0132
vn -0.0001 -1.0000 -0.0056
vn 0.0038 -1.0000 0.0040
vn -0.0050 -1.0000 0.0025
vn 0.0039 -1.0000 -0.0039
vn 1.0000 -0.0037 0.0037
vn 1.0000 -0.0013 0.0023
vn 1.0000 0.0058 0.0079
vn 1.0000 0.0056 0.0063
vn -0.9999 -0.0040 -0.0116
vn -0.9999 0.0039 -0.0117
vn -1.0000 0.0031 -0.0029
vn -1.0000 0.0039 -0.0037
vn -0.0026 0.2865 0.9581
vn -0.0111 0.2875 0.9577
vn -0.0110 0.2799 0.9600
vn -0.0085 0.2786 0.9604
vn -0.9999 -0.0039 -0.0113
vn -0.9999 -0.0031 -0.0121
vn -1.0000 0.0055 -0.0078
vn -0.9999 0.0025 -0.0125
vn -0.0012 -0.2400 0.9708
vn -0.0054 -0.2348 0.9720
vn -0.0133 -0.2416 0.9703
vn -0.0040 -0.2459 0.9693
vn 1.0000 -0.0013 0.0024
vn 1.0000 0.0058 0.0080
vn 0.0039 1.0000 -0.0039
vn -0.0048 1.0000 0.0031
vn -0.0000 1.0000 0.0055
vn -0.0038 1.0000 0.0039
vn -0.9999 0.0054 -0.0086
vn -0.9999 -0.0039 -0.0116
vn -1.0000 -0.0039 -0.0038
vn -0.9999 0.0039 -0.0115
vn 0.0047 -1.0000 0.0035
vn -0.0004 -1.0000 0.0058
vn -0.0053 -1.0000 0.0013
vn -0.0031 -1.0000 0.0045
vn -0.0003 -1.0000 0.0058
vn -0.0032 -1.0000 0.0045
vn 0.0029 -0.2389 -0.9710
vn 0.0087 -0.2470 -0.9690
vn 0.0019 -0.2418 -0.9703
vn 0.0047 -0.2370 -0.9715
vn -0.0039 -1.0000 0.0039
vn 0.0021 -1.0000 -0.0051
vn 0.0040 -1.0000 -0.0038
vn -0.0039 -1.0000 -0.0040
vn -0.0125 0.2973 0.9547
vn -0.0034 0.3033 0.9529
vn -0.0113 0.2957 0.9552
vn -0.0044 0.2949 0.9555
vn 0.0013 0.2823 -0.9593
vn 0.0056 0.2887 -0.9574
vn 0.0129 0.2847 -0.9585
vn 0.0117 0.2794 -0.9601
vn -0.0113 -0.2716 0.9623
vn -0.0035 -0.2646 0.9644
vn -0.0102 -0.2648 0.9642
vn -0.0089 -0.2732 0.9619
vn -0.0039 -1.0000 -0.0039
vn 0.0052 -1.0000 -0.0020
vn -0.0000 -1.0000 0.0055
vn 0.0014 0.2823 -0.9593
vn 0.0057 0.2887 -0.9574
vn 0.0130 0.2847 -0.9585
vn 0.0118 0.2793 -0.9601
vn 0.0030 -0.2388 -0.9711
vn 0.0088 -0.2470 -0.9690
vn 0.0019 -0.2424 -0.9702
vn 0.0033 -0.2383 -0.9712
vn -0.9999 0.0052 -0.0103
vn -0.9999 -0.0059 -0.0092
vn -1.0000 0.0062 -0.0076
vn -0.9999 0.0023 -0.0130
vn 1.0000 -0.0039 0.0030
vn 0.9999 0.0038 0.0120
vn 1.0000 -0.0055 0.0058
vn 1.0000 -0.0027 0.0012
vn 1.0000 -0.0055 0.0057
vn 1.0000 -0.0025 0.0012
vn 0.0014 1.0000 -0.0056
vn -0.0055 1.0000 -0.0018
vn 0.0053 1.0000 0.0012
vn -0.0040 1.0000 -0.0037
vn -0.0043 -0.9998 -0.0189
vn 0.0056 -0.9998 -0.0205
vn 0.0035 -0.9999 -0.0163
vn -0.0006 -0.9999 -0.0142
vn 0.0030 0.2952 -0.9554
vn 0.0061 0.3051 -0.9523
vn 0.0116 0.3035 -0.9528
vn 0.0122 0.2958 -0.9552
vn -0.0034 -0.2646 0.9644
vn -0.0101 -0.2649 0.9642
vn -0.0088 -0.2735 0.9618
vn -0.0069 0.9995 0.0296
vn 0.0010 0.9993 0.0380
vn 0.0047 0.9994 0.0345
vn -0.0003 0.9997 0.0262
vn 0.0071 -0.2638 -0.9646
vn 0.0122 -0.2687 -0.9631
vn 0.0100 -0.2721 -0.9622
vn 0.0034 -0.2710 -0.9626
vn -0.0031 -1.0000 -0.0041
vn 0.0043 -1.0000 -0.0027
vn -0.0042 -1.0000 0.0038
vn -0.0022 -1.0000 0.0052
vn -0.0035 0.3033 0.9529
vn -0.0114 0.2957 0.9552
vn -0.0048 0.2946 0.9556
vn -0.0014 -0.2401 0.9707
vn -0.0052 -0.2348 0.9720
vn -0.9999 -0.0060 -0.0092
vn -0.9999 0.0064 -0.0077
vn -0.9999 0.0023 -0.0131
vn 0.0028 -0.0025 -1.0000
vn 0.0030 -0.0030 -1.0000
vn 0.0092 -0.0054 -0.9999
vn 0.0025 -0.0020 -1.0000
vn -0.0099 -0.0051 0.9999
vn -0.0028 -0.0026 1.0000
vn -0.0022 -0.0010 1.0000
vn -0.0103 -0.0048 0.9999
vn -0.0074 -0.0055 1.0000
vn -0.0062 0.0053 1.0000
vn -0.0022 0.0011 1.0000
vn -0.0130 -0.0015 0.9999
vn -0.0031 -1.0000 -0.0040
vn 0.0043 -1.0000 -0.0026
vn 0.0046 1.0000 -0.0030
vn 0.0055 1.0000 0.0000
vn -0.0002 1.0000 -0.0055
vn -0.0043 -1.0000 -0.0044
vn 0.0037 -1.0000 -0.0049
vn -0.0036 -1.0000 0.0040
vn -0.0037 -1.0000 0.0039
vn 0.0083 -0.2642 -0.9644
vn 0.0123 -0.2687 -0.9632
vn 0.0101 -0.2721 -0.9622
vn 0.0034 -0.2711 -0.9626
vn 1.0000 0.0034 0.0033
vn 1.0000 0.0052 0.0058
vn 1.0000 0.0054 0.0067
vn 1.0000 -0.0054 0.0084
vn 1.0000 -0.0039 0.0036
vn 1.0000 0.0056 0.0074
vn 1.0000 0.0000 0.0020
vn 1.0000 -0.0043 0.0033
vn 1.0000 0.0047 0.0038
vn 0.9999 0.0014 0.0146
vn 0.9999 -0.0002 0.0132
vn 1.0000 -0.0044 0.0043
vn 1.0000 -0.0040 0.0037
vn 1.0000 -0.0033 0.0039
vn 1.0000 -0.0025 0.0035
vn 1.0000 -0.0042 0.0080
vn 1.0000 -0.0038 0.0039
vn -0.9999 0.0000 -0.0132
vn -1.0000 -0.0043 -0.0042
vn -0.9999 0.0045 -0.0110
vn -0.9999 -0.0052 -0.0091
vn -1.0000 0.0035 -0.0029
vn -1.0000 -0.0045 -0.0046
vn -0.9999 0.0011 -0.0129
vn -0.9999 0.0017 -0.0132
vn -0.9999 0.0021 -0.0134
vn -0.9999 -0.0037 -0.0126
vn -1.0000 -0.0043 -0.0045
vn -1.0000 -0.0007 -0.0019
vn -1.0000 -0.0039 -0.0088
vn -0.9999 -0.0044 -0.0103
vn -1.0000 -0.0049 -0.0049
vn -0.9999 -0.0026 -0.0127
vn -0.9999 0.0032 -0.0123
vn -0.9999 -0.0028 -0.0132
vn -0.0038 -0.9998 -0.0200
vn 0.0058 -0.9998 -0.0204
vn 0.0034 -0.9999 -0.0164
vn -0.0006 -0.9999 -0.0143
vn -0.0069 0.9995 0.0294
vn 0.0009 0.9993 0.0378
vn 0.0034 0.9994 0.0359
vn 0.0004 0.9997 0.0262
vn -0.0038 -1.0000 0.0038
vn -0.0023 0.2861 0.9582
vn -0.0111 0.2876 0.9577
vn 1.0000 0.0034 0.0034
vn 1.0000 0.0054 0.0065
vn 0.0062 0.3051 -0.9523
vn 0.0123 0.2958 -0.9552
vn 1.0000 -0.0044 0.0034
vn 0.9999 0.0012 0.0146
vn 0.9999 -0.0008 0.0132
vn 1.0000 -0.0044 0.0044
vn 1.0000 -0.0026 0.0035
vn 1.0000 -0.0043 0.0080
vn -0.9999 0.0001 -0.0131
vn -1.0000 -0.0031 -0.0029
vn -0.9999 0.0042 -0.0112
vn 0.9999 -0.0040 0.0113
vn 1.0000 0.0055 0.0076
vn 0.9999 0.0051 0.0096
vn 0.9999 0.0039 0.0114
vn -0.9999 -0.0036 -0.0126
vn -1.0000 -0.0044 -0.0045
vn -1.0000 -0.0007 -0.0021
vn -0.9999 -0.0041 -0.0093
vn -0.9999 -0.0043 -0.0102
vn -0.9999 -0.0031 -0.0122
vn -0.9999 0.0021 -0.0130
vn -0.9999 -0.0030 -0.0133
vn 0.0025 0.0020 -1.0000
vn 0.0124 -0.0028 -0.9999
vn 0.0030 -0.0029 -1.0000
vn 0.0050 -0.0048 -1.0000
vn -0.0119 -0.0035 0.9999
vn -0.0077 0.0055 1.0000
vn -0.0125 -0.0027 0.9999
vn -0.0132 -0.0005 0.9999
vn -0.0123 -0.0030 0.9999
vn -0.0034 0.0034 1.0000
vn 0.0077 -0.0055 -1.0000
vn 0.0079 -0.0056 -1.0000
vn 0.0117 0.0040 -0.9999
vn 0.0028 0.0028 -1.0000
vn -1.0000 0.0035 -0.0031
vn -1.0000 -0.0045 -0.0047
vn -0.9999 0.0011 -0.0131
vn -0.9999 0.0018 -0.0133
vn 0.0024 -0.0015 -1.0000
vn 0.0132 -0.0000 -0.9999
vn 0.0080 -0.0056 -1.0000
vn 0.0117 -0.0039 -0.9999
vn 0.0098 -0.0051 -0.9999
vn 0.0037 -0.0039 -1.0000
vn 0.0056 -0.0052 -1.0000
vn 0.0037 -0.0038 -1.0000
vn -0.0128 0.0021 0.9999
vn -0.0046 -0.0045 1.0000
vn -0.0128 -0.0021 0.9999
vn -0.0133 0.0001 0.9999
usemtl Material.003
s off
f 8/1/1 18/2/2 17/3/3 7/4/4
f 18/2/5 3/5/6 6/6/7 17/3/8
f 16/7/9 14/8/10 13/9/11 15/10/12
f 31/11/13 37/12/14 40/13/15 29/14/16
f 23/15/17 19/16/18 20/17/19 21/18/20
f 77/19/21 78/20/22 55/21/23 54/22/24
f 14/8/25 11/23/26 10/24/27 13/9/28
f 67/25/29 68/26/30 64/27/31 63/28/32
f 55/29/13 61/30/33 64/31/34 53/32/16
f 21/18/35 20/17/36 22/33/37 1/34/38
f 7/4/39 5/35/40 4/36/41 8/1/42
f 63/28/43 64/27/44 61/37/45 62/38/46
f 39/39/43 40/40/47 37/41/45 38/42/48
f 62/38/49 61/37/50 66/43/51 65/44/52
f 2/45/53 24/46/54 19/16/55 23/15/56
f 50/47/57 49/48/58 78/20/59 77/19/60
f 76/49/61 32/50/62 29/51/63 75/52/64
f 58/53/65 57/54/66 70/55/67 69/56/68
f 5/57/69 6/58/70 3/59/71 4/60/53
f 80/61/72 56/62/73 53/63/74 79/64/75
f 38/42/76 37/41/77 42/65/78 41/66/79
f 32/67/80 76/68/81 43/69/82 39/70/83
f 75/71/84 29/14/85 40/13/86 44/72/87
f 79/73/84 53/32/85 64/31/88 68/74/89
f 29/51/90 32/50/91 30/75/92 31/76/93
f 71/77/94 69/56/95 70/55/96 72/78/97
f 59/79/98 80/61/99 79/64/100 60/80/101
f 53/63/90 56/62/91 54/81/92 55/82/93
f 34/83/65 33/84/102 46/85/103 45/86/104
f 68/26/105 67/25/106 65/44/107 66/43/108
f 71/77/109 72/78/110 52/87/111 51/88/112
f 27/89/113 28/90/114 25/91/115 26/92/116
f 26/92/57 25/91/117 74/93/118 73/94/119
f 43/95/120 44/96/121 40/40/31 39/39/32
f 56/97/80 80/98/122 67/99/123 63/100/124
f 7/101/125 17/102/126 19/16/127 24/46/128
f 13/9/129 10/24/130 3/103/131 18/104/132
f 8/105/133 15/10/134 13/9/135 18/104/136
f 51/88/137 52/87/138 49/48/115 50/47/116
f 11/23/139 12/106/2 9/107/140 10/24/141
f 59/79/142 60/80/143 57/54/144 58/53/145
f 47/108/146 48/109/147 28/90/148 27/89/149
f 74/110/150 42/111/151 37/12/152 31/11/153
f 12/106/154 16/7/155 15/10/154 9/107/156
f 36/112/157 75/71/158 44/72/159 42/111/160 74/110/161 25/91/162 28/90/163 48/113/164 46/114/165 33/84/166
f 38/115/167 41/116/168 73/117/169 30/118/170
f 63/100/171 62/119/172 54/120/173 56/97/174
f 76/68/175 35/121/176 34/83/177 45/122/178 47/123/179 27/89/180 26/92/181 73/117/182 41/116/183 43/69/184
f 47/108/185 45/86/186 46/85/187 48/109/188
f 44/96/189 43/95/190 41/66/191 42/65/192
f 35/121/142 36/112/143 33/84/144 34/83/193
f 73/94/194 74/93/195 31/124/23 30/125/24
f 78/126/196 66/127/197 61/30/152 55/29/153
f 35/121/98 76/49/198 75/52/100 36/112/199
f 60/80/200 79/73/158 68/74/201 66/127/202 78/126/203 49/48/162 52/87/163 72/128/204 70/129/205 57/54/166
f 62/119/206 65/130/207 77/131/208 54/120/170
f 1/34/209 22/33/210 24/46/211 2/45/212
f 80/98/175 59/132/213 58/133/214 69/134/215 71/135/216 51/136/217 50/137/181 77/131/218 65/130/219 67/99/220
f 7/101/221 24/46/222 22/33/223 5/138/224
f 8/105/225 4/139/132 9/107/226 15/10/227
f 10/24/228 9/107/229 4/139/136 3/103/230
f 17/102/231 6/140/232 20/17/233 19/16/234
f 39/70/235 38/115/236 30/118/237 32/67/238
f 5/138/239 22/33/240 20/17/241 6/140/242
usemtl Material.001
f 2/45/243 23/15/244 21/18/245 1/34/246
f 12/106/247 11/23/248 14/8/249 16/7/250
