# Blender v2.80 (sub 75) OBJ File: 'untitled.blend'
# www.blender.org
mtllib bridgeA2.mtl
o Cube.020_Cube.034
v -1.489082 -10.360550 -0.445938
v -0.500593 1.087749 -0.445938
v -0.500593 1.087749 -1.944138
v 1.489094 -10.360550 -0.445938
v 0.500603 1.087749 -0.445938
v 0.500603 1.087749 -1.944138
v -1.489082 -1.050352 -0.445938
v 1.489094 -1.050352 -0.445938
v -2.597301 -0.160305 -0.445938
v -2.597301 1.087749 -0.445938
v 2.597313 1.087749 -0.445938
v 2.597313 -0.160305 -0.445938
v -1.489082 4.407495 -0.877560
v -1.489082 4.407495 -3.825871
v 1.489094 4.407495 -3.825871
v 1.489094 4.407495 -0.877560
v -3.476324 4.407495 -0.877560
v 3.476336 4.407495 -0.877560
v -0.994839 0.018698 -0.445938
v -0.994839 0.018698 -1.944138
v 0.994848 0.018698 -1.944138
v 0.994848 0.018698 -0.445938
v -2.597301 0.463721 -0.445938
v 2.597313 0.463721 -0.445938
v -0.895170 0.234280 -0.445938
v -2.597301 0.589561 -0.445938
v -0.895170 0.234280 -1.944138
v 0.895180 0.234280 -1.944138
v 0.895180 0.234280 -0.445938
v 2.597313 0.589561 -0.445938
v -0.895170 0.234280 -1.746330
v -0.994839 0.018698 -1.746330
v 0.895180 0.234280 -1.746330
v 0.994848 0.018698 -1.746330
v 0.895180 0.234280 -0.643745
v 0.994848 0.018698 -0.643745
v 2.448008 0.589561 -0.575687
v 2.468950 0.463721 -0.596439
v -2.468939 0.463721 -0.596439
v -0.994839 0.018698 -0.643745
v -0.895170 0.234280 -0.643745
v -2.447996 0.589561 -0.575687
v -0.500593 1.087749 1.944122
v -1.489082 -10.360550 0.445923
v -0.500593 1.087749 0.445923
v 0.500603 1.087749 1.944122
v 1.489094 -10.360550 0.445923
v 0.500603 1.087749 0.445923
v -1.489082 -1.050352 0.445923
v 1.489094 -1.050352 0.445923
v -2.597301 1.087749 0.445923
v 2.597313 1.087749 0.445923
v -2.597301 -0.160305 0.445923
v 2.597313 -0.160305 0.445923
v -1.489082 4.407495 3.825851
v -1.489082 4.407495 0.877544
v 1.489094 4.407495 0.877544
v 1.489094 4.407495 3.825851
v -3.476324 4.407495 0.877544
v 3.476336 4.407495 0.877544
v -0.994839 0.018698 1.944122
v -0.994839 0.018698 0.445923
v 0.994848 0.018698 0.445923
v 0.994848 0.018698 1.944122
v -2.597301 0.463721 0.445923
v 2.597313 0.463721 0.445923
v -0.895170 0.234280 1.944122
v -0.895170 0.234280 0.445923
v 0.895180 0.234280 0.445923
v 0.895180 0.234280 1.944122
v -2.597301 0.589561 0.445923
v 2.597313 0.589561 0.445923
v -0.895170 0.234280 0.643730
v -0.994839 0.018698 0.643730
v 0.895180 0.234280 0.643730
v 0.994848 0.018698 0.643730
v 0.895180 0.234280 1.746315
v 0.994848 0.018698 1.746315
v -2.447996 0.589561 0.575672
v -2.468939 0.463721 0.596424
v 2.448008 0.589561 0.575672
v 2.468950 0.463721 0.596424
v -0.994839 0.018698 1.746315
v -0.895170 0.234280 1.746315
v -1.489082 -10.360550 -1.443546
v -1.010860 -10.360550 -1.944138
v 1.010872 -10.360550 -1.944138
v 1.489094 -10.360550 -1.443546
v -1.489082 -1.050352 -1.442654
v -1.010860 -0.821067 -1.944138
v 1.010872 -0.821067 -1.944138
v 1.489094 -1.050352 -1.442654
v -2.090544 1.087749 -1.944138
v -2.597301 1.087749 -1.436935
v 2.597313 1.087749 -1.436935
v 2.090555 1.087749 -1.944138
v -2.086203 0.042577 -1.944138
v -2.597301 -0.160305 -1.439899
v 2.086214 0.042577 -1.944138
v 2.597313 -0.160305 -1.439899
v -2.970030 4.407495 -3.825871
v -3.476324 4.407495 -2.829945
v 3.476336 4.407495 -2.829945
v 2.970043 4.407495 -3.825871
v -2.597301 0.463721 -1.435062
v -2.084888 0.321419 -1.944138
v 2.084900 0.321419 -1.944138
v 2.597313 0.463721 -1.435062
v -2.597301 0.589561 -1.433506
v -2.088518 0.483364 -1.944138
v 2.088530 0.483364 -1.944138
v 2.597313 0.589561 -1.433506
v -1.920805 0.468942 -1.791283
v -2.447996 0.589561 -1.300373
v -2.468939 0.463721 -1.279263
v -1.948675 0.306657 -1.776939
v 2.448008 0.589561 -1.300373
v 1.920816 0.468942 -1.791283
v 1.948687 0.306657 -1.776939
v 2.468950 0.463721 -1.279263
v -1.010860 -10.360550 1.944122
v -1.489082 -10.360550 1.443531
v 1.489094 -10.360550 1.443531
v 1.010872 -10.360550 1.944122
v -1.010860 -0.821067 1.944122
v -1.489082 -1.050352 1.442638
v 1.489094 -1.050352 1.442638
v 1.010872 -0.821067 1.944122
v -2.086203 0.042577 1.944122
v -2.597301 -0.160305 1.439884
v -2.090544 1.087749 1.944122
v -2.597301 1.087749 1.436920
v 2.090555 1.087749 1.944122
v 2.597313 1.087749 1.436920
v 2.086214 0.042577 1.944122
v 2.597313 -0.160305 1.439884
v -3.476324 4.407495 2.829926
v -2.970030 4.407495 3.825851
v 2.970043 4.407495 3.825851
v 3.476336 4.407495 2.829926
v -2.084888 0.321419 1.944122
v -2.597301 0.463721 1.435047
v 2.597313 0.463721 1.435047
v 2.084900 0.321419 1.944122
v -2.597301 0.589561 1.433491
v -2.088518 0.483364 1.944122
v 2.597313 0.589561 1.433491
v 2.088530 0.483364 1.944122
v 1.920816 0.468942 1.791267
v 2.448008 0.589561 1.300358
v 2.468950 0.463721 1.279247
v 1.948687 0.306657 1.776924
v -1.948675 0.306657 1.776924
v -2.468939 0.463721 1.279247
v -1.920805 0.468942 1.791267
v -2.447996 0.589561 1.300358
vt 0.614047 1.000000
vt 0.625000 1.000000
vt 0.625000 1.000000
vt 0.614047 1.000000
vt 0.614047 0.250000
vt 0.625000 0.250000
vt 0.625000 0.500000
vt 0.614047 0.500000
vt 0.614047 0.585208
vt 0.625000 0.584635
vt 0.625000 0.750000
vt 0.614047 0.750000
vt 0.614047 0.750000
vt 0.625000 0.750000
vt 0.375000 0.583532
vt 0.597561 0.583681
vt 0.597561 0.750000
vt 0.375000 0.750000
vt 0.875000 0.500000
vt 0.875000 0.750000
vt 0.597561 1.000000
vt 0.375000 1.000000
vt 0.600503 0.283607
vt 0.611280 0.250000
vt 0.611281 0.500000
vt 0.600504 0.466393
vt 0.125000 0.583532
vt 0.165144 0.500000
vt 0.334856 0.500000
vt 0.125000 0.750000
vt 0.375000 0.290144
vt 0.603042 0.290144
vt 0.603042 0.459856
vt 0.375000 0.459856
vt 0.625000 0.584449
vt 0.625000 0.750000
vt 0.625000 0.500000
vt 0.625000 0.500000
vt 0.625000 0.500000
vt 0.602462 0.250000
vt 0.606501 0.250000
vt 0.611280 0.250000
vt 0.625000 1.000000
vt 0.625000 1.000000
vt 0.625000 0.165365
vt 0.625000 0.000000
vt 0.625000 0.000000
vt 0.625000 0.165551
vt 0.611280 0.750000
vt 0.597561 0.750000
vt 0.611281 0.750000
vt 0.614047 0.250000
vt 0.625000 0.250000
vt 0.602462 0.500000
vt 0.611280 0.500000
vt 0.606501 0.500000
vt 0.611281 0.250000
vt 0.611280 0.250000
vt 0.625000 0.750000
vt 0.597561 0.000000
vt 0.611281 0.000000
vt 0.611281 0.165052
vt 0.597561 0.165859
vt 0.614047 0.000000
vt 0.614047 0.164792
vt 0.875000 0.500000
vt 0.875000 0.750000
vt 0.614047 0.500000
vt 0.614047 1.000000
vt 0.614047 0.750000
vt 0.614047 0.250000
vt 0.614047 0.250000
vt 0.875000 0.500000
vt 0.875000 0.584449
vt 0.875000 0.750000
vt 0.597561 0.584141
vt 0.611281 0.584948
vt 0.611281 1.000000
vt 0.597561 0.166319
vt 0.597561 0.000000
vt 0.611281 1.000000
vt 0.597561 1.000000
vt 0.625000 0.250000
vt 0.625000 0.250000
vt 0.614047 0.500000
vt 0.614047 0.500000
vt 0.611280 0.750000
vt 0.611281 1.000000
vt 0.611281 0.607412
vt 0.611281 0.750000
vt 0.614047 0.146259
vt 0.614047 0.000000
vt 0.611281 0.500000
vt 0.611280 0.500000
vt 0.375000 0.083532
vt 0.597561 0.083681
vt 0.597561 0.250000
vt 0.375000 0.250000
vt 0.614047 0.750000
vt 0.614047 0.603741
vt 0.611281 1.000000
vt 0.611281 0.000000
vt 0.611281 0.142588
vt 0.614047 1.000000
vt 0.625000 0.665365
vt 0.625000 0.500000
vt 0.625000 0.500000
vt 0.625000 0.665551
vt 0.614047 0.250000
vt 0.625000 0.250000
vt 0.625000 0.500000
vt 0.614047 0.500000
vt 0.614047 0.500000
vt 0.614047 0.750000
vt 0.625000 0.750000
vt 0.625000 1.000000
vt 0.614047 1.000000
vt 0.375000 0.790144
vt 0.603042 0.790144
vt 0.603042 0.959856
vt 0.375000 0.959856
vt 0.875000 0.500000
vt 0.875000 0.750000
vt 0.375000 0.500000
vt 0.597561 0.500000
vt 0.597561 0.666319
vt 0.375000 0.666468
vt 0.600504 0.783607
vt 0.611280 0.750000
vt 0.611281 1.000000
vt 0.600504 0.966393
vt 0.125000 0.500000
vt 0.334856 0.750000
vt 0.165144 0.750000
vt 0.125000 0.666468
vt 0.625000 1.000000
vt 0.625000 1.000000
vt 0.625000 1.000000
vt 0.597561 0.500000
vt 0.611280 0.500000
vt 0.611281 0.665052
vt 0.597561 0.665859
vt 0.602462 1.000000
vt 0.611281 1.000000
vt 0.606501 1.000000
vt 0.625000 0.250000
vt 0.625000 0.084635
vt 0.625000 0.084449
vt 0.625000 0.250000
vt 0.597561 0.084141
vt 0.611281 0.084948
vt 0.611281 0.250000
vt 0.597561 0.250000
vt 0.614047 1.000000
vt 0.611280 0.250000
vt 0.611281 1.000000
vt 0.611281 1.000000
vt 0.625000 0.500000
vt 0.625000 0.750000
vt 0.625000 0.750000
vt 0.625000 0.250000
vt 0.875000 0.500000
vt 0.875000 0.750000
vt 0.614047 0.664792
vt 0.614047 0.750000
vt 0.625000 0.750000
vt 0.614047 1.000000
vt 0.614047 0.750000
vt 0.611281 0.500000
vt 0.611281 0.500000
vt 0.611280 0.500000
vt 0.875000 0.500000
vt 0.875000 0.665551
vt 0.875000 0.750000
vt 0.614047 0.085208
vt 0.614047 0.250000
vt 0.602462 0.750000
vt 0.606501 0.750000
vt 0.611281 0.750000
vt 0.614047 1.000000
vt 0.611280 0.750000
vt 0.611281 0.750000
vt 0.614047 0.250000
vt 0.614047 0.250000
vt 0.614047 0.103741
vt 0.611280 0.250000
vt 0.614047 0.500000
vt 0.614047 0.500000
vt 0.611281 0.107412
vt 0.611281 0.250000
vt 0.614047 0.750000
vt 0.611281 0.642588
vt 0.614047 0.646260
vt 0.375000 0.166468
vt 0.597561 1.000000
vt 0.375000 1.000000
vt 0.625000 1.000000
vt 0.614047 1.000000
vt 0.597561 0.000000
vt 0.597561 0.000000
vt 0.625000 1.000000
vt 0.611281 1.000000
vt 0.597561 1.000000
vt 0.611281 1.000000
vt 0.614047 1.000000
vt 0.375000 0.000000
vt 0.612281 1.000000
vn 0.0000 0.0000 1.0000
vn 0.0000 0.0000 -1.0000
vn 1.0000 0.0000 0.0000
vn 0.0000 1.0000 0.0000
vn 0.0000 -1.0000 -0.0000
vn 0.9667 -0.2560 0.0000
vn 0.0000 -0.4931 -0.8700
vn 0.0000 0.1289 0.9917
vn -0.9667 -0.2560 0.0000
vn 0.2779 0.9584 -0.0650
vn -0.9584 0.2854 0.0000
vn -1.0000 0.0000 0.0000
vn 0.9584 0.2854 0.0000
vn -0.2138 -0.9749 0.0622
vn 0.6262 -0.7797 0.0000
vn -0.6262 -0.7797 0.0000
vn 0.2138 -0.9749 0.0622
vn -0.2779 0.9584 -0.0650
vn 0.2779 0.9551 0.1024
vn -0.2142 -0.9719 -0.0976
vn -0.2779 0.9551 0.1024
vn 0.2142 -0.9719 -0.0976
vn 0.0000 -0.4931 0.8700
vn 0.2779 0.9584 0.0650
vn 0.0000 0.1289 -0.9917
vn -0.2779 0.9551 -0.1024
vn -0.2138 -0.9749 -0.0622
vn -0.2779 0.9584 0.0650
vn -0.2142 -0.9719 0.0976
vn 0.2142 -0.9719 0.0976
vn 0.2779 0.9551 -0.1024
vn 0.2138 -0.9749 -0.0622
vn -0.7234 0.0000 -0.6904
vn 0.7234 0.0000 -0.6904
vn -0.7037 0.0048 -0.7105
vn 0.7037 0.0048 -0.7105
vn 0.4542 -0.5644 -0.6893
vn -0.4542 -0.5644 -0.6893
vn -0.7431 -0.4438 -0.5008
vn 0.7431 -0.4438 -0.5008
vn 0.1276 -0.9876 0.0917
vn 0.1818 0.9778 -0.1042
vn -0.1276 -0.9876 0.0917
vn -0.1818 0.9778 -0.1042
vn -0.7081 -0.0035 -0.7061
vn 0.7081 -0.0035 -0.7061
vn 0.7234 0.0000 0.6904
vn -0.7234 0.0000 0.6904
vn -0.7081 -0.0035 0.7061
vn 0.7037 0.0048 0.7105
vn -0.4542 -0.5644 0.6893
vn 0.4542 -0.5644 0.6893
vn -0.7431 -0.4438 0.5008
vn 0.7431 -0.4438 0.5008
vn 0.1276 -0.9876 -0.0917
vn -0.7037 0.0048 0.7105
vn 0.1818 0.9778 0.1042
vn -0.1818 0.9778 0.1042
vn 0.7081 -0.0035 0.7061
vn -0.1276 -0.9876 -0.0917
vn -0.9864 0.1642 0.0000
vn -0.0258 -0.0466 -0.9986
vn -0.0201 -0.0677 0.9975
vn 0.0258 -0.0466 -0.9986
vn 0.9864 0.1642 0.0000
vn 0.0201 -0.0677 0.9975
vn 0.0201 -0.0677 -0.9975
vn -0.0258 -0.0466 0.9986
vn 0.0258 -0.0466 0.9986
vn -0.0201 -0.0677 -0.9975
vn -0.6825 0.0258 -0.7304
vn 0.6825 0.0258 -0.7304
vn 0.6825 0.0258 0.7304
vn -0.6825 0.0258 0.7304
usemtl bridge.1
s off
f 25/1/1 2/2/1 10/3/1 26/4/1
f 27/5/2 3/6/2 6/7/2 28/8/2
f 112/9/3 95/10/3 11/11/3 30/12/3
f 29/13/1 5/14/1 2/2/1 25/1/1
f 88/15/3 92/16/3 8/17/3 4/18/3
f 6/7/4 3/19/4 2/20/4 5/14/4
f 4/18/1 8/17/1 7/21/1 1/22/1
f 90/23/2 20/24/2 21/25/2 91/26/2
f 85/27/5 86/28/5 87/29/5 88/15/5 4/18/5 1/30/5
f 86/31/2 90/32/2 91/33/2 87/34/2
f 11/11/6 95/10/6 103/35/6 18/36/6
f 96/37/7 6/7/7 15/38/7 104/39/7
f 20/24/2 90/40/2 97/41/2 106/42/2
f 10/3/8 2/2/8 13/43/8 17/44/8
f 94/45/9 10/46/9 17/47/9 102/48/9
f 22/49/1 8/17/1 12/50/1 24/51/1
f 3/6/2 27/5/2 110/52/2 93/53/2
f 91/54/2 21/25/2 107/55/2 99/56/2
f 20/24/10 106/42/10 116/57/10 32/58/10
f 15/38/4 16/59/4 18/36/4 103/35/4 104/39/4
f 6/7/11 5/14/11 16/59/11 15/38/11
f 9/60/12 23/61/12 105/62/12 98/63/12
f 26/64/12 10/46/12 94/45/12 109/65/12
f 2/20/13 3/19/13 14/66/13 13/67/13
f 5/14/8 11/11/8 18/36/8 16/59/8
f 28/8/2 6/7/2 96/37/2 111/68/2
f 29/13/5 25/1/5 41/69/5 35/70/5
f 110/52/14 27/5/14 31/71/14 113/72/14
f 13/67/4 14/66/4 101/73/4 102/74/4 17/75/4
f 100/76/3 108/77/3 24/51/3 12/50/3
f 8/17/1 22/49/1 19/78/1 7/21/1
f 8/17/15 92/16/15 100/76/15 12/50/15
f 89/79/16 7/80/16 9/60/16 98/63/16
f 7/21/1 19/78/1 23/81/1 9/82/1
f 5/14/1 29/13/1 30/12/1 11/11/1
f 3/6/7 93/53/7 101/83/7 14/84/7
f 28/8/17 111/68/17 118/85/17 33/86/17
f 19/78/4 22/49/4 36/87/4 40/88/4
f 24/51/4 108/77/4 120/89/4 38/90/4
f 26/64/5 109/65/5 114/91/5 42/92/5
f 107/55/18 21/25/18 34/93/18 119/94/18
f 122/95/12 126/96/12 49/97/12 44/98/12
f 21/25/4 20/24/4 32/58/4 34/93/4
f 112/9/5 30/12/5 37/99/5 117/100/5
f 23/81/19 19/78/19 40/88/19 39/101/19
f 27/5/5 28/8/5 33/86/5 31/71/5
f 105/62/4 23/61/4 39/102/4 115/103/4
f 25/1/20 26/4/20 42/104/20 41/69/20
f 22/49/21 24/51/21 38/90/21 36/87/21
f 30/12/22 29/13/22 35/70/22 37/99/22
f 134/105/6 52/106/6 60/107/6 140/108/6
f 68/109/2 45/110/2 48/111/2 69/112/2
f 69/112/2 48/111/2 52/106/2 72/113/2
f 70/114/1 46/115/1 43/116/1 67/117/1
f 124/118/1 128/119/1 125/120/1 121/121/1
f 48/111/4 45/122/4 43/123/4 46/115/4
f 47/124/3 50/125/3 127/126/3 123/127/3
f 128/128/1 64/129/1 61/130/1 125/131/1
f 44/98/2 49/97/2 50/125/2 47/124/2
f 44/132/5 47/124/5 123/127/5 124/133/5 121/134/5 122/135/5
f 131/136/23 43/116/23 55/137/23 138/138/23
f 54/139/3 66/140/3 143/141/3 136/142/3
f 125/143/1 61/130/1 141/144/1 129/145/1
f 51/146/9 132/147/9 137/148/9 59/149/9
f 130/150/12 142/151/12 65/152/12 53/153/12
f 127/126/15 50/125/15 54/139/15 136/142/15
f 67/117/1 43/116/1 131/136/1 146/154/1
f 62/155/2 49/97/2 53/153/2 65/152/2
f 141/144/24 61/130/24 83/156/24 153/157/24
f 57/158/4 58/159/4 139/160/4 140/108/4 60/107/4
f 48/111/11 46/115/11 58/159/11 57/158/11
f 52/106/25 48/111/25 57/158/25 60/107/25
f 45/110/25 51/146/25 59/149/25 56/161/25
f 43/123/13 45/122/13 56/162/13 55/163/13
f 72/113/3 52/106/3 134/105/3 147/164/3
f 46/115/1 70/114/1 148/165/1 133/166/1
f 70/114/5 67/117/5 84/167/5 77/168/5
f 66/140/26 63/169/26 76/170/26 82/171/26
f 55/163/4 56/162/4 59/172/4 137/173/4 138/174/4
f 145/175/12 132/147/12 51/146/12 71/176/12
f 49/97/16 126/96/16 130/150/16 53/153/16
f 50/125/2 63/169/2 66/140/2 54/139/2
f 49/97/2 62/155/2 63/169/2 50/125/2
f 64/129/1 128/177/1 135/178/1 144/179/1
f 46/115/23 133/166/23 139/160/23 58/159/23
f 45/110/2 68/109/2 71/176/2 51/146/2
f 67/117/27 146/154/27 155/180/27 84/167/27
f 61/130/4 64/129/4 78/181/4 83/156/4
f 64/129/28 144/179/28 152/182/28 78/181/28
f 71/176/29 68/109/29 73/183/29 79/184/29
f 145/175/5 71/176/5 79/184/5 156/185/5
f 63/169/4 62/155/4 74/186/4 76/170/4
f 69/112/30 72/113/30 81/187/30 75/188/30
f 65/152/4 142/151/4 154/189/4 80/190/4
f 68/109/5 69/112/5 75/188/5 73/183/5
f 62/155/31 65/152/31 80/190/31 74/186/31
f 148/165/32 70/114/32 77/168/32 149/191/32
f 143/141/4 66/140/4 82/171/4 151/192/4
f 72/113/5 147/164/5 150/193/5 81/187/5
f 90/32/33 86/31/33 85/194/33 89/79/33
f 92/16/34 88/15/34 87/34/34 91/33/34
f 106/42/35 97/41/35 98/63/35 105/62/35
f 108/77/36 100/76/36 99/56/36 107/55/36
f 100/76/37 92/16/37 91/54/37 99/56/37
f 97/41/38 90/40/38 89/79/38 98/63/38
f 101/83/39 93/53/39 94/45/39 102/48/39
f 103/35/40 95/10/40 96/37/40 104/39/40
f 118/85/41 111/68/41 112/9/41 117/100/41
f 116/57/42 106/42/42 105/62/42 115/103/42
f 114/91/43 109/65/43 110/52/43 113/72/43
f 107/55/44 119/94/44 120/89/44 108/77/44
f 93/53/45 110/52/45 109/65/45 94/45/45
f 95/10/46 112/9/46 111/68/46 96/37/46
f 128/119/47 124/118/47 123/127/47 127/126/47
f 121/121/48 125/120/48 126/195/48 122/196/48
f 146/154/49 131/136/49 132/197/49 145/198/49
f 144/179/50 135/178/50 136/142/50 143/141/50
f 130/150/51 126/96/51 125/199/51 129/200/51
f 135/178/52 128/177/52 127/126/52 136/142/52
f 131/136/53 138/138/53 137/201/53 132/197/53
f 134/105/54 140/108/54 139/160/54 133/166/54
f 148/165/55 149/191/55 150/193/55 147/164/55
f 129/145/56 141/144/56 142/202/56 130/203/56
f 141/144/57 153/157/57 154/204/57 142/202/57
f 152/182/58 144/179/58 143/141/58 151/192/58
f 133/166/59 148/165/59 147/164/59 134/105/59
f 155/180/60 146/154/60 145/198/60 156/205/60
f 1/206/12 7/80/12 89/79/12 85/194/12
usemtl light.1
f 39/102/61 42/92/61 114/91/61 115/103/61
f 34/93/62 33/86/62 118/85/62 119/94/62
f 35/70/63 36/87/63 38/90/63 37/99/63
f 31/71/64 32/58/64 116/57/64 113/72/64
f 36/87/1 35/70/1 41/69/1 40/88/1
f 120/89/65 117/100/65 37/99/65 38/90/65
f 32/58/2 31/71/2 33/86/2 34/93/2
f 40/88/66 41/69/66 42/104/66 39/101/66
f 82/171/65 81/187/65 150/193/65 151/192/65
f 73/183/67 74/186/67 80/190/67 79/184/67
f 154/189/61 156/185/61 79/184/61 80/190/61
f 77/168/68 78/181/68 152/182/68 149/191/68
f 83/156/69 84/167/69 155/180/69 153/157/69
f 78/181/1 77/168/1 84/167/1 83/156/1
f 76/170/70 75/188/70 81/187/70 82/171/70
f 74/186/2 73/183/2 75/188/2 76/170/2
f 113/72/71 116/57/71 115/103/71 114/91/71
f 117/100/72 120/89/72 119/94/72 118/85/72
f 149/191/73 152/182/73 151/192/73 150/193/73
f 153/157/74 155/180/74 156/207/74 154/204/74
