# Blender v2.80 (sub 75) OBJ File: 'untitled6.blend'
# www.blender.org
mtllib light.2.mtl
o SM_Prop_LightPole_Base_86_SM_Prop_LightPole_Base_01
v 1.262979 6.317482 0.048472
v 1.262979 6.284862 0.034960
v 1.262979 6.317482 0.002341
v 1.947587 6.375590 0.144637
v 1.262979 6.246887 0.144633
v 1.947587 6.246887 0.144637
v 1.262979 6.375590 0.144633
v 1.885805 6.407888 -0.114271
v 1.324769 6.407888 0.118943
v 1.885801 6.407888 0.118947
v 1.324769 6.407888 -0.114274
v 1.947591 6.246887 -0.139951
v 1.262979 6.375590 -0.139955
v 1.947591 6.375590 -0.139951
v 1.262979 6.246887 -0.139955
v 1.854307 6.155366 -0.078681
v 1.356264 6.155366 0.083363
v 1.356264 6.155366 -0.078683
v 1.854303 6.155366 0.083365
v 1.307420 6.246887 -0.097375
v 1.903154 6.246887 -0.097371
v 1.903150 6.246887 0.102057
v 1.307420 6.246887 0.102053
v -0.304724 5.346646 -0.051227
v -0.304724 5.269890 -0.051227
v -0.358275 5.346646 -0.073410
v -0.358275 5.269890 -0.073410
v -0.411826 5.346646 -0.051227
v -0.411826 5.269890 -0.051227
v -0.434012 5.269890 0.002329
v -0.434012 5.346646 0.002329
v -0.411826 5.269890 0.055882
v -0.411826 5.346646 0.055882
v -0.358275 5.346646 0.078064
v -0.358275 5.269890 0.078064
v -0.304724 5.346646 0.055882
v -0.304724 5.269890 0.055882
v -0.282546 5.346646 0.002329
v -0.282546 5.269890 0.002329
v -0.333022 3.051362 0.026867
v -0.300421 0.759079 0.002330
v -0.316077 3.051362 -0.014038
v -0.317366 0.759079 0.043235
v -0.358275 0.759079 -0.055525
v -0.333014 3.051362 -0.054951
v -0.317366 0.759079 -0.038582
v -0.373923 3.051362 -0.071894
v -0.399184 0.759079 0.043235
v -0.414839 3.051362 0.026867
v -0.416129 0.759079 0.002330
v -0.431777 3.051362 -0.014038
v -0.373931 3.051362 0.043814
v -0.358275 0.759079 0.060182
v -0.358275 5.716971 0.060183
v -0.399184 5.346646 0.043236
v -0.358275 5.346646 0.060183
v -0.399184 5.716971 0.043236
v -0.416129 5.346646 0.002329
v -0.416129 5.716971 0.002329
v -0.399184 5.346646 -0.038581
v -0.399184 5.716971 -0.038581
v -0.358275 5.346646 -0.055526
v -0.358275 5.716971 -0.055526
v -0.317366 5.346646 -0.038581
v -0.317366 5.716971 -0.038581
v -0.300421 5.716971 0.002329
v -0.300421 5.346646 0.002329
v -0.317366 5.716971 0.043236
v -0.317366 5.346646 0.043236
v -0.399184 5.269890 -0.038581
v -0.416129 5.269890 0.002329
v -0.399184 5.269890 0.043236
v -0.317366 5.269890 0.043236
v -0.300421 5.269890 0.002329
v -0.259185 5.659381 0.034951
v 0.068101 5.996235 0.034953
v -0.271666 5.664553 0.002331
v 0.058549 6.005791 0.002333
v -0.390898 5.224754 0.034951
v -0.404410 5.224754 0.002331
v -0.418944 0.728225 0.062992
v -0.444068 0.728225 0.002332
v -0.429091 3.063693 0.040987
v -0.450469 3.114191 -0.012922
v -0.451918 3.063806 -0.014040
v -0.427748 3.114061 0.042044
v -0.373969 3.063302 0.063902
v -0.372885 3.113663 0.064695
v -0.318846 3.063142 0.041123
v -0.318015 3.113510 0.041903
v -0.295287 3.113804 -0.012911
v -0.296012 3.063437 -0.014028
v -0.318007 3.114035 -0.067745
v -0.318846 3.063673 -0.069200
v -0.372878 3.114410 -0.090525
v -0.373969 3.064049 -0.091970
v -0.427741 3.114593 -0.067871
v -0.429083 3.064216 -0.069050
v 1.262979 6.350103 -0.030279
v 1.262979 6.363615 0.002341
v 1.262979 6.350103 0.034960
v -0.358275 -0.075109 -0.170540
v -0.480506 -0.075109 -0.119910
v -0.480506 0.038631 -0.119910
v -0.358275 0.038631 -0.170540
v -0.418936 0.134971 -0.058340
v -0.358275 0.134971 -0.083468
v -0.358275 0.728225 -0.083466
v -0.418936 0.728225 -0.058340
v -0.399184 0.759079 -0.038582
v -0.414832 3.051362 -0.054951
v -0.358275 0.728225 0.088123
v -0.297614 0.728225 0.062992
v -0.358275 0.134971 0.088127
v -0.297614 0.134971 0.062992
v -0.358275 0.038631 0.175195
v -0.236045 0.038631 0.124561
v -0.358275 -0.075109 0.175195
v -0.236045 -0.075109 0.124561
v -0.358275 5.269890 -0.055526
v -0.317366 5.269890 -0.038581
v 0.561113 6.314569 0.002337
v 0.068101 5.996235 -0.030286
v 0.566285 6.302085 -0.030282
v 0.566285 6.302085 0.034957
v 0.123788 5.940548 0.002335
v 0.591249 6.241812 0.034957
v 0.114236 5.950103 0.034955
v 0.596422 6.229327 0.002337
v 1.262979 6.271350 0.002341
v 0.591249 6.241812 -0.030282
v 0.114236 5.950103 -0.030284
v 1.262979 6.284863 -0.030279
v -0.259185 5.659381 -0.030288
v -0.390898 5.224754 -0.030288
v -0.198912 5.634415 0.034953
v -0.186431 5.629243 0.002333
v -0.325659 5.224754 0.034951
v -0.312148 5.224754 0.002331
v -0.198912 5.634415 -0.030286
v -0.325652 5.224754 -0.030288
v -0.358275 5.224754 0.048462
v -0.229048 5.646898 0.048462
v 0.091165 5.973169 0.048464
v 0.578767 6.271948 0.048468
v -0.358275 5.224754 -0.043800
v -0.229048 5.646898 -0.043800
v 0.091173 5.973169 -0.043798
v 0.578767 6.271948 -0.043794
v 1.262979 6.317482 -0.043790
v -0.297606 0.728225 -0.058340
v -0.297606 0.134971 -0.058340
v -0.480513 -0.075109 0.124561
v -0.480513 0.038631 0.124561
v -0.531142 -0.075109 0.002328
v -0.531142 0.038631 0.002328
v -0.418944 0.134971 0.062992
v -0.444068 0.134971 0.002332
v -0.236037 0.038631 -0.119910
v -0.185416 -0.075109 0.002332
v -0.236037 -0.075109 -0.119910
v -0.185416 0.038631 0.002332
v -0.272483 0.134971 0.002332
v -0.272483 0.728225 0.002332
v -0.372962 3.126058 0.044586
v -0.413642 3.126058 0.027733
v -0.332282 3.126058 0.027733
v -0.315428 3.126058 -0.012947
v -0.332274 3.126058 -0.053635
v -0.372962 3.126058 -0.070484
v -0.413642 3.126058 -0.053635
v -0.430495 3.126058 -0.012947
v -0.358275 5.269890 0.060183
v -0.358275 -0.075109 0.002328
v -0.358275 5.716971 0.002329
vt 0.617699 0.386036
vt 0.649958 0.353777
vt 0.672767 0.408846
vt 0.108742 0.988697
vt 0.095634 0.993788
vt 0.091637 0.983308
vt 0.104366 0.977428
vt 0.044361 0.889621
vt 0.051546 0.890320
vt 0.045547 0.970822
vt 0.035640 0.968117
vt 0.066786 0.890887
vt 0.066288 0.969988
vt 0.055945 0.970830
vt 0.059032 0.890698
vt 0.412287 0.335286
vt 0.403410 0.401024
vt 0.366843 0.400313
vt 0.375577 0.332563
vt 0.097768 0.001380
vt 0.104149 0.001141
vt 0.106785 0.060277
vt 0.099226 0.061928
vt 0.417603 0.414525
vt 0.360643 0.619064
vt 0.339326 0.637401
vt 0.048136 0.059313
vt 0.055322 0.061145
vt 0.054979 0.063830
vt 0.046296 0.061911
vt 0.278677 0.586682
vt 0.352781 0.396020
vt 0.289009 0.599239
vt 0.341737 0.673263
vt 0.238721 0.719273
vt 0.213619 0.693544
vt 0.570704 0.392921
vt 0.568984 0.629704
vt 0.554874 0.628554
vt 0.555947 0.391364
vt 0.077795 0.074262
vt 0.069957 0.074064
vt 0.069508 0.064530
vt 0.077274 0.064667
vt 0.092014 0.062704
vt 0.091387 0.001510
vt 0.062379 0.064290
vt 0.062821 0.073911
vt 0.055300 0.073858
vt 0.452416 0.921082
vt 0.349399 0.967090
vt 0.099449 0.064686
vt 0.108670 0.063078
vt 0.108742 0.076037
vt 0.100046 0.074512
vt 0.092707 0.074292
vt 0.092057 0.064833
vt 0.085624 0.074247
vt 0.085006 0.064834
vt 0.067655 0.988232
vt 0.079971 0.986517
vt 0.082553 0.997518
vt 0.068869 0.999595
vt 0.045058 0.884332
vt 0.058163 0.484358
vt 0.065338 0.484151
vt 0.052123 0.884552
vt 0.043850 0.484231
vt 0.051026 0.483697
vt 0.038158 0.882795
vt 0.031107 0.881496
vt 0.066881 0.884455
vt 0.079413 0.483787
vt 0.086463 0.483589
vt 0.074191 0.885209
vt 0.059496 0.000586
vt 0.065860 0.000988
vt 0.062493 0.062148
vt 0.072221 0.001277
vt 0.069641 0.061963
vt 0.078597 0.001452
vt 0.077331 0.061653
vt 0.084996 0.001530
vt 0.084971 0.062298
vt 0.055126 0.988330
vt 0.054881 0.999926
vt 0.041522 0.998549
vt 0.043035 0.987598
vt 0.045602 0.075130
vt 0.086328 0.968855
vt 0.076537 0.969944
vt 0.074295 0.890673
vt 0.081852 0.890376
vt 0.092656 0.076418
vt 0.085560 0.076819
vt 0.525648 0.391341
vt 0.526524 0.197974
vt 0.540917 0.197239
vt 0.540798 0.390714
vt 0.525633 0.012014
vt 0.541013 0.010243
vt 0.081189 0.884520
vt 0.079883 0.471157
vt 0.072708 0.471336
vt 0.077760 0.077333
vt 0.086575 0.480676
vt 0.079501 0.480591
vt 0.079821 0.474447
vt 0.087007 0.474328
vt 0.059419 0.884642
vt 0.072347 0.483940
vt 0.050916 0.480468
vt 0.050803 0.474084
vt 0.058132 0.474456
vt 0.058293 0.480655
vt 0.042385 0.481130
vt 0.042304 0.472876
vt 0.058300 0.471600
vt 0.062816 0.076078
vt 0.069958 0.076650
vt 0.065459 0.471488
vt 0.695576 0.463916
vt 0.649956 0.463917
vt 0.617698 0.431658
vt 0.030890 0.985120
vt 0.025795 0.966199
vt 0.017648 0.962270
vt 0.028416 0.886482
vt 0.036783 0.888702
vt 0.090335 0.888920
vt 0.087845 0.883350
vt 0.093841 0.484554
vt 0.101414 0.486203
vt 0.482890 0.631516
vt 0.482149 0.395053
vt 0.496478 0.394426
vt 0.497732 0.631018
vt 0.483088 0.914176
vt 0.469172 0.914539
vt 0.468047 0.631100
vt 0.540517 0.628106
vt 0.526159 0.628589
vt 0.525793 0.916419
vt 0.541091 0.916836
vt 0.555310 0.198031
vt 0.556392 0.011978
vt 0.497007 0.914538
vt 0.467814 0.394446
vt 0.482536 0.202799
vt 0.497720 0.202024
vt 0.468756 0.020380
vt 0.482794 0.022042
vt 0.467355 0.201925
vt 0.496842 0.020375
vt 0.556387 0.916380
vt 0.512278 0.199931
vt 0.510962 0.016250
vt 0.453388 0.392915
vt 0.452804 0.199738
vt 0.512041 0.629773
vt 0.510887 0.392878
vt 0.511115 0.915449
vt 0.571063 0.915371
vt 0.454672 0.016268
vt 0.453739 0.629933
vt 0.455069 0.915451
vt 0.571063 0.016178
vt 0.569557 0.200044
vt 0.052413 0.000074
vt 0.019017 0.980796
vt 0.006030 0.973438
vt 0.028303 0.996246
vt 0.094266 0.480932
vt 0.094596 0.474207
vt 0.087047 0.470893
vt 0.094470 0.470320
vt 0.065435 0.480853
vt 0.072417 0.480690
vt 0.065337 0.474703
vt 0.438293 0.323137
vt 0.044124 0.469360
vt 0.051175 0.470662
vt 0.727835 0.431657
vt 0.727835 0.386036
vt 0.695578 0.353777
vt 0.094375 0.965824
vt 0.014549 0.992257
vt 0.000074 0.985802
vt 0.193737 0.629034
vt 0.099798 0.077190
vt 0.072632 0.474582
vt 0.047395 0.078144
vt 0.055459 0.076709
vt 0.104058 0.473625
vt 0.103507 0.482562
vt 0.107053 0.078708
vt 0.102523 0.469987
vt 0.452416 0.042219
vt 0.433307 0.010243
vt 0.610480 0.010244
vt 0.665678 0.010243
vt 0.638079 0.076874
vt 0.571451 0.049273
vt 0.704706 0.049277
vt 0.571450 0.104472
vt 0.704706 0.104472
vt 0.610479 0.143502
vt 0.665678 0.143502
vt 0.715369 0.214451
vt 0.755825 0.254906
vt 0.686760 0.283514
vt 0.658154 0.214451
vt 0.755825 0.312119
vt 0.617700 0.254906
vt 0.715367 0.352576
vt 0.617698 0.312120
vt 0.658156 0.352575
vt 0.204003 0.609938
vt 0.356810 0.331099
vt 0.344342 0.016390
vt 0.327328 0.038728
vt 0.257601 0.554684
vt 0.200066 0.571200
vt 0.149304 0.394371
vt 0.206838 0.377854
vt 0.316418 0.395686
vt 0.316794 0.327459
vt 0.285376 0.067565
vn 0.6368 0.0055 0.7710
vn 0.6545 -0.5335 0.5357
vn 1.0000 -0.0039 0.0039
vn 0.0071 -0.6317 0.7752
vn 0.5526 -0.6240 0.5526
vn 0.6988 0.3169 0.6412
vn 0.0077 0.3739 0.9274
vn -0.8841 0.3567 -0.3019
vn -0.7068 0.0289 -0.7068
vn -0.4831 0.3367 -0.8082
vn -0.9859 0.1673 0.0077
vn 0.5634 0.6025 -0.5653
vn 0.8032 0.3481 -0.4833
vn -0.0079 0.1689 -0.9856
vn 0.3017 0.3567 -0.8842
vn -0.6555 0.4439 0.6109
vn -0.6529 0.4334 -0.6213
vn -0.5806 -0.5806 -0.5708
vn -0.5806 -0.5708 0.5806
vn 0.5426 0.6318 0.5535
vn 0.0000 0.6246 0.7810
vn 0.0042 0.8050 0.5932
vn 0.4175 0.8071 0.4175
vn -0.1730 0.9119 -0.3721
vn 0.1617 0.9120 -0.3769
vn 0.6509 0.4461 -0.6143
vn -0.4227 0.8016 0.4227
vn -0.5434 0.6316 0.5530
vn 0.0000 0.6359 0.7718
vn 0.2053 -0.9613 -0.1836
vn -0.2140 -0.9586 -0.1879
vn 0.5713 -0.5825 -0.5782
vn 0.1742 0.9093 0.3778
vn 0.6548 0.4434 0.6121
vn -0.0215 0.0204 0.9996
vn -0.0181 0.0689 0.9975
vn -0.2177 0.6889 0.6913
vn -0.4507 0.5637 0.6922
vn -0.0026 -0.6248 -0.7808
vn -0.5525 -0.6240 -0.5525
vn -0.5425 0.6318 -0.5536
vn -0.0005 0.6244 -0.7811
vn 0.5907 0.8069 0.0000
vn 0.7778 0.6285 -0.0071
vn -0.7809 0.6246 0.0000
vn -0.7752 -0.6317 0.0071
vn -0.5521 -0.6248 0.5521
vn -0.1591 0.9133 0.3750
vn 0.5426 0.6318 0.5536
vn 0.5526 -0.6240 0.5525
vn 0.7811 -0.6244 0.0000
vn 0.5519 -0.6252 -0.5518
vn 0.5452 0.6291 -0.5540
vn 0.6380 0.3272 -0.6970
vn 0.9283 0.3718 -0.0082
vn 0.7752 -0.6317 -0.0072
vn -0.9994 -0.0317 0.0113
vn -0.8359 -0.5489 -0.0019
vn -0.5905 -0.5479 -0.5926
vn -0.3183 0.2802 -0.9057
vn 0.0026 -0.5538 0.8326
vn -0.5926 -0.5504 0.5882
vn -0.8970 0.2988 0.3259
vn -0.0043 -0.0181 0.9998
vn 0.7105 -0.0229 -0.7033
vn 0.5876 -0.5520 -0.5916
vn 0.8325 -0.5540 -0.0048
vn 0.8581 0.3046 0.4133
vn -0.5530 0.6316 0.5434
vn -0.5908 0.8068 0.0006
vn -0.5525 0.6240 -0.5525
vn -0.4160 0.8066 -0.4200
vn -0.0004 0.6244 -0.7811
vn -0.0043 0.8050 -0.5932
vn 0.5461 0.6353 -0.5461
vn 0.4169 0.8049 -0.4222
vn -0.0000 0.2924 -0.9563
vn -0.0025 -0.6248 -0.7808
vn -0.6338 0.3382 -0.6956
vn 0.4764 0.3575 0.8032
vn 0.9856 0.1689 0.0079
vn 0.9143 0.2716 -0.3005
vn 0.5712 0.6040 0.5559
vn 0.5908 -0.8068 -0.0025
vn 0.4244 -0.8033 -0.4180
vn -0.4632 0.5643 -0.6833
vn -0.5888 0.4305 -0.6841
vn -0.8621 0.5067 0.0000
vn -0.6279 0.7782 -0.0105
vn -0.7185 0.2116 -0.6625
vn -0.9596 0.2811 0.0105
vn 0.4867 0.7356 0.4713
vn 0.5865 0.5545 -0.5904
vn 0.0016 0.5647 -0.8253
vn 0.0063 -0.8033 -0.5956
vn 0.8919 -0.4521 -0.0113
vn 0.6349 -0.4329 -0.6399
vn 0.6320 0.4554 -0.6271
vn 0.8950 0.4459 0.0101
vn -0.0042 -0.0317 -0.9995
vn 0.0044 -0.5455 -0.8381
vn -0.6408 -0.4366 0.6315
vn -0.6325 0.4511 0.6297
vn -0.8919 0.4522 0.0046
vn -0.9026 -0.4306 0.0017
vn -0.0049 -0.4482 0.8939
vn -0.0011 0.4372 0.8994
vn -0.8295 0.5585 -0.0065
vn -0.5955 -0.8033 -0.0042
vn -0.4195 -0.8050 -0.4195
vn -0.5837 0.5685 -0.5797
vn 0.6187 0.5647 -0.5462
vn 0.6087 0.7934 0.0000
vn 0.6162 0.5704 0.5431
vn -0.9272 0.3745 -0.0000
vn -0.8058 0.3472 0.4797
vn -0.0078 0.1674 0.9859
vn 0.3008 0.2709 0.9144
vn -0.7068 0.0307 0.7067
vn 0.5958 -0.5493 0.5859
vn 0.3268 -0.9450 -0.0079
vn 0.6164 -0.7872 -0.0201
vn 0.4296 -0.5635 -0.7057
vn 0.2095 -0.6599 -0.7215
vn 0.6544 -0.7561 0.0086
vn 0.2105 -0.6227 0.7536
vn -0.3177 0.9481 0.0157
vn -0.2128 0.6948 -0.6870
vn -0.6517 0.3821 0.6551
vn -0.7149 0.2099 0.6669
vn 0.6497 -0.5453 -0.5297
vn 0.4416 -0.5565 0.7038
vn 0.8826 -0.4686 -0.0377
vn 0.5854 -0.3409 -0.7356
vn 0.6464 -0.2135 0.7325
vn 0.9514 -0.3079 0.0012
vn 0.5856 -0.3566 0.7280
vn 0.6451 -0.2101 -0.7347
vn -0.0380 0.0331 -0.9987
vn -0.0741 0.0158 -0.9971
vn -0.0556 0.0683 0.9961
vn -0.0227 0.0513 -0.9984
vn -0.0115 0.0174 -0.9998
vn 0.6358 0.0020 -0.7719
vn -0.0757 0.0088 0.9971
vn -0.6329 0.3383 0.6964
vn -0.7809 -0.6246 -0.0000
vn 0.6247 -0.4686 0.6246
vn 0.6458 0.4332 0.6288
vn 0.8368 0.5475 0.0086
vn 0.5971 0.5345 0.5982
vn -0.6470 -0.4250 -0.6330
vn -0.0032 -0.4362 -0.8998
vn -0.6299 0.4714 -0.6173
vn -0.0032 0.5453 0.8383
vn -0.5903 0.5456 0.5949
vn -0.5434 -0.6316 0.5529
vn 0.5806 -0.5806 0.5708
vn 0.4212 -0.8067 0.4146
vn -0.0002 0.4603 -0.8878
vn 0.0042 -0.8081 0.5890
vn -0.4162 -0.8075 0.4181
vn -0.0039 -1.0000 0.0039
vn -0.0039 1.0000 0.0039
vn 0.2115 -0.9589 0.1890
vn -0.2082 -0.9615 0.1794
vn 0.4106 -0.7464 -0.5237
vn 0.3999 -0.7449 0.5341
vn -0.4101 -0.7455 0.5253
vn -0.4005 -0.7447 -0.5339
usemtl Material.008
s 1
f 1/1/1 2/2/2 3/3/3
f 118/4/4 119/5/5 117/6/6 116/7/7
f 82/8/8 109/9/9 106/10/10 158/11/11
f 151/12/12 152/13/13 107/14/14 108/15/15
f 7/16/16 13/17/17 15/18/18 5/19/19
f 68/20/20 54/21/21 56/22/22 69/23/23
f 11/24/24 8/25/25 14/26/26 13/17/17
f 56/27/22 55/28/27 33/29/28 34/30/29
f 21/31/30 20/32/31 15/18/18 12/33/32
f 14/26/26 8/34/25 10/35/33 4/36/34
f 144/37/35 145/38/36 125/39/37 76/40/38
f 27/41/39 29/42/40 28/43/41 26/44/42
f 69/23/23 67/45/43 66/46/44 68/20/20
f 33/29/28 31/47/45 30/48/46 32/49/47
f 8/34/25 11/50/24 9/51/48 10/35/33
f 36/52/49 34/53/29 35/54/4 37/55/50
f 37/55/50 39/56/51 38/57/44 36/52/49
f 39/56/51 25/58/52 24/59/53 38/57/44
f 159/60/54 162/61/55 160/62/56 161/63/52
f 50/64/57 51/65/58 111/66/59 110/67/60
f 52/68/61 49/69/62 48/70/63 53/71/64
f 46/72/65 45/73/66 42/74/67 41/75/68
f 57/76/69 59/77/45 58/78/70 55/28/27
f 59/77/45 61/79/71 60/80/72 58/78/70
f 63/81/73 62/82/74 60/80/72 61/79/71
f 65/83/75 64/84/76 62/82/74 63/81/73
f 105/85/77 102/86/78 103/87/40 104/88/79
f 34/30/29 33/29/28 32/49/47 35/89/4
f 67/45/43 64/84/76 65/83/75 66/46/44
f 115/90/80 163/91/81 164/92/82 113/93/83
f 64/84/76 67/45/43 38/57/44 24/59/53
f 39/56/51 74/94/84 121/95/85 25/58/52
f 31/47/45 33/29/28 55/28/27 58/78/70
f 123/96/86 134/97/87 77/98/88 78/99/89
f 134/97/87 135/100/90 80/101/91 77/98/88
f 43/102/92 113/93/83 164/92/82 41/75/68
f 121/95/85 169/103/93 170/104/94 120/105/95
f 92/106/96 94/107/97 93/108/98 91/109/99
f 44/110/100 47/111/101 45/73/66 46/72/65
f 83/112/102 86/113/103 84/114/104 85/115/105
f 87/116/106 88/117/107 86/113/103 83/112/102
f 172/118/108 71/119/109 70/120/110 171/121/111
f 99/122/112 100/123/113 3/3/3
f 100/123/113 101/124/114 3/3/3
f 101/124/114 1/1/1 3/3/3
f 31/47/45 28/43/41 29/42/40 30/48/46
f 156/125/115 158/11/11 106/10/10 104/88/79
f 157/126/116 114/127/117 112/128/118 81/129/119
f 112/130/118 113/93/83 43/102/92 53/131/64
f 53/131/64 43/102/92 40/132/120 52/133/61
f 40/132/120 43/102/92 41/75/68 42/74/67
f 48/70/63 50/64/57 82/8/8 81/129/119
f 44/110/100 108/15/15 109/9/9 110/67/60
f 12/33/32 15/18/18 13/17/17 14/26/26
f 69/23/23 36/52/49 38/57/44 67/45/43
f 26/44/42 62/82/74 64/84/76 24/59/53
f 31/47/45 58/78/70 60/80/72 28/43/41
f 129/134/121 126/135/122 132/136/123 131/137/124
f 129/134/121 130/138/125 2/139/2 127/140/126
f 122/141/127 124/142/128 123/96/86 78/99/89
f 99/143/112 124/142/128 122/141/127 100/144/113
f 75/145/129 77/98/88 80/101/91 79/146/130
f 130/138/125 129/134/121 131/137/124 133/147/131
f 126/135/122 129/134/121 127/140/126 128/148/132
f 76/40/38 78/99/89 77/98/88 75/145/129
f 126/135/122 137/149/133 140/150/134 132/136/123
f 138/151/135 139/152/136 137/149/133 136/153/137
f 137/149/133 139/152/136 141/154/138 140/150/134
f 136/153/137 137/149/133 126/135/122 128/148/132
f 125/39/37 101/155/114 100/144/113 122/141/127
f 147/156/139 140/150/134 141/154/138 146/157/140
f 136/153/137 128/148/132 144/158/35 143/159/141
f 149/160/142 148/161/143 123/96/86 124/142/128
f 150/162/144 149/160/142 124/142/128 99/143/112
f 145/38/36 1/163/1 101/155/114 125/39/37
f 148/161/143 132/136/123 140/150/134 147/156/139
f 134/97/87 147/156/139 146/157/140 135/100/90
f 123/96/86 148/161/143 147/156/139 134/97/87
f 138/151/135 136/153/137 143/159/141 142/164/145
f 107/14/14 105/85/77 104/88/79 106/10/10
f 128/148/132 127/140/126 145/165/36 144/158/35
f 127/140/126 2/139/2 1/166/1 145/165/36
f 142/167/145 143/168/141 75/145/129 79/146/130
f 143/168/141 144/37/35 76/40/38 75/145/129
f 131/137/124 132/136/123 148/161/143 149/160/142
f 150/162/144 133/147/131 131/137/124 149/160/142
f 48/70/63 81/129/119 112/128/118 53/71/64
f 106/10/10 109/9/9 108/15/15 107/14/14
f 54/169/21 57/76/69 55/28/27 56/27/22
f 157/126/116 154/170/146 116/171/7 114/127/117
f 156/125/115 104/88/79 103/87/40 155/172/147
f 81/129/119 82/8/8 158/11/11 157/126/116
f 152/13/13 159/60/54 105/85/77 107/14/14
f 161/63/52 102/86/78 105/85/77 159/60/54
f 110/67/60 109/9/9 82/8/8 50/64/57
f 49/69/62 51/65/58 50/64/57 48/70/63
f 40/132/120 42/74/67 92/106/96 89/173/148
f 90/174/149 91/109/99 168/175/150 167/176/151
f 98/177/152 111/66/59 51/65/58 85/115/105
f 94/107/97 45/73/66 47/111/101 96/178/153
f 84/114/104 172/118/108 171/121/111 97/179/154
f 49/69/62 52/68/61 87/116/106 83/112/102
f 9/180/48 11/24/24 13/17/17 7/16/16
f 86/113/103 88/117/107 165/181/155 166/182/156
f 85/115/105 84/114/104 97/179/154 98/177/152
f 51/65/58 49/69/62 83/112/102 85/115/105
f 27/41/39 25/58/52 121/95/85 120/105/95
f 56/22/22 34/53/29 36/52/49 69/23/23
f 150/183/144 99/122/112 3/3/3
f 133/184/131 150/183/144 3/3/3
f 130/185/125 133/184/131 3/3/3
f 2/2/2 130/185/125 3/3/3
f 46/72/65 41/75/68 164/92/82 151/12/12
f 114/186/117 115/90/80 113/93/83 112/130/118
f 46/72/65 151/12/12 108/15/15 44/110/100
f 153/187/157 118/188/4 116/171/7 154/170/146
f 115/90/80 117/6/6 162/61/55 163/91/81
f 119/5/5 160/62/56 162/61/55 117/6/6
f 116/7/7 117/6/6 115/90/80 114/186/117
f 164/92/82 163/91/81 152/13/13 151/12/12
f 157/126/116 158/11/11 156/125/115 154/170/146
f 25/58/52 27/41/39 26/44/42 24/59/53
f 154/170/146 156/125/115 155/172/147 153/187/157
f 163/91/81 162/61/55 159/60/54 152/13/13
f 6/189/158 12/33/32 14/26/26 4/36/34
f 73/190/159 167/176/151 168/175/150 74/94/84
f 96/178/153 98/177/152 97/179/154 95/191/160
f 165/181/155 173/192/161 72/193/162 166/182/156
f 89/173/148 90/174/149 88/194/107 87/195/106
f 76/40/38 125/39/37 122/141/127 78/99/89
f 167/176/151 73/190/159 173/196/161 165/197/155
f 94/107/97 96/178/153 95/191/160 93/108/98
f 89/173/148 92/106/96 91/109/99 90/174/149
f 120/105/95 170/104/94 171/121/111 70/120/110
f 110/67/60 111/66/59 47/111/101 44/110/100
f 166/182/156 72/193/162 71/119/109 172/118/108
f 74/94/84 168/175/150 169/103/93 121/95/85
f 10/198/33 9/180/48 7/16/16 4/199/34
f 28/43/41 60/80/72 62/82/74 26/44/42
f 73/190/159 74/94/84 39/56/51 37/55/50
f 29/42/40 27/41/39 120/105/95 70/120/110
f 30/48/46 29/42/40 70/120/110 71/119/109
f 173/192/161 35/89/4 32/49/47 72/193/162
f 30/48/46 71/119/109 72/193/162 32/49/47
f 173/196/161 73/190/159 37/55/50 35/54/4
f 96/178/153 47/111/101 111/66/59 98/177/152
f 93/108/98 169/103/93 168/175/150 91/109/99
f 95/191/160 170/104/94 169/103/93 93/108/98
f 88/194/107 90/174/149 167/176/151 165/197/155
f 84/114/104 86/113/103 166/182/156 172/118/108
f 92/106/96 42/74/67 45/73/66 94/107/97
f 97/179/154 171/121/111 170/104/94 95/191/160
f 52/133/61 40/132/120 89/173/148 87/195/106
f 102/200/78 161/201/52 174/202/163
f 103/203/40 102/200/78 174/202/163
f 161/201/52 160/204/56 174/202/163
f 155/205/147 103/203/40 174/202/163
f 160/204/56 119/206/5 174/202/163
f 153/207/157 155/205/147 174/202/163
f 119/206/5 118/208/4 174/202/163
f 118/208/4 153/207/157 174/202/163
f 65/209/75 63/210/73 175/211/164
f 66/212/44 65/209/75 175/211/164
f 63/210/73 61/213/71 175/211/164
f 68/214/20 66/212/44 175/211/164
f 61/213/71 59/215/45 175/211/164
f 54/216/21 68/214/20 175/211/164
f 59/215/45 57/217/69 175/211/164
f 57/217/69 54/216/21 175/211/164
f 12/33/32 6/189/158 22/218/165 21/31/30
f 20/32/31 23/219/166 5/19/19 15/18/18
f 6/220/158 5/19/19 23/219/166 22/221/165
f 4/199/34 7/16/16 5/19/19 6/220/158
usemtl light1
f 16/222/167 19/223/168 17/224/169 18/225/170
f 16/222/167 18/226/170 20/32/31 21/31/30
f 19/223/168 16/222/167 21/31/30 22/218/165
f 17/227/169 23/219/166 20/32/31 18/226/170
f 22/221/165 23/219/166 17/227/169 19/228/168
