# Blender v2.80 (sub 75) OBJ File: ''
# www.blender.org
mtllib trashbox.1.mtl
o Cube_Cube.001
v -1.000000 0.002253 0.559571
v -1.000000 0.715359 0.559571
v -1.000000 0.002253 -0.559571
v -1.000000 1.147387 -0.559571
v 1.000000 0.002253 0.559571
v 1.000000 0.715359 0.559571
v 1.000000 0.002253 -0.559571
v 1.000000 1.147387 -0.559571
v -1.040922 0.728643 0.594425
v -1.040922 1.178350 -0.570515
v 1.040922 1.178350 -0.570515
v 1.040922 0.728643 0.594425
v -1.040922 0.764757 0.608367
v -1.040922 1.214464 -0.556574
v 1.040922 1.214464 -0.556574
v 1.040922 0.764757 0.608367
v 0.000000 0.002253 -0.559571
v 0.000000 1.147387 -0.559571
v 0.000000 0.002253 0.559571
v 0.000000 0.715359 0.559571
v 0.000000 1.178350 -0.570515
v 0.000000 0.728643 0.594425
v 0.000000 1.214464 -0.556574
v 0.000000 0.764757 0.608367
v -0.500000 0.002253 -0.559571
v -0.500000 0.715359 0.559571
v -0.520461 0.728643 0.594425
v -0.520461 0.764757 0.608367
v -0.500000 1.147387 -0.559571
v -0.500000 0.002253 0.559571
v -0.520461 1.178350 -0.570515
v -0.520461 1.214464 -0.556574
v 0.500000 1.147387 -0.559571
v 0.500000 0.002253 0.559571
v 0.520461 1.178350 -0.570515
v 0.520461 1.214464 -0.556574
v 0.500000 0.002253 -0.559571
v 0.500000 0.715359 0.559571
v 0.520461 0.728643 0.594425
v 0.520461 0.764757 0.608367
v -0.618793 1.194591 -0.505092
v -0.942591 1.194591 -0.505092
v -0.942591 0.784631 0.556885
v -0.618793 0.784631 0.556885
v 0.422129 1.194591 -0.505092
v 0.098332 1.194591 -0.505092
v 0.098332 0.784631 0.556885
v 0.422129 0.784631 0.556885
v -0.098332 1.194591 -0.505092
v -0.422129 1.194591 -0.505092
v -0.422129 0.784631 0.556885
v -0.098332 0.784631 0.556885
v 0.942591 1.194591 -0.505092
v 0.618793 1.194591 -0.505092
v 0.618793 0.784631 0.556885
v 0.942591 0.784631 0.556885
v -0.928024 1.193445 -0.450641
v -0.633359 1.193445 -0.450641
v -0.633359 0.820370 0.515788
v -0.928024 0.820370 0.515788
v 0.111965 1.194627 -0.453702
v 0.408496 1.194627 -0.453702
v 0.408496 0.819189 0.518849
v 0.111965 0.819189 0.518849
v -0.408664 1.194840 -0.454253
v -0.111797 1.194840 -0.454253
v -0.111797 0.818976 0.519400
v -0.408664 0.818976 0.519400
v 0.631423 1.195897 -0.456992
v 0.929961 1.195897 -0.456992
v 0.929961 0.817918 0.522139
v 0.631423 0.817918 0.522139
v -0.579461 0.047750 0.559571
v -0.579461 0.669862 0.559571
v -0.920539 0.669862 0.559571
v -0.920539 0.047750 0.559571
v 0.420539 0.047750 0.559571
v 0.420539 0.669862 0.559571
v 0.079461 0.669862 0.559571
v 0.079461 0.047750 0.559571
v -0.079461 0.047750 0.559571
v -0.079461 0.669862 0.559571
v -0.420539 0.669862 0.559571
v -0.420539 0.047750 0.559571
v 0.920539 0.047750 0.559571
v 0.920539 0.669862 0.559571
v 0.579461 0.669862 0.559571
v 0.579461 0.047750 0.559571
v -0.579461 0.669862 0.518202
v -0.579461 0.047750 0.518202
v -0.920539 0.047750 0.518202
v -0.920539 0.669862 0.518202
v 0.420539 0.669862 0.518202
v 0.420539 0.047750 0.518202
v 0.079461 0.047750 0.518202
v 0.079461 0.669862 0.518202
v -0.079461 0.669862 0.518202
v -0.079461 0.047750 0.518202
v -0.420539 0.047750 0.518202
v -0.420539 0.669862 0.518202
v 0.920539 0.669862 0.518202
v 0.920539 0.047750 0.518202
v 0.579461 0.047750 0.518202
v 0.579461 0.669862 0.518202
vt 0.625000 0.250000
vt 0.625000 0.000000
vt 0.625000 0.000000
vt 0.625000 0.250000
vt 0.625000 0.812500
vt 0.625000 0.750000
vt 0.625000 0.750000
vt 0.625000 0.812500
vt 0.625000 0.812500
vt 0.625000 0.750000
vt 0.625000 0.312500
vt 0.625000 0.312500
vt 0.625000 0.500000
vt 0.625000 0.500000
vt 0.800692 0.738952
vt 0.761808 0.738952
vt 0.761808 0.738952
vt 0.800692 0.738952
vt 0.625000 0.250000
vt 0.625000 0.312500
vt 0.625000 0.500000
vt 0.625000 0.000000
vt 0.625000 0.437500
vt 0.625000 0.375000
vt 0.625000 0.375000
vt 0.625000 0.437500
vt 0.675692 0.511048
vt 0.675692 0.738952
vt 0.675692 0.738952
vt 0.675692 0.511048
vt 0.625000 0.437500
vt 0.625000 0.375000
vt 0.625000 0.937500
vt 0.625000 0.875000
vt 0.625000 0.875000
vt 0.625000 0.937500
vt 0.625000 0.875000
vt 0.625000 0.937500
vt 0.625000 1.000000
vt 0.625000 1.000000
vt 0.625000 1.000000
vt 0.738192 0.738952
vt 0.699308 0.738952
vt 0.699308 0.738952
vt 0.738192 0.738952
vt 0.800692 0.511048
vt 0.800692 0.511048
vt 0.812500 0.500000
vt 0.875000 0.500000
vt 0.863192 0.511048
vt 0.824308 0.511048
vt 0.875000 0.750000
vt 0.863192 0.738952
vt 0.812500 0.750000
vt 0.824308 0.738952
vt 0.687500 0.500000
vt 0.750000 0.500000
vt 0.738192 0.511048
vt 0.699308 0.511048
vt 0.750000 0.750000
vt 0.687500 0.750000
vt 0.761808 0.511048
vt 0.636808 0.511048
vt 0.636808 0.738952
vt 0.824308 0.511048
vt 0.863192 0.511048
vt 0.863192 0.738952
vt 0.824308 0.738952
vt 0.699308 0.511048
vt 0.738192 0.511048
vt 0.761808 0.511048
vt 0.636808 0.511048
vt 0.636808 0.738952
vt 0.375000 0.000000
vt 0.375000 0.250000
vt 0.375000 0.437500
vt 0.375000 0.500000
vt 0.375000 0.750000
vt 0.609050 0.822433
vt 0.609050 0.865067
vt 0.609050 0.865067
vt 0.609050 0.822433
vt 0.312500 0.500000
vt 0.312500 0.750000
vt 0.187500 0.500000
vt 0.250000 0.500000
vt 0.250000 0.750000
vt 0.187500 0.750000
vt 0.390950 0.927567
vt 0.390950 0.884933
vt 0.390950 0.884933
vt 0.390950 0.927567
vt 0.375000 0.312500
vt 0.375000 0.375000
vt 0.125000 0.500000
vt 0.125000 0.750000
vt 0.609050 0.947433
vt 0.609050 0.990067
vt 0.609050 0.990067
vt 0.609050 0.947433
vt 0.390950 0.759933
vt 0.609050 0.759933
vt 0.609050 0.759933
vt 0.390950 0.759933
vt 0.375000 0.937500
vt 0.390950 0.947433
vt 0.375000 1.000000
vt 0.390950 0.990067
vt 0.375000 0.812500
vt 0.390950 0.822433
vt 0.375000 0.875000
vt 0.390950 0.865067
vt 0.609050 0.884933
vt 0.609050 0.927567
vt 0.609050 0.802567
vt 0.390950 0.802567
vt 0.390950 0.947433
vt 0.390950 0.990067
vt 0.390950 0.822433
vt 0.390950 0.865067
vt 0.609050 0.884933
vt 0.609050 0.927567
vt 0.609050 0.802567
vt 0.390950 0.802567
vn -0.5205 -0.7966 -0.3075
vn 0.0000 -0.3601 0.9329
vn 0.0000 -0.9344 0.3561
vn 0.0000 -0.3332 -0.9428
vn 0.5205 -0.7966 -0.3075
vn 0.0000 0.7373 0.6756
vn 0.0000 0.3601 -0.9329
vn 1.0000 0.0000 0.0000
vn -1.0000 0.0000 0.0000
vn -0.8265 0.5252 0.2027
vn 0.0000 0.7401 0.6725
vn -0.8091 0.5482 0.2116
vn 0.0000 0.9329 0.3601
vn 0.0000 0.7221 0.6918
vn 0.0000 0.9998 0.0210
vn 0.0000 1.0000 -0.0007
vn 0.7864 0.5763 0.2225
vn -0.0000 1.0000 -0.0049
vn 0.8057 0.5526 0.2133
vn -0.0000 0.9996 -0.0272
vn -0.7864 0.5763 0.2225
vn 0.8091 0.5482 0.2116
vn -0.8057 0.5526 0.2133
vn 0.8265 0.5252 0.2027
vn 0.0000 0.7546 0.6562
vn 0.0000 0.0000 -1.0000
vn 0.0000 -1.0000 0.0000
vn 0.0000 1.0000 0.0000
vn -0.0000 0.0000 1.0000
usemtl Material.004
s off
f 4/1/1 2/2/1 9/3/1 10/4/1
f 39/5/2 12/6/2 16/7/2 40/8/2
f 38/9/3 6/10/3 12/6/3 39/5/3
f 29/11/4 4/1/4 10/4/4 31/12/4
f 6/10/5 8/13/5 11/14/5 12/6/5
f 51/15/6 52/16/6 67/17/6 68/18/6
f 31/12/7 10/4/7 14/19/7 32/20/7
f 12/6/8 11/14/8 15/21/8 16/7/8
f 10/4/9 9/3/9 13/22/9 14/19/9
f 35/23/7 21/24/7 23/25/7 36/26/7
f 54/27/10 55/28/10 72/29/10 69/30/10
f 33/31/4 18/32/4 21/24/4 35/23/4
f 26/33/3 20/34/3 22/35/3 27/36/3
f 27/36/2 22/35/2 24/37/2 28/38/2
f 9/39/2 27/36/2 28/38/2 13/40/2
f 2/41/3 26/33/3 27/36/3 9/39/3
f 21/24/7 31/12/7 32/20/7 23/25/7
f 47/42/11 48/43/11 63/44/11 64/45/11
f 18/32/4 29/11/4 31/12/4 21/24/4
f 8/13/4 33/31/4 35/23/4 11/14/4
f 50/46/12 51/15/12 68/18/12 65/47/12
f 11/14/7 35/23/7 36/26/7 15/21/7
f 20/34/3 38/9/3 39/5/3 22/35/3
f 22/35/2 39/5/2 40/8/2 24/37/2
f 32/48/13 14/49/13 42/50/13 41/51/13
f 14/49/13 13/52/13 43/53/13 42/50/13
f 13/52/13 28/54/13 44/55/13 43/53/13
f 28/54/13 32/48/13 41/51/13 44/55/13
f 36/56/13 23/57/13 46/58/13 45/59/13
f 23/57/13 24/60/13 47/42/13 46/58/13
f 24/60/13 40/61/13 48/43/13 47/42/13
f 40/61/13 36/56/13 45/59/13 48/43/13
f 23/57/13 32/48/13 50/46/13 49/62/13
f 32/48/13 28/54/13 51/15/13 50/46/13
f 28/54/13 24/60/13 52/16/13 51/15/13
f 24/60/13 23/57/13 49/62/13 52/16/13
f 15/21/13 36/56/13 54/27/13 53/63/13
f 36/56/13 40/61/13 55/28/13 54/27/13
f 40/61/13 16/7/13 56/64/13 55/28/13
f 16/7/13 15/21/13 53/63/13 56/64/13
f 58/65/13 57/66/13 60/67/13 59/68/13
f 62/69/13 61/70/13 64/45/13 63/44/13
f 66/71/13 65/47/13 68/18/13 67/17/13
f 70/72/13 69/30/13 72/29/13 71/73/13
f 55/28/14 56/64/14 71/73/14 72/29/14
f 41/51/15 42/50/15 57/66/15 58/65/15
f 45/59/16 46/58/16 61/70/16 62/69/16
f 44/55/17 41/51/17 58/65/17 59/68/17
f 49/62/18 50/46/18 65/47/18 66/71/18
f 48/43/19 45/59/19 62/69/19 63/44/19
f 53/63/20 54/27/20 69/30/20 70/72/20
f 42/50/21 43/53/21 60/67/21 57/66/21
f 52/16/22 49/62/22 66/71/22 67/17/22
f 46/58/23 47/42/23 64/45/23 61/70/23
f 56/64/24 53/63/24 70/72/24 71/73/24
f 43/53/25 44/55/25 59/68/25 60/67/25
usemtl Material.005
f 1/74/9 2/2/9 4/1/9 3/75/9
f 37/76/26 33/31/26 8/13/26 7/77/26
f 7/77/8 8/13/8 6/10/8 5/78/8
f 78/79/27 79/80/27 96/81/27 93/82/27
f 37/83/27 7/77/27 5/78/27 34/84/27
f 25/85/27 17/86/27 19/87/27 30/88/27
f 84/89/28 81/90/28 98/91/28 99/92/28
f 25/93/26 29/11/26 18/32/26 17/94/26
f 3/75/26 4/1/26 29/11/26 25/93/26
f 3/95/27 25/85/27 30/88/27 1/96/27
f 74/97/27 75/98/27 92/99/27 89/100/27
f 85/101/9 86/102/9 101/103/9 102/104/9
f 17/86/27 37/83/27 34/84/27 19/87/27
f 17/94/26 18/32/26 33/31/26 37/76/26
f 30/105/29 26/33/29 74/97/29 73/106/29
f 26/33/29 2/41/29 75/98/29 74/97/29
f 2/41/29 1/107/29 76/108/29 75/98/29
f 1/107/29 30/105/29 73/106/29 76/108/29
f 34/109/29 38/9/29 78/79/29 77/110/29
f 38/9/29 20/34/29 79/80/29 78/79/29
f 20/34/29 19/111/29 80/112/29 79/80/29
f 19/111/29 34/109/29 77/110/29 80/112/29
f 19/111/29 20/34/29 82/113/29 81/90/29
f 20/34/29 26/33/29 83/114/29 82/113/29
f 26/33/29 30/105/29 84/89/29 83/114/29
f 30/105/29 19/111/29 81/90/29 84/89/29
f 5/78/29 6/10/29 86/102/29 85/101/29
f 6/10/29 38/9/29 87/115/29 86/102/29
f 38/9/29 34/109/29 88/116/29 87/115/29
f 34/109/29 5/78/29 85/101/29 88/116/29
f 90/117/29 89/100/29 92/99/29 91/118/29
f 94/119/29 93/82/29 96/81/29 95/120/29
f 98/91/29 97/121/29 100/122/29 99/92/29
f 102/104/29 101/103/29 104/123/29 103/124/29
f 88/116/28 85/101/28 102/104/28 103/124/28
f 75/98/8 76/108/8 91/118/8 92/99/8
f 82/113/27 83/114/27 100/122/27 97/121/27
f 79/80/8 80/112/8 95/120/8 96/81/8
f 86/102/27 87/115/27 104/123/27 101/103/27
f 83/114/8 84/89/8 99/92/8 100/122/8
f 87/115/8 88/116/8 103/124/8 104/123/8
f 73/106/9 74/97/9 89/100/9 90/117/9
f 77/110/9 78/79/9 93/82/9 94/119/9
f 76/108/28 73/106/28 90/117/28 91/118/28
f 81/90/9 82/113/9 97/121/9 98/91/9
f 80/112/28 77/110/28 94/119/28 95/120/28
