# Blender v2.80 (sub 75) OBJ File: 'untitled.blend'
# www.blender.org
mtllib buildingA2.mtl
o Cube.006_Cube.013
v -4.374978 -1.056447 2.364981
v -4.374978 0.983786 2.364981
v -4.374978 -1.056447 0.956518
v -4.374978 0.983786 0.956518
v -4.374979 -1.056447 3.932911
v -4.374979 0.983786 3.932911
v -4.374979 -1.056447 2.524447
v -4.374979 0.983786 2.524447
v -4.374978 -1.056447 -2.630438
v -4.374978 0.983786 -2.630438
v -4.374978 -1.056447 -4.038900
v -4.374978 0.983786 -4.038900
v -4.374979 -1.056447 -1.062508
v -4.374979 0.983786 -1.062508
v -4.374979 -1.056447 -2.470970
v -4.374979 0.983786 -2.470970
v -2.402384 -1.004081 -7.164604
v -2.402384 1.036153 -7.164604
v -0.811242 -1.004081 -7.164604
v -0.811242 1.036153 -7.164604
v 0.816004 -1.004081 -7.164606
v 0.816004 1.036153 -7.164606
v 2.407145 -1.004081 -7.164606
v 2.407145 1.036153 -7.164606
v 4.357826 -1.056447 2.364981
v 4.357826 0.983786 2.364981
v 4.357826 -1.056447 0.956518
v 4.357826 0.983786 0.956518
v 4.357826 -1.056447 3.932910
v 4.357826 0.983786 3.932910
v 4.357826 -1.056447 2.524446
v 4.357826 0.983786 2.524446
v 4.357826 -1.056447 -2.630438
v 4.357826 0.983786 -2.630438
v 4.357826 -1.056447 -4.038900
v 4.357826 0.983786 -4.038900
v 4.357826 -1.056447 -1.062510
v 4.357826 0.983786 -1.062510
v 4.357826 -1.056447 -2.470972
v 4.357826 0.983786 -2.470972
v 3.713354 -1.004081 6.225437
v 3.713354 1.036153 6.225437
v 3.713354 -1.004081 4.816975
v 3.713354 1.036153 4.816975
v -3.681844 -1.004081 6.225435
v -3.681844 1.036153 6.225435
v -3.681844 -1.004081 4.816974
v -3.681844 1.036153 4.816974
v 3.713354 -1.004081 -4.835350
v 3.713354 1.036153 -4.835350
v 3.713354 -1.004081 -6.243811
v 3.713354 1.036153 -6.243811
v -3.681844 -1.004081 -4.835350
v -3.681844 1.036153 -4.835350
v -3.681844 -1.004081 -6.243811
v -3.681844 1.036153 -6.243811
v -2.402385 -1.004081 7.110680
v -2.402385 1.036153 7.110680
v -0.811243 -1.004081 7.110680
v -0.811243 1.036153 7.110680
v 0.816003 -1.004081 7.110678
v 0.816003 1.036153 7.110678
v 2.407144 -1.004081 7.110678
v 2.407144 1.036153 7.110678
v -3.783610 -1.433827 6.518457
v -3.783610 1.441253 6.518457
v -3.783610 -1.433827 -6.588421
v -3.783610 1.441253 -6.588421
v 3.796234 -1.433827 6.518457
v 3.796234 1.441253 6.518457
v 3.796234 -1.433827 -6.588421
v 3.796234 1.441253 -6.588421
v -3.783610 -1.433827 -4.551735
v -3.783610 -1.433827 -0.560612
v -3.783610 -1.433827 0.490644
v -3.783610 -1.433827 4.481780
v -3.783610 1.441253 4.481779
v -3.783610 1.441253 0.490644
v -3.783610 1.441253 -0.560612
v -3.783610 1.441253 -4.551737
v 3.796234 -1.433827 4.481779
v 3.796234 -1.433827 0.490644
v 3.796234 -1.433827 -0.560612
v 3.796234 -1.433827 -4.551737
v 3.796234 1.441253 -4.551735
v 3.796234 1.441253 -0.560612
v 3.796234 1.441253 0.490644
v 3.796234 1.441253 4.481780
v 2.724600 -1.433827 -6.588421
v 0.507928 -1.433827 -6.588421
v -0.495304 -1.433827 -6.588421
v -2.711976 -1.433827 -6.588421
v -2.711976 1.441253 -6.588421
v -0.495304 1.441253 -6.588421
v 0.507928 1.441253 -6.588421
v 2.724600 1.441253 -6.588421
v -2.711976 -1.433827 6.518457
v -0.495304 -1.433827 6.518457
v 0.507928 -1.433827 6.518457
v 2.724600 -1.433827 6.518457
v 2.724600 1.441253 6.518457
v 0.507928 1.441253 6.518457
v -0.495304 1.441253 6.518457
v -2.711976 1.441253 6.518457
v -4.463218 -1.433827 -4.551735
v -4.463219 -1.433827 -0.560612
v -4.463219 -1.433827 0.490644
v -4.463219 -1.433827 4.481780
v -4.463218 1.441253 4.481779
v -4.463219 1.441253 0.490644
v -4.463219 1.441253 -0.560612
v -4.463219 1.441253 -4.551737
v 4.475842 -1.433827 4.481779
v 4.475842 -1.433827 0.490644
v 4.475842 -1.433827 -0.560612
v 4.475842 -1.433827 -4.551737
v 4.475842 1.441253 -4.551735
v 4.475842 1.441253 -0.560612
v 4.475842 1.441253 0.490644
v 4.475842 1.441253 4.481780
v 2.724600 -1.433827 -7.268030
v 0.507928 -1.433827 -7.268030
v -0.495304 -1.433827 -7.268030
v -2.711976 -1.433827 -7.268030
v -2.711976 1.441253 -7.268030
v -0.495304 1.441253 -7.268030
v 0.507928 1.441253 -7.268030
v 2.724600 1.441253 -7.268030
v -2.711976 -1.433827 7.198066
v -0.495304 -1.433827 7.198066
v 0.507928 -1.433827 7.198066
v 2.724600 -1.433827 7.198066
v 2.724600 1.441253 7.198066
v 0.507928 1.441253 7.198066
v -0.495304 1.441253 7.198066
v -2.711976 1.441253 7.198066
v 4.475842 0.983786 2.364981
v 4.475842 -1.056447 3.932910
v 4.475842 0.983786 2.524446
v 4.475842 0.983786 3.932910
v 4.475842 -1.056447 2.524446
v 3.796234 1.036153 4.816975
v 4.475842 0.983786 0.956518
v 4.475842 -1.056447 2.364981
v 3.796234 -1.004081 6.225437
v 3.796234 1.036153 6.225437
v 3.796234 -1.004081 4.816975
v 0.816003 -1.004081 7.198066
v 2.407144 -1.004081 7.198066
v 2.407144 1.036153 7.198066
v 0.816003 1.036153 7.198066
v -0.811243 1.031471 7.198066
v -0.811243 1.036153 7.198066
v -2.402385 1.036153 7.198066
v -2.402385 -1.004081 7.198066
v -0.811243 -1.004081 7.198066
v -3.783610 1.036153 6.225435
v -3.783610 1.036153 4.816974
v -3.783610 -1.004081 4.816974
v -3.783610 -1.004081 6.225435
v 4.475842 -1.056447 -4.038900
v 4.475842 -1.056447 -2.630438
v 4.475842 0.983786 -2.630438
v 4.475842 0.983786 -4.038900
v 4.475842 -1.056447 -2.470972
v 4.475842 0.983786 -2.470972
v 4.475842 -1.056447 -1.062510
v 4.475842 0.983786 -1.062510
v 4.475842 -1.056447 0.956518
v 3.796234 1.036153 -4.835350
v 3.796234 -1.004081 -4.835350
v 3.796234 1.036153 -6.243811
v 3.796234 -1.004081 -6.243811
v -3.783610 1.036153 -4.835350
v -3.783610 -1.004081 -4.835350
v -3.783610 1.036153 -6.243811
v -3.783610 -1.004081 -6.243811
v -0.811242 -1.004081 -7.268030
v -0.811242 1.036153 -7.268030
v -2.402384 1.036153 -7.268030
v -2.402384 -1.004081 -7.268030
v 2.407145 1.036153 -7.268030
v 0.816004 -1.004081 -7.268030
v 2.407145 -1.004081 -7.268030
v 0.816004 1.036153 -7.268030
v -4.463219 -1.056447 2.524447
v -4.463219 0.983786 2.524447
v -4.463219 -1.056447 3.932911
v -4.463218 0.983786 3.932911
v -4.463218 0.983786 2.364981
v -4.463219 -1.056447 2.364981
v -4.463219 0.983786 0.956518
v -4.463219 -1.056447 0.956518
v -4.463219 -1.056447 -1.062508
v -4.463219 0.983786 -1.062508
v -4.463219 0.983786 -2.470970
v -4.463218 -1.056447 -2.470970
v -4.463218 -1.056447 -2.630438
v -4.463219 0.983786 -2.630438
v -4.463218 -1.056447 -4.038900
v -4.463219 0.983786 -4.038900
vt 0.375000 0.750000
vt 0.375000 0.763864
vt 0.625000 0.763864
vt 0.625000 0.750000
vt 0.625000 0.500000
vt 0.638864 0.750000
vt 0.638864 0.500000
vt 0.375000 0.750000
vt 0.375000 0.763864
vt 0.625000 0.763864
vt 0.625000 0.750000
vt 0.625000 0.500000
vt 0.638864 0.750000
vt 0.638864 0.500000
vt 0.375000 0.750000
vt 0.375000 0.763864
vt 0.625000 0.763864
vt 0.625000 0.750000
vt 0.625000 0.500000
vt 0.638864 0.750000
vt 0.638864 0.500000
vt 0.375000 0.750000
vt 0.375000 0.763864
vt 0.625000 0.763864
vt 0.625000 0.750000
vt 0.625000 0.500000
vt 0.638864 0.750000
vt 0.638864 0.500000
vt 0.375000 0.000000
vt 0.375000 0.018358
vt 0.625000 0.018358
vt 0.625000 0.000000
vt 0.375000 0.000000
vt 0.375000 0.018357
vt 0.625000 0.018357
vt 0.625000 0.000000
vt 0.375000 0.250000
vt 0.375000 0.268543
vt 0.625000 0.268543
vt 0.625000 0.250000
vt 0.125000 0.500000
vt 0.125000 0.750000
vt 0.143543 0.750000
vt 0.143543 0.500000
vt 0.375000 0.250000
vt 0.375000 0.268543
vt 0.625000 0.268543
vt 0.625000 0.250000
vt 0.125000 0.500000
vt 0.125000 0.750000
vt 0.143543 0.750000
vt 0.143543 0.500000
vt 0.375000 0.250000
vt 0.375000 0.268543
vt 0.625000 0.268543
vt 0.625000 0.250000
vt 0.125000 0.500000
vt 0.125000 0.750000
vt 0.143543 0.750000
vt 0.143543 0.500000
vt 0.375000 0.250000
vt 0.375000 0.268543
vt 0.625000 0.268543
vt 0.625000 0.250000
vt 0.125000 0.500000
vt 0.125000 0.750000
vt 0.143543 0.750000
vt 0.143543 0.500000
vt 0.375000 0.500000
vt 0.375000 0.515511
vt 0.624426 0.515511
vt 0.625000 0.515511
vt 0.625000 0.500000
vt 0.125000 0.500000
vt 0.125000 0.515511
vt 0.875000 0.515511
vt 0.875000 0.500000
vt 0.375000 0.500000
vt 0.375000 0.515511
vt 0.625000 0.515511
vt 0.625000 0.500000
vt 0.125000 0.500000
vt 0.125000 0.515511
vt 0.875000 0.515511
vt 0.875000 0.500000
vt 0.175000 0.500000
vt 0.175000 0.500000
vt 0.225000 0.500000
vt 0.225000 0.500000
vt 0.275000 0.500000
vt 0.275000 0.500000
vt 0.325000 0.500000
vt 0.325000 0.500000
vt 0.375000 0.500000
vt 0.375000 0.550000
vt 0.375000 0.550000
vt 0.375000 0.600000
vt 0.375000 0.600000
vt 0.375000 0.650000
vt 0.375000 0.650000
vt 0.375000 0.700000
vt 0.375000 0.700000
vt 0.375000 0.750000
vt 0.325000 0.750000
vt 0.325000 0.750000
vt 0.275000 0.750000
vt 0.275000 0.750000
vt 0.225000 0.750000
vt 0.225000 0.750000
vt 0.175000 0.750000
vt 0.175000 0.750000
vt 0.125000 0.750000
vt 0.125000 0.700000
vt 0.125000 0.700000
vt 0.125000 0.650000
vt 0.125000 0.650000
vt 0.125000 0.600000
vt 0.125000 0.600000
vt 0.125000 0.550000
vt 0.125000 0.550000
vt 0.125000 0.500000
vt 0.675000 0.500000
vt 0.675000 0.500000
vt 0.725000 0.500000
vt 0.725000 0.500000
vt 0.775000 0.500000
vt 0.775000 0.500000
vt 0.825000 0.500000
vt 0.825000 0.500000
vt 0.875000 0.500000
vt 0.875000 0.550000
vt 0.875000 0.550000
vt 0.875000 0.600000
vt 0.875000 0.600000
vt 0.875000 0.650000
vt 0.875000 0.650000
vt 0.875000 0.700000
vt 0.875000 0.700000
vt 0.875000 0.750000
vt 0.825000 0.750000
vt 0.825000 0.750000
vt 0.775000 0.750000
vt 0.775000 0.750000
vt 0.725000 0.750000
vt 0.725000 0.750000
vt 0.675000 0.750000
vt 0.675000 0.750000
vt 0.625000 0.750000
vt 0.625000 0.700000
vt 0.625000 0.700000
vt 0.625000 0.650000
vt 0.625000 0.650000
vt 0.625000 0.600000
vt 0.625000 0.600000
vt 0.625000 0.550000
vt 0.625000 0.550000
vt 0.625000 0.500000
vt 0.625000 0.350000
vt 0.375000 0.350000
vt 0.375000 0.350000
vt 0.625000 0.350000
vt 0.625000 0.200000
vt 0.375000 0.200000
vt 0.375000 0.200000
vt 0.625000 0.200000
vt 0.375000 0.300000
vt 0.625000 0.300000
vt 0.625000 0.300000
vt 0.375000 0.300000
vt 0.375000 0.150000
vt 0.625000 0.150000
vt 0.625000 0.150000
vt 0.375000 0.150000
vt 0.625000 0.950000
vt 0.375000 0.950000
vt 0.375000 0.950000
vt 0.625000 0.950000
vt 0.625000 0.100000
vt 0.375000 0.100000
vt 0.375000 0.100000
vt 0.625000 0.100000
vt 0.585221 0.556425
vt 0.407815 0.556425
vt 0.585221 0.655836
vt 0.407815 0.655836
vt 0.375000 0.050000
vt 0.625000 0.050000
vt 0.585221 0.056876
vt 0.407815 0.056876
vt 0.585221 0.156288
vt 0.407815 0.156288
vt 0.375000 0.800000
vt 0.625000 0.800000
vt 0.589775 0.807161
vt 0.412368 0.807161
vt 0.375000 0.900000
vt 0.625000 0.900000
vt 0.589368 0.907126
vt 0.412368 0.907126
vt 0.589775 0.306983
vt 0.412368 0.306983
vt 0.375000 0.400000
vt 0.625000 0.400000
vt 0.589775 0.406949
vt 0.412368 0.406949
vt 0.375000 0.400000
vt 0.625000 0.400000
vt 0.625000 0.450000
vt 0.375000 0.450000
vt 0.375000 0.450000
vt 0.625000 0.450000
vt 0.375000 0.800000
vt 0.625000 0.800000
vt 0.625000 0.850000
vt 0.375000 0.850000
vt 0.375000 0.850000
vt 0.625000 0.850000
vt 0.375000 0.050000
vt 0.625000 0.050000
vt 0.375000 0.900000
vt 0.625000 0.900000
vt 0.589775 0.342874
vt 0.625000 0.731642
vt 0.625000 0.750000
vt 0.875000 0.750000
vt 0.875000 0.731642
vt 0.375000 0.981457
vt 0.375000 1.000000
vt 0.625000 1.000000
vt 0.625000 0.981457
vt 0.856457 0.750000
vt 0.875000 0.750000
vt 0.875000 0.500000
vt 0.856457 0.500000
vt 0.589775 0.442839
vt 0.856457 0.750000
vt 0.875000 0.750000
vt 0.875000 0.500000
vt 0.856457 0.500000
vt 0.375000 0.981457
vt 0.375000 1.000000
vt 0.625000 1.000000
vt 0.625000 0.981457
vt 0.589775 0.843051
vt 0.375000 0.981457
vt 0.375000 1.000000
vt 0.625000 1.000000
vt 0.625000 0.981457
vt 0.125000 0.731643
vt 0.125000 0.750000
vt 0.375000 0.750000
vt 0.375000 0.731643
vt 0.125000 0.731642
vt 0.125000 0.750000
vt 0.375000 0.750000
vt 0.375000 0.731642
vt 0.625000 0.731643
vt 0.625000 0.750000
vt 0.875000 0.750000
vt 0.875000 0.731643
vt 0.375000 0.234489
vt 0.375000 0.250000
vt 0.625000 0.250000
vt 0.625000 0.234489
vt 0.856457 0.750000
vt 0.875000 0.750000
vt 0.875000 0.500000
vt 0.856457 0.500000
vt 0.375000 0.234489
vt 0.375000 0.250000
vt 0.625000 0.250000
vt 0.625000 0.234489
vt 0.375000 0.981457
vt 0.375000 1.000000
vt 0.625000 1.000000
vt 0.625000 0.981457
vt 0.589775 0.943017
vt 0.589775 0.907126
vt 0.856457 0.750000
vt 0.875000 0.750000
vt 0.875000 0.500000
vt 0.856457 0.500000
vt 0.375000 0.486136
vt 0.375000 0.500000
vt 0.625000 0.486136
vt 0.361136 0.750000
vt 0.361136 0.500000
vt 0.361136 0.750000
vt 0.375000 0.500000
vt 0.361136 0.500000
vt 0.375000 0.486136
vt 0.625000 0.486136
vt 0.412368 0.442839
vt 0.407815 0.193575
vt 0.585221 0.193575
vt 0.361136 0.750000
vt 0.375000 0.500000
vt 0.361136 0.500000
vt 0.375000 0.486136
vt 0.625000 0.486136
vt 0.375000 0.486136
vt 0.375000 0.500000
vt 0.625000 0.486136
vt 0.361136 0.750000
vt 0.361136 0.500000
vt 0.407815 0.094164
vt 0.585221 0.094164
vt 0.585221 0.076519
vt 0.407815 0.076519
vt 0.407815 0.074521
vt 0.585221 0.074521
vt 0.585221 0.175930
vt 0.407815 0.175930
vt 0.407815 0.173933
vt 0.585221 0.173933
vt 0.412368 0.342874
vt 0.407815 0.693124
vt 0.585221 0.693124
vt 0.407815 0.593712
vt 0.585221 0.593712
vt 0.585221 0.675479
vt 0.407815 0.675479
vt 0.407815 0.673481
vt 0.585221 0.673481
vt 0.585221 0.576067
vt 0.407815 0.576067
vt 0.407815 0.574070
vt 0.585221 0.574070
vt 0.412368 0.843051
vt 0.412368 0.943017
vt 0.375000 1.000000
vt 0.625000 1.000000
vt 0.375000 1.000000
vt 0.625000 1.000000
vt 0.375000 0.000000
vt 0.625000 0.000000
vt 0.375000 0.000000
vt 0.625000 0.000000
vt 0.375000 0.000000
vt 0.625000 0.000000
vt 0.375000 0.000000
vt 0.625000 0.000000
vt 0.375000 0.000000
vt 0.375000 0.250000
vt 0.625000 0.250000
vt 0.625000 0.000000
vt 0.375000 0.500000
vt 0.375000 0.750000
vt 0.625000 0.750000
vt 0.625000 0.500000
vt 0.375000 0.000000
vt 0.375000 0.250000
vt 0.625000 0.250000
vt 0.625000 0.000000
vt 0.375000 0.500000
vt 0.375000 0.750000
vt 0.625000 0.750000
vt 0.625000 0.500000
vt 0.375000 0.263022
vt 0.625000 0.263022
vt 0.125000 0.500000
vt 0.125000 0.750000
vt 0.138022 0.750000
vt 0.138022 0.500000
vt 0.375000 0.765990
vt 0.625000 0.765990
vt 0.640990 0.750000
vt 0.640990 0.500000
vt 0.375000 0.263022
vt 0.625000 0.263022
vt 0.125000 0.500000
vt 0.125000 0.750000
vt 0.138022 0.750000
vt 0.138022 0.500000
vt 0.375000 0.765990
vt 0.625000 0.765990
vt 0.640990 0.750000
vt 0.640990 0.500000
vt 0.589775 0.206963
vt 0.412368 0.206963
vt 0.589775 0.708229
vt 0.412368 0.708229
vt 0.625000 1.000000
vt 0.375000 1.000000
vt 0.589775 0.508460
vt 0.412368 0.508460
vt 0.375000 0.000000
vt 0.625000 0.000000
vt 0.589775 0.007194
vt 0.412368 0.007194
vt 0.375000 0.250000
vt 0.625000 0.250000
vt 0.589775 0.742806
vt 0.359010 0.750000
vt 0.359010 0.500000
vt 0.589775 0.241540
vt 0.861978 0.750000
vt 0.875000 0.750000
vt 0.875000 0.500000
vt 0.861978 0.500000
vt 0.589775 0.543037
vt 0.375000 0.484010
vt 0.625000 0.484010
vt 0.375000 0.484010
vt 0.625000 0.484010
vt 0.359010 0.750000
vt 0.359010 0.500000
vt 0.861978 0.750000
vt 0.875000 0.750000
vt 0.875000 0.500000
vt 0.861978 0.500000
vt 0.375000 0.986978
vt 0.375000 1.000000
vt 0.625000 1.000000
vt 0.625000 0.986978
vt 0.375000 0.986978
vt 0.375000 1.000000
vt 0.625000 1.000000
vt 0.625000 0.986978
vt 0.589775 0.041771
vt 0.412368 0.543037
vt 0.412368 0.742806
vt 0.412368 0.041771
vt 0.412368 0.241540
vn 0.0000 0.0000 -1.0000
vn 0.0000 -1.0000 -0.0000
vn 1.0000 0.0000 0.0000
vn 0.0000 0.0000 1.0000
vn 0.0000 1.0000 0.0000
vn -1.0000 0.0000 0.0000
usemtl wall.1
s off
f 1/1/1 191/2/1 190/3/1 2/4/1
f 4/5/2 2/4/2 190/6/2 192/7/2
f 5/8/1 188/9/1 189/10/1 6/11/1
f 8/12/2 6/11/2 189/13/2 187/14/2
f 9/15/1 198/16/1 199/17/1 10/18/1
f 12/19/2 10/18/2 199/20/2 201/21/2
f 13/22/1 194/23/1 195/24/1 14/25/1
f 16/26/2 14/25/2 195/27/2 196/28/2
f 17/29/3 181/30/3 180/31/3 18/32/3
f 21/33/3 183/34/3 185/35/3 22/36/3
f 27/37/4 169/38/4 143/39/4 28/40/4
f 27/41/5 25/42/5 144/43/5 169/44/5
f 31/45/4 141/46/4 139/47/4 32/48/4
f 31/49/5 29/50/5 138/51/5 141/52/5
f 35/53/4 161/54/4 164/55/4 36/56/4
f 35/57/5 33/58/5 162/59/5 161/60/5
f 39/61/4 165/62/4 166/63/4 40/64/4
f 39/65/5 37/66/5 167/67/5 165/68/5
f 59/69/6 156/70/6 152/71/6 153/72/6 60/73/6
f 57/74/5 155/75/5 156/70/5 59/69/5
f 60/73/2 153/72/2 154/76/2 58/77/2
f 63/78/6 149/79/6 150/80/6 64/81/6
f 61/82/5 148/83/5 149/79/5 63/78/5
f 64/81/2 150/80/2 151/84/2 62/85/2
f 92/86/2 124/87/2 123/88/2 91/89/2 90/90/2 122/91/2 121/92/2 89/93/2 71/94/2 84/95/2 116/96/2 115/97/2 83/98/2 82/99/2 114/100/2 113/101/2 81/102/2 69/103/2 100/104/2 132/105/2 131/106/2 99/107/2 98/108/2 130/109/2 129/110/2 97/111/2 65/112/2 76/113/2 108/114/2 107/115/2 75/116/2 74/117/2 106/118/2 105/119/2 73/120/2 67/121/2
f 96/122/5 128/123/5 127/124/5 95/125/5 94/126/5 126/127/5 125/128/5 93/129/5 68/130/5 80/131/5 112/132/5 111/133/5 79/134/5 78/135/5 110/136/5 109/137/5 77/138/5 66/139/5 104/140/5 136/141/5 135/142/5 103/143/5 102/144/5 134/145/5 133/146/5 101/147/5 70/148/5 88/149/5 120/150/5 119/151/5 87/152/5 86/153/5 118/154/5 117/155/5 85/156/5 72/157/5
f 94/158/3 91/159/3 123/160/3 126/161/3
f 80/162/1 73/163/1 105/164/1 112/165/1
f 92/166/6 93/167/6 125/168/6 124/169/6
f 74/170/4 79/171/4 111/172/4 106/173/4
f 104/174/6 97/175/6 129/176/6 136/177/6
f 78/178/1 75/179/1 107/180/1 110/181/1
f 116/96/3 117/155/3 164/182/3 161/183/3
f 114/100/3 119/151/3 143/184/3 169/185/3
f 108/186/6 109/187/6 189/188/6 188/189/6
f 106/173/6 111/172/6 195/190/6 194/191/6
f 132/192/4 133/193/4 150/194/4 149/195/4
f 130/196/4 135/197/4 152/198/4 156/199/4
f 124/169/1 125/168/1 180/200/1 181/201/1
f 122/202/1 127/203/1 185/204/1 183/205/1
f 90/206/6 95/207/6 127/203/6 122/202/6
f 96/208/3 89/209/3 121/210/3 128/211/3
f 84/95/1 85/156/1 117/155/1 116/96/1
f 86/153/4 83/98/4 115/97/4 118/154/4
f 82/99/1 87/152/1 119/151/1 114/100/1
f 100/212/3 101/213/3 133/193/3 132/192/3
f 88/149/4 81/102/4 113/101/4 120/150/4
f 102/214/6 99/215/6 131/216/6 134/217/6
f 76/218/4 77/219/4 109/187/4 108/186/4
f 98/220/3 103/221/3 135/197/3 130/196/3
f 126/161/1 179/222/1 180/200/1 125/168/1
f 179/223/2 20/224/2 18/225/2 180/226/2
f 162/227/1 33/228/1 34/229/1 163/230/1
f 163/231/2 34/232/2 36/233/2 164/234/2
f 128/211/1 182/235/1 185/204/1 127/203/1
f 137/236/2 26/237/2 28/238/2 143/239/2
f 144/240/1 25/241/1 26/242/1 137/243/1
f 134/217/4 151/244/4 150/194/4 133/193/4
f 138/245/1 29/246/1 30/247/1 140/248/1
f 183/249/5 21/250/5 23/251/5 184/252/5
f 181/253/5 17/254/5 19/255/5 178/256/5
f 182/257/2 24/258/2 22/259/2 185/260/2
f 155/261/3 57/262/3 58/263/3 154/264/3
f 168/265/2 38/266/2 40/267/2 166/268/2
f 184/252/6 23/251/6 24/258/6 182/257/6
f 148/269/3 61/270/3 62/271/3 151/272/3
f 167/273/1 37/274/1 38/275/1 168/276/1
f 136/177/4 154/277/4 153/278/4 152/198/4 135/197/4
f 178/256/6 19/255/6 20/224/6 179/223/6
f 140/279/2 30/280/2 32/281/2 139/282/2
f 186/283/4 7/284/4 8/12/4 187/285/4
f 188/286/5 5/8/5 7/284/5 186/287/5
f 194/288/5 13/22/5 15/289/5 197/290/5
f 197/291/4 15/289/4 16/26/4 196/292/4
f 121/210/1 184/293/1 182/235/1 128/211/1
f 105/164/6 200/294/6 201/295/6 112/165/6
f 198/296/5 9/15/5 11/297/5 200/298/5
f 200/299/4 11/297/4 12/19/4 201/300/4
f 193/301/4 3/302/4 4/5/4 192/303/4
f 191/304/5 1/1/5 3/302/5 193/305/5
f 121/210/1 122/202/1 183/205/1 184/293/1
f 107/180/6 193/306/6 192/307/6 110/181/6
f 110/181/6 192/307/6 190/308/6 191/309/6 193/306/6 107/180/6 108/186/6 188/189/6 186/310/6 187/311/6 189/188/6 109/187/6
f 112/165/6 201/295/6 199/312/6 198/313/6 200/294/6 105/164/6 106/173/6 194/191/6 197/314/6 196/315/6 195/190/6 111/172/6
f 123/160/1 178/316/1 179/222/1 126/161/1
f 123/160/1 124/169/1 181/201/1 178/316/1
f 113/101/3 138/317/3 140/318/3 120/150/3
f 115/97/3 167/319/3 168/320/3 118/154/3
f 120/150/3 140/318/3 139/321/3 141/322/3 138/317/3 113/101/3 114/100/3 169/185/3 144/323/3 137/324/3 143/184/3 119/151/3
f 118/154/3 168/320/3 166/325/3 165/326/3 167/319/3 115/97/3 116/96/3 161/183/3 162/327/3 163/328/3 164/182/3 117/155/3
f 131/216/4 148/329/4 151/244/4 134/217/4
f 131/216/4 132/192/4 149/195/4 148/329/4
f 129/176/4 155/330/4 154/277/4 136/177/4
f 129/176/4 130/196/4 156/199/4 155/330/4
usemtl window.1
f 3/302/6 1/1/6 2/4/6 4/5/6
f 7/284/6 5/8/6 6/11/6 8/12/6
f 11/297/6 9/15/6 10/18/6 12/19/6
f 15/289/6 13/22/6 14/25/6 16/26/6
f 19/255/1 17/331/1 18/332/1 20/224/1
f 23/251/1 21/333/1 22/334/1 24/258/1
f 25/335/3 27/37/3 28/40/3 26/336/3
f 29/337/3 31/45/3 32/48/3 30/338/3
f 33/339/3 35/53/3 36/56/3 34/340/3
f 37/341/3 39/61/3 40/64/3 38/342/3
f 41/343/3 43/344/3 44/345/3 42/346/3
f 47/347/6 45/348/6 46/349/6 48/350/6
f 49/351/3 51/352/3 52/353/3 50/354/3
f 55/355/6 53/356/6 54/357/6 56/358/6
f 57/262/4 59/69/4 60/73/4 58/263/4
f 61/270/4 63/78/4 64/81/4 62/271/4
usemtl wall9
f 43/344/4 147/359/4 142/360/4 44/345/4
f 43/361/5 41/362/5 145/363/5 147/364/5
f 45/348/1 160/365/1 157/366/1 46/349/1
f 48/350/2 46/349/2 157/367/2 158/368/2
f 51/352/4 173/369/4 172/370/4 52/353/4
f 51/371/5 49/372/5 171/373/5 173/374/5
f 53/356/1 175/375/1 174/376/1 54/357/1
f 56/358/2 54/357/2 174/377/2 176/378/2
f 73/163/6 80/162/6 174/379/6 175/380/6
f 89/209/1 96/208/1 72/157/1 71/94/1
f 81/102/3 88/149/3 142/381/3 147/382/3
f 97/175/4 104/174/4 66/383/4 65/384/4
f 71/94/3 72/157/3 172/385/3 173/386/3
f 83/98/3 86/153/3 87/152/3 82/99/3
f 65/387/6 66/388/6 157/389/6 160/390/6
f 75/179/6 78/178/6 79/171/6 74/170/6
f 69/103/4 70/148/4 101/213/4 100/212/4
f 99/215/4 102/214/4 103/221/4 98/220/4
f 67/391/1 68/392/1 93/167/1 92/166/1
f 91/159/1 94/158/1 95/207/1 90/206/1
f 70/148/3 146/393/3 142/381/3 88/149/3
f 160/394/5 45/348/5 47/347/5 159/395/5
f 68/392/6 176/396/6 174/379/6 80/162/6
f 146/397/2 42/398/2 44/399/2 142/400/2
f 85/156/3 170/401/3 172/385/3 72/157/3
f 177/402/4 55/355/4 56/358/4 176/403/4
f 159/404/4 47/347/4 48/350/4 158/405/4
f 175/406/5 53/356/5 55/355/5 177/407/5
f 170/408/2 50/409/2 52/410/2 172/411/2
f 145/412/1 41/413/1 42/414/1 146/415/1
f 171/416/1 49/417/1 50/418/1 170/419/1
f 77/219/6 158/420/6 157/389/6 66/388/6
f 84/95/3 171/421/3 170/401/3 85/156/3
f 84/95/3 71/94/3 173/386/3 171/421/3
f 69/103/3 145/422/3 146/393/3 70/148/3
f 69/103/3 81/102/3 147/382/3 145/422/3
f 76/218/6 65/387/6 160/390/6 159/423/6
f 76/218/6 159/423/6 158/420/6 77/219/6
f 67/391/6 177/424/6 176/396/6 68/392/6
f 67/391/6 73/163/6 175/380/6 177/424/6
