# Blender v2.80 (sub 75) OBJ File: 'untitled.blend'
# www.blender.org
mtllib buildingO4.mtl
o Kitbash3d_FutureSlums.028_Kitbash3d_FutureSlums.030
v 0.082688 1.119228 -0.086645
v 0.142694 1.120325 -0.083426
v 0.093178 1.102291 -0.096172
v 0.144466 1.103228 -0.093424
v 0.087782 1.109249 -0.116064
v 0.144466 1.110283 -0.113007
v 0.032068 1.081974 -0.089895
v 0.054746 1.074001 -0.098629
v 0.041801 1.075407 -0.119005
v -0.026571 0.913887 -0.095423
v 0.001973 0.920452 -0.103657
v -0.014647 0.912704 -0.124342
v -0.020823 0.613705 -0.094158
v 0.007759 0.625626 -0.102392
v -0.008899 0.614473 -0.123093
v -0.004599 0.208836 -0.104273
v 0.024012 0.220058 -0.112522
v 0.007296 0.210332 -0.133179
v -0.006716 0.018772 -0.115917
v 0.021894 0.030096 -0.124166
v 0.005178 0.020410 -0.144821
v 0.000327 -0.361736 -0.131693
v 0.028944 -0.350709 -0.139942
v 0.012243 -0.360992 -0.160627
v 0.003797 -0.549438 -0.132149
v 0.032517 -0.543660 -0.140411
v 0.015845 -0.555408 -0.161097
v 0.004022 -0.577683 -0.112013
v 0.032863 -0.585250 -0.111666
v 0.016227 -0.601048 -0.129734
v 0.003936 -0.594986 -0.047995
v 0.032774 -0.606570 -0.036821
v 0.016139 -0.623616 -0.051523
v 0.003737 -0.599022 0.005522
v 0.032576 -0.610690 0.017782
v 0.015940 -0.627759 0.003405
v 0.084092 -1.226162 -0.037409
v -0.349495 -1.226162 -0.037409
v 0.084092 -0.537992 -0.037409
v -0.349495 -0.537992 -0.037409
v 0.084092 -1.226162 0.938150
v -0.349495 -1.226162 0.938150
v -0.349495 -0.537992 0.938150
v 0.084092 -0.537992 0.938150
vt 0.001266 0.234844
vt 0.170423 0.234844
vt 0.170423 0.347820
vt 0.001266 0.347820
vt 4.627706 6.283185
vt 0.000000 6.283185
vt 0.000000 1.570796
vt 4.627706 1.570796
vt 4.627706 7.853981
vt 0.000000 7.853981
vt 4.604536 10.210640
vt -0.058059 10.210294
vt 9.224382 6.283185
vt 9.224382 1.570796
vt 9.224382 7.853981
vt 9.248072 10.210265
vt 23.470924 6.283185
vt 23.470924 1.570796
vt 23.470924 7.853981
vt 23.477901 10.210377
vt 48.208138 6.283185
vt 48.208138 1.570796
vt 48.208138 7.853981
vt 48.210701 10.210986
vt 81.907646 6.283186
vt 81.907639 1.570796
vt 81.907639 7.853981
vt 81.906586 10.210763
vt 97.714813 6.283185
vt 97.714806 1.570796
vt 97.714806 7.853981
vt 97.714844 10.211020
vt 129.354736 6.283185
vt 129.354736 1.570796
vt 129.354736 7.853981
vt 129.361115 10.211354
vt 145.160248 6.283185
vt 145.160248 1.570796
vt 145.160248 7.853981
vt 145.191528 10.210672
vt 148.875610 6.283185
vt 148.875610 1.570796
vt 148.875626 7.853981
vt 148.866089 10.209902
vt 154.915924 6.283185
vt 154.915924 1.570796
vt 154.915924 7.853981
vt 154.904953 10.209774
vt 159.416534 6.283185
vt 159.416534 1.570796
vt 159.416534 7.853981
vt 159.408630 10.210383
vt 0.000000 0.000000
vt 0.000000 0.000000
vt 0.000000 0.929352
vt 0.000000 0.000000
vt 0.000000 0.000000
vt 0.000000 0.000000
vt 0.823149 0.756802
vt 0.823149 0.696684
vt 0.999758 0.696684
vt 0.999758 0.756802
vt 0.170573 0.292062
vt 0.170573 0.234388
vt 0.330835 0.234388
vt 0.330835 0.292062
vt 0.227620 0.466498
vt 0.170326 0.466498
vt 0.170326 0.348075
vt 0.227620 0.348075
vt 0.291246 0.466324
vt 0.228287 0.466324
vt 0.228287 0.348580
vt 0.291246 0.348580
vt 0.001253 0.234844
vt 0.170305 0.234844
vt 0.170305 0.347554
vt 0.001253 0.347554
vn -1.0000 0.0000 0.0000
vn -0.0369 -0.5073 0.8610
vn 0.0354 -0.9403 -0.3386
vn -0.0000 0.9470 -0.3213
vn 0.2167 -0.3729 0.9022
vn 0.5587 -0.7239 -0.4048
vn -0.5399 0.7642 -0.3528
vn 0.3081 -0.1376 0.9414
vn 0.8023 -0.2595 -0.5376
vn -0.8742 0.3162 -0.3685
vn 0.2742 0.0094 0.9616
vn 0.7765 0.0124 -0.6300
vn -0.9244 -0.0194 -0.3809
vn 0.2817 -0.0127 0.9594
vn 0.7657 0.0467 -0.6415
vn -0.9239 -0.0275 -0.3815
vn 0.2989 -0.0617 0.9523
vn 0.7699 0.0305 -0.6374
vn -0.9249 0.0335 -0.3788
vn 0.2892 -0.0343 0.9567
vn 0.7673 0.0407 -0.6400
vn -0.9247 -0.0013 -0.3807
vn 0.2760 0.0028 0.9612
vn 0.7741 0.0159 -0.6329
vn -0.9243 -0.0162 -0.3812
vn 0.1293 0.5693 0.8119
vn 0.8189 -0.3210 -0.4757
vn -0.9150 -0.2357 -0.3274
vn 0.2573 0.9309 0.2592
vn 0.7733 -0.6098 -0.1740
vn -0.9162 -0.3855 -0.1092
vn 0.3477 0.9348 0.0718
vn 0.7353 -0.6760 -0.0483
vn -0.9209 -0.3885 -0.0327
vn 0.9959 0.0852 0.0307
vn -0.4649 -0.2598 0.8464
vn 0.0000 -1.0000 0.0000
vn 0.0000 1.0000 0.0000
vn 0.0000 0.0000 1.0000
vn 0.0000 0.0000 -1.0000
vn 1.0000 0.0000 0.0000
usemtl Default_OBJ
s off
f 38/1/1 42/2/1 43/3/1 40/4/1
f 3/5/2 4/6/2 2/7/2 1/8/2
f 5/9/3 6/10/3 4/6/3 3/5/3
f 1/11/4 2/12/4 6/10/4 5/9/4
f 8/13/5 3/5/5 1/8/5 7/14/5
f 9/15/6 5/9/6 3/5/6 8/13/6
f 7/16/7 1/11/7 5/9/7 9/15/7
f 11/17/8 8/13/8 7/14/8 10/18/8
f 12/19/9 9/15/9 8/13/9 11/17/9
f 10/20/10 7/16/10 9/15/10 12/19/10
f 14/21/11 11/17/11 10/18/11 13/22/11
f 15/23/12 12/19/12 11/17/12 14/21/12
f 13/24/13 10/20/13 12/19/13 15/23/13
f 17/25/14 14/21/14 13/22/14 16/26/14
f 18/27/15 15/23/15 14/21/15 17/25/15
f 16/28/16 13/24/16 15/23/16 18/27/16
f 20/29/17 17/25/17 16/26/17 19/30/17
f 21/31/18 18/27/18 17/25/18 20/29/18
f 19/32/19 16/28/19 18/27/19 21/31/19
f 23/33/20 20/29/20 19/30/20 22/34/20
f 24/35/21 21/31/21 20/29/21 23/33/21
f 22/36/22 19/32/22 21/31/22 24/35/22
f 26/37/23 23/33/23 22/34/23 25/38/23
f 27/39/24 24/35/24 23/33/24 26/37/24
f 25/40/25 22/36/25 24/35/25 27/39/25
f 29/41/26 26/37/26 25/38/26 28/42/26
f 30/43/27 27/39/27 26/37/27 29/41/27
f 28/44/28 25/40/28 27/39/28 30/43/28
f 32/45/29 29/41/29 28/42/29 31/46/29
f 33/47/30 30/43/30 29/41/30 32/45/30
f 31/48/31 28/44/31 30/43/31 33/47/31
f 35/49/32 32/45/32 31/46/32 34/50/32
f 36/51/33 33/47/33 32/45/33 35/49/33
f 34/52/34 31/48/34 33/47/34 36/51/34
f 4/53/35 6/54/35 2/55/35
f 36/56/36 35/57/36 34/58/36
f 41/59/37 42/60/37 38/61/37 37/62/37
f 43/63/38 44/64/38 39/65/38 40/66/38
f 44/67/39 43/68/39 42/69/39 41/70/39
f 40/71/40 39/72/40 37/73/40 38/74/40
f 39/75/41 44/76/41 41/77/41 37/78/41
