# Blender v2.80 (sub 75) OBJ File: 'untitled.blend'
# www.blender.org
mtllib buildingD1.mtl
o Cube.005_Cube.011
v -3.977240 -2.021135 4.819981
v -4.819969 -2.021135 3.977253
v -4.504148 1.064070 3.846436
v -3.846422 1.064070 4.504158
v -4.819969 -2.021135 -3.977228
v -3.977240 -2.021135 -4.819958
v -3.846422 1.064070 -4.504135
v -4.504148 1.064070 -3.846411
v 4.819969 -2.021135 3.977253
v 3.977241 -2.021135 4.819981
v 3.846423 1.064070 4.504158
v 4.504148 1.064070 3.846436
v 3.977241 -2.021135 -4.819958
v 4.819969 -2.021135 -3.977228
v 4.504148 1.064070 -3.846411
v 3.846423 1.064070 -4.504135
v -4.912045 -2.021135 4.069328
v -4.069317 -2.021135 4.912056
v -4.069317 1.064070 4.912056
v -4.912045 1.064070 4.069328
v -4.912045 1.064070 -4.069305
v -4.069317 1.064070 -4.912033
v -4.069317 -2.021135 -4.912033
v -4.912045 -2.021135 -4.069305
v 4.069317 1.064070 -4.912033
v 4.912045 1.064070 -4.069305
v 4.912045 -2.021135 -4.069305
v 4.069317 -2.021135 -4.912033
v 4.912045 1.064070 4.069328
v 4.069317 1.064070 4.912056
v 4.069317 -2.021135 4.912056
v 4.912045 -2.021135 4.069328
v -3.977240 -1.775554 4.819981
v -3.977240 -0.632023 4.819981
v -3.977240 -0.325043 4.819981
v -3.977240 0.818487 4.819981
v -4.819969 0.818487 3.977253
v -4.819969 -0.325043 3.977253
v -4.819969 -0.632023 3.977253
v -4.819969 -1.775554 3.977253
v -3.977240 0.818487 -4.819958
v -3.977240 -0.325043 -4.819958
v -3.977240 -0.632023 -4.819958
v -3.977240 -1.775554 -4.819958
v -4.819969 -1.775554 -3.977228
v -4.819969 -0.632023 -3.977228
v -4.819969 -0.325043 -3.977228
v -4.819969 0.818487 -3.977228
v 4.819969 0.818487 -3.977228
v 4.819969 -0.325043 -3.977228
v 4.819969 -0.632023 -3.977228
v 4.819969 -1.775554 -3.977228
v 3.977241 -1.775554 -4.819958
v 3.977241 -0.632023 -4.819958
v 3.977241 -0.325043 -4.819958
v 3.977241 0.818487 -4.819958
v 3.977241 0.818487 4.819981
v 3.977241 -0.325043 4.819981
v 3.977241 -0.632023 4.819981
v 3.977241 -1.775554 4.819981
v 4.819969 -1.775554 3.977253
v 4.819969 -0.632023 3.977253
v 4.819969 -0.325043 3.977253
v 4.819969 0.818487 3.977253
v -4.069317 -1.775554 4.912056
v -4.069317 -0.632023 4.912056
v -4.069317 -0.325043 4.912056
v -4.069317 0.818487 4.912056
v -4.912045 0.818487 4.069328
v -4.912045 -0.325043 4.069328
v -4.912045 -0.632023 4.069328
v -4.912045 -1.775554 4.069328
v -4.069317 0.818487 -4.912033
v -4.069317 -0.325043 -4.912033
v -4.069317 -0.632023 -4.912033
v -4.069317 -1.775554 -4.912033
v -4.912045 -1.775554 -4.069305
v -4.912045 -0.632023 -4.069305
v -4.912045 -0.325043 -4.069305
v -4.912045 0.818487 -4.069305
v 4.912045 0.818487 -4.069305
v 4.912045 -0.325043 -4.069305
v 4.912045 -0.632023 -4.069305
v 4.912045 -1.775554 -4.069305
v 4.069317 -1.775554 -4.912033
v 4.069317 -0.632023 -4.912033
v 4.069317 -0.325043 -4.912033
v 4.069317 0.818487 -4.912033
v 4.069317 0.818487 4.912056
v 4.069317 -0.325043 4.912056
v 4.069317 -0.632023 4.912056
v 4.069317 -1.775554 4.912056
v 4.912045 -1.775554 4.069328
v 4.912045 -0.632023 4.069328
v 4.912045 -0.325043 4.069328
v 4.912045 0.818487 4.069328
v -3.948395 0.818487 4.889618
v -3.948395 1.064070 4.889618
v -4.889606 -1.775554 3.948406
v -4.889606 -2.021135 3.948406
v -3.948395 -1.775554 -4.889595
v -3.948395 -2.021135 -4.889595
v -4.889606 0.818487 -3.948385
v -4.889606 1.064070 -3.948385
v 4.889606 -1.775554 -3.948385
v 4.889606 -2.021135 -3.948385
v 3.948396 0.818487 -4.889595
v 3.948396 1.064070 -4.889595
v 3.948396 -1.775554 4.889618
v 3.948396 -2.021135 4.889618
v 4.889606 0.818487 3.948406
v 4.889606 1.064070 3.948406
v -4.889606 -2.021135 -3.948385
v 3.948396 -2.021135 -4.889595
v 4.889606 -2.021135 3.948406
v -3.948395 -2.021135 4.889618
v -4.889606 1.064070 3.948406
v 3.948396 1.064070 4.889618
v 4.889606 1.064070 -3.948385
v -3.948395 1.064070 -4.889595
v -4.987420 -2.021135 4.069328
v -4.069317 -2.021135 4.987431
v -4.069317 0.818487 4.987431
v -4.069317 1.064070 4.987431
v -4.987420 1.064070 4.069328
v -4.987420 -1.775554 4.069328
v -4.987420 1.064070 -4.069305
v -4.069317 1.064070 -4.987408
v -4.069317 -1.775554 -4.987408
v -4.069317 -2.021135 -4.987408
v -4.987420 -2.021135 -4.069305
v -4.987420 0.818487 -4.069305
v 4.069317 1.064070 -4.987408
v 4.987420 1.064070 -4.069305
v 4.987420 -1.775554 -4.069305
v 4.987420 -2.021135 -4.069305
v 4.069317 -2.021135 -4.987408
v 4.069317 0.818487 -4.987408
v 4.987420 1.064070 4.069328
v 4.069317 1.064070 4.987431
v 4.069317 -1.775554 4.987431
v 4.069317 -2.021135 4.987431
v 4.987420 -2.021135 4.069328
v 4.987420 0.818487 4.069328
v -3.948395 -1.775554 4.889618
v -3.948395 -0.632023 4.889618
v -3.948395 -0.325043 4.889618
v -4.889606 0.818487 3.948406
v -4.889606 -0.325043 3.948406
v -4.889606 -0.632023 3.948406
v -3.948395 0.818487 -4.889595
v -3.948395 -0.325043 -4.889595
v -3.948395 -0.632023 -4.889595
v -4.889606 -1.775554 -3.948385
v -4.889606 -0.632023 -3.948385
v -4.889606 -0.325043 -3.948385
v 4.889606 0.818487 -3.948385
v 4.889606 -0.325043 -3.948385
v 4.889606 -0.632023 -3.948385
v 3.948396 -1.775554 -4.889595
v 3.948396 -0.632023 -4.889595
v 3.948396 -0.325043 -4.889595
v 3.948396 0.818487 4.889618
v 3.948396 -0.325043 4.889618
v 3.948396 -0.632023 4.889618
v 4.889606 -1.775554 3.948406
v 4.889606 -0.632023 3.948406
v 4.889606 -0.325043 3.948406
v -4.069317 -1.775554 4.987431
v -4.069317 -0.632023 4.987431
v -4.069317 -0.325043 4.987431
v -4.987420 0.818487 4.069328
v -4.987420 -0.325043 4.069328
v -4.987420 -0.632023 4.069328
v -4.069317 0.818487 -4.987408
v -4.069317 -0.325043 -4.987408
v -4.069317 -0.632023 -4.987408
v -4.987420 -1.775554 -4.069305
v -4.987420 -0.632023 -4.069305
v -4.987420 -0.325043 -4.069305
v 4.987420 0.818487 -4.069305
v 4.987420 -0.325043 -4.069305
v 4.987420 -0.632023 -4.069305
v 4.069317 -1.775554 -4.987408
v 4.069317 -0.632023 -4.987408
v 4.069317 -0.325043 -4.987408
v 4.069317 0.818487 4.987431
v 4.069317 -0.325043 4.987431
v 4.069317 -0.632023 4.987431
v 4.987420 -1.775554 4.069328
v 4.987420 -0.632023 4.069328
v 4.987420 -0.325043 4.069328
v -3.977240 1.064070 4.819981
v -4.819969 1.064070 3.977253
v -4.819969 1.064070 -3.977228
v -3.977240 1.064070 -4.819958
v 3.977241 1.064070 -4.819958
v 4.819969 1.064070 -3.977228
v 4.819969 1.064070 3.977253
v 3.977241 1.064070 4.819981
v -3.572154 1.434124 3.842014
v -3.842005 1.434124 3.572166
v -3.842005 1.434124 -3.572144
v -3.572154 1.434124 -3.841993
v 3.572155 1.434124 -3.841993
v 3.842005 1.434124 -3.572144
v 3.842005 1.434124 3.572166
v 3.572155 1.434124 3.842014
v -3.846422 1.434124 4.504158
v -4.504148 1.434124 3.846436
v -4.504148 1.434124 -3.846411
v -3.846422 1.434124 -4.504135
v 3.846423 1.434124 -4.504135
v 4.504148 1.434124 -3.846411
v 4.504148 1.434124 3.846436
v 3.846423 1.434124 4.504158
v -3.454706 2.640581 3.558472
v -3.558459 2.640581 3.454716
v -3.558459 2.640581 -3.454695
v -3.454706 2.640581 -3.558449
v 3.454706 2.640581 -3.558449
v 3.558460 2.640581 -3.454695
v 3.558460 2.640581 3.454716
v 3.454706 2.640581 3.558472
v -3.572154 2.640581 3.842014
v -3.842005 2.640581 3.572166
v -3.842005 2.640581 -3.572144
v -3.572154 2.640581 -3.841993
v 3.572155 2.640581 -3.841993
v 3.842005 2.640581 -3.572144
v 3.842005 2.640581 3.572166
v 3.572155 2.640581 3.842014
v -3.454706 2.270525 3.558472
v -3.558459 2.270525 3.454716
v -3.558459 2.270525 -3.454695
v -3.454706 2.270525 -3.558449
v 3.454706 2.270525 -3.558449
v 3.558460 2.270525 -3.454695
v 3.558460 2.270525 3.454716
v 3.454706 2.270525 3.558472
vt 0.849752 0.508190
vt 0.866810 0.525248
vt 0.866810 0.525248
vt 0.849752 0.508190
vt 0.125000 0.728145
vt 0.146855 0.750000
vt 0.146855 0.750000
vt 0.125000 0.728145
vt 0.353145 0.750000
vt 0.375000 0.728145
vt 0.375000 0.728145
vt 0.353145 0.750000
vt 0.146855 0.500000
vt 0.125000 0.521855
vt 0.125000 0.521855
vt 0.146855 0.500000
vt 0.353145 0.500000
vt 0.375000 0.521855
vt 0.353145 0.500000
vt 0.353145 0.500000
vt 0.353145 0.500000
vt 0.375000 0.521855
vt 0.575000 0.978145
vt 0.575000 0.771855
vt 0.575000 0.771855
vt 0.575000 0.978145
vt 0.375000 0.521855
vt 0.375000 0.521855
vt 0.525000 0.771855
vt 0.525000 0.978145
vt 0.525000 0.978145
vt 0.525000 0.771855
vt 0.146855 0.750000
vt 0.125000 0.728145
vt 0.475000 0.978145
vt 0.475000 0.771855
vt 0.475000 0.771855
vt 0.475000 0.978145
vt 0.853145 0.500000
vt 0.646855 0.500000
vt 0.646855 0.500000
vt 0.853145 0.500000
vt 0.425000 0.771855
vt 0.425000 0.978145
vt 0.425000 0.978145
vt 0.425000 0.771855
vt 0.625000 0.521855
vt 0.625000 0.728145
vt 0.625000 0.728145
vt 0.625000 0.521855
vt 0.575000 0.728145
vt 0.575000 0.521855
vt 0.575000 0.521855
vt 0.575000 0.728145
vt 0.646855 0.750000
vt 0.853145 0.750000
vt 0.853145 0.750000
vt 0.646855 0.750000
vt 0.525000 0.521855
vt 0.525000 0.728145
vt 0.525000 0.728145
vt 0.525000 0.521855
vt 0.125000 0.728145
vt 0.475000 0.728145
vt 0.475000 0.521855
vt 0.475000 0.521855
vt 0.475000 0.728145
vt 0.353145 0.750000
vt 0.146855 0.750000
vt 0.425000 0.521855
vt 0.425000 0.728145
vt 0.425000 0.728145
vt 0.425000 0.521855
vt 0.625000 0.771855
vt 0.625000 0.978145
vt 0.575000 0.021855
vt 0.625000 0.021855
vt 0.625000 0.228145
vt 0.575000 0.228145
vt 0.575000 0.271855
vt 0.625000 0.271855
vt 0.625000 0.478145
vt 0.575000 0.478145
vt 0.375000 0.271855
vt 0.425000 0.271855
vt 0.425000 0.478145
vt 0.375000 0.478145
vt 0.475000 0.271855
vt 0.525000 0.271855
vt 0.525000 0.478145
vt 0.475000 0.478145
vt 0.375000 0.021855
vt 0.425000 0.021855
vt 0.425000 0.228145
vt 0.375000 0.228145
vt 0.475000 0.021855
vt 0.525000 0.021855
vt 0.525000 0.228145
vt 0.475000 0.228145
vt 0.375000 0.728145
vt 0.375000 0.771855
vt 0.375000 0.978145
vt 0.125000 0.521855
vt 0.146855 0.500000
vt 0.425000 0.271855
vt 0.425000 0.478145
vt 0.475000 0.478145
vt 0.475000 0.271855
vt 0.375000 0.728145
vt 0.353145 0.750000
vt 0.525000 0.271855
vt 0.525000 0.478145
vt 0.575000 0.478145
vt 0.575000 0.271855
vt 0.125000 0.521855
vt 0.425000 0.021855
vt 0.425000 0.228145
vt 0.146855 0.500000
vt 0.475000 0.228145
vt 0.475000 0.021855
vt 0.525000 0.021855
vt 0.525000 0.228145
vt 0.575000 0.228145
vt 0.575000 0.021855
vt 0.849752 0.741810
vt 0.866809 0.724752
vt 0.875000 0.728145
vt 0.875000 0.521855
vt 0.650248 0.508190
vt 0.633190 0.525248
vt 0.633190 0.724752
vt 0.650248 0.741810
vt 0.650362 0.532360
vt 0.657360 0.525362
vt 0.657360 0.525362
vt 0.650362 0.532360
vt 0.633190 0.525248
vt 0.633190 0.724752
vt 0.866809 0.724752
vt 0.650248 0.508190
vt 0.849752 0.741810
vt 0.650248 0.741810
vt 0.842640 0.724638
vt 0.849638 0.717639
vt 0.849638 0.532360
vt 0.842640 0.525362
vt 0.650362 0.717640
vt 0.657361 0.724638
vt 0.660407 0.717284
vt 0.657716 0.714594
vt 0.657716 0.714594
vt 0.660407 0.717284
vt 0.842640 0.724638
vt 0.849638 0.717639
vt 0.842640 0.525362
vt 0.657361 0.724638
vt 0.650362 0.717640
vt 0.849638 0.532360
vt 0.839594 0.717284
vt 0.842284 0.714594
vt 0.842284 0.535406
vt 0.839594 0.532716
vt 0.660406 0.532716
vt 0.657716 0.535406
vt 0.842284 0.535406
vt 0.839594 0.532716
vt 0.657716 0.535406
vt 0.842284 0.714594
vt 0.660406 0.532716
vt 0.839594 0.717284
vt 0.425000 0.978145
vt 0.425000 1.000000
vt 0.425000 1.000000
vt 0.425000 0.978145
vt 0.646855 0.750000
vt 0.646855 0.750000
vt 0.525000 0.021855
vt 0.525000 0.021855
vt 0.875000 0.521855
vt 0.853145 0.500000
vt 0.853145 0.500000
vt 0.875000 0.521855
vt 0.425000 0.228145
vt 0.425000 0.271855
vt 0.425000 0.271855
vt 0.425000 0.228145
vt 0.575000 0.021855
vt 0.575000 0.021855
vt 0.475000 0.271855
vt 0.475000 0.228145
vt 0.475000 0.228145
vt 0.475000 0.271855
vt 0.575000 0.478145
vt 0.575000 0.478145
vt 0.625000 0.521855
vt 0.646855 0.500000
vt 0.853145 0.750000
vt 0.875000 0.728145
vt 0.875000 0.728145
vt 0.853145 0.750000
vt 0.525000 0.228145
vt 0.525000 0.271855
vt 0.525000 0.271855
vt 0.525000 0.228145
vt 0.875000 0.728145
vt 0.625000 0.728145
vt 0.525000 0.478145
vt 0.525000 0.478145
vt 0.575000 0.271855
vt 0.575000 0.228145
vt 0.575000 0.228145
vt 0.575000 0.271855
vt 0.525000 0.771855
vt 0.575000 0.771855
vt 0.425000 0.771855
vt 0.475000 0.771855
vt 0.475000 0.478145
vt 0.475000 0.478145
vt 0.425000 0.478145
vt 0.425000 0.521855
vt 0.425000 0.521855
vt 0.425000 0.478145
vt 0.425000 0.021855
vt 0.475000 0.021855
vt 0.525000 0.521855
vt 0.575000 0.521855
vt 0.475000 0.521855
vt 0.475000 0.521855
vt 0.646855 0.500000
vt 0.475000 0.978145
vt 0.575000 0.978145
vt 0.525000 0.978145
vt 0.475000 0.728145
vt 0.425000 0.728145
vt 0.575000 0.728145
vt 0.525000 0.728145
vt 0.525000 0.521855
vt 0.625000 0.521855
vt 0.575000 0.521855
vt 0.625000 0.728145
vt 0.475000 1.000000
vt 0.575000 1.000000
vt 0.525000 1.000000
vt 0.875000 0.521855
vt 0.425000 0.771855
vt 0.425000 0.728145
vt 0.475000 0.728145
vt 0.475000 0.771855
vt 0.625000 0.228145
vt 0.575000 0.978145
vt 0.625000 0.978145
vt 0.625000 1.000000
vt 0.575000 1.000000
vt 0.375000 0.271855
vt 0.375000 0.228145
vt 0.375000 0.478145
vt 0.375000 0.771855
vt 0.575000 0.728145
vt 0.375000 0.021855
vt 0.425000 0.021855
vt 0.625000 0.478145
vt 0.575000 0.771855
vt 0.625000 0.771855
vt 0.525000 0.771855
vt 0.625000 0.271855
vt 0.625000 0.021855
vt 0.475000 0.021855
vt 0.375000 0.978145
vt 0.525000 0.978145
vt 0.475000 0.978145
vt 0.525000 0.728145
vt 0.375000 1.000000
vt 0.525000 1.000000
vt 0.475000 1.000000
vn -0.7071 0.0000 -0.7071
vn 0.0000 -1.0000 0.0000
vn 0.0000 1.0000 0.0000
vn 0.0000 0.0000 1.0000
vn 1.0000 0.0000 0.0000
vn -1.0000 0.0000 0.0000
vn 0.0000 0.0000 -1.0000
vn 0.7071 0.0000 -0.7071
vn -0.7071 0.0000 0.7071
vn 0.7071 0.0000 0.7071
vn -0.7775 0.0000 0.6289
vn 0.7775 0.0000 -0.6289
vn 0.6289 0.0000 0.7775
vn 0.7775 0.0000 0.6289
vn -0.7775 0.0000 -0.6289
vn -0.6289 0.0000 -0.7775
vn 0.6289 0.0000 -0.7775
vn -0.6289 0.0000 0.7775
usemtl wall.2
s off
f 7/1/1 8/2/1 211/3/1 212/4/1
f 2/5/2 1/6/2 18/7/2 17/8/2
f 10/9/2 9/10/2 32/11/2 31/12/2
f 6/13/2 5/14/2 24/15/2 23/16/2
f 5/14/2 6/13/2 13/17/2 14/18/2 9/10/2 10/9/2 1/6/2 2/5/2
f 28/19/2 13/17/2 114/20/2 137/21/2
f 14/18/2 13/17/2 28/19/2 27/22/2
f 36/23/2 57/24/2 163/25/2 97/26/2
f 14/18/2 27/22/2 136/27/2 106/28/2
f 58/29/3 35/30/3 147/31/3 164/32/3
f 17/8/2 18/7/2 122/33/2 121/34/2
f 34/35/2 59/36/2 165/37/2 146/38/2
f 196/39/3 197/40/3 108/41/3 120/42/3
f 60/43/3 33/44/3 145/45/3 109/46/3
f 198/47/3 199/48/3 112/49/3 119/50/3
f 64/51/2 49/52/2 157/53/2 111/54/2
f 200/55/3 193/56/3 98/57/3 118/58/3
f 50/59/3 63/60/3 168/61/3 158/62/3
f 2/5/2 17/8/2 121/34/2 100/63/2
f 62/64/2 51/65/2 159/66/2 167/67/2
f 1/6/2 10/9/2 110/68/2 116/69/2
f 18/7/2 1/6/2 116/69/2 122/33/2
f 52/70/3 61/71/3 166/72/3 105/73/3
f 163/25/4 118/74/4 98/75/4 97/26/4
f 157/53/5 119/50/5 112/49/5 111/54/5
f 148/76/6 117/77/6 104/78/6 103/79/6
f 151/80/7 120/81/7 108/82/7 107/83/7
f 102/84/7 101/85/7 160/86/7 114/87/7
f 153/88/7 152/89/7 162/90/7 161/91/7
f 100/92/6 99/93/6 154/94/6 113/95/6
f 150/96/6 149/97/6 156/98/6 155/99/6
f 106/28/5 105/73/5 166/72/5 115/100/5
f 159/66/5 158/62/5 168/61/5 167/67/5
f 110/101/4 109/46/4 145/45/4 116/102/4
f 165/37/4 164/32/4 147/31/4 146/38/4
f 23/16/2 24/15/2 131/103/2 130/104/2
f 27/22/2 28/19/2 137/21/2 136/27/2
f 44/105/3 53/106/3 160/86/3 101/85/3
f 54/107/2 43/108/2 153/88/2 161/91/2
f 31/12/2 32/11/2 143/109/2 142/110/2
f 42/111/3 55/112/3 162/90/3 152/89/3
f 56/113/2 41/114/2 151/80/2 107/83/2
f 24/15/2 5/14/2 113/115/2 131/103/2
f 40/116/3 45/117/3 154/94/3 99/93/3
f 6/13/2 23/16/2 130/104/2 102/118/2
f 46/119/2 39/120/2 150/96/2 155/99/2
f 32/11/2 9/10/2 115/100/2 143/109/2
f 5/14/2 2/5/2 100/63/2 113/115/2
f 38/121/3 47/122/3 156/98/3 149/97/3
f 10/9/2 31/12/2 142/110/2 110/68/2
f 13/17/2 6/13/2 102/118/2 114/20/2
f 48/123/2 37/124/2 148/76/2 103/79/2
f 9/10/2 14/18/2 106/28/2 115/100/2
f 4/125/3 3/126/3 194/127/3 193/56/3
f 8/2/3 7/1/3 196/39/3 195/128/3
f 16/129/3 15/130/3 198/47/3 197/40/3
f 12/131/3 11/132/3 200/55/3 199/48/3
f 3/126/3 8/2/3 195/128/3 194/127/3
f 11/132/3 4/125/3 193/56/3 200/55/3
f 15/130/3 12/131/3 199/48/3 198/47/3
f 7/1/3 16/129/3 197/40/3 196/39/3
f 206/133/8 205/134/8 229/135/8 230/136/8
f 12/131/5 15/130/5 214/137/5 215/138/5
f 8/2/6 3/126/6 210/139/6 211/3/6
f 15/130/8 16/129/8 213/140/8 214/137/8
f 3/126/9 4/125/9 209/141/9 210/139/9
f 16/129/7 7/1/7 212/4/7 213/140/7
f 4/125/4 11/132/4 216/142/4 209/141/4
f 11/132/10 12/131/10 215/138/10 216/142/10
f 201/143/3 202/144/3 210/139/3 209/141/3
f 203/145/3 204/146/3 212/4/3 211/3/3
f 205/134/3 206/133/3 214/137/3 213/140/3
f 207/147/3 208/148/3 216/142/3 215/138/3
f 202/144/3 203/145/3 211/3/3 210/139/3
f 208/148/3 201/143/3 209/141/3 216/142/3
f 206/133/3 207/147/3 215/138/3 214/137/3
f 204/146/3 205/134/3 213/140/3 212/4/3
f 224/149/1 223/150/1 239/151/1 240/152/1
f 202/144/9 201/143/9 225/153/9 226/154/9
f 205/134/7 204/146/7 228/155/7 229/135/7
f 201/143/4 208/148/4 232/156/4 225/153/4
f 208/148/10 207/147/10 231/157/10 232/156/10
f 204/146/1 203/145/1 227/158/1 228/155/1
f 207/147/5 206/133/5 230/136/5 231/157/5
f 203/145/6 202/144/6 226/154/6 227/158/6
f 217/159/3 218/160/3 226/154/3 225/153/3
f 219/161/3 220/162/3 228/155/3 227/158/3
f 221/163/3 222/164/3 230/136/3 229/135/3
f 223/150/3 224/149/3 232/156/3 231/157/3
f 218/160/3 219/161/3 227/158/3 226/154/3
f 224/149/3 217/159/3 225/153/3 232/156/3
f 222/164/3 223/150/3 231/157/3 230/136/3
f 220/162/3 221/163/3 229/135/3 228/155/3
f 220/162/10 219/161/10 235/165/10 236/166/10
f 223/150/6 222/164/6 238/167/6 239/151/6
f 219/161/5 218/160/5 234/168/5 235/165/5
f 222/164/9 221/163/9 237/169/9 238/167/9
f 218/160/8 217/159/8 233/170/8 234/168/8
f 221/163/4 220/162/4 236/166/4 237/169/4
f 217/159/7 224/149/7 240/152/7 233/170/7
usemtl rooftop.1
f 238/167/3 237/169/3 236/166/3 235/165/3 234/168/3 233/170/3 240/152/3 239/151/3
usemtl window.1
f 44/105/7 43/108/7 54/107/7 53/106/7
f 42/111/7 41/114/7 56/113/7 55/112/7
f 40/116/6 39/120/6 46/119/6 45/117/6
f 38/121/6 37/124/6 48/123/6 47/122/6
f 52/70/5 51/65/5 62/64/5 61/71/5
f 50/59/5 49/52/5 64/51/5 63/60/5
f 60/43/4 59/36/4 34/35/4 33/44/4
f 58/29/4 57/24/4 36/23/4 35/30/4
usemtl wall.3
f 65/171/3 72/172/3 126/173/3 169/174/3
f 30/175/3 200/55/3 118/58/3 140/176/3
f 70/177/3 38/121/3 149/97/3 173/178/3
f 21/179/3 22/180/3 128/181/3 127/182/3
f 77/183/3 76/184/3 129/185/3 178/186/3
f 22/180/3 196/39/3 120/42/3 128/181/3
f 37/124/2 69/187/2 172/188/2 148/76/2
f 75/189/2 78/190/2 179/191/2 177/192/2
f 88/193/2 56/113/2 107/83/2 138/194/2
f 197/40/3 198/47/3 26/195/3 25/196/3
f 19/197/3 20/198/3 125/199/3 124/200/3
f 79/201/3 74/202/3 176/203/3 180/204/3
f 193/56/3 194/127/3 20/198/3 19/197/3
f 20/198/3 194/127/3 117/205/3 125/199/3
f 195/128/3 196/39/3 22/180/3 21/179/3
f 199/48/3 200/55/3 30/175/3 29/206/3
f 55/112/3 87/207/3 186/208/3 162/90/3
f 73/209/2 80/210/2 132/211/2 175/212/2
f 57/24/9 58/29/9 90/213/9 89/214/9
f 59/36/9 60/43/9 92/215/9 91/216/9
f 86/217/2 54/107/2 161/91/2 185/218/2
f 41/114/8 42/111/8 74/202/8 73/209/8
f 43/108/8 44/105/8 76/184/8 75/189/8
f 85/219/3 84/220/3 135/221/3 184/222/3
f 53/106/1 54/107/1 86/217/1 85/219/1
f 193/56/3 19/197/3 124/200/3 98/57/3
f 55/112/1 56/113/1 88/193/1 87/207/1
f 37/124/1 38/121/1 70/177/1 69/187/1
f 53/106/3 85/219/3 184/222/3 160/86/3
f 39/120/1 40/116/1 72/223/1 71/224/1
f 49/52/10 50/59/10 82/225/10 81/226/10
f 83/227/2 86/217/2 185/218/2 183/228/2
f 51/65/10 52/70/10 84/220/10 83/227/10
f 197/40/3 25/196/3 133/229/3 108/41/3
f 33/44/10 34/35/10 66/230/10 65/171/10
f 35/30/10 36/23/10 68/231/10 67/232/10
f 76/184/3 44/105/3 101/85/3 129/185/3
f 61/71/8 62/64/8 94/233/8 93/234/8
f 63/60/8 64/51/8 96/235/8 95/236/8
f 87/207/3 82/225/3 182/237/3 186/208/3
f 89/214/10 90/213/10 95/236/10 96/235/10
f 26/195/3 198/47/3 119/50/3 134/238/3
f 91/216/10 92/215/10 93/234/10 94/233/10
f 81/226/8 82/225/8 87/207/8 88/193/8
f 43/108/2 75/189/2 177/192/2 153/88/2
f 83/227/8 84/220/8 85/219/8 86/217/8
f 73/209/1 74/202/1 79/201/1 80/210/1
f 81/226/2 88/193/2 138/194/2 181/239/2
f 75/189/1 76/184/1 77/183/1 78/190/1
f 199/48/3 29/206/3 139/240/3 112/49/3
f 65/171/9 66/230/9 71/241/9 72/172/9
f 67/232/9 68/231/9 69/242/9 70/243/9
f 74/202/3 42/111/3 152/89/3 176/203/3
f 45/117/9 46/119/9 78/190/9 77/183/9
f 194/127/3 195/128/3 104/244/3 117/205/3
f 47/122/9 48/123/9 80/210/9 79/201/9
f 93/234/3 92/215/3 141/245/3 190/246/3
f 41/114/2 73/209/2 175/212/2 151/80/2
f 91/216/2 94/233/2 191/247/2 189/248/2
f 103/79/11 104/78/11 127/249/11 132/211/11
f 123/250/9 124/251/9 125/252/9 172/253/9
f 129/185/1 130/254/1 131/255/1 178/186/1
f 135/221/8 136/27/8 137/256/8 184/222/8
f 141/245/10 142/257/10 143/109/10 190/246/10
f 111/54/12 112/49/12 139/240/12 144/258/12
f 97/26/13 98/75/13 124/251/13 123/250/13
f 105/73/14 106/28/14 136/27/14 135/221/14
f 99/93/15 100/92/15 121/259/15 126/260/15
f 107/83/16 108/82/16 133/261/16 138/194/16
f 101/85/17 102/84/17 130/254/17 129/185/17
f 109/46/18 110/101/18 142/257/18 141/245/18
f 118/74/18 163/25/18 187/262/18 140/263/18
f 164/32/18 165/37/18 189/248/18 188/264/18
f 120/81/17 151/80/17 175/212/17 128/265/17
f 152/89/17 153/88/17 177/192/17 176/203/17
f 114/87/16 160/86/16 184/222/16 137/256/16
f 161/91/16 162/90/16 186/208/16 185/218/16
f 117/77/15 148/76/15 172/188/15 125/266/15
f 149/97/15 150/96/15 174/267/15 173/178/15
f 119/50/14 157/53/14 181/239/14 134/238/14
f 158/62/14 159/66/14 183/228/14 182/237/14
f 116/102/13 145/45/13 169/174/13 122/268/13
f 146/38/13 147/31/13 171/269/13 170/270/13
f 115/100/12 166/72/12 190/246/12 143/109/12
f 167/67/12 168/61/12 192/271/12 191/247/12
f 140/263/10 187/262/10 144/258/10 139/240/10
f 188/264/10 189/248/10 191/247/10 192/271/10
f 134/238/8 181/239/8 138/194/8 133/261/8
f 182/237/8 183/228/8 185/218/8 186/208/8
f 128/265/1 175/212/1 132/211/1 127/249/1
f 176/203/1 177/192/1 179/191/1 180/204/1
f 122/268/9 169/174/9 126/173/9 121/272/9
f 170/270/9 171/269/9 173/273/9 174/274/9
f 113/95/11 154/94/11 178/186/11 131/255/11
f 155/99/11 156/98/11 180/204/11 179/191/11
f 39/120/2 71/224/2 174/267/2 150/96/2
f 71/241/2 66/230/2 170/270/2 174/274/2
f 72/223/3 40/116/3 99/93/3 126/260/3
f 67/232/3 70/243/3 173/273/3 171/269/3
f 49/52/2 81/226/2 181/239/2 157/53/2
f 69/242/2 68/231/2 123/250/2 172/253/2
f 25/196/3 26/195/3 134/238/3 133/229/3
f 82/225/3 50/59/3 158/62/3 182/237/3
f 45/117/3 77/183/3 178/186/3 154/94/3
f 51/65/2 83/227/2 183/228/2 159/66/2
f 78/190/2 46/119/2 155/99/2 179/191/2
f 84/220/3 52/70/3 105/73/3 135/221/3
f 47/122/3 79/201/3 180/204/3 156/98/3
f 33/44/3 65/171/3 169/174/3 145/45/3
f 80/210/2 48/123/2 103/79/2 132/211/2
f 29/206/3 30/175/3 140/176/3 139/240/3
f 66/230/2 34/35/2 146/38/2 170/270/2
f 35/30/3 67/232/3 171/269/3 147/31/3
f 68/231/2 36/23/2 97/26/2 123/250/2
f 61/71/3 93/234/3 190/246/3 166/72/3
f 94/233/2 62/64/2 167/67/2 191/247/2
f 63/60/3 95/236/3 192/271/3 168/61/3
f 57/24/2 89/214/2 187/262/2 163/25/2
f 96/235/2 64/51/2 111/54/2 144/258/2
f 90/213/3 58/29/3 164/32/3 188/264/3
f 89/214/2 96/235/2 144/258/2 187/262/2
f 59/36/2 91/216/2 189/248/2 165/37/2
f 195/128/3 21/179/3 127/182/3 104/244/3
f 95/236/3 90/213/3 188/264/3 192/271/3
f 92/215/3 60/43/3 109/46/3 141/245/3
