# Blender v2.80 (sub 75) OBJ File: 'untitled.blend'
# www.blender.org
mtllib buildingO3.mtl
o Kitbash3d_FutureSlums.019
v -0.498725 -0.082687 -0.696274
v 0.587210 -0.082687 -0.696274
v 0.555279 -0.082687 -0.658918
v -0.466793 -0.082687 -0.658918
v 0.587210 -0.082687 0.705569
v 0.555279 -0.082687 0.668196
v -0.498725 -0.082687 0.705569
v -0.466793 -0.082687 0.668196
v 0.587210 -0.043575 -0.696274
v -0.498725 -0.043577 -0.696274
v -0.466793 -0.043577 -0.658918
v 0.555279 -0.043575 -0.658900
v -0.498725 -0.043577 0.705569
v -0.466793 -0.043577 0.668196
v 0.587210 -0.043575 0.705569
v 0.555279 -0.043575 0.668196
v -0.498725 -0.471565 -0.696274
v 0.587210 -0.471565 -0.696274
v 0.555279 -0.471565 -0.658900
v -0.466793 -0.471565 -0.658918
v 0.587211 -0.471565 0.705569
v 0.555279 -0.471565 0.668196
v -0.498725 -0.471565 0.705569
v -0.466793 -0.471565 0.668196
v 0.587210 -0.432455 -0.696274
v -0.498725 -0.432457 -0.696274
v -0.466793 -0.432457 -0.658918
v 0.555279 -0.432455 -0.658900
v -0.498725 -0.432457 0.705569
v -0.466793 -0.432457 0.668196
v 0.587211 -0.432455 0.705569
v 0.555279 -0.432455 0.668196
v 0.602076 -0.076481 -0.649575
v 0.602075 1.238972 -0.649575
v 0.602075 1.238972 0.628388
v 0.602076 -0.076481 0.628388
v 0.587210 -0.075144 0.702723
v 0.543868 -0.075144 0.702723
v 0.543868 -0.628691 0.702723
v 0.587211 -0.628691 0.702723
v 0.587211 -0.628691 -0.693445
v 0.543868 -0.628691 -0.693445
v 0.543868 -0.075144 -0.693445
v 0.587210 -0.075144 -0.693445
v 0.543868 -0.392866 0.699752
v 0.152491 -0.082687 0.699752
v 0.096575 -0.082687 0.699752
v 0.543868 -0.437393 0.699752
v 0.543868 -0.392866 -0.690475
v 0.543868 -0.437393 -0.690475
v 0.096575 -0.082687 -0.690475
v 0.152491 -0.082687 -0.690475
v 0.543868 -0.628691 -0.668369
v 0.587211 -0.628691 -0.668369
v 0.587210 -0.075144 -0.668369
v 0.543868 -0.075144 -0.668369
v 0.543868 -0.075144 0.677647
v 0.587210 -0.075144 0.677647
v 0.587211 -0.628691 0.677647
v 0.543868 -0.628691 0.677647
v 0.096575 -0.082687 0.680635
v 0.152491 -0.082687 0.680635
v 0.543868 -0.392866 0.680635
v 0.543868 -0.437393 0.680635
v 0.096575 -0.082687 -0.671358
v 0.543868 -0.437393 -0.671358
v 0.543868 -0.392866 -0.671358
v 0.152491 -0.082687 -0.671358
v 0.332402 -0.051119 0.681495
v 0.332402 -0.051119 -0.672217
v 0.332402 -0.075148 -0.672217
v 0.332402 -0.075148 0.681495
v 0.380505 -0.051119 0.681495
v 0.380505 -0.051119 -0.672217
v 0.380505 -0.075148 0.681495
v 0.380505 -0.075148 -0.672217
v -0.450156 -0.075144 0.702723
v -0.493490 -0.075144 0.702723
v -0.493490 -0.628691 0.702723
v -0.450156 -0.628691 0.702723
v -0.450156 -0.628691 -0.693445
v -0.493490 -0.628691 -0.693445
v -0.493490 -0.075144 -0.693445
v -0.450156 -0.075144 -0.693445
v -0.493490 -0.628691 -0.668369
v -0.450156 -0.628691 -0.668369
v -0.450156 -0.075144 -0.668369
v -0.493490 -0.075144 -0.668369
v -0.493490 -0.075144 0.677647
v -0.450156 -0.075144 0.677647
v -0.450156 -0.628691 0.677647
v -0.493490 -0.628691 0.677647
v -0.442057 -0.392866 0.680635
v -0.050671 -0.082687 0.680635
v 0.005237 -0.082687 0.680635
v -0.442057 -0.437393 0.680635
v -0.442057 -0.392866 -0.671358
v -0.442057 -0.437393 -0.671358
v 0.005237 -0.082687 -0.671358
v -0.050671 -0.082687 -0.671358
v 0.005237 -0.082687 0.699752
v -0.050671 -0.082687 0.699752
v -0.442057 -0.392866 0.699752
v -0.442057 -0.437393 0.699752
v 0.005237 -0.082687 -0.690475
v -0.442057 -0.437393 -0.690475
v -0.442057 -0.392866 -0.690475
v -0.050671 -0.082687 -0.690475
v -0.206266 -0.051121 0.681495
v -0.206266 -0.051121 -0.672217
v -0.206266 -0.075148 -0.672217
v -0.206266 -0.075148 0.681495
v -0.158163 -0.051121 0.681495
v -0.158163 -0.051121 -0.672217
v -0.158163 -0.075148 0.681495
v -0.158163 -0.075148 -0.672217
v 0.602076 -0.076481 -0.330080
v -0.476316 -0.076481 -0.330080
v -0.476316 -0.076481 -0.649575
v -0.476316 1.238970 -0.330080
v 0.602075 1.238972 -0.330080
v -0.476316 1.238970 -0.649575
v -0.476316 0.277363 -0.313935
v -0.476316 0.414423 -0.405953
v -0.476316 0.252382 -0.649575
v 0.602076 0.252382 0.628388
v -0.476316 0.252382 0.628388
v -0.476316 -0.076481 0.628388
v 0.602075 0.252382 -0.649575
v -0.476316 0.581245 0.628388
v -0.476316 0.910107 0.628388
v -0.476316 0.748066 0.384748
v -0.476316 0.581245 0.418775
v 0.602075 0.910107 0.628388
v 0.602075 0.581245 0.628388
v -0.476316 0.910107 -0.649575
v 0.602075 0.910107 -0.649575
v 0.602075 0.581245 -0.649575
v -0.476316 0.581245 -0.649575
v 0.602076 -0.076481 0.308893
v -0.476316 -0.076481 0.308893
v -0.476316 -0.076481 -0.010602
v 0.602076 -0.076481 -0.010602
v -0.476316 1.238970 0.308893
v 0.602075 1.238972 0.308893
v 0.602075 1.238972 -0.010602
v -0.476316 1.238970 -0.010602
v -0.476316 0.185452 0.155518
v -0.476316 0.151875 -0.010602
v -0.476316 0.977037 -0.176704
v -0.476316 1.010616 -0.010602
v -0.329688 0.581245 -0.010602
v -0.476316 0.977037 0.155518
v -0.476316 0.885128 0.292748
v -0.476316 1.238970 0.628388
v -0.476316 0.748066 -0.405953
v -0.476316 0.885128 -0.313935
v -0.476316 0.185450 -0.176704
v -0.476316 0.414423 0.384748
v -0.476316 0.277363 0.292748
v -0.476316 0.581245 -0.439961
vt 0.002000 0.759786
vt 0.555058 0.759785
vt 0.538795 0.778815
vt 0.018263 0.778815
vt 0.715945 0.319027
vt 0.002000 0.319027
vt 0.021030 0.302763
vt 0.696915 0.302763
vt 0.555059 0.685089
vt 0.002000 0.685089
vt 0.018264 0.666059
vt 0.538795 0.666059
vt 0.002000 0.198306
vt 0.715945 0.198306
vt 0.696915 0.214570
vt 0.021030 0.214570
vt 0.555058 0.739867
vt 0.002000 0.739867
vt 0.018263 0.720837
vt 0.538794 0.720837
vt 0.715945 0.250752
vt 0.002000 0.250752
vt 0.021030 0.234488
vt 0.696915 0.234488
vt 0.002000 0.627111
vt 0.555059 0.627111
vt 0.538795 0.646140
vt 0.018264 0.646140
vt 0.002000 0.266581
vt 0.715945 0.266581
vt 0.696915 0.282845
vt 0.021030 0.282845
vt 0.002000 0.853512
vt 0.555057 0.853512
vt 0.538794 0.872542
vt 0.018263 0.872542
vt 0.715945 0.054446
vt 0.002000 0.054446
vt 0.021030 0.038182
vt 0.696916 0.038182
vt 0.555059 0.591362
vt 0.002000 0.591362
vt 0.018264 0.572332
vt 0.538795 0.572332
vt 0.002000 0.110112
vt 0.715945 0.110112
vt 0.696915 0.126376
vt 0.021030 0.126376
vt 0.555057 0.833593
vt 0.002000 0.833594
vt 0.018263 0.814564
vt 0.538794 0.814564
vt 0.715945 0.162558
vt 0.002000 0.162558
vt 0.021030 0.146295
vt 0.696915 0.146295
vt 0.002000 0.533384
vt 0.555059 0.533384
vt 0.538795 0.552414
vt 0.018263 0.552414
vt 0.002000 0.002000
vt 0.715945 0.002000
vt 0.696916 0.018264
vt 0.021030 0.018264
vt 0.448943 0.359289
vt 0.582713 0.359289
vt 0.582713 0.489246
vt 0.448943 0.489246
vt 0.555059 0.705007
vt 0.002000 0.705007
vt 0.865577 0.639884
vt 0.865577 0.661957
vt 0.583662 0.661957
vt 0.583662 0.639884
vt 0.014774 0.930363
vt 0.014774 0.908290
vt 0.296688 0.908290
vt 0.296688 0.930363
vt 0.326611 0.908290
vt 0.580945 0.908392
vt 0.603255 0.926087
vt 0.312519 0.926058
vt 0.983917 0.364547
vt 0.998000 0.382322
vt 0.707263 0.382190
vt 0.729583 0.364507
vt 0.002000 0.178388
vt 0.715945 0.178388
vt 0.014774 0.965209
vt 0.014774 0.943137
vt 0.296688 0.943137
vt 0.296688 0.965209
vt 0.865577 0.674730
vt 0.865577 0.696803
vt 0.583662 0.696803
vt 0.583662 0.674730
vt 0.603254 0.935820
vt 0.580941 0.953511
vt 0.326607 0.953560
vt 0.312518 0.935790
vt 0.707259 0.391923
vt 0.997995 0.392055
vt 0.983897 0.409817
vt 0.729562 0.409626
vt 0.296688 0.977983
vt 0.014773 0.977983
vt 0.583662 0.627111
vt 0.865577 0.627111
vt 0.570888 0.661957
vt 0.570888 0.639884
vt 0.002000 0.965209
vt 0.002000 0.943137
vt 0.580943 0.963243
vt 0.326608 0.963293
vt 0.729584 0.354775
vt 0.983919 0.354815
vt 0.715945 0.338945
vt 0.002000 0.338945
vt 0.002000 0.354775
vt 0.691429 0.354775
vt 0.691429 0.367012
vt 0.002000 0.367012
vt 0.002000 0.428250
vt 0.002000 0.403749
vt 0.691429 0.403749
vt 0.691429 0.428250
vt 0.002000 0.391512
vt 0.691429 0.391512
vt 0.538794 0.798734
vt 0.018263 0.798734
vt 0.865577 0.546158
vt 0.865577 0.568230
vt 0.583662 0.568230
vt 0.583662 0.546158
vt 0.583661 0.742910
vt 0.583661 0.720837
vt 0.865576 0.720837
vt 0.865576 0.742910
vt 0.583661 0.777756
vt 0.583661 0.755683
vt 0.865576 0.755683
vt 0.865576 0.777756
vt 0.865577 0.581004
vt 0.865577 0.603076
vt 0.583662 0.603076
vt 0.583662 0.581004
vt 0.865576 0.790529
vt 0.583661 0.790529
vt 0.583662 0.533384
vt 0.865577 0.533384
vt 0.570888 0.568230
vt 0.570888 0.546158
vt 0.570887 0.777756
vt 0.570887 0.755683
vt 0.555059 0.611281
vt 0.002000 0.611281
vt 0.002000 0.090194
vt 0.715945 0.090194
vt 0.715945 0.074364
vt 0.002000 0.074364
vt 0.538794 0.892461
vt 0.018264 0.892461
vt 0.584980 0.814564
vt 0.839315 0.814666
vt 0.861625 0.832361
vt 0.570888 0.832331
vt 0.983918 0.453851
vt 0.998000 0.471626
vt 0.707263 0.471495
vt 0.729583 0.453812
vt 0.861624 0.842093
vt 0.839311 0.859784
vt 0.584975 0.859834
vt 0.570887 0.842063
vt 0.707259 0.481228
vt 0.997995 0.481359
vt 0.983897 0.499121
vt 0.729562 0.498931
vt 0.839312 0.869517
vt 0.584977 0.869566
vt 0.729585 0.444080
vt 0.983919 0.444119
vt 0.002000 0.444080
vt 0.691429 0.444080
vt 0.691429 0.456316
vt 0.002000 0.456316
vt 0.002000 0.517555
vt 0.002000 0.493054
vt 0.691429 0.493054
vt 0.691429 0.517555
vt 0.002000 0.480817
vt 0.691429 0.480817
vt 0.587121 0.500396
vt 0.550531 0.500396
vt 0.550531 0.347766
vt 0.587121 0.347766
vt 0.697936 0.498562
vt 0.697936 0.347677
vt 0.735087 0.347677
vt 0.735087 0.498562
vt 0.328996 0.387581
vt 0.318131 0.403960
vt 0.296564 0.388458
vt 0.297413 0.353106
vt 0.734392 0.348139
vt 0.734392 0.386220
vt 0.586463 0.386220
vt 0.586463 0.348139
vt 0.586359 0.348139
vt 0.586359 0.386220
vt 0.440452 0.386220
vt 0.440452 0.348139
vt 0.434921 0.424910
vt 0.434669 0.460141
vt 0.411699 0.444639
vt 0.415727 0.424747
vt 0.734392 0.462380
vt 0.586463 0.462380
vt 0.586463 0.424300
vt 0.734392 0.424300
vt 0.586359 0.462380
vt 0.440452 0.462380
vt 0.440452 0.424300
vt 0.586359 0.424300
vt 0.477351 0.500396
vt 0.477351 0.347766
vt 0.513941 0.347766
vt 0.513941 0.500396
vt 0.623636 0.498562
vt 0.623636 0.347677
vt 0.660786 0.347677
vt 0.660786 0.498562
vt 0.366246 0.352757
vt 0.400624 0.353183
vt 0.385156 0.377223
vt 0.365374 0.373170
vt 0.364987 0.495842
vt 0.330609 0.495416
vt 0.344671 0.471376
vt 0.364474 0.475429
vt 0.415811 0.425095
vt 0.411536 0.444536
vt 0.365758 0.424300
vt 0.412154 0.405529
vt 0.399367 0.496022
vt 0.384325 0.471726
vt 0.400806 0.461018
vt 0.433820 0.495494
vt 0.295944 0.458919
vt 0.317781 0.443812
vt 0.328356 0.460380
vt 0.296171 0.494281
vt 0.331866 0.352577
vt 0.345503 0.376873
vt 0.435289 0.389680
vt 0.412049 0.404788
vt 0.401446 0.388220
vt 0.435062 0.354318
vt 0.329728 0.459267
vt 0.319210 0.443070
vt 0.345600 0.470277
vt 0.734392 0.500460
vt 0.586463 0.500460
vt 0.400513 0.460391
vt 0.384295 0.470892
vt 0.366406 0.374098
vt 0.385766 0.378323
vt 0.346923 0.377707
vt 0.401640 0.389333
vt 0.314129 0.423852
vt 0.296312 0.423689
vt 0.586486 0.498562
vt 0.586486 0.347677
vt 0.364815 0.474501
vt 0.586359 0.500460
vt 0.440452 0.500460
vt 0.440760 0.500396
vt 0.440760 0.347766
vt 0.319680 0.404063
vt 0.330707 0.388208
vt 0.315409 0.423504
vn 0.0000 -1.0000 0.0000
vn -0.0000 1.0000 0.0000
vn 1.0000 0.0000 0.0000
vn -0.3150 -0.3149 -0.8953
vn -0.3150 0.3148 -0.8953
vn 0.3151 0.3148 -0.8953
vn 0.3149 -0.3150 -0.8953
vn -0.3149 -0.3150 0.8953
vn 0.3150 -0.3149 0.8953
vn 0.3148 0.3150 0.8953
vn -0.3150 0.3149 0.8953
vn 0.0000 0.0000 1.0000
vn 0.0000 0.0000 -1.0000
vn -0.8953 0.3150 0.3149
vn -0.8953 0.3150 -0.3148
vn -0.8953 -0.3150 -0.3149
vn -0.8953 -0.3149 0.3150
vn -1.0000 0.0000 0.0000
vn -0.6213 -0.7835 0.0000
vn 0.6211 0.7837 0.0000
vn 0.8953 -0.3150 0.3149
vn 0.8953 -0.3149 -0.3150
vn 0.8953 0.3151 -0.3148
vn 0.8953 0.3148 0.3150
vn -0.7049 -0.7054 -0.0750
vn 0.7052 -0.7051 -0.0749
vn 0.7051 0.7052 -0.0745
vn -0.7049 0.7054 -0.0744
vn 0.0749 -0.7050 -0.7052
vn 0.0747 -0.7049 0.7054
vn 0.0747 0.7054 0.7049
vn 0.0746 0.7053 -0.7050
vn 0.7049 -0.7054 0.0747
vn -0.7054 -0.7049 0.0747
vn -0.7054 0.7049 0.0747
vn 0.7054 0.7049 0.0747
vn -0.0747 -0.7054 0.7049
vn -0.0747 -0.7049 -0.7054
vn -0.0747 0.7049 -0.7054
vn -0.0747 0.7054 0.7049
vn -0.3149 0.3150 -0.8953
vn 0.3150 0.3149 -0.8953
vn 0.3149 0.3150 0.8953
vn -0.8953 0.3149 -0.3150
vn 0.8953 0.3150 -0.3149
vn 0.8953 0.3149 0.3150
vn -0.7050 -0.7053 -0.0747
vn 0.7054 -0.7049 -0.0747
vn 0.7049 0.7054 -0.0747
vn -0.7053 0.7050 -0.0747
vn 0.0747 -0.7054 -0.7049
vn 0.0747 0.7049 -0.7054
vn -0.7049 0.7054 0.0747
vn -0.0747 -0.7050 -0.7053
vn -0.0747 0.7053 -0.7050
vn -0.0747 0.7049 0.7054
vn 0.6213 -0.7835 0.0000
vn -0.6211 0.7837 0.0000
vn 0.3150 -0.8953 -0.3148
vn 0.3148 0.8953 -0.3150
vn 0.3150 -0.3148 0.8953
vn 0.3148 -0.3150 -0.8953
vn -0.9463 0.0000 -0.3232
vn -0.9463 -0.2287 0.2284
vn -0.9463 -0.2286 -0.2284
vn -0.9463 0.3232 -0.0000
vn -0.9463 0.2286 -0.2284
vn 0.3150 0.8953 0.3148
vn -0.9463 -0.3232 0.0000
vn 0.3150 0.3148 -0.8953
vn 0.3148 -0.8953 0.3150
vn -0.9463 0.2287 0.2284
vn -0.9463 0.0000 0.3232
usemtl metal.1
s off
f 1/1/1 2/2/1 3/3/1 4/4/1
f 2/5/1 5/6/1 6/7/1 3/8/1
f 5/9/1 7/10/1 8/11/1 6/12/1
f 7/13/1 1/14/1 4/15/1 8/16/1
f 9/17/2 10/18/2 11/19/2 12/20/2
f 10/21/2 13/22/2 14/23/2 11/24/2
f 13/25/2 15/26/2 16/27/2 14/28/2
f 15/29/2 9/30/2 12/31/2 16/32/2
f 17/33/1 18/34/1 19/35/1 20/36/1
f 18/37/1 21/38/1 22/39/1 19/40/1
f 21/41/1 23/42/1 24/43/1 22/44/1
f 23/45/1 17/46/1 20/47/1 24/48/1
f 25/49/2 26/50/2 27/51/2 28/52/2
f 26/53/2 29/54/2 30/55/2 27/56/2
f 29/57/2 31/58/2 32/59/2 30/60/2
f 31/61/2 25/62/2 28/63/2 32/64/2
f 33/65/3 34/66/3 35/67/3 36/68/3
f 1/1/4 10/18/5 9/17/6 2/2/7
f 7/10/8 5/9/9 15/69/10 13/70/11
f 37/71/12 38/72/12 39/73/12 40/74/12
f 41/75/13 42/76/13 43/77/13 44/78/13
f 45/79/12 46/80/12 47/81/12 48/82/12
f 49/83/13 50/84/13 51/85/13 52/86/13
f 13/87/14 10/88/15 1/14/16 7/13/17
f 53/89/12 54/90/12 55/91/12 56/92/12
f 57/93/13 58/94/13 59/95/13 60/96/13
f 61/97/13 62/98/13 63/99/13 64/100/13
f 65/101/12 66/102/12 67/103/12 68/104/12
f 43/105/18 42/106/18 53/89/18 56/92/18
f 55/91/3 54/90/3 41/75/3 44/78/3
f 59/107/3 58/108/3 37/71/3 40/74/3
f 39/73/18 38/72/18 57/93/18 60/96/18
f 60/109/1 59/110/1 40/74/1 39/73/1
f 54/90/1 53/89/1 42/111/1 41/112/1
f 61/97/19 64/100/19 48/82/19 47/81/19
f 63/99/20 62/98/20 46/113/20 45/114/20
f 68/115/20 67/116/20 49/83/20 52/86/20
f 66/102/19 65/101/19 51/85/19 50/84/19
f 5/6/21 2/5/22 9/117/23 15/118/24
f 69/119/18 70/120/18 71/121/18 72/122/18
f 69/123/2 73/124/2 74/125/2 70/126/2
f 75/127/3 76/128/3 74/125/3 73/124/3
f 75/127/1 72/122/1 71/121/1 76/128/1
f 4/4/25 3/3/26 12/129/27 11/130/28
f 3/8/29 6/7/30 16/32/31 12/31/32
f 6/12/33 8/11/34 14/28/35 16/27/36
f 8/16/37 4/15/38 11/24/39 14/23/40
f 77/131/12 78/132/12 79/133/12 80/134/12
f 81/135/13 82/136/13 83/137/13 84/138/13
f 85/139/12 86/140/12 87/141/12 88/142/12
f 89/143/13 90/144/13 91/145/13 92/146/13
f 83/147/18 82/148/18 85/139/18 88/142/18
f 87/141/3 86/140/3 81/135/3 84/138/3
f 91/149/3 90/150/3 77/131/3 80/134/3
f 79/133/18 78/132/18 89/143/18 92/146/18
f 92/151/1 91/152/1 80/134/1 79/133/1
f 86/140/1 85/139/1 82/153/1 81/154/1
f 17/33/4 26/50/41 25/49/42 18/34/7
f 23/42/8 21/41/9 31/155/43 29/156/11
f 29/157/14 26/158/44 17/46/16 23/45/17
f 21/38/21 18/37/22 25/159/45 31/160/46
f 20/36/47 19/35/48 28/161/49 27/162/50
f 19/40/51 22/39/30 32/64/31 28/63/52
f 22/44/33 24/43/34 30/60/53 32/59/36
f 24/48/37 20/47/54 27/56/55 30/55/56
f 93/163/13 94/164/13 95/165/13 96/166/13
f 97/167/12 98/168/12 99/169/12 100/170/12
f 101/171/12 102/172/12 103/173/12 104/174/12
f 105/175/13 106/176/13 107/177/13 108/178/13
f 101/171/57 104/174/57 96/166/57 95/165/57
f 103/173/58 102/172/58 94/179/58 93/180/58
f 108/181/58 107/182/58 97/167/58 100/170/58
f 106/176/57 105/175/57 99/169/57 98/168/57
f 109/183/18 110/184/18 111/185/18 112/186/18
f 109/187/2 113/188/2 114/189/2 110/190/2
f 115/191/3 116/192/3 114/189/3 113/188/3
f 115/191/1 112/186/1 111/185/1 116/192/1
f 33/193/59 117/194/1 118/195/1 119/196/1
f 120/197/2 121/198/2 34/199/60 122/200/2
f 123/201/18 124/202/18 125/203/18 119/204/18
f 36/205/61 126/206/12 127/207/12 128/208/12
f 119/209/13 125/210/13 129/211/13 33/212/62
f 130/213/18 131/214/18 132/215/18 133/216/18
f 134/217/12 131/218/12 130/219/12 135/220/12
f 136/221/13 137/222/13 138/223/13 139/224/13
f 140/225/1 141/226/1 142/227/1 143/228/1
f 144/229/2 145/230/2 146/231/2 147/232/2
f 142/233/18 141/234/18 148/235/18 149/236/18
f 147/237/18 120/238/18 150/239/18 151/240/18
f 133/241/63 132/242/63 152/243/63 159/244/63
f 144/245/18 153/246/18 154/247/18 155/248/18
f 136/249/18 156/250/18 157/251/18 122/252/18
f 118/253/18 158/254/18 123/201/18 119/204/18
f 127/255/18 159/256/18 160/257/18 128/258/18
f 147/232/2 146/231/2 121/198/2 120/197/2
f 135/220/12 130/219/12 127/207/12 126/206/12
f 120/238/18 122/252/18 157/251/18 150/239/18
f 157/259/64 156/260/64 152/243/64 150/261/64
f 130/213/18 133/216/18 159/256/18 127/255/18
f 143/228/1 142/227/1 118/195/1 117/194/1
f 131/214/18 155/248/18 154/247/18 132/215/18
f 35/262/10 155/263/12 131/218/12 134/217/12
f 154/264/65 153/265/65 152/243/65 132/242/65
f 149/266/66 148/267/66 152/243/66 158/268/66
f 142/233/18 149/236/18 158/254/18 118/253/18
f 152/243/67 148/267/67 160/269/67 159/244/67
f 124/202/18 161/270/18 139/271/18 125/203/18
f 139/224/13 138/223/13 129/211/13 125/210/13
f 155/272/2 35/273/68 145/230/2 144/229/2
f 151/274/69 150/261/69 152/243/69 153/265/69
f 147/237/18 151/240/18 153/246/18 144/245/18
f 122/275/13 34/276/70 137/222/13 136/221/13
f 36/277/71 128/278/1 141/226/1 140/225/1
f 141/234/18 128/258/18 160/257/18 148/235/18
f 152/243/72 124/279/72 123/280/72 158/268/72
f 161/281/73 124/279/73 152/243/73 156/260/73
f 139/271/18 161/270/18 156/250/18 136/249/18
