# Blender v2.80 (sub 75) OBJ File: 'untitled.blend'
# www.blender.org
mtllib buildingC2.mtl
o Cube.002_Cube.001
v -3.414427 -0.884739 -2.276427
v -3.414427 0.943653 -2.276427
v -3.414427 -0.884739 -3.174220
v -3.414427 0.943653 -3.174220
v -3.414427 -0.884739 -1.287493
v -3.414427 0.943653 -1.287493
v -3.414427 -0.884739 -2.185286
v -3.414427 0.943653 -2.185286
v -3.414427 -0.884739 -0.068625
v -3.414427 0.943653 -0.068625
v -3.414427 -0.884739 -0.966418
v -3.414427 0.943653 -0.966418
v -3.414427 -0.884739 0.920309
v -3.414427 0.943653 0.920309
v -3.414427 -0.884739 0.022515
v -3.414427 0.943653 0.022515
v -3.414427 -0.884739 2.176487
v -3.414427 0.943653 2.176487
v -3.414427 -0.884739 1.278692
v -3.414427 0.943653 1.278692
v -3.414427 -0.884739 3.165422
v -3.414427 0.943653 3.165422
v -3.414427 -0.884739 2.267630
v -3.414427 0.943653 2.267630
v 3.360169 -0.884739 -2.276428
v 3.360169 0.943653 -2.276428
v 3.360169 -0.884739 -3.174222
v 3.360169 0.943653 -3.174222
v 3.360169 -0.884739 -1.287495
v 3.360169 0.943653 -1.287495
v 3.360169 -0.884739 -2.185287
v 3.360169 0.943653 -2.185287
v 3.360169 -0.884739 -0.068627
v 3.360169 0.943653 -0.068627
v 3.360169 -0.884739 -0.966420
v 3.360169 0.943653 -0.966420
v 3.360169 -0.884739 0.920307
v 3.360169 0.943653 0.920307
v 3.360169 -0.884739 0.022514
v 3.360169 0.943653 0.022514
v 3.360169 -0.884739 2.176485
v 3.360169 0.943653 2.176485
v 3.360169 -0.884739 1.278690
v 3.360169 0.943653 1.278690
v 3.360169 -0.884739 3.165421
v 3.360169 0.943653 3.165421
v 3.360169 -0.884739 2.267628
v 3.360169 0.943653 2.267628
v -3.053211 -1.216092 4.729103
v -3.053211 1.189084 4.729103
v -3.053211 1.189084 -4.750847
v -3.053211 -1.216092 -4.750847
v 3.051933 1.189084 -4.750847
v 3.051933 -1.216092 -4.750847
v 3.051933 1.189084 4.729103
v 3.051933 -1.216092 4.729103
v 1.829029 1.189084 6.657885
v 1.829029 -1.216092 6.657885
v -1.830308 1.189084 6.657885
v -1.830308 -1.216092 6.657885
v -1.830308 1.189084 -6.679629
v -1.830308 -1.216092 -6.679629
v 1.829029 1.189084 -6.679629
v 1.829029 -1.216092 -6.679629
v -3.127332 -1.509965 -4.818238
v -3.127332 -1.509965 4.796495
v -3.127331 1.189084 4.796494
v -3.127332 1.482957 4.796495
v -3.127332 1.482957 -4.818238
v -3.127331 -1.216092 -4.818238
v -1.865266 -1.509965 -6.808414
v 1.863988 1.482957 -6.808414
v 3.126054 1.482957 -4.818238
v 3.126053 -1.216092 -4.818238
v 3.126054 -1.509965 -4.818238
v 3.126054 -1.509965 4.796495
v 3.126054 1.482957 4.796495
v 3.126053 -1.216092 4.796494
v 1.863988 -1.509965 6.786671
v -1.865266 1.482957 6.786671
v 1.863988 -1.509965 -6.808414
v -1.865266 1.482957 -6.808414
v -1.865266 -1.509965 6.786671
v 1.863988 1.482957 6.786671
v 1.863988 -1.216092 6.786671
v -1.865266 -1.216092 6.786671
v -1.865266 -1.216092 -6.808414
v 1.863988 -1.216092 -6.808414
v -3.127331 -1.216092 4.796494
v -3.127331 1.189084 -4.818238
v 3.126053 1.189084 -4.818238
v 3.126053 1.189084 4.796494
v 1.863988 1.189084 6.786671
v -1.865266 1.189084 6.786671
v -1.865266 1.189084 -6.808414
v 1.863988 1.189084 -6.808414
v 3.051933 -1.216092 -3.587543
v 3.051933 -1.216092 3.565805
v 3.051933 1.189084 -3.587543
v 3.051933 1.189084 3.565805
v -3.053211 -1.216092 3.565804
v -3.053211 -1.216092 -3.587543
v -3.053211 1.189084 3.565804
v -3.053211 1.189084 -3.587543
v -3.127331 -1.509965 -3.638395
v -3.127331 -1.509965 3.616657
v -3.127331 1.482957 3.616657
v -3.127331 1.482957 -3.638395
v 3.126053 -1.509965 3.616657
v 3.126053 -1.509965 -3.638395
v 3.126053 1.482957 -3.638395
v 3.126053 1.482957 3.616657
v 3.126053 -1.216092 -3.638395
v 3.126053 -1.216092 3.616655
v 3.126053 1.189084 -3.638395
v 3.126053 1.189084 3.616655
v -3.127331 -1.216092 3.616655
v -3.127331 -1.216092 -3.638395
v -3.127331 1.189084 3.616655
v -3.127331 1.189084 -3.638395
v -1.164635 -1.216092 -6.679628
v 1.163357 -1.216092 -6.679628
v -1.164635 1.189084 -6.679628
v 1.163357 1.189084 -6.679628
v 1.163357 -1.216092 6.657885
v -1.164635 -1.216092 6.657885
v 1.163357 1.189084 6.657885
v -1.164635 1.189084 6.657885
v 1.185597 -1.509965 -6.808414
v -1.186875 -1.509965 -6.808414
v -1.186875 1.482957 -6.808414
v 1.185597 1.482957 -6.808414
v -1.186875 -1.509965 6.786671
v 1.185597 -1.509965 6.786671
v 1.185597 1.482957 6.786671
v -1.186875 1.482957 6.786671
v -1.186875 -1.216092 -6.808414
v 1.185597 -1.216092 -6.808414
v -1.186875 1.189084 -6.808414
v 1.185597 1.189084 -6.808414
v 1.185597 -1.216092 6.786671
v -1.186875 -1.216092 6.786671
v 1.185597 1.189084 6.786671
v -1.186875 1.189084 6.786671
v -3.476035 -1.216092 3.565804
v -3.476035 -1.216092 -3.587543
v -3.476035 1.189084 3.565804
v -3.476035 1.189084 -3.587543
v -3.550155 -1.509965 -3.638395
v -3.550155 -1.509965 3.616657
v -3.550155 1.482957 3.616657
v -3.550155 1.482957 -3.638395
v -3.550155 -1.216092 3.616655
v -3.550155 -1.216092 -3.638395
v -3.550155 1.189084 3.616655
v -3.550155 1.189084 -3.638395
v 3.419353 -1.216092 -3.587543
v 3.419353 -1.216092 3.565805
v 3.419353 1.189084 -3.587543
v 3.419353 1.189084 3.565805
v 3.493474 -1.509965 3.616657
v 3.493474 -1.509965 -3.638395
v 3.493474 1.482957 -3.638395
v 3.493474 1.482957 3.616657
v 3.493474 -1.216092 -3.638395
v 3.493474 -1.216092 3.616655
v 3.493474 1.189084 -3.638395
v 3.493474 1.189084 3.616655
v 1.163357 -1.216092 7.019903
v -1.164635 -1.216092 7.019903
v 1.163357 1.189084 7.019903
v -1.164635 1.189084 7.019903
v -1.186875 -1.509965 7.148689
v 1.185597 -1.509965 7.148689
v 1.185597 1.482957 7.148689
v -1.186875 1.482957 7.148689
v 1.185597 -1.216092 7.148687
v -1.186875 -1.216092 7.148687
v 1.185597 1.189084 7.148687
v -1.186875 1.189084 7.148687
v -1.164635 -1.216092 -7.007601
v 1.163357 -1.216092 -7.007601
v -1.164635 1.189084 -7.007601
v 1.163357 1.189084 -7.007601
v 1.185597 -1.509965 -7.136386
v -1.186875 -1.509965 -7.136386
v -1.186875 1.482957 -7.136386
v 1.185597 1.482957 -7.136386
v -1.186875 -1.216092 -7.136385
v 1.185597 -1.216092 -7.136385
v -1.186875 1.189084 -7.136385
v 1.185597 1.189084 -7.136385
v -3.476035 -0.884739 -3.174220
v -3.476035 0.943653 -3.174220
v -3.476035 0.943653 -2.276427
v -3.476035 -0.884739 -2.276427
v -3.476035 -0.884739 -2.185286
v -3.476035 0.943653 -2.185286
v -3.476035 0.943653 -1.287493
v -3.476035 0.943653 -0.966418
v -3.476035 -0.884739 -1.287493
v -3.476035 0.943653 -0.068625
v -3.476035 -0.884739 -0.068625
v -3.476035 0.943653 0.920309
v -3.476035 0.943653 0.022515
v -3.476035 -0.884739 -0.966418
v -3.476035 -0.884739 0.920309
v -3.476035 -0.884739 0.022515
v -3.476035 0.943653 1.278692
v -3.476035 -0.884739 1.278692
v -3.476035 -0.884739 2.176487
v -3.476035 0.943653 2.267630
v -3.476035 0.943653 3.165422
v -3.476035 0.943653 2.176487
v -3.476035 -0.884739 3.165422
v -3.476035 -0.884739 2.267630
v 3.419353 -0.884739 2.176485
v 3.419353 0.943653 0.920307
v 3.419353 0.943653 -3.174222
v 3.419353 -0.884739 0.920307
v 3.419353 -0.884739 0.022514
v 3.419353 -0.884739 -3.174222
v 3.419353 -0.884739 1.278690
v 3.419353 0.943653 1.278690
v 3.419353 -0.884739 -2.276428
v 3.419353 0.943653 -2.276428
v 3.419353 0.943653 -1.287495
v 3.419353 0.943653 -0.966420
v 3.419353 0.943653 -2.185287
v 3.419353 -0.884739 -0.966420
v 3.419353 -0.884739 -0.068627
v 3.419353 -0.884739 3.165421
v 3.419353 0.943653 0.022514
v 3.419353 0.943653 3.165421
v 3.419353 -0.884739 2.267628
v 3.419353 -0.884739 -2.185287
v 3.419353 0.943653 2.267628
v 3.419353 0.943653 2.176485
v 3.419353 -0.883188 2.176485
v 3.419353 0.943653 -0.068627
v 3.419353 -0.884739 -1.287495
vt 0.709572 0.857438
vt 0.706848 0.853939
vt 0.796703 0.850931
vt 0.794340 0.853347
vt 0.793971 0.894967
vt 0.798132 0.898784
vt 0.710700 0.804779
vt 0.707911 0.801314
vt 0.795800 0.798658
vt 0.793417 0.801037
vt 0.792605 0.843038
vt 0.796716 0.846738
vt 0.711755 0.743361
vt 0.709002 0.740012
vt 0.794889 0.736177
vt 0.792514 0.738559
vt 0.791646 0.780647
vt 0.795730 0.784246
vt 0.712126 0.691889
vt 0.709350 0.688543
vt 0.794474 0.685346
vt 0.792115 0.687681
vt 0.790878 0.728968
vt 0.794844 0.732489
vt 0.712614 0.630680
vt 0.709895 0.627400
vt 0.793940 0.623762
vt 0.791610 0.626079
vt 0.790287 0.666622
vt 0.794174 0.670082
vt 0.712681 0.581292
vt 0.709989 0.577971
vt 0.794078 0.575838
vt 0.791811 0.578072
vt 0.790146 0.616450
vt 0.793826 0.619862
vt 0.949518 0.892349
vt 0.953529 0.895975
vt 0.861305 0.899666
vt 0.864952 0.896932
vt 0.949780 0.850381
vt 0.952055 0.848018
vt 0.948087 0.840568
vt 0.952043 0.844064
vt 0.862745 0.848449
vt 0.866406 0.845727
vt 0.948766 0.798323
vt 0.951056 0.795992
vt 0.946985 0.779015
vt 0.950908 0.782465
vt 0.863614 0.786179
vt 0.867224 0.783530
vt 0.947666 0.736972
vt 0.949931 0.734693
vt 0.946094 0.727560
vt 0.949886 0.730937
vt 0.864371 0.734738
vt 0.867932 0.732122
vt 0.947364 0.686292
vt 0.949628 0.684056
vt 0.945755 0.666123
vt 0.949393 0.669499
vt 0.864915 0.671891
vt 0.868310 0.669383
vt 0.946986 0.626964
vt 0.948958 0.624067
vt 0.945372 0.616107
vt 0.948962 0.619423
vt 0.865351 0.622577
vt 0.868737 0.620053
vt 0.947075 0.576846
vt 0.949286 0.574683
vt 0.975809 0.159194
vt 0.971850 0.054522
vt 0.975715 0.056169
vt 0.981102 0.161611
vt 0.855041 0.059681
vt 0.852933 0.164929
vt 0.847933 0.167357
vt 0.851171 0.061455
vt 0.445458 0.015715
vt 0.445458 0.000206
vt 0.557649 0.000206
vt 0.557649 0.015715
vt 0.589730 0.015715
vt 0.649411 0.109828
vt 0.649411 0.165621
vt 0.666786 0.165621
vt 0.666786 0.508704
vt 0.649411 0.508704
vt 0.649411 0.564497
vt 0.589729 0.658610
vt 0.557649 0.658610
vt 0.557649 0.675729
vt 0.445458 0.675729
vt 0.445458 0.658610
vt 0.413378 0.658610
vt 0.353696 0.564497
vt 0.353696 0.508704
vt 0.333702 0.508704
vt 0.333702 0.165621
vt 0.353696 0.165621
vt 0.353696 0.109828
vt 0.413378 0.015715
vt 0.806448 0.522860
vt 0.813872 0.468100
vt 0.817744 0.466316
vt 0.809925 0.521111
vt 0.964197 0.198253
vt 0.969469 0.201602
vt 0.862377 0.004969
vt 0.858905 0.006722
vt 0.869781 0.327190
vt 0.858169 0.366249
vt 0.852876 0.363831
vt 0.864508 0.323841
vt 0.978937 0.465762
vt 0.981044 0.360513
vt 0.986045 0.358086
vt 0.982807 0.463988
vt 0.862127 0.470922
vt 0.858263 0.469274
vt 0.111962 0.660219
vt 0.079882 0.660219
vt 0.020201 0.566106
vt 0.020201 0.510313
vt 0.000206 0.510313
vt 0.000206 0.167231
vt 0.020201 0.167231
vt 0.020201 0.111438
vt 0.079882 0.017325
vt 0.111962 0.017325
vt 0.111962 0.000206
vt 0.224153 0.000206
vt 0.224153 0.017325
vt 0.256234 0.017325
vt 0.315915 0.111438
vt 0.315915 0.167231
vt 0.333290 0.167231
vt 0.333290 0.510313
vt 0.315915 0.510313
vt 0.315915 0.566106
vt 0.256234 0.660219
vt 0.224153 0.660219
vt 0.224153 0.675729
vt 0.111962 0.675729
vt 0.966177 0.002996
vt 0.980795 0.000206
vt 0.990278 0.054910
vt 0.999794 0.357079
vt 0.996347 0.465258
vt 0.798023 0.003044
vt 0.812600 0.000206
vt 0.822266 0.054759
vt 0.807738 0.056075
vt 0.820029 0.360357
vt 0.833772 0.359226
vt 0.831276 0.467271
vt 0.826667 0.162328
vt 0.813566 0.161272
vt 0.806858 0.326762
vt 0.826388 0.327877
vt 0.994220 0.162719
vt 0.973369 0.324385
vt 0.992690 0.325710
vt 0.843102 0.330505
vt 0.839757 0.362724
vt 0.837631 0.060185
vt 0.834183 0.168364
vt 0.677514 0.333735
vt 0.698935 0.326916
vt 0.687403 0.366859
vt 0.674302 0.365804
vt 0.669693 0.060861
vt 0.683226 0.061816
vt 0.680940 0.167775
vt 0.667198 0.168906
vt 0.693230 0.472057
vt 0.678702 0.473372
vt 0.676136 0.005149
vt 0.691044 0.007021
vt 0.843700 0.470534
vt 0.845124 0.004856
vt 0.704173 0.330233
vt 0.692693 0.369252
vt 0.796796 0.197899
vt 0.808276 0.158880
vt 0.802034 0.201216
vt 0.687097 0.060032
vt 0.685916 0.165298
vt 0.803875 0.054447
vt 0.697094 0.473685
vt 0.815053 0.362834
vt 0.694521 0.005272
vt 0.971601 0.520475
vt 0.975073 0.518721
vt 0.794593 0.001511
vt 0.861872 0.932613
vt 0.842196 0.947201
vt 0.827074 0.921835
vt 0.846038 0.916404
vt 0.871232 0.523998
vt 0.867800 0.522448
vt 0.702946 0.525088
vt 0.688368 0.527926
vt 0.692001 0.536067
vt 0.705894 0.544813
vt 0.693713 0.561738
vt 0.679417 0.556057
vt 0.853182 0.525239
vt 0.865427 0.933572
vt 0.852018 0.916423
vt 0.988854 0.520588
vt 0.951494 0.543356
vt 0.969878 0.528338
vt 0.985652 0.552384
vt 0.967104 0.558248
vt 0.824834 0.522983
vt 0.787491 0.542476
vt 0.790847 0.543276
vt 0.808201 0.560508
vt 0.802544 0.560557
vt 0.866093 0.545008
vt 0.948134 0.542576
vt 0.961329 0.558376
vt 0.856238 0.561178
vt 0.706376 0.526621
vt 0.808980 0.528338
vt 0.826662 0.554852
vt 0.962746 0.001447
vt 0.799654 0.934199
vt 0.796257 0.935781
vt 0.807829 0.915760
vt 0.811922 0.915513
vt 0.802021 0.331368
vt 0.818995 0.217948
vt 0.812899 0.214140
vt 0.698948 0.196764
vt 0.694111 0.201369
vt 0.819272 0.307807
vt 0.831486 0.309931
vt 0.674582 0.200255
vt 0.681697 0.220325
vt 0.669483 0.218201
vt 0.860608 0.201058
vt 0.841288 0.199733
vt 0.990875 0.194937
vt 0.865559 0.196477
vt 0.978786 0.213041
vt 0.853184 0.214478
vt 0.823455 0.194397
vt 0.685635 0.216699
vt 0.815335 0.311432
vt 0.984949 0.216886
vt 0.834183 0.312057
vt 0.849029 0.308557
vt 0.968419 0.328966
vt 0.855191 0.312401
vt 0.686223 0.919411
vt 0.667198 0.924715
vt 0.826662 0.920846
vt 0.697601 0.561638
vt 0.692123 0.919498
vt 0.814709 0.942507
vt 0.709084 0.543496
vt 0.704019 0.938105
vt 0.684511 0.952894
vt 0.707592 0.939062
vt 0.852265 0.561293
vt 0.966855 0.913551
vt 0.971002 0.913328
vt 0.985652 0.918737
vt 0.838036 0.555643
vt 0.960222 0.929394
vt 0.956836 0.930972
vt 0.848682 0.537875
vt 0.862893 0.546389
vt 0.975342 0.937641
vt 0.688070 0.313992
vt 0.681974 0.310184
vt 0.667198 0.313895
vt 0.833771 0.214237
vt 0.836917 0.216074
vt 0.849150 0.218098
vt 0.999794 0.213386
vt 0.997061 0.309369
vt 0.984827 0.307344
vt 0.980793 0.310964
vt 0.867745 0.579993
vt 0.865136 0.576790
vt 0.863603 0.800287
vt 0.866280 0.803548
vt 0.713511 0.621035
vt 0.709980 0.623686
vt 0.710683 0.847209
vt 0.706842 0.850008
vt 0.708992 0.898992
vt 0.705138 0.901833
vt 0.711801 0.785232
vt 0.708018 0.787996
vt 0.865250 0.627097
vt 0.867613 0.629524
vt 0.864338 0.738398
vt 0.866992 0.741617
vt 0.709043 0.736260
vt 0.948870 0.624027
vt 0.867327 0.690270
vt 0.864657 0.687046
vt 0.713203 0.671343
vt 0.709579 0.674030
vt 0.712743 0.733538
vt 0.862778 0.852582
vt 0.865380 0.855872
vn 0.0000 0.0000 -1.0000
vn 0.0000 -1.0000 0.0000
vn 0.0000 0.0000 1.0000
vn 0.0000 1.0000 0.0000
vn -1.0000 -0.0000 0.0000
vn 0.8445 -0.0000 -0.5355
vn 1.0000 -0.0000 -0.0000
vn -0.8445 -0.0000 0.5355
vn 0.8445 -0.0000 0.5355
vn -0.8445 -0.0000 -0.5355
vn -0.8446 0.0000 -0.5355
vn 0.8446 0.0000 0.5355
vn -0.8446 0.0000 0.5355
vn 0.8446 0.0000 -0.5355
usemtl wall.1
s off
f 1/1/1 196/2/1 195/3/1 2/4/1
f 4/5/2 2/4/2 195/3/2 194/6/2
f 5/7/1 201/8/1 199/9/1 6/10/1
f 8/11/2 6/10/2 199/9/2 198/12/2
f 9/13/1 203/14/1 202/15/1 10/16/1
f 12/17/2 10/16/2 202/15/2 200/18/2
f 13/19/1 207/20/1 204/21/1 14/22/1
f 16/23/2 14/22/2 204/21/2 205/24/2
f 17/25/1 211/26/1 214/27/1 18/28/1
f 20/29/2 18/28/2 214/27/2 209/30/2
f 21/31/1 215/32/1 213/33/1 22/34/1
f 24/35/2 22/34/2 213/33/2 212/36/2
f 27/37/3 222/38/3 219/39/3 28/40/3
f 27/37/4 25/41/4 225/42/4 222/38/4
f 31/43/3 236/44/3 229/45/3 32/46/3
f 31/43/4 29/47/4 241/48/4 236/44/4
f 35/49/3 230/50/3 228/51/3 36/52/3
f 35/49/4 33/53/4 231/54/4 230/50/4
f 39/55/3 221/56/3 233/57/3 40/58/3
f 39/55/4 37/59/4 220/60/4 221/56/4
f 43/61/3 223/62/3 224/63/3 44/64/3
f 43/61/4 41/65/4 217/66/4 223/62/4
f 47/67/3 235/68/3 237/69/3 48/70/3
f 47/67/4 45/71/4 232/72/4 235/68/4
f 61/73/2 51/74/2 90/75/2 95/76/2
f 52/77/4 62/78/4 87/79/4 70/80/4
f 130/81/2 186/82/2 185/83/2 129/84/2 81/85/2 75/86/2 110/87/2 162/88/2 161/89/2 109/90/2 76/91/2 79/92/2 134/93/2 174/94/2 173/95/2 133/96/2 83/97/2 66/98/2 106/99/2 150/100/2 149/101/2 105/102/2 65/103/2 71/104/2
f 103/105/2 50/106/2 67/107/2 119/108/2
f 123/109/2 61/73/2 95/76/2 139/110/2
f 102/111/4 52/77/4 70/80/4 118/112/4
f 122/113/4 64/114/4 88/115/4 138/116/4
f 53/117/2 63/118/2 96/119/2 91/120/2
f 64/114/4 54/121/4 74/122/4 88/115/4
f 131/123/4 82/124/4 69/125/4 108/126/4 152/127/4 151/128/4 107/129/4 68/130/4 80/131/4 136/132/4 176/133/4 175/134/4 135/135/4 84/136/4 77/137/4 112/138/4 164/139/4 163/140/4 111/141/4 73/142/4 72/143/4 132/144/4 188/145/4 187/146/4
f 120/147/5 108/148/5 69/149/5 90/75/5
f 96/119/6 72/150/6 73/151/6 91/120/6
f 116/152/7 112/153/7 77/154/7 92/155/7
f 94/156/8 80/157/8 68/158/8 67/107/8
f 92/155/9 77/154/9 84/159/9 93/160/9
f 144/161/3 136/162/3 80/157/3 94/156/3
f 90/75/10 69/149/10 82/163/10 95/76/10
f 140/164/1 132/165/1 72/150/1 96/119/1
f 129/166/1 138/116/1 88/115/1 81/167/1
f 65/168/10 70/80/10 87/79/10 71/169/10
f 133/170/3 142/171/3 86/172/3 83/173/3
f 76/174/9 78/175/9 85/176/9 79/177/9
f 83/173/8 86/172/8 89/178/8 66/179/8
f 109/180/7 114/181/7 78/175/7 76/174/7
f 81/167/6 88/115/6 74/122/6 75/182/6
f 105/183/5 118/112/5 70/80/5 65/168/5
f 126/184/4 60/185/4 86/172/4 142/171/4
f 127/186/2 57/187/2 93/160/2 143/188/2
f 56/189/4 58/190/4 85/176/4 78/175/4
f 57/187/2 55/191/2 92/155/2 93/160/2
f 60/185/4 49/192/4 89/178/4 86/172/4
f 50/106/2 59/193/2 94/156/2 67/107/2
f 98/194/4 56/189/4 78/175/4 114/181/4
f 99/195/2 53/117/2 91/120/2 115/196/2
f 55/191/2 100/197/2 116/152/2 92/155/2
f 115/198/1 111/199/1 163/200/1 167/201/1
f 54/121/4 97/202/4 113/203/4 74/122/4
f 66/179/5 89/178/5 117/204/5 106/205/5
f 106/206/3 117/207/3 153/208/3 150/209/3
f 75/182/7 74/122/7 113/203/7 110/210/7
f 99/211/2 115/198/2 167/201/2 159/212/2
f 91/120/7 73/151/7 111/213/7 115/196/7
f 114/214/3 109/215/3 161/216/3 166/217/3
f 67/107/5 68/158/5 107/218/5 119/108/5
f 103/219/2 119/220/2 155/221/2 147/222/2
f 100/223/3 98/224/3 158/225/3 160/226/3
f 49/192/4 101/227/4 117/204/4 89/178/4
f 119/220/3 107/228/3 151/229/3 155/221/3
f 51/74/2 104/230/2 120/147/2 90/75/2
f 120/231/2 104/232/2 148/233/2 156/234/2
f 59/193/2 128/235/2 144/161/2 94/156/2
f 127/186/2 143/188/2 179/236/2 171/237/2
f 58/190/4 125/238/4 141/239/4 85/176/4
f 136/162/5 144/161/5 180/240/5 176/241/5
f 79/177/3 85/176/3 141/239/3 134/242/3
f 134/242/7 141/239/7 177/243/7 174/244/7
f 71/169/1 87/79/1 137/245/1 130/246/1
f 95/76/1 82/163/1 131/247/1 139/110/1
f 121/248/5 123/109/5 183/249/5 181/250/5
f 93/160/3 84/159/3 135/251/3 143/188/3
f 125/238/7 127/186/7 171/237/7 169/252/7
f 144/161/2 128/235/2 172/253/2 180/240/2
f 62/78/4 121/248/4 137/245/4 87/79/4
f 123/109/2 139/110/2 191/254/2 183/249/2
f 138/116/7 129/166/7 185/255/7 190/256/7
f 63/118/2 124/257/2 140/164/2 96/119/2
f 122/113/4 138/116/4 190/256/4 182/258/4
f 150/209/5 153/208/5 154/259/5 149/260/5
f 155/221/5 151/229/5 152/261/5 156/234/5
f 145/262/5 147/222/5 213/33/5 215/32/5
f 145/262/4 146/263/4 154/259/4 153/208/4
f 148/233/2 147/222/2 155/221/2 156/234/2
f 108/264/1 120/231/1 156/234/1 152/261/1
f 117/207/4 101/265/4 145/262/4 153/208/4
f 118/266/1 105/267/1 149/260/1 154/259/1
f 101/265/3 103/219/3 147/222/3 145/262/3
f 102/268/4 118/266/4 154/259/4 146/263/4
f 104/232/1 102/268/1 146/263/1 148/233/1
f 160/226/2 159/212/2 167/201/2 168/269/2
f 157/270/4 158/225/4 166/217/4 165/271/4
f 162/272/7 165/271/7 166/217/7 161/216/7
f 167/201/7 163/200/7 164/273/7 168/269/7
f 157/270/7 159/212/7 219/39/7 222/38/7
f 113/274/4 97/275/4 157/270/4 165/271/4
f 112/276/3 116/277/3 168/269/3 164/273/3
f 97/275/1 99/211/1 159/212/1 157/270/1
f 98/224/4 114/214/4 166/217/4 158/225/4
f 110/278/1 113/274/1 165/271/1 162/272/1
f 116/277/2 100/223/2 160/226/2 168/269/2
f 172/253/2 171/237/2 179/236/2 180/240/2
f 169/252/4 170/279/4 178/280/4 177/243/4
f 174/244/3 177/243/3 178/280/3 173/281/3
f 179/236/3 175/282/3 176/241/3 180/240/3
f 169/252/3 171/237/3 172/253/3 170/279/3
f 128/235/5 126/184/5 170/279/5 172/253/5
f 142/171/5 133/170/5 173/281/5 178/280/5
f 141/239/4 125/238/4 169/252/4 177/243/4
f 126/184/4 142/171/4 178/280/4 170/279/4
f 143/188/7 135/251/7 175/282/7 179/236/7
f 186/283/1 189/284/1 190/256/1 185/255/1
f 191/254/1 187/285/1 188/286/1 192/287/1
f 181/250/4 182/258/4 190/256/4 189/284/4
f 181/250/1 183/249/1 184/288/1 182/258/1
f 184/288/2 183/249/2 191/254/2 192/287/2
f 139/110/5 131/247/5 187/285/5 191/254/5
f 124/257/7 122/113/7 182/258/7 184/288/7
f 132/165/7 140/164/7 192/287/7 188/286/7
f 137/245/4 121/248/4 181/250/4 189/284/4
f 130/246/5 137/245/5 189/284/5 186/283/5
f 140/164/2 124/257/2 184/288/2 192/287/2
f 232/72/1 45/71/1 46/289/1 234/290/1
f 227/291/2 30/292/2 32/46/2 229/45/2
f 215/32/4 21/31/4 23/293/4 216/294/4
f 201/8/4 5/7/4 7/295/4 197/296/4
f 197/296/3 7/295/3 8/11/3 198/12/3
f 196/2/4 1/1/4 3/297/4 193/298/4
f 203/14/4 9/13/4 11/299/4 206/300/4
f 238/301/2 42/302/2 44/64/2 224/63/2
f 240/303/2 34/304/2 36/52/2 228/51/2
f 216/294/3 23/293/3 24/35/3 212/36/3
f 205/24/5 202/15/5 203/14/5 208/305/5
f 217/66/1 41/65/1 42/302/1 238/301/1 239/306/1
f 238/301/7 237/69/7 235/68/7 239/306/7
f 220/60/1 37/59/1 38/307/1 218/308/1
f 241/48/1 29/47/1 30/292/1 227/291/1
f 218/308/2 38/307/2 40/58/2 233/57/2
f 211/26/4 17/25/4 19/309/4 210/310/4
f 210/310/3 19/309/3 20/29/3 209/30/3
f 206/300/3 11/299/3 12/17/3 200/18/3
f 208/305/3 15/311/3 16/23/3 205/24/3
f 226/312/2 26/313/2 28/40/2 219/39/2
f 231/54/1 33/53/1 34/304/1 240/303/1
f 193/298/3 3/297/3 4/5/3 194/6/3
f 207/20/4 13/19/4 15/311/4 208/305/4
f 234/290/2 46/289/2 48/70/2 237/69/2
f 225/42/1 25/41/1 26/313/1 226/312/1
f 146/263/5 193/298/5 194/6/5 148/233/5
f 146/263/5 145/262/5 215/32/5 216/294/5 211/26/5 210/310/5 207/20/5 208/305/5 203/14/5 206/300/5 201/8/5 197/296/5 196/2/5 193/298/5
f 158/225/7 232/72/7 234/290/7 160/226/7
f 158/225/7 157/270/7 222/38/7 225/42/7 236/44/7 241/48/7 230/50/7 231/54/7 221/56/7 220/60/7 223/62/7 217/66/7 239/306/7 235/68/7 232/72/7
f 218/308/7 224/63/7 223/62/7 220/60/7
f 240/303/7 233/57/7 221/56/7 231/54/7
f 227/291/7 228/51/7 230/50/7 241/48/7
f 226/312/7 229/45/7 236/44/7 225/42/7
f 160/226/7 234/290/7 237/69/7 238/301/7 224/63/7 218/308/7 233/57/7 240/303/7 228/51/7 227/291/7 229/45/7 226/312/7 219/39/7 159/212/7
f 200/18/5 199/9/5 201/8/5 206/300/5
f 198/12/5 195/3/5 196/2/5 197/296/5
f 209/30/5 204/21/5 207/20/5 210/310/5
f 212/36/5 214/27/5 211/26/5 216/294/5
f 148/233/5 194/6/5 195/3/5 198/12/5 199/9/5 200/18/5 202/15/5 205/24/5 204/21/5 209/30/5 214/27/5 212/36/5 213/33/5 147/222/5
usemtl window.1
f 3/297/5 1/1/5 2/4/5 4/5/5
f 7/295/5 5/7/5 6/10/5 8/11/5
f 11/299/5 9/13/5 10/16/5 12/17/5
f 15/311/5 13/19/5 14/22/5 16/23/5
f 19/309/5 17/25/5 18/28/5 20/29/5
f 23/293/5 21/31/5 22/34/5 24/35/5
f 25/41/7 27/37/7 28/40/7 26/313/7
f 29/47/7 31/43/7 32/46/7 30/292/7
f 33/53/7 35/49/7 36/52/7 34/304/7
f 37/59/7 39/55/7 40/58/7 38/307/7
f 41/65/7 43/61/7 44/64/7 42/302/7
f 45/71/7 47/67/7 48/70/7 46/289/7
usemtl wall9
f 122/113/1 124/257/1 63/118/1 64/114/1
f 52/77/11 51/74/11 61/73/11 62/78/11
f 126/184/3 128/235/3 59/193/3 60/185/3
f 56/189/12 55/191/12 57/187/12 58/190/12
f 60/185/13 59/193/13 50/106/13 49/192/13
f 98/194/7 100/197/7 55/191/7 56/189/7
f 64/114/14 63/118/14 53/117/14 54/121/14
f 102/111/5 104/230/5 51/74/5 52/77/5
f 49/192/5 50/106/5 103/105/5 101/227/5
f 54/121/7 53/117/7 99/195/7 97/202/7
f 58/190/3 57/187/3 127/186/3 125/238/3
f 62/78/1 61/73/1 123/109/1 121/248/1
