# Blender v2.80 (sub 75) OBJ File: 'untitled.blend'
# www.blender.org
mtllib buildingK1.mtl
o Cube.018_Cube.020
v -13.303354 -39.972561 18.317543
v -11.699455 -4.899010 16.109108
v -13.303354 -39.972561 -18.317612
v -11.699455 -4.899010 -16.109184
v 13.303320 -39.972561 18.317543
v 11.699419 -4.899010 16.109108
v 13.303320 -39.972561 -18.317612
v 11.699419 -4.899010 -16.109184
v -13.303354 -4.899010 18.317543
v -13.303354 -4.899010 -18.317612
v 13.303320 -4.899010 -18.317612
v 13.303320 -4.899010 18.317543
v -11.097742 -2.043423 15.280586
v -11.097742 -2.043423 -15.280670
v 11.097708 -2.043423 -15.280670
v 11.097708 -2.043423 15.280586
v -11.699455 -2.043423 16.109108
v -11.699455 -2.043423 -16.109184
v 11.699419 -2.043423 -16.109184
v 11.699419 -2.043423 16.109108
v -10.464334 -4.029762 14.408440
v -10.464334 -4.029762 -14.408524
v 10.464300 -4.029762 -14.408524
v 10.464300 -4.029762 14.408440
v -11.097742 -4.029762 15.280586
v -11.097742 -4.029762 -15.280670
v 11.097708 -4.029762 -15.280670
v 11.097708 -4.029762 15.280586
v -10.464334 -1.305447 14.408440
v -10.464334 -1.305447 -14.408524
v 10.464300 -1.305447 -14.408524
v 10.464300 -1.305447 14.408440
v -11.651754 -1.001209 16.043419
v -11.651754 -1.001209 -16.043495
v 11.651720 -1.001209 -16.043495
v 11.651720 -1.001209 16.043419
v -11.651754 -0.229034 16.043419
v -11.651754 -0.229034 -16.043495
v 11.651720 -0.229034 -16.043495
v 11.651720 -0.229034 16.043419
v -13.289740 -0.219494 18.298790
v -13.289740 -0.219494 -18.298866
v 13.289705 -0.219494 -18.298866
v 13.289705 -0.219494 18.298790
v -12.570063 16.540794 17.866310
v -12.570063 16.540794 -17.866371
v 12.570028 16.540794 -17.866371
v 12.570028 16.540794 17.866310
v -13.303354 -39.972561 -17.293785
v -13.303354 -39.972561 -16.459297
v -13.303354 -39.972561 16.459282
v -13.303354 -39.972561 17.293724
v -13.303354 -4.899010 17.293724
v -13.303354 -4.899010 16.459282
v -13.303354 -4.899010 -16.459297
v -13.303354 -4.899010 -17.293785
v -13.289740 -0.219494 17.276024
v -13.289740 -0.219494 16.442436
v -13.289740 -0.219494 -16.442436
v -13.289740 -0.219494 -17.276077
v -12.570063 16.540794 17.643791
v -12.570063 16.540794 16.074669
v -12.570063 16.540794 -16.074661
v -12.570063 16.540794 -17.643852
v 13.303320 -39.972561 17.293724
v 13.303320 -39.972561 16.459282
v 13.303320 -39.972561 -16.459297
v 13.303320 -39.972561 -17.293785
v 13.303320 -4.899010 -17.293785
v 13.303320 -4.899010 -16.459297
v 13.303320 -4.899010 16.459282
v 13.303320 -4.899010 17.293724
v 13.289705 -0.219494 -17.276077
v 13.289705 -0.219494 -16.442436
v 13.289705 -0.219494 16.442436
v 13.289705 -0.219494 17.276024
v 12.570028 16.540794 -17.643852
v 12.570028 16.540794 -16.074661
v 12.570028 16.540794 16.074669
v 12.570028 16.540794 17.643791
v -12.700541 -39.972561 -17.293785
v -12.700541 -39.972561 -16.459297
v -12.700541 -39.972561 16.459282
v -12.700541 -39.972561 17.293724
v -12.700541 -4.899010 17.293724
v -12.700541 -4.899010 16.459282
v -12.700541 -4.899010 -16.459297
v -12.700541 -4.899010 -17.293785
v -12.686926 -0.219494 17.276024
v -12.686926 -0.219494 16.442436
v -12.686926 -0.219494 -16.442436
v -12.686926 -0.219494 -17.276077
v -11.988199 16.540794 17.643791
v -11.988199 16.540794 16.074669
v -11.988199 16.540794 -16.074661
v -11.988199 16.540794 -17.643852
v 12.700506 -39.972561 17.293724
v 12.700506 -39.972561 16.459282
v 12.700506 -39.972561 -16.459297
v 12.700506 -39.972561 -17.293785
v 12.700506 -4.899010 -17.293785
v 12.700506 -4.899010 -16.459297
v 12.700506 -4.899010 16.459282
v 12.700506 -4.899010 17.293724
v 12.686892 -0.219494 -17.276077
v 12.686892 -0.219494 -16.442436
v 12.686892 -0.219494 16.442436
v 12.686892 -0.219494 17.276024
v 11.988165 16.540794 -17.643852
v 11.988165 16.540794 -16.074661
v 11.988165 16.540794 16.074669
v 11.988165 16.540794 17.643791
v -13.289740 16.540794 -17.276077
v -13.289740 16.540794 -18.298866
v 13.289705 16.540794 -18.298866
v 13.289705 16.540794 17.276024
v 13.289705 16.540794 18.298790
v -13.289740 16.540794 18.298790
v -13.289740 16.540794 17.276024
v -13.289740 16.540794 16.442436
v -13.289740 16.540794 -16.442436
v 13.289705 16.540794 -17.276077
v 13.289705 16.540794 -16.442436
v 13.289705 16.540794 16.442436
v -12.686926 16.540794 17.276024
v -12.686926 16.540794 16.442436
v -12.686926 16.540794 -16.442436
v -12.686926 16.540794 -17.276077
v 12.686892 16.540794 -17.276077
v 12.686892 16.540794 -16.442436
v 12.686892 16.540794 16.442436
v 12.686892 16.540794 17.276024
v -12.570063 15.925423 -17.643852
v -12.570063 15.925423 -17.866371
v 12.570028 15.925423 -17.866371
v 12.570028 15.925423 17.643791
v 12.570028 15.925423 17.866310
v -12.570063 15.925423 17.866310
v -12.570063 15.925423 17.643791
v -12.570063 15.925423 16.074669
v -12.570063 15.925423 -16.074661
v 12.570028 15.925423 -17.643852
v 12.570028 15.925423 -16.074661
v 12.570028 15.925423 16.074669
v -11.988199 15.925423 17.643791
v -11.988199 15.925423 16.074669
v -11.988199 15.925423 -16.074661
v -11.988199 15.925423 -17.643852
v 11.988165 15.925423 -17.643852
v 11.988165 15.925423 -16.074661
v 11.988165 15.925423 16.074669
v 11.988165 15.925423 17.643791
vt 0.479993 0.755378
vt 0.300043 0.679393
vt 0.301590 0.677286
vt 0.482894 0.748331
vt 0.322543 0.516019
vt 0.532057 0.515483
vt 0.526218 0.253195
vt 0.300827 0.229377
vt 0.301621 0.226310
vt 0.527054 0.244448
vt 0.222479 0.027597
vt 0.532057 0.000117
vt 0.283175 0.679659
vt 0.301317 0.505588
vt 0.279168 0.237026
vt 0.207012 0.051437
vt 0.211618 0.506009
vt 0.197779 0.662107
vt 0.177348 0.652354
vt 0.194188 0.512013
vt 0.193335 0.510073
vt 0.112124 0.501153
vt 0.113255 0.494547
vt 0.138678 0.081819
vt 0.184457 0.257441
vt 0.159279 0.255675
vt 0.123499 0.075103
vt 0.132374 0.882021
vt 0.131429 0.886907
vt 0.039084 0.881338
vt 0.039424 0.875703
vt 0.074973 0.293700
vt 0.000117 0.120879
vt 0.089501 0.655310
vt 0.178107 0.655342
vt 0.089814 0.662398
vt 0.113700 0.492210
vt 0.192555 0.506932
vt 0.184661 0.665751
vt 0.131780 0.865587
vt 0.039998 0.864543
vt 0.090503 0.672744
vt 0.184491 0.658602
vt 0.090110 0.666605
vt 0.411126 0.999883
vt 0.229021 0.908616
vt 0.230623 0.903744
vt 0.413791 0.994566
vt 0.418939 0.984222
vt 0.239183 0.890325
vt 0.298167 0.689239
vt 0.475733 0.765621
vt 0.114942 0.485020
vt 0.190846 0.499242
vt 0.191914 0.502807
vt 0.114257 0.489055
vt 0.161217 0.258377
vt 0.078200 0.300379
vt 0.170396 0.266958
vt 0.083033 0.310047
vt 0.322782 0.512906
vt 0.531895 0.507254
vt 0.081839 0.307591
vt 0.173620 0.262632
vt 0.531545 0.495314
vt 0.328460 0.496112
vt 0.303967 0.243640
vt 0.524966 0.265958
vt 0.090350 0.670123
vt 0.188045 0.663368
vt 0.324557 0.509053
vt 0.531746 0.502351
vt 0.132259 0.871251
vt 0.039762 0.869193
vt 0.531623 0.498320
vt 0.325331 0.502549
vt 0.039587 0.872945
vt 0.130896 0.878218
vt 0.304592 0.239369
vt 0.525479 0.260636
vt 0.233061 0.899080
vt 0.415897 0.990324
vt 0.525894 0.256352
vt 0.303671 0.232229
vt 0.417637 0.986819
vt 0.236246 0.894948
vt 0.299936 0.687316
vt 0.477502 0.761346
vt 0.712442 0.261036
vt 0.711571 0.269084
vt 0.708134 0.270364
vt 0.707587 0.258928
vt 0.478927 0.757905
vt 0.300676 0.682181
vt 0.168910 0.258454
vt 0.149929 0.872236
vt 0.220094 0.887047
vt 0.773759 0.459046
vt 0.773759 0.454959
vt 0.768101 0.454959
vt 0.768101 0.459046
vt 0.544892 0.459046
vt 0.544892 0.454959
vt 0.539234 0.454959
vt 0.539234 0.459046
vt 0.532292 0.459046
vt 0.532292 0.278636
vt 0.539234 0.278636
vt 0.539234 0.282724
vt 0.544892 0.282724
vt 0.544892 0.278636
vt 0.768101 0.278636
vt 0.768101 0.282724
vt 0.773759 0.282724
vt 0.773759 0.278636
vt 0.780701 0.278636
vt 0.780701 0.459046
vt 0.080194 0.304314
vt 0.541441 0.264954
vt 0.542176 0.267835
vt 0.535240 0.270857
vt 0.534172 0.262170
vt 0.714948 0.274601
vt 0.721343 0.278402
vt 0.717052 0.037717
vt 0.716746 0.035702
vt 0.722687 0.033374
vt 0.722544 0.040197
vt 0.544248 0.004161
vt 0.539645 0.000117
vt 0.539496 0.009403
vt 0.540021 0.011397
vt 0.533303 0.015673
vt 0.532292 0.006042
vt 0.541365 0.024589
vt 0.539193 0.250342
vt 0.533065 0.253618
vt 0.536405 0.022327
vt 0.715418 0.272171
vt 0.722687 0.269828
vt 0.716331 0.259138
vt 0.717359 0.048820
vt 0.722627 0.046714
vt 0.721126 0.261899
vt 0.544865 0.013759
vt 0.544894 0.022271
vt 0.539690 0.021988
vt 0.538288 0.015256
vt 0.543944 0.252350
vt 0.545274 0.261157
vt 0.538957 0.261508
vt 0.537292 0.253847
vt 0.717693 0.261959
vt 0.718007 0.268961
vt 0.714051 0.047017
vt 0.713993 0.039994
vt 0.718630 0.040420
vt 0.719118 0.046231
vt 0.713414 0.037008
vt 0.543629 0.007530
vt 0.543650 0.009109
vt 0.548748 0.011448
vt 0.711192 0.048848
vt 0.709966 0.038569
vt 0.713489 0.037596
vt 0.714171 0.050728
vt 0.545909 0.026722
vt 0.542713 0.247617
vt 0.551101 0.261993
vt 0.546450 0.264165
vt 0.710973 0.272565
vt 0.711218 0.272012
vt 0.547413 0.249811
vt 0.712085 0.256429
vt 0.546689 0.264937
vt 0.549577 0.023846
vt 0.278210 0.507207
vt 0.256591 0.241674
vt 0.250168 0.245449
vt 0.272330 0.504800
vt 0.255486 0.505435
vt 0.234025 0.249068
vt 0.196674 0.880584
vt 0.260170 0.674686
vt 0.190684 0.058204
vt 0.194921 0.875497
vt 0.255444 0.675313
vt 0.184522 0.067567
vt 0.167391 0.080944
vt 0.227022 0.253164
vt 0.202514 0.258575
vt 0.156550 0.084348
vt 0.179167 0.870729
vt 0.238547 0.672392
vt 0.173961 0.071509
vt 0.177301 0.865402
vt 0.233359 0.673131
vt 0.249057 0.502785
vt 0.229892 0.501791
vt 0.217702 0.506230
vt 0.191436 0.256128
vt 0.212682 0.669117
vt 0.166844 0.862684
vt 0.146235 0.080043
vt 0.153872 0.873176
vt 0.202460 0.662812
vn -1.0000 0.0000 0.0000
vn 0.0000 0.0000 -1.0000
vn 1.0000 0.0000 0.0000
vn 0.0000 0.0000 1.0000
vn 0.0000 1.0000 -0.0000
vn 0.0000 -1.0000 -0.0042
vn 0.0000 -1.0000 0.0042
vn 0.0059 -1.0000 0.0000
vn -0.0059 -1.0000 0.0000
vn 0.0000 -1.0000 0.0000
vn 0.2482 -0.9687 0.0000
vn -0.2482 -0.9687 0.0000
vn 0.0000 -0.9831 0.1829
vn 0.0000 -0.9831 -0.1829
usemtl wall.2
s off
f 49/1/1 56/2/1 10/3/1 3/4/1
f 3/4/2 10/3/2 11/5/2 7/6/2
f 65/7/3 72/8/3 12/9/3 5/10/3
f 5/10/4 12/9/4 9/11/4 1/12/4
f 4/13/5 8/14/5 11/5/5 10/3/5
f 6/15/5 2/16/5 9/11/5 12/9/5
f 39/17/6 38/18/6 42/19/6 43/20/6
f 73/21/3 43/20/3 115/22/3 122/23/3
f 37/24/7 40/25/7 44/26/7 41/27/7
f 57/28/1 41/29/1 118/30/1 119/31/1
f 41/27/4 44/26/4 117/32/4 118/33/4
f 43/20/2 42/19/2 114/34/2 115/22/2
f 42/19/1 60/35/1 113/36/1 114/34/1
f 73/21/4 122/23/4 129/37/4 105/38/4
f 59/39/1 58/40/1 120/41/1 121/42/1
f 113/36/4 60/35/4 92/43/4 128/44/4
f 1/45/1 9/46/1 53/47/1 52/48/1
f 51/49/1 54/50/1 55/51/1 50/52/1
f 123/53/2 74/54/2 106/55/2 130/56/2
f 44/26/3 76/57/3 116/58/3 117/32/3
f 75/59/3 74/54/3 123/53/3 124/60/3
f 7/6/3 11/5/3 69/61/3 68/62/3
f 75/59/4 124/60/4 131/63/4 107/64/4
f 67/65/3 70/66/3 71/67/3 66/68/3
f 59/39/2 121/42/2 127/69/2 91/70/2
f 68/62/4 69/61/4 101/71/4 100/72/4
f 120/41/4 58/40/4 90/73/4 126/74/4
f 70/66/2 67/65/2 99/75/2 102/76/2
f 57/28/2 119/31/2 125/77/2 89/78/2
f 66/68/4 71/67/4 103/79/4 98/80/4
f 52/48/2 53/47/2 85/81/2 84/82/2
f 72/8/2 65/7/2 97/83/2 104/84/2
f 54/50/4 51/49/4 83/85/4 86/86/4
f 50/52/2 55/51/2 87/87/2 82/88/2
f 110/89/1 109/90/1 149/91/1 150/92/1
f 56/2/4 49/1/4 81/93/4 88/94/4
f 40/25/8 39/17/8 43/20/8 73/21/8 105/38/8 106/55/8 74/54/8 75/59/8 107/64/8 108/95/8 76/57/8 44/26/8
f 38/18/9 37/96/9 41/29/9 57/28/9 89/78/9 90/73/9 58/40/9 59/39/9 91/70/9 92/43/9 60/35/9 42/19/9
f 72/8/5 104/84/5 103/79/5 71/67/5 70/66/5 102/76/5 101/71/5 69/61/5 11/5/5 8/14/5 6/15/5 12/9/5
f 56/2/5 88/94/5 87/87/5 55/51/5 54/50/5 86/86/5 85/81/5 53/47/5 9/46/5 2/97/5 4/13/5 10/3/5
f 52/98/10 84/99/10 83/100/10 51/101/10 50/102/10 82/103/10 81/104/10 49/105/10 3/106/10 7/107/10 68/108/10 100/109/10 99/110/10 67/111/10 66/112/10 98/113/10 97/114/10 65/115/10 5/116/10 1/117/10
f 116/58/2 76/57/2 108/95/2 132/118/2
f 64/119/5 46/120/5 114/121/5 113/122/5
f 46/120/5 47/123/5 115/124/5 114/121/5
f 80/125/5 48/126/5 117/127/5 116/128/5
f 48/126/5 45/129/5 118/130/5 117/127/5
f 45/131/5 61/132/5 119/133/5 118/134/5
f 62/135/5 63/136/5 121/137/5 120/138/5
f 47/123/5 77/139/5 122/140/5 115/124/5
f 78/141/5 79/142/5 124/143/5 123/144/5
f 93/145/5 94/146/5 126/147/5 125/148/5
f 95/149/5 96/150/5 128/151/5 127/152/5
f 109/90/5 110/89/5 130/153/5 129/154/5
f 111/155/5 112/156/5 132/157/5 131/158/5
f 79/142/5 111/155/5 131/158/5 124/143/5
f 96/150/5 64/119/5 113/122/5 128/151/5
f 63/136/5 95/149/5 127/152/5 121/137/5
f 110/89/5 78/141/5 123/144/5 130/153/5
f 77/139/5 109/90/5 129/154/5 122/140/5
f 94/146/5 62/135/5 120/138/5 126/147/5
f 61/132/5 93/145/5 125/148/5 119/133/5
f 112/156/5 80/125/5 116/128/5 132/157/5
f 45/129/2 48/126/2 137/159/2 138/160/2
f 93/145/4 61/132/4 139/161/4 145/162/4
f 112/156/1 111/155/1 151/163/1 152/164/1
f 61/132/3 45/131/3 138/160/3 139/161/3
f 80/125/4 112/156/4 152/164/4 136/165/4
f 111/155/2 79/142/2 144/166/2 151/163/2
f 63/136/3 62/135/3 140/167/3 141/168/3
f 64/119/2 96/150/2 148/169/2 133/170/2
f 77/139/1 47/123/1 135/171/1 142/172/1
f 95/149/4 63/136/4 141/168/4 147/173/4
f 79/142/1 78/141/1 143/174/1 144/166/1
f 46/120/3 64/119/3 133/170/3 134/175/3
f 78/141/4 110/89/4 150/92/4 143/174/4
f 94/146/3 93/145/3 145/162/3 146/176/3
f 47/123/4 46/120/4 134/175/4 135/171/4
f 109/90/2 77/139/2 142/172/2 149/91/2
f 96/150/3 95/149/3 147/173/3 148/169/3
f 48/126/1 80/125/1 136/165/1 137/159/1
f 62/135/2 94/146/2 146/176/2 140/167/2
usemtl rooftop.1
f 152/164/5 145/162/5 139/161/5 138/160/5 137/159/5 136/165/5
f 147/173/5 141/168/5 140/167/5 146/176/5
f 151/163/5 146/176/5 145/162/5 152/164/5
f 148/169/5 147/173/5 150/92/5 149/91/5
f 133/170/5 148/169/5 149/91/5 142/172/5 135/171/5 134/175/5
f 150/92/5 147/173/5 146/176/5 151/163/5
f 143/174/5 150/92/5 151/163/5 144/166/5
usemtl road.1
f 6/15/3 8/14/3 19/177/3 20/178/3
f 16/179/1 15/180/1 27/181/1 28/182/1
f 4/13/1 2/97/1 17/183/1 18/184/1
f 2/16/4 6/15/4 20/178/4 17/185/4
f 8/14/2 4/13/2 18/184/2 19/177/2
f 13/186/5 14/187/5 18/184/5 17/183/5
f 14/187/5 15/180/5 19/177/5 18/184/5
f 15/180/5 16/179/5 20/178/5 19/177/5
f 16/179/5 13/188/5 17/185/5 20/178/5
f 21/189/4 24/190/4 32/191/4 29/192/4
f 14/187/3 13/186/3 25/193/3 26/194/3
f 13/188/2 16/179/2 28/182/2 25/195/2
f 15/180/4 14/187/4 26/194/4 27/181/4
f 21/196/5 22/197/5 26/194/5 25/193/5
f 22/197/5 23/198/5 27/181/5 26/194/5
f 23/198/5 24/190/5 28/182/5 27/181/5
f 24/190/5 21/189/5 25/195/5 28/182/5
f 32/191/11 31/199/11 35/200/11 36/201/11
f 23/198/2 22/197/2 30/202/2 31/199/2
f 24/190/3 23/198/3 31/199/3 32/191/3
f 22/197/1 21/196/1 29/203/1 30/202/1
f 33/204/4 36/201/4 40/25/4 37/24/4
f 30/202/12 29/203/12 33/205/12 34/206/12
f 29/192/13 32/191/13 36/201/13 33/204/13
f 31/199/14 30/202/14 34/206/14 35/200/14
f 35/200/2 34/206/2 38/18/2 39/17/2
f 36/201/3 35/200/3 39/17/3 40/25/3
f 34/206/1 33/205/1 37/96/1 38/18/1
usemtl light.1
f 92/43/1 91/70/1 127/69/1 128/44/1
f 90/73/1 89/78/1 125/77/1 126/74/1
f 84/82/1 85/81/1 86/86/1 83/85/1
f 82/88/1 87/87/1 88/94/1 81/93/1
f 108/95/3 107/64/3 131/63/3 132/118/3
f 106/55/3 105/38/3 129/37/3 130/56/3
f 100/72/3 101/71/3 102/76/3 99/75/3
f 98/80/3 103/79/3 104/84/3 97/83/3
