# Blender v2.80 (sub 75) OBJ File: 'untitled.blend'
# www.blender.org
mtllib buildingO1.mtl
o Cube.012_Cube.007
v 1.000000 -1.148424 1.010885
v 1.000000 0.851576 1.010885
v -1.000000 -1.148424 1.010885
v -1.000000 0.851576 1.010885
v 1.000000 -1.148424 -0.989115
v 1.000000 -0.144253 -0.989115
v -1.000000 -1.148424 -0.989115
v -1.000000 -0.144253 -0.989115
v 1.050135 0.889894 1.054371
v -1.050135 0.889894 1.054371
v -1.050135 -0.155861 -1.045900
v 1.050135 -0.155861 -1.045900
v 1.050135 0.950623 1.024134
v -1.050135 0.950623 1.024134
v -1.050135 -0.095133 -1.076138
v 1.050135 -0.095133 -1.076138
vt 0.375000 0.000000
vt 0.625000 0.000000
vt 0.625000 0.250000
vt 0.375000 0.250000
vt 0.625000 0.500000
vt 0.375000 0.500000
vt 0.625000 0.750000
vt 0.375000 0.750000
vt 0.625000 1.000000
vt 0.375000 1.000000
vt 0.125000 0.500000
vt 0.125000 0.750000
vt 0.625000 0.500000
vt 0.625000 0.750000
vt 0.625000 1.000000
vt 0.625000 0.750000
vt 0.625000 1.000000
vt 0.625000 0.000000
vt 0.625000 0.250000
vt 0.625000 0.500000
vt 0.875000 0.500000
vt 0.875000 0.750000
vt 0.625000 0.250000
vt 0.625000 0.000000
vn 0.0000 0.0000 1.0000
vn -1.0000 0.0000 0.0000
vn 0.0000 0.0000 -1.0000
vn 1.0000 0.0000 0.0000
vn 0.0000 -1.0000 0.0000
vn 0.0000 -0.9797 0.2003
vn 0.0000 -0.7503 0.6611
vn 0.2852 -0.8580 0.4272
vn -0.2852 -0.8580 0.4272
vn 0.0000 0.8952 -0.4457
vn 0.0000 -0.4457 -0.8952
vn 0.0000 0.4457 0.8952
usemtl wall.1
s off
f 1/1/1 2/2/1 4/3/1 3/4/1
f 3/4/2 4/3/2 8/5/2 7/6/2
f 7/6/3 8/5/3 6/7/3 5/8/3
f 5/8/4 6/7/4 2/9/4 1/10/4
f 3/11/5 7/6/5 5/8/5 1/12/5
f 6/7/6 8/5/6 11/13/6 12/14/6
f 9/15/4 12/14/4 16/16/4 13/17/4
f 4/3/7 2/2/7 9/18/7 10/19/7
f 2/9/8 6/7/8 12/14/8 9/15/8
f 8/5/9 4/3/9 10/19/9 11/13/9
f 15/20/10 14/21/10 13/22/10 16/16/10
f 11/13/2 10/19/2 14/23/2 15/20/2
f 12/14/11 11/13/11 15/20/11 16/16/11
f 10/19/12 9/18/12 13/24/12 14/23/12
