# Blender v2.80 (sub 75) OBJ File: 'untitled.blend'
# www.blender.org
mtllib buildingA2.mtl
o Cube.006_Cube.013
v -4.374978 -1.056447 2.364981
v -4.374978 0.983786 2.364981
v -4.374978 -1.056447 0.956518
v -4.374978 0.983786 0.956518
v -4.374979 -1.056447 3.932911
v -4.374979 0.983786 3.932911
v -4.374979 -1.056447 2.524447
v -4.374979 0.983786 2.524447
v -4.374978 -1.056447 -2.630438
v -4.374978 0.983786 -2.630438
v -4.374978 -1.056447 -4.038900
v -4.374978 0.983786 -4.038900
v -4.374979 -1.056447 -1.062508
v -4.374979 0.983786 -1.062508
v -4.374979 -1.056447 -2.470970
v -4.374979 0.983786 -2.470970
v -2.402384 -1.004081 -7.164604
v -2.402384 1.036153 -7.164604
v -0.811242 -1.004081 -7.164604
v -0.811242 1.036153 -7.164604
v 0.816004 -1.004081 -7.164606
v 0.816004 1.036153 -7.164606
v 2.407145 -1.004081 -7.164606
v 2.407145 1.036153 -7.164606
v 4.357826 -1.056447 2.364981
v 4.357826 0.983786 2.364981
v 4.357826 -1.056447 0.956518
v 4.357826 0.983786 0.956518
v 4.357826 -1.056447 3.932910
v 4.357826 0.983786 3.932910
v 4.357826 -1.056447 2.524446
v 4.357826 0.983786 2.524446
v 4.357826 -1.056447 -2.630438
v 4.357826 0.983786 -2.630438
v 4.357826 -1.056447 -4.038900
v 4.357826 0.983786 -4.038900
v 4.357826 -1.056447 -1.062510
v 4.357826 0.983786 -1.062510
v 4.357826 -1.056447 -2.470972
v 4.357826 0.983786 -2.470972
v 3.713354 -1.004081 6.225437
v 3.713354 1.036153 6.225437
v 3.713354 -1.004081 4.816975
v 3.713354 1.036153 4.816975
v -3.681844 -1.004081 6.225435
v -3.681844 1.036153 6.225435
v -3.681844 -1.004081 4.816974
v -3.681844 1.036153 4.816974
v 3.713354 -1.004081 -4.835350
v 3.713354 1.036153 -4.835350
v 3.713354 -1.004081 -6.243811
v 3.713354 1.036153 -6.243811
v -3.681844 -1.004081 -4.835350
v -3.681844 1.036153 -4.835350
v -3.681844 -1.004081 -6.243811
v -3.681844 1.036153 -6.243811
v -2.402385 -1.004081 7.110680
v -2.402385 1.036153 7.110680
v -0.811243 -1.004081 7.110680
v -0.811243 1.036153 7.110680
v 0.816003 -1.004081 7.110678
v 0.816003 1.036153 7.110678
v 2.407144 -1.004081 7.110678
v 2.407144 1.036153 7.110678
v -3.783610 -1.433827 6.518457
v -3.783610 1.441253 6.518457
v -3.783610 -1.433827 -6.588421
v -3.783610 1.441253 -6.588421
v 3.796234 -1.433827 6.518457
v 3.796234 1.441253 6.518457
v 3.796234 -1.433827 -6.588421
v 3.796234 1.441253 -6.588421
v -3.783610 -1.433827 -4.551735
v -3.783610 -1.433827 -0.560612
v -3.783610 -1.433827 0.490644
v -3.783610 -1.433827 4.481780
v -3.783610 1.441253 4.481779
v -3.783610 1.441253 0.490644
v -3.783610 1.441253 -0.560612
v -3.783610 1.441253 -4.551737
v 3.796234 -1.433827 4.481779
v 3.796234 -1.433827 0.490644
v 3.796234 -1.433827 -0.560612
v 3.796234 -1.433827 -4.551737
v 3.796234 1.441253 -4.551735
v 3.796234 1.441253 -0.560612
v 3.796234 1.441253 0.490644
v 3.796234 1.441253 4.481780
v 2.724600 -1.433827 -6.588421
v 0.507928 -1.433827 -6.588421
v -0.495304 -1.433827 -6.588421
v -2.711976 -1.433827 -6.588421
v -2.711976 1.441253 -6.588421
v -0.495304 1.441253 -6.588421
v 0.507928 1.441253 -6.588421
v 2.724600 1.441253 -6.588421
v -2.711976 -1.433827 6.518457
v -0.495304 -1.433827 6.518457
v 0.507928 -1.433827 6.518457
v 2.724600 -1.433827 6.518457
v 2.724600 1.441253 6.518457
v 0.507928 1.441253 6.518457
v -0.495304 1.441253 6.518457
v -2.711976 1.441253 6.518457
v -4.463218 -1.433827 -4.551735
v -4.463219 -1.433827 -0.560612
v -4.463219 -1.433827 0.490644
v -4.463219 -1.433827 4.481780
v -4.463218 1.441253 4.481779
v -4.463219 1.441253 0.490644
v -4.463219 1.441253 -0.560612
v -4.463219 1.441253 -4.551737
v 4.475842 -1.433827 4.481779
v 4.475842 -1.433827 0.490644
v 4.475842 -1.433827 -0.560612
v 4.475842 -1.433827 -4.551737
v 4.475842 1.441253 -4.551735
v 4.475842 1.441253 -0.560612
v 4.475842 1.441253 0.490644
v 4.475842 1.441253 4.481780
v 2.724600 -1.433827 -7.268030
v 0.507928 -1.433827 -7.268030
v -0.495304 -1.433827 -7.268030
v -2.711976 -1.433827 -7.268030
v -2.711976 1.441253 -7.268030
v -0.495304 1.441253 -7.268030
v 0.507928 1.441253 -7.268030
v 2.724600 1.441253 -7.268030
v -2.711976 -1.433827 7.198066
v -0.495304 -1.433827 7.198066
v 0.507928 -1.433827 7.198066
v 2.724600 -1.433827 7.198066
v 2.724600 1.441253 7.198066
v 0.507928 1.441253 7.198066
v -0.495304 1.441253 7.198066
v -2.711976 1.441253 7.198066
v 4.475842 0.983786 2.364981
v 4.475842 -1.056447 3.932910
v 4.475842 0.983786 2.524446
v 4.475842 0.983786 3.932910
v 4.475842 -1.056447 2.524446
v 3.796234 1.036153 4.816975
v 4.475842 0.983786 0.956518
v 4.475842 -1.056447 2.364981
v 3.796234 -1.004081 6.225437
v 3.796234 1.036153 6.225437
v 3.796234 -1.004081 4.816975
v 0.816003 -1.004081 7.198066
v 2.407144 -1.004081 7.198066
v 2.407144 1.036153 7.198066
v 0.816003 1.036153 7.198066
v -0.811243 1.031471 7.198066
v -0.811243 1.036153 7.198066
v -2.402385 1.036153 7.198066
v -2.402385 -1.004081 7.198066
v -0.811243 -1.004081 7.198066
v -3.783610 1.036153 6.225435
v -3.783610 1.036153 4.816974
v -3.783610 -1.004081 4.816974
v -3.783610 -1.004081 6.225435
v 4.475842 -1.056447 -4.038900
v 4.475842 -1.056447 -2.630438
v 4.475842 0.983786 -2.630438
v 4.475842 0.983786 -4.038900
v 4.475842 -1.056447 -2.470972
v 4.475842 0.983786 -2.470972
v 4.475842 -1.056447 -1.062510
v 4.475842 0.983786 -1.062510
v 4.475842 -1.056447 0.956518
v 3.796234 1.036153 -4.835350
v 3.796234 -1.004081 -4.835350
v 3.796234 1.036153 -6.243811
v 3.796234 -1.004081 -6.243811
v -3.783610 1.036153 -4.835350
v -3.783610 -1.004081 -4.835350
v -3.783610 1.036153 -6.243811
v -3.783610 -1.004081 -6.243811
v -0.811242 -1.004081 -7.268030
v -0.811242 1.036153 -7.268030
v -2.402384 1.036153 -7.268030
v -2.402384 -1.004081 -7.268030
v 2.407145 1.036153 -7.268030
v 0.816004 -1.004081 -7.268030
v 2.407145 -1.004081 -7.268030
v 0.816004 1.036153 -7.268030
v -4.463219 -1.056447 2.524447
v -4.463219 0.983786 2.524447
v -4.463219 -1.056447 3.932911
v -4.463218 0.983786 3.932911
v -4.463218 0.983786 2.364981
v -4.463219 -1.056447 2.364981
v -4.463219 0.983786 0.956518
v -4.463219 -1.056447 0.956518
v -4.463219 -1.056447 -1.062508
v -4.463219 0.983786 -1.062508
v -4.463219 0.983786 -2.470970
v -4.463218 -1.056447 -2.470970
v -4.463218 -1.056447 -2.630438
v -4.463219 0.983786 -2.630438
v -4.463218 -1.056447 -4.038900
v -4.463219 0.983786 -4.038900
vt 0.779696 0.201165
vt 0.776656 0.197160
vt 0.857274 0.194335
vt 0.854532 0.197122
vt 0.853629 0.249919
vt 0.858376 0.254375
vt 0.780294 0.132946
vt 0.776946 0.128728
vt 0.858907 0.128187
vt 0.856018 0.130931
vt 0.852748 0.184144
vt 0.857250 0.188385
vt 0.771548 0.462111
vt 0.768321 0.457604
vt 0.855704 0.457565
vt 0.852598 0.460530
vt 0.850896 0.521101
vt 0.856265 0.526274
vt 0.775358 0.391706
vt 0.772121 0.387238
vt 0.857961 0.388848
vt 0.854944 0.391634
vt 0.851145 0.446494
vt 0.855811 0.451221
vt 0.393845 0.451522
vt 0.390208 0.446499
vt 0.474828 0.447502
vt 0.469412 0.451124
vt 0.388541 0.644787
vt 0.384537 0.639743
vt 0.472360 0.636904
vt 0.466909 0.640909
vt 0.701934 0.248513
vt 0.707926 0.254684
vt 0.622666 0.252312
vt 0.628776 0.248345
vt 0.705284 0.198040
vt 0.709005 0.194636
vt 0.703723 0.182755
vt 0.709291 0.188568
vt 0.629750 0.186675
vt 0.635628 0.182855
vt 0.710284 0.131741
vt 0.714283 0.128333
vt 0.703289 0.519288
vt 0.710901 0.526019
vt 0.612806 0.528652
vt 0.619832 0.523687
vt 0.702568 0.459356
vt 0.706542 0.455245
vt 0.699941 0.442591
vt 0.706331 0.448558
vt 0.618519 0.452056
vt 0.624687 0.447483
vt 0.702523 0.388897
vt 0.706433 0.385044
vt 0.900137 0.284847
vt 0.897160 0.281707
vt 0.979680 0.277475
vt 0.980175 0.277580
vt 0.976062 0.282470
vt 0.900263 0.346846
vt 0.895810 0.350211
vt 0.982031 0.347032
vt 0.978618 0.342825
vt 0.899852 0.092083
vt 0.896633 0.087808
vt 0.982617 0.086603
vt 0.978005 0.089883
vt 0.897850 0.156006
vt 0.893154 0.159306
vt 0.980439 0.158312
vt 0.977137 0.153965
vt 0.560830 0.071416
vt 0.588466 0.071416
vt 0.588466 0.161557
vt 0.560830 0.161557
vt 0.560830 0.202354
vt 0.588466 0.202354
vt 0.588466 0.292495
vt 0.560830 0.292495
vt 0.560830 0.336073
vt 0.478008 0.336073
vt 0.478008 0.363709
vt 0.315709 0.363709
vt 0.315709 0.336073
vt 0.272959 0.336073
vt 0.272959 0.363709
vt 0.110660 0.363709
vt 0.110660 0.336073
vt 0.027838 0.336073
vt 0.027838 0.292495
vt 0.000202 0.292495
vt 0.000202 0.202354
vt 0.027838 0.202354
vt 0.027838 0.161557
vt 0.000202 0.161557
vt 0.000202 0.071416
vt 0.027838 0.071416
vt 0.027838 0.027838
vt 0.110660 0.027838
vt 0.110660 0.000202
vt 0.272959 0.000202
vt 0.272959 0.027838
vt 0.315709 0.027838
vt 0.315709 0.000202
vt 0.478008 0.000202
vt 0.478008 0.027838
vt 0.560830 0.027838
vt 0.292495 0.924741
vt 0.292495 0.952377
vt 0.202354 0.952377
vt 0.202354 0.924741
vt 0.161557 0.924741
vt 0.161557 0.952377
vt 0.071416 0.952377
vt 0.071416 0.924741
vt 0.027838 0.924741
vt 0.027838 0.841919
vt 0.000202 0.841919
vt 0.000202 0.679620
vt 0.027838 0.679620
vt 0.027838 0.636871
vt 0.000202 0.636871
vt 0.000202 0.474571
vt 0.027838 0.474571
vt 0.027838 0.391749
vt 0.071416 0.391749
vt 0.071416 0.364113
vt 0.161557 0.364113
vt 0.161557 0.391749
vt 0.202354 0.391749
vt 0.202354 0.364113
vt 0.292495 0.364113
vt 0.292495 0.391749
vt 0.336073 0.391749
vt 0.336073 0.474571
vt 0.363709 0.474571
vt 0.363709 0.636871
vt 0.336073 0.636871
vt 0.336073 0.679620
vt 0.363709 0.679620
vt 0.363709 0.841919
vt 0.336073 0.841919
vt 0.336073 0.924741
vt 0.485867 0.556510
vt 0.367138 0.557774
vt 0.366840 0.529709
vt 0.485568 0.528445
vt 0.874634 0.580664
vt 0.742959 0.576831
vt 0.743865 0.545706
vt 0.875540 0.549539
vt 0.375626 0.406711
vt 0.489911 0.410557
vt 0.489002 0.437572
vt 0.374716 0.433726
vt 0.759915 0.342128
vt 0.875499 0.341885
vt 0.875556 0.369207
vt 0.759972 0.369450
vt 0.997530 0.384469
vt 0.881261 0.390554
vt 0.879823 0.363071
vt 0.996092 0.356986
vt 0.875410 0.299623
vt 0.759826 0.299866
vt 0.759768 0.272544
vt 0.875352 0.272301
vt 0.726870 0.546020
vt 0.591761 0.552088
vt 0.720075 0.270608
vt 0.604331 0.269539
vt 0.764172 0.109859
vt 0.875912 0.106911
vt 0.878018 0.074160
vt 0.999438 0.074751
vt 0.878822 0.269074
vt 0.997022 0.266024
vt 0.367878 0.627269
vt 0.486607 0.626005
vt 0.367579 0.599204
vt 0.486308 0.597940
vt 0.488823 0.749535
vt 0.365712 0.756299
vt 0.364113 0.727198
vt 0.487225 0.720434
vt 0.728304 0.577957
vt 0.593195 0.584025
vt 0.603687 0.339219
vt 0.719431 0.340289
vt 0.719178 0.367648
vt 0.603435 0.366579
vt 0.719822 0.297968
vt 0.604078 0.296898
vt 0.878158 0.045459
vt 0.999578 0.046050
vt 0.620468 0.077479
vt 0.729753 0.084925
vt 0.727993 0.110758
vt 0.618708 0.103312
vt 0.995237 0.196839
vt 0.877037 0.199889
vt 0.876316 0.171948
vt 0.994516 0.168899
vt 0.763475 0.083446
vt 0.875215 0.080498
vt 0.878101 0.241134
vt 0.996301 0.238084
vt 0.469837 0.516886
vt 0.466275 0.511953
vt 0.622786 0.464344
vt 0.618245 0.458515
vt 0.470372 0.709105
vt 0.629255 0.192521
vt 0.632983 0.197983
vt 0.637950 0.131139
vt 0.633978 0.125561
vt 0.388744 0.708653
vt 0.383306 0.712690
vt 0.391323 0.512977
vt 0.385918 0.516630
vt 0.466450 0.704151
vt 0.620484 0.387079
vt 0.624943 0.392766
vt 0.776817 0.191065
vt 0.781188 0.187852
vt 0.773548 0.447730
vt 0.768846 0.450992
vt 0.760270 0.526400
vt 0.765728 0.522825
vt 0.772913 0.257050
vt 0.777459 0.253746
vt 0.715372 0.016758
vt 0.709862 0.066891
vt 0.640609 0.064677
vt 0.645180 0.013795
vt 0.786474 0.066744
vt 0.788536 0.015813
vt 0.858333 0.014800
vt 0.855208 0.064495
vt 0.706187 0.595176
vt 0.704980 0.661642
vt 0.613807 0.667059
vt 0.613730 0.599738
vt 0.763005 0.661050
vt 0.765697 0.596264
vt 0.854457 0.595082
vt 0.850450 0.658282
vt 0.713678 0.071045
vt 0.636457 0.067222
vt 0.718025 0.014536
vt 0.785176 0.011282
vt 0.861443 0.011905
vt 0.860155 0.069306
vt 0.710489 0.666637
vt 0.608660 0.670899
vt 0.709401 0.591940
vt 0.761430 0.590496
vt 0.858414 0.591405
vt 0.856739 0.664409
vt 0.491345 0.795423
vt 0.368233 0.802187
vt 0.999798 0.427806
vt 0.883529 0.433891
vt 0.733284 0.683417
vt 0.588870 0.686704
vt 0.770682 0.000202
vt 0.874183 0.003156
vt 0.878378 0.000202
vt 0.999798 0.000793
vt 0.377059 0.364113
vt 0.491345 0.367959
vt 0.630789 0.000202
vt 0.642646 0.009968
vt 0.781468 0.070185
vt 0.875912 0.679090
vt 0.609948 0.595021
vt 0.756631 0.665421
vt 0.733284 0.004945
vt 0.733687 0.682731
vn 0.0000 0.0000 -1.0000
vn 0.0000 -1.0000 -0.0000
vn 1.0000 0.0000 0.0000
vn 0.0000 0.0000 1.0000
vn 0.0000 1.0000 0.0000
vn -1.0000 0.0000 0.0000
usemtl wall.1
s off
f 1/1/1 191/2/1 190/3/1 2/4/1
f 4/5/2 2/4/2 190/3/2 192/6/2
f 5/7/1 188/8/1 189/9/1 6/10/1
f 8/11/2 6/10/2 189/9/2 187/12/2
f 9/13/1 198/14/1 199/15/1 10/16/1
f 12/17/2 10/16/2 199/15/2 201/18/2
f 13/19/1 194/20/1 195/21/1 14/22/1
f 16/23/2 14/22/2 195/21/2 196/24/2
f 17/25/3 181/26/3 180/27/3 18/28/3
f 21/29/3 183/30/3 185/31/3 22/32/3
f 27/33/4 169/34/4 143/35/4 28/36/4
f 27/33/5 25/37/5 144/38/5 169/34/5
f 31/39/4 141/40/4 139/41/4 32/42/4
f 31/39/5 29/43/5 138/44/5 141/40/5
f 35/45/4 161/46/4 164/47/4 36/48/4
f 35/45/5 33/49/5 162/50/5 161/46/5
f 39/51/4 165/52/4 166/53/4 40/54/4
f 39/51/5 37/55/5 167/56/5 165/52/5
f 59/57/6 156/58/6 152/59/6 153/60/6 60/61/6
f 57/62/5 155/63/5 156/58/5 59/57/5
f 60/61/2 153/60/2 154/64/2 58/65/2
f 63/66/6 149/67/6 150/68/6 64/69/6
f 61/70/5 148/71/5 149/67/5 63/66/5
f 64/69/2 150/68/2 151/72/2 62/73/2
f 92/74/2 124/75/2 123/76/2 91/77/2 90/78/2 122/79/2 121/80/2 89/81/2 71/82/2 84/83/2 116/84/2 115/85/2 83/86/2 82/87/2 114/88/2 113/89/2 81/90/2 69/91/2 100/92/2 132/93/2 131/94/2 99/95/2 98/96/2 130/97/2 129/98/2 97/99/2 65/100/2 76/101/2 108/102/2 107/103/2 75/104/2 74/105/2 106/106/2 105/107/2 73/108/2 67/109/2
f 96/110/5 128/111/5 127/112/5 95/113/5 94/114/5 126/115/5 125/116/5 93/117/5 68/118/5 80/119/5 112/120/5 111/121/5 79/122/5 78/123/5 110/124/5 109/125/5 77/126/5 66/127/5 104/128/5 136/129/5 135/130/5 103/131/5 102/132/5 134/133/5 133/134/5 101/135/5 70/136/5 88/137/5 120/138/5 119/139/5 87/140/5 86/141/5 118/142/5 117/143/5 85/144/5 72/145/5
f 94/146/3 91/147/3 123/148/3 126/149/3
f 80/150/1 73/151/1 105/152/1 112/153/1
f 92/154/6 93/155/6 125/156/6 124/157/6
f 74/158/4 79/159/4 111/160/4 106/161/4
f 104/162/6 97/163/6 129/164/6 136/165/6
f 78/166/1 75/167/1 107/168/1 110/169/1
f 116/170/3 117/171/3 164/47/3 161/46/3
f 114/172/3 119/173/3 143/35/3 169/34/3
f 108/174/6 109/175/6 189/9/6 188/8/6
f 106/161/6 111/160/6 195/21/6 194/20/6
f 132/176/4 133/177/4 150/68/4 149/67/4
f 130/178/4 135/179/4 152/59/4 156/58/4
f 124/157/1 125/156/1 180/27/1 181/26/1
f 122/180/1 127/181/1 185/31/1 183/30/1
f 90/182/6 95/183/6 127/181/6 122/180/6
f 96/184/3 89/185/3 121/186/3 128/187/3
f 84/188/1 85/189/1 117/171/1 116/170/1
f 86/190/4 83/191/4 115/192/4 118/193/4
f 82/194/1 87/195/1 119/173/1 114/172/1
f 100/196/3 101/197/3 133/177/3 132/176/3
f 88/198/4 81/199/4 113/200/4 120/201/4
f 102/202/6 99/203/6 131/204/6 134/205/6
f 76/206/4 77/207/4 109/175/4 108/174/4
f 98/208/3 103/209/3 135/179/3 130/178/3
f 126/149/1 179/210/1 180/27/1 125/156/1
f 179/210/2 20/211/2 18/28/2 180/27/2
f 162/50/1 33/49/1 34/212/1 163/213/1
f 163/213/2 34/212/2 36/48/2 164/47/2
f 128/187/1 182/214/1 185/31/1 127/181/1
f 137/215/2 26/216/2 28/36/2 143/35/2
f 144/38/1 25/37/1 26/216/1 137/215/1
f 134/205/4 151/72/4 150/68/4 133/177/4
f 138/44/1 29/43/1 30/217/1 140/218/1
f 183/30/5 21/29/5 23/219/5 184/220/5
f 181/26/5 17/25/5 19/221/5 178/222/5
f 182/214/2 24/223/2 22/32/2 185/31/2
f 155/63/3 57/62/3 58/65/3 154/64/3
f 168/224/2 38/225/2 40/54/2 166/53/2
f 184/220/6 23/219/6 24/223/6 182/214/6
f 148/71/3 61/70/3 62/73/3 151/72/3
f 167/56/1 37/55/1 38/225/1 168/224/1
f 136/165/4 154/64/4 153/60/4 152/59/4 135/179/4
f 178/222/6 19/221/6 20/211/6 179/210/6
f 140/218/2 30/217/2 32/42/2 139/41/2
f 186/226/4 7/227/4 8/11/4 187/12/4
f 188/8/5 5/7/5 7/227/5 186/226/5
f 194/20/5 13/19/5 15/228/5 197/229/5
f 197/229/4 15/228/4 16/23/4 196/24/4
f 121/186/1 184/220/1 182/214/1 128/187/1
f 105/152/6 200/230/6 201/18/6 112/153/6
f 198/14/5 9/13/5 11/231/5 200/230/5
f 200/230/4 11/231/4 12/17/4 201/18/4
f 193/232/4 3/233/4 4/5/4 192/6/4
f 191/2/5 1/1/5 3/233/5 193/232/5
f 121/186/1 122/180/1 183/30/1 184/220/1
f 107/168/6 193/232/6 192/6/6 110/169/6
f 186/226/6 191/2/6 193/232/6 107/168/6 108/174/6 188/8/6
f 197/229/6 198/14/6 200/230/6 105/152/6 106/161/6 194/20/6
f 123/148/1 178/222/1 179/210/1 126/149/1
f 123/148/1 124/157/1 181/26/1 178/222/1
f 113/200/3 138/44/3 140/218/3 120/201/3
f 115/192/3 167/56/3 168/224/3 118/193/3
f 144/38/3 141/40/3 138/44/3 113/200/3 114/172/3 169/34/3
f 162/50/3 165/52/3 167/56/3 115/192/3 116/170/3 161/46/3
f 131/204/4 148/71/4 151/72/4 134/205/4
f 131/204/4 132/176/4 149/67/4 148/71/4
f 129/164/4 155/63/4 154/64/4 136/165/4
f 129/164/4 130/178/4 156/58/4 155/63/4
f 120/201/3 140/218/3 139/41/3 137/215/3 143/35/3 119/173/3
f 137/215/3 139/41/3 141/40/3 144/38/3
f 118/193/3 168/224/3 166/53/3 163/213/3 164/47/3 117/171/3
f 163/213/3 166/53/3 165/52/3 162/50/3
f 110/169/6 192/6/6 190/3/6 187/12/6 189/9/6 109/175/6
f 187/12/6 190/3/6 191/2/6 186/226/6
f 112/153/6 201/18/6 199/15/6 196/24/6 195/21/6 111/160/6
f 196/24/6 199/15/6 198/14/6 197/229/6
usemtl window.1
f 3/233/6 1/1/6 2/4/6 4/5/6
f 7/227/6 5/7/6 6/10/6 8/11/6
f 11/231/6 9/13/6 10/16/6 12/17/6
f 15/228/6 13/19/6 14/22/6 16/23/6
f 19/221/1 17/25/1 18/28/1 20/211/1
f 23/219/1 21/29/1 22/32/1 24/223/1
f 25/37/3 27/33/3 28/36/3 26/216/3
f 29/43/3 31/39/3 32/42/3 30/217/3
f 33/49/3 35/45/3 36/48/3 34/212/3
f 37/55/3 39/51/3 40/54/3 38/225/3
f 41/234/3 43/235/3 44/236/3 42/237/3
f 47/238/6 45/239/6 46/240/6 48/241/6
f 49/242/3 51/243/3 52/244/3 50/245/3
f 55/246/6 53/247/6 54/248/6 56/249/6
f 57/62/4 59/57/4 60/61/4 58/65/4
f 61/70/4 63/66/4 64/69/4 62/73/4
usemtl wall9
f 43/235/4 147/250/4 142/251/4 44/236/4
f 43/235/5 41/234/5 145/252/5 147/250/5
f 45/239/1 160/253/1 157/254/1 46/240/1
f 48/241/2 46/240/2 157/254/2 158/255/2
f 51/243/4 173/256/4 172/257/4 52/244/4
f 51/243/5 49/242/5 171/258/5 173/256/5
f 53/247/1 175/259/1 174/260/1 54/248/1
f 56/249/2 54/248/2 174/260/2 176/261/2
f 73/151/6 80/150/6 174/260/6 175/259/6
f 89/185/1 96/184/1 72/262/1 71/263/1
f 81/199/3 88/198/3 142/251/3 147/250/3
f 97/163/4 104/162/4 66/264/4 65/265/4
f 71/266/3 72/267/3 172/257/3 173/256/3
f 83/191/3 86/190/3 87/195/3 82/194/3
f 65/268/6 66/269/6 157/254/6 160/253/6
f 75/167/6 78/166/6 79/159/6 74/158/6
f 69/270/4 70/271/4 101/197/4 100/196/4
f 99/203/4 102/202/4 103/209/4 98/208/4
f 67/272/1 68/273/1 93/155/1 92/154/1
f 91/147/1 94/146/1 95/183/1 90/182/1
f 70/274/3 146/275/3 142/251/3 88/198/3
f 160/253/5 45/239/5 47/238/5 159/276/5
f 68/277/6 176/261/6 174/260/6 80/150/6
f 146/275/2 42/237/2 44/236/2 142/251/2
f 85/189/3 170/278/3 172/257/3 72/267/3
f 177/279/4 55/246/4 56/249/4 176/261/4
f 159/276/4 47/238/4 48/241/4 158/255/4
f 175/259/5 53/247/5 55/246/5 177/279/5
f 170/278/2 50/245/2 52/244/2 172/257/2
f 145/252/1 41/234/1 42/237/1 146/275/1
f 171/258/1 49/242/1 50/245/1 170/278/1
f 77/207/6 158/255/6 157/254/6 66/269/6
f 84/188/3 171/258/3 170/278/3 85/189/3
f 84/188/3 71/266/3 173/256/3 171/258/3
f 69/280/3 145/252/3 146/275/3 70/274/3
f 69/280/3 81/199/3 147/250/3 145/252/3
f 76/206/6 65/268/6 160/253/6 159/276/6
f 76/206/6 159/276/6 158/255/6 77/207/6
f 67/281/6 177/279/6 176/261/6 68/277/6
f 67/281/6 73/151/6 175/259/6 177/279/6
