# Blender v2.80 (sub 75) OBJ File: 'untitled.blend'
# www.blender.org
mtllib buildingK2.mtl
o Cube.017_Cube.018
v 2.826805 18.333294 -1.715012
v 2.826805 18.333294 7.728477
v 3.532642 -44.144245 7.992989
v -2.619246 18.333294 -1.715012
v -2.619246 18.333294 7.728477
v -3.518438 -44.144245 7.992989
v 4.650749 9.292152 -6.621155
v 4.650749 -43.274338 -14.567314
v 5.102673 10.163128 -0.424545
v 5.531364 -44.144249 0.004181
v -4.636534 9.292152 -6.621155
v -4.636534 -43.274338 -14.567314
v -5.088459 10.163128 -0.424545
v -5.517151 -44.144249 0.004181
v -3.518438 -44.144245 0.004173
v 3.961304 10.175709 -3.484207
v -3.947096 10.175709 -3.484207
v 3.961338 10.178612 -0.424545
v 3.532642 -44.144245 0.004173
v -3.947132 10.178612 -0.424545
v -3.518438 -44.144245 0.004173
v 3.532642 18.333294 7.992989
v 3.532642 18.333294 -3.055527
v -3.518438 18.333294 7.992989
v -3.518438 18.333294 -3.055527
v 2.296841 19.284424 7.198509
v 2.296841 19.284424 -1.185043
v -2.089279 19.284424 7.198509
v -2.089279 19.284424 -1.185043
v 2.826805 19.284424 7.728477
v 2.826805 19.284424 -1.715012
v -2.619246 19.284424 7.728477
v -2.619246 19.284424 -1.715012
v -1.873161 19.587852 -0.960938
v -1.873161 19.587852 6.974403
v 2.080721 20.672646 -0.960938
v 2.080721 20.672646 6.974403
v -3.518438 16.431725 -3.055527
v 3.532642 16.431725 -3.055527
v -3.518438 -44.144245 6.128929
v -3.518438 16.431725 6.128929
v 3.532642 16.431725 6.128929
v 3.532642 -44.144245 6.128929
v 3.532642 15.539146 -3.055527
v -3.518438 -44.144245 5.253967
v -3.518438 15.539146 5.253967
v 3.532642 15.539146 5.253967
v 3.532642 -44.144245 5.253967
v -3.518438 15.539146 -3.055527
v 3.532642 12.861420 -3.055527
v -3.518438 -44.144245 2.629074
v -3.518438 12.861420 2.629074
v 3.532642 12.861420 2.629074
v 3.532642 -44.144245 2.629074
v -3.518438 12.861420 -3.055527
v 3.532642 11.968845 -3.055527
v -3.518438 -44.144245 1.754105
v -3.518438 11.968845 1.754105
v 3.532642 11.968845 1.754105
v 3.532642 -44.144245 1.754105
v -3.518438 11.968845 -3.055527
v -3.199228 15.539146 -2.736320
v -3.199228 16.431725 -2.736320
v 3.081213 16.431725 6.128929
v 3.213436 -43.825035 6.128929
v -3.199228 -43.825035 6.128929
v -3.067007 16.431725 6.128929
v 3.213436 16.431725 -2.736320
v 3.213436 15.539146 -2.736320
v -3.199228 -43.825035 5.253967
v -3.067007 15.539146 5.253967
v 3.081213 15.539146 5.253967
v 3.213436 -43.825035 5.253967
v -3.199228 11.968845 -2.736320
v -3.199228 12.861420 -2.736320
v 3.081213 12.861420 2.629074
v 3.213436 12.861420 -2.736320
v 3.213436 -43.825035 2.629074
v -3.199228 -43.825035 2.629074
v -3.067007 12.861420 2.629074
v 3.213436 11.968845 -2.736320
v -3.199228 -43.825035 1.754105
v -3.067007 11.968845 1.754105
v 3.081213 11.968845 1.754105
v 3.213436 -43.825035 1.754105
v 5.102711 10.170052 -6.055573
v 5.531364 -44.144249 -14.704212
v -5.517151 -44.144249 -14.704212
v -5.088497 10.170052 -6.055573
v 4.650749 9.412441 -7.385483
v 4.650749 -43.154053 -15.331642
v -4.636534 -43.154053 -15.331642
v -4.636534 9.412441 -7.385483
v 5.531364 10.157650 0.004181
v 5.531364 10.162064 -6.484261
v 3.532642 10.183697 0.004181
v -5.517151 10.162064 -6.484261
v -5.517151 10.157650 0.004181
v 3.532642 10.183697 -3.055527
v -3.518438 10.183697 -3.055527
v -3.518438 10.183697 0.004181
v -3.947096 9.778385 -3.484039
v -5.088497 9.772728 -6.055405
v 3.961304 9.778385 -3.484039
v 5.102711 9.772728 -6.055405
v 5.102673 9.765804 -0.424377
v 3.961338 9.781288 -0.424377
v -5.088459 9.765804 -0.424377
v -3.947132 9.781288 -0.424377
v 2.296841 20.731941 -1.185043
v -2.089279 19.528557 -1.185043
v -2.089279 19.528557 7.198509
v 2.296841 20.731941 7.198509
v 2.174046 20.332497 -0.960938
v -1.779837 19.247704 -0.960938
v -1.779837 19.247704 6.974403
v 2.174046 20.332497 6.974403
vt 0.136905 0.109524
vt 0.000000 0.000000
vt 0.000000 0.000000
vt 0.136905 0.054762
vt 0.375000 0.250000
vt 0.375000 0.500000
vt 0.625000 0.500000
vt 0.625000 0.250000
vt 0.400467 0.750000
vt 0.400467 1.000000
vt 0.407610 1.000000
vt 0.407610 0.750000
vt 0.346546 0.518159
vt 0.346546 0.518159
vt 0.346546 0.731841
vt 0.346546 0.731841
vt 0.000000 0.000000
vt 0.000000 0.000000
vt 0.000000 0.000000
vt 0.000000 0.000000
vt 0.407610 0.680767
vt 0.400467 0.641170
vt 0.000000 0.000000
vt 0.000000 0.000000
vt 0.625000 0.285319
vt 0.625000 0.295226
vt 0.000000 0.000000
vt 0.153454 0.518159
vt 0.125000 0.500000
vt 0.125000 0.750000
vt 0.153454 0.731841
vt 0.375000 0.750000
vt 0.327756 0.719849
vt 0.327756 0.719849
vt 0.172244 0.719849
vt 0.172244 0.719849
vt 0.153454 0.731841
vt 0.153454 0.518159
vt 0.172244 0.530151
vt 0.327756 0.530151
vt 0.172244 0.530151
vt 0.327756 0.530151
vt 0.179906 0.714778
vt 0.179906 0.714778
vt 0.179907 0.535222
vt 0.179907 0.535222
vt 0.625000 0.260553
vt 0.382609 0.542179
vt 0.479167 0.383333
vt 0.382609 0.750000
vt 0.000000 0.000000
vt 0.625000 0.285319
vt 0.375000 1.000000
vt 0.382609 1.000000
vt 0.479167 0.191667
vt 0.000000 0.000000
vt 0.000000 0.000000
vt 0.000000 0.000000
vt 0.000000 0.000000
vt 0.205357 0.164286
vt 0.205357 0.164286
vt 0.205357 0.082143
vt 0.205357 0.082143
vt 0.410714 0.328571
vt 0.410714 0.328571
vt 0.386181 0.561977
vt 0.386181 0.561977
vt 0.000000 0.000000
vt 0.000000 0.000000
vt 0.396895 1.000000
vt 0.396895 1.000000
vt 0.396895 0.750000
vt 0.396895 0.750000
vt 0.000000 0.000000
vt 0.625000 0.265506
vt 0.625000 0.265506
vt 0.479167 0.383333
vt 0.479167 0.191667
vt 0.625000 0.280366
vt 0.396895 0.621372
vt 0.386181 0.750000
vt 0.386181 1.000000
vt 0.410714 0.164286
vt 0.000000 0.000000
vt 0.396895 0.621372
vt 0.000000 0.000000
vt 0.382609 1.000000
vt 0.382609 0.750000
vt 0.136905 0.054762
vt 0.136905 0.109524
vt 0.625000 0.260553
vt 0.000000 0.000000
vt 0.386181 0.750000
vt 0.400467 0.641170
vt 0.382609 0.542179
vt 0.386181 1.000000
vt 0.000000 0.000000
vt 0.000000 0.000000
vt 0.400467 0.750000
vt 0.410714 0.164286
vt 0.625000 0.280366
vt 0.400467 1.000000
vt 0.000000 0.000000
vt 0.320094 0.714778
vt 0.320094 0.535222
vt 0.320094 0.535222
vt 0.320094 0.714778
vt 0.379164 0.980074
vt 0.379164 0.980074
vt 0.379164 0.769926
vt 0.379164 0.769926
vt 0.620836 0.980074
vt 0.620836 0.769926
vt 0.620836 0.980074
vt 0.620836 0.769926
vt 0.365301 0.727398
vt 0.365300 0.514569
vt 0.339474 0.512007
vt 0.339474 0.596775
vt 0.134699 0.727398
vt 0.160526 0.596775
vt 0.134700 0.514569
vt 0.160526 0.512007
vt 0.375000 0.000000
vt 0.375000 0.250000
vt 0.625000 0.250000
vt 0.625000 0.000000
vt 0.375000 0.295226
vt 0.375000 0.500000
vt 0.375000 0.750000
vt 0.625000 0.750000
vt 0.625000 0.500000
vt 0.339474 0.512007
vt 0.365300 0.514569
vt 0.134699 0.727398
vt 0.134700 0.514569
vt 0.365301 0.727398
vt 0.329774 0.500000
vt 0.375000 1.000000
vt 0.625000 1.000000
vt 0.125000 0.500000
vt 0.125000 0.750000
vt 0.160526 0.512007
vt 0.170226 0.500000
vt 0.339474 0.596775
vt 0.329774 0.569233
vt 0.170226 0.569233
vt 0.160526 0.596775
vn 0.0000 -1.0000 0.0000
vn 0.0000 0.0000 1.0000
vn 0.0000 0.0000 -1.0000
vn -1.0000 0.0000 0.0000
vn 1.0000 0.0000 0.0000
vn 0.0000 1.0000 0.0000
vn -0.9644 -0.2646 0.0000
vn -0.2646 0.9644 -0.0000
vn 0.9644 0.2646 0.0000
vn 0.0000 0.9878 0.1555
vn 0.9998 -0.0077 0.0157
vn 1.0000 0.0022 -0.0011
vn -1.0000 0.0022 -0.0011
vn -0.9998 -0.0077 0.0157
vn 0.9996 -0.0131 0.0268
vn 1.0000 0.0024 -0.0012
vn -1.0000 0.0024 -0.0012
vn -0.9996 -0.0131 0.0268
vn 0.0000 0.1495 -0.9888
vn 0.0000 -0.9878 -0.1555
vn -0.0098 1.0000 0.0005
vn 0.0000 1.0000 -0.0022
vn 0.0098 1.0000 0.0005
vn 0.0000 -0.0004 -1.0000
vn -0.0000 0.1496 -0.9888
vn 0.0000 0.1555 -0.9878
vn 0.0157 0.9999 0.0009
vn 0.0132 0.9999 0.0005
vn -0.0157 0.9999 0.0009
vn 0.0000 0.9998 -0.0186
vn 0.0148 0.9999 -0.0005
vn -0.0148 0.9999 -0.0005
vn -0.0132 0.9999 0.0005
vn 0.0000 0.0004 1.0000
usemtl wall.7
s off
f 57/1/1 21/2/1 19/3/1 60/4/1
f 22/5/2 24/6/2 6/7/2 3/8/2
f 61/9/3 56/10/3 99/11/3 100/12/3
f 5/13/4 32/14/4 33/15/4 4/16/4
f 42/17/5 39/18/5 23/19/5 22/20/5
f 61/9/4 100/12/4 101/21/4 58/22/4
f 58/22/4 101/21/4 15/23/4 21/2/4 57/1/4
f 59/24/5 60/25/5 19/26/5 96/27/5
f 2/28/6 22/29/6 23/30/6 1/31/6
f 5/13/6 24/6/6 22/29/6 2/28/6
f 4/16/6 25/32/6 24/6/6 5/13/6
f 1/31/6 23/30/6 25/32/6 4/16/6
f 29/33/3 111/34/3 110/35/3 27/36/3
f 1/31/5 31/37/5 30/38/5 2/28/5
f 4/16/3 33/15/3 31/37/3 1/31/3
f 2/28/2 30/38/2 32/14/2 5/13/2
f 26/39/6 30/38/6 31/37/6 27/36/6
f 28/40/6 32/14/6 30/38/6 26/39/6
f 29/33/6 33/15/6 32/14/6 28/40/6
f 27/36/6 31/37/6 33/15/6 29/33/6
f 26/39/2 113/41/2 112/42/2 28/40/2
f 27/36/5 110/35/5 113/41/5 26/39/5
f 36/43/7 114/44/7 117/45/7 37/46/7
f 28/40/4 112/42/4 111/34/4 29/33/4
f 22/20/5 3/8/5 43/47/5 42/17/5
f 24/6/4 41/48/4 40/49/4 6/7/4
f 25/32/4 38/50/4 41/48/4 24/6/4
f 59/24/2 84/51/2 85/52/2 60/25/2
f 25/32/3 23/53/3 39/54/3 38/50/3
f 6/7/1 40/49/1 43/55/1 3/8/1
f 53/56/5 50/57/5 44/58/5 47/59/5
f 51/60/3 79/61/3 78/62/3 54/63/3
f 45/64/2 70/65/2 71/66/2 46/67/2
f 56/68/6 81/69/6 84/51/6 59/24/6
f 50/70/1 77/71/1 75/72/1 55/73/1
f 47/59/2 72/74/2 73/75/2 48/76/2
f 40/49/3 66/77/3 65/78/3 43/55/3
f 47/59/5 48/76/5 54/79/5 53/56/5
f 46/67/4 52/80/4 51/60/4 45/64/4
f 49/81/4 55/73/4 52/80/4 46/67/4
f 49/81/3 44/82/3 50/70/3 55/73/3
f 45/64/1 51/60/1 54/63/1 48/83/1
f 96/27/5 99/84/5 56/68/5 59/24/5
f 55/73/1 75/72/1 80/85/1 52/80/1
f 44/58/6 69/86/6 72/74/6 47/59/6
f 39/54/1 68/87/1 63/88/1 38/50/1
f 60/4/2 85/89/2 82/90/2 57/1/2
f 52/80/3 80/85/3 79/61/3 51/60/3
f 43/47/3 65/91/3 64/92/3 42/17/3
f 46/67/6 71/66/6 62/93/6 49/81/6
f 57/1/2 82/90/2 83/94/2 58/22/2
f 41/48/3 67/95/3 66/77/3 40/49/3
f 49/81/6 62/93/6 69/96/6 44/82/6
f 53/56/1 76/97/1 77/98/1 50/57/1
f 58/22/6 83/94/6 74/99/6 61/9/6
f 38/50/1 63/88/1 67/95/1 41/48/1
f 48/83/2 73/100/2 70/65/2 45/64/2
f 54/79/3 78/101/3 76/97/3 53/56/3
f 61/9/6 74/99/6 81/102/6 56/10/6
f 42/17/1 64/92/1 68/103/1 39/18/1
f 36/43/8 110/35/8 111/34/8 34/104/8
f 34/104/8 111/34/8 112/42/8 35/105/8
f 35/105/8 112/42/8 113/41/8 37/46/8
f 37/46/8 113/41/8 110/35/8 36/43/8
f 35/105/9 116/106/9 115/107/9 34/104/9
f 37/46/3 117/45/3 116/106/3 35/105/3
f 34/104/2 115/107/2 114/44/2 36/43/2
usemtl window.1
f 7/108/10 90/109/10 93/110/10 11/111/10
f 72/74/11 69/86/11 68/103/11 64/92/11
f 64/92/12 65/91/12 73/75/12 72/74/12
f 67/95/13 71/66/13 70/65/13 66/77/13
f 63/88/14 62/93/14 71/66/14 67/95/14
f 63/88/3 68/87/3 69/96/3 62/93/3
f 66/77/1 70/65/1 73/100/1 65/78/1
f 84/51/15 81/69/15 77/98/15 76/97/15
f 76/97/16 78/101/16 85/52/16 84/51/16
f 80/85/17 83/94/17 82/90/17 79/61/17
f 75/72/18 74/99/18 83/94/18 80/85/18
f 75/72/3 77/71/3 81/102/3 74/99/3
f 79/61/1 82/90/1 85/89/1 78/62/1
f 93/110/19 90/109/19 91/112/19 92/113/19
f 8/114/5 91/112/5 90/109/5 7/108/5
f 12/115/20 92/113/20 91/112/20 8/114/20
f 11/111/4 93/110/4 92/113/4 12/115/4
usemtl rooftop.1
f 103/116/21 108/117/21 109/118/21 102/119/21
f 105/120/22 103/116/22 102/119/22 104/121/22
f 106/122/23 105/120/23 104/121/23 107/123/23
f 117/45/8 114/44/8 115/107/8 116/106/8
usemtl wall.8
f 95/124/5 94/125/5 10/126/5 87/127/5
f 94/125/2 96/128/2 19/26/2 10/126/2
f 98/129/4 97/130/4 88/131/4 14/132/4
f 20/133/24 109/118/24 108/117/24 13/134/24
f 86/135/4 105/120/4 106/122/4 9/136/4
f 13/134/5 108/117/5 103/116/5 89/137/5
f 21/2/1 14/132/1 88/131/1 87/127/1 10/126/1 19/3/1
f 14/132/2 21/2/2 15/23/2 101/138/2 98/129/2
f 7/108/25 95/139/25 87/140/25 8/114/25
f 12/115/25 88/131/25 97/130/25 11/111/25
f 11/111/26 97/130/26 95/139/26 7/108/26
f 8/114/26 87/140/26 88/131/26 12/115/26
f 9/136/27 94/141/27 95/142/27 86/135/27
f 18/143/28 96/144/28 94/141/28 9/136/28
f 89/137/29 97/130/29 98/129/29 13/134/29
f 86/135/30 95/142/30 97/130/30 89/137/30
f 17/145/30 100/146/30 99/147/30 16/148/30
f 16/148/31 99/147/31 96/144/31 18/143/31
f 20/133/32 101/138/32 100/146/32 17/145/32
f 13/134/33 98/129/33 101/138/33 20/133/33
f 18/143/5 107/123/5 104/121/5 16/148/5
f 89/137/34 103/116/34 105/120/34 86/135/34
f 9/136/24 106/122/24 107/123/24 18/143/24
f 17/145/4 102/119/4 109/118/4 20/133/4
f 16/148/24 104/121/24 102/119/24 17/145/24
