# Blender v2.80 (sub 75) OBJ File: 'untitled.blend'
# www.blender.org
mtllib road2.mtl
o Cube.028_Cube.030
v -2.264977 -0.429331 1.076173
v -2.264977 0.108815 1.076173
v -2.264977 -0.429331 -3.361818
v -2.264977 0.108815 -3.361818
v 3.460258 -0.429331 1.076173
v 3.460258 0.108815 1.076173
v 3.460258 -0.429331 -3.361818
v 3.460258 0.108815 -3.361818
v -1.116084 -0.429331 -3.361818
v -1.116084 0.108815 -3.361818
v -1.116084 -0.429331 1.076173
v -1.116084 0.108815 1.076173
v -1.116084 0.290304 -3.361818
v 3.460258 0.290304 -3.361818
v 3.460258 0.290304 1.076173
v -1.116084 0.290304 1.076173
v -0.864489 0.108815 -3.361818
v -0.864489 -0.429331 1.076173
v -0.864489 -0.429331 -3.361818
v -0.864489 0.108815 1.076173
v -0.864489 0.290304 -3.361818
v -0.864489 0.290304 1.076173
v -0.864489 0.328037 1.076173
v -1.116084 0.328037 1.076173
v -1.116084 0.328037 -3.361818
v -0.864489 0.328037 -3.361818
v -2.264977 -0.429331 0.838208
v -2.264977 0.108815 0.838208
v 3.460258 -0.429331 0.838208
v 3.460258 0.108815 0.838208
v -1.116084 0.108815 0.838208
v -1.116084 -0.429331 0.838208
v 3.460258 0.290304 0.838208
v -1.116084 0.290304 0.838208
v -0.864489 0.290304 0.838208
v -0.864489 -0.429331 0.838208
v -1.116084 0.328037 0.838208
v -0.864489 0.328037 0.838208
v 3.460258 0.328055 0.838208
v 3.460258 0.328055 1.076173
v -2.264977 0.108815 2.217560
v -2.264977 -0.429331 2.217560
v 3.460258 0.108815 2.217560
v 3.460258 -0.429331 2.217560
v -0.864489 -0.429331 2.217560
v -1.116084 0.108815 2.217560
v -1.116084 -0.429331 2.217560
v -0.864489 0.108815 2.217560
vt 0.375000 0.328892
vt 0.625000 0.328892
vt 0.625000 0.500000
vt 0.375000 0.500000
vt 0.375000 0.738219
vt 0.625000 0.738219
vt 0.625000 0.750000
vt 0.375000 0.750000
vt 0.203892 0.738219
vt 0.203892 0.750000
vt 0.625000 0.314719
vt 0.625000 0.314719
vt 0.625000 0.328892
vt 0.810281 0.738219
vt 0.810281 0.750000
vt 0.810281 0.750000
vt 0.810281 0.738219
vt 0.810281 0.738219
vt 0.810281 0.750000
vt 0.625000 0.500000
vt 0.625000 0.738219
vt 0.625000 0.921108
vt 0.625000 0.750000
vt 0.625000 0.921108
vt 0.625000 0.935281
vt 0.625000 0.935281
vt 0.189719 0.738219
vt 0.189719 0.750000
vt 0.375000 0.314719
vt 0.796108 0.738219
vt 0.796108 0.750000
vt 0.625000 0.314719
vt 0.625000 0.328892
vt 0.796108 0.738219
vt 0.796108 0.500000
vt 0.796108 0.500000
vt 0.625000 0.921108
vt 0.625000 0.935281
vt 0.810281 0.500000
vt 0.189719 0.500000
vt 0.203892 0.500000
vt 0.810281 0.500000
vt 0.810281 0.500000
vt 0.625000 0.738219
vt 0.625000 0.750000
vt 0.375000 0.011781
vt 0.625000 0.011781
vt 0.625000 0.250000
vt 0.375000 0.250000
vt 0.625000 0.750000
vt 0.375000 0.750000
vt 0.875000 0.738219
vt 0.875000 0.750000
vt 0.125000 0.738219
vt 0.125000 0.750000
vt 0.625000 0.921108
vt 0.375000 0.921108
vt 0.625000 0.935281
vt 0.375000 0.935281
vt 0.875000 0.750000
vt 0.810281 0.750000
vt 0.625000 1.000000
vt 0.375000 1.000000
vt 0.125000 0.500000
vt 0.875000 0.500000
vt 0.375000 0.000000
vt 0.625000 0.000000
vt 0.203892 0.750000
vt 0.189719 0.750000
vt 0.125000 0.750000
vt 0.375000 0.000000
vt 0.625000 0.000000
vn 0.0000 0.0000 -1.0000
vn 1.0000 0.0000 0.0000
vn 0.0000 -1.0000 0.0000
vn -1.0000 0.0000 0.0000
vn 0.0000 0.0000 1.0000
vn 0.0000 1.0000 0.0000
usemtl road.2
s off
f 19/1/1 17/2/1 8/3/1 7/4/1
f 29/5/2 30/6/2 6/7/2 5/8/2
f 36/9/3 29/5/3 5/8/3 18/10/3
f 17/2/1 10/11/1 13/12/1 21/13/1
f 34/14/4 16/15/4 24/16/4 37/17/4
f 31/18/4 12/19/4 16/15/4 34/14/4
f 30/6/2 8/3/2 14/20/2 33/21/2
f 20/22/5 6/7/5 15/23/5 22/24/5
f 12/25/5 20/22/5 22/24/5 16/26/5
f 8/3/1 17/2/1 21/13/1 14/20/1
f 32/27/3 36/9/3 18/10/3 11/28/3
f 9/29/1 10/11/1 17/2/1 19/1/1
f 38/30/6 37/17/6 24/16/6 23/31/6
f 21/13/1 13/12/1 25/32/1 26/33/1
f 35/34/2 21/35/2 26/36/2 38/30/2
f 16/26/5 22/24/5 23/37/5 24/38/5
f 26/36/6 25/39/6 37/17/6 38/30/6
f 9/40/3 19/41/3 36/9/3 32/27/3
f 14/20/6 21/35/6 35/34/6 33/21/6
f 6/7/2 30/6/2 33/21/2 15/23/2
f 10/42/4 31/18/4 34/14/4 13/43/4
f 13/43/4 34/14/4 37/17/4 25/39/4
f 19/41/3 7/4/3 29/5/3 36/9/3
f 7/4/2 8/3/2 30/6/2 29/5/2
f 39/44/6 38/30/6 23/31/6 40/45/6
f 22/24/5 15/23/5 40/45/5 23/37/5
f 15/23/2 33/21/2 39/44/2 40/45/2
f 33/21/1 35/34/1 38/30/1 39/44/1
usemtl road.1
f 27/46/4 28/47/4 4/48/4 3/49/4
f 5/8/2 6/7/2 43/50/2 44/51/2
f 31/18/6 28/52/6 2/53/6 12/19/6
f 27/54/3 32/27/3 11/28/3 1/55/3
f 6/7/6 20/22/6 48/56/6 43/50/6
f 3/49/1 4/48/1 10/11/1 9/29/1
f 45/57/5 48/56/5 46/58/5 47/59/5
f 12/19/6 2/53/6 41/60/6 46/61/6
f 47/59/5 46/58/5 41/62/5 42/63/5
f 3/64/3 9/40/3 32/27/3 27/54/3
f 10/42/6 4/65/6 28/52/6 31/18/6
f 1/66/4 2/67/4 28/47/4 27/46/4
f 44/51/5 43/50/5 48/56/5 45/57/5
f 11/28/3 18/10/3 45/68/3 47/69/3
f 1/55/3 11/28/3 47/69/3 42/70/3
f 2/67/4 1/66/4 42/71/4 41/72/4
f 18/10/3 5/8/3 44/51/3 45/68/3
f 20/22/6 12/25/6 46/58/6 48/56/6
