# Blender v2.80 (sub 75) OBJ File: 'untitled.blend'
# www.blender.org
mtllib road1.mtl
o Cube.019_Cube.029
v -2.218996 -0.269073 2.218996
v -2.218996 0.269073 2.218996
v -2.218996 -0.269073 -2.218996
v -2.218996 0.269073 -2.218996
v 2.218996 -0.269073 2.218996
v 2.218996 0.269073 2.218996
v 2.218996 -0.269073 -2.218996
v 2.218996 0.269073 -2.218996
v -1.070102 -0.269073 -2.218996
v -1.070102 0.269073 -2.218996
v -1.070102 -0.269073 2.218996
v -1.070102 0.269073 2.218996
v -1.070102 0.450562 -2.218996
v 2.218996 0.450562 -2.218996
v 2.218996 0.450562 2.218996
v -1.070102 0.450562 2.218996
v -0.818507 0.269073 -2.218996
v -0.818507 -0.269073 2.218996
v -0.818507 -0.269073 -2.218996
v -0.818507 0.269073 2.218996
v -0.818507 0.450562 -2.218996
v -0.818507 0.450562 2.218996
v -0.818507 0.488295 2.218996
v -1.070102 0.488295 2.218996
v -1.070102 0.488295 -2.218996
v -0.818507 0.488295 -2.218996
vt 0.792258 0.557536
vt 0.584595 0.557536
vt 0.584595 0.415405
vt 0.792258 0.415405
vt 0.584595 0.207742
vt 0.792258 0.207742
vt 0.934389 0.415405
vt 0.934389 0.207742
vt 0.584595 0.569309
vt 0.514561 0.569309
vt 0.514561 0.557536
vt 0.792258 0.065611
vt 0.584595 0.065611
vt 0.584595 0.053838
vt 0.792258 0.053838
vt 0.331535 0.415405
vt 0.331535 0.207742
vt 0.346096 0.207742
vt 0.346096 0.415405
vt 0.261501 0.415405
vt 0.261501 0.207742
vt 0.514561 0.415405
vt 0.514561 0.207742
vt 0.514561 0.065611
vt 0.514561 0.053838
vt 0.372430 0.415405
vt 0.372430 0.207742
vt 0.946162 0.415405
vt 0.946162 0.207742
vt 0.792258 0.569309
vt 0.357869 0.415405
vt 0.357869 0.207742
vt 0.500000 0.569309
vt 0.500000 0.557536
vt 0.500000 0.065611
vt 0.500000 0.053838
vt 0.000079 0.207742
vt 0.207742 0.207742
vt 0.207742 0.415405
vt 0.000079 0.415405
vt 0.584595 0.000079
vt 0.792258 0.000079
vt 0.999921 0.415405
vt 0.999921 0.207742
vt 0.792258 0.623068
vt 0.584595 0.623068
vn 0.0000 0.0000 -1.0000
vn 1.0000 0.0000 0.0000
vn 0.0000 -1.0000 0.0000
vn 0.0000 0.0000 1.0000
vn -1.0000 0.0000 0.0000
vn 0.0000 1.0000 0.0000
usemtl road.2
s off
f 19/1/1 17/2/1 8/3/1 7/4/1
f 7/4/2 8/3/2 6/5/2 5/6/2
f 19/7/3 7/4/3 5/6/3 18/8/3
f 17/2/1 10/9/1 13/10/1 21/11/1
f 18/12/4 20/13/4 12/14/4 11/15/4
f 13/16/5 16/17/5 24/18/5 25/19/5
f 10/20/5 12/21/5 16/17/5 13/16/5
f 6/5/2 8/3/2 14/22/2 15/23/2
f 20/13/4 6/5/4 15/23/4 22/24/4
f 12/14/4 20/13/4 22/24/4 16/25/4
f 14/22/6 21/26/6 22/27/6 15/23/6
f 5/6/4 6/5/4 20/13/4 18/12/4
f 8/3/1 17/2/1 21/11/1 14/22/1
f 9/28/3 19/7/3 18/8/3 11/29/3
f 9/30/1 10/9/1 17/2/1 19/1/1
f 26/31/6 25/19/6 24/18/6 23/32/6
f 21/11/1 13/10/1 25/33/1 26/34/1
f 22/27/2 21/26/2 26/31/2 23/32/2
f 16/25/4 22/24/4 23/35/4 24/36/4
usemtl road.1
f 1/37/5 2/38/5 4/39/5 3/40/5
f 11/15/4 12/14/4 2/41/4 1/42/4
f 10/20/6 4/39/6 2/38/6 12/21/6
f 3/43/3 9/28/3 11/29/3 1/44/3
f 3/45/1 4/46/1 10/9/1 9/30/1
