# Blender v2.80 (sub 75) OBJ File: 'untitled.blend'
# www.blender.org
mtllib rooftop.2.mtl
o Cube.031_Cube.027
v -1.491945 -0.694333 1.828909
v -1.491945 0.345584 1.828909
v -1.491945 -0.694333 -1.828908
v -1.491945 0.345584 -1.828908
v 2.165872 -0.694333 1.828909
v 2.165872 0.345584 1.828909
v 2.165872 -0.694333 -1.828908
v 2.165872 0.345584 -1.828908
v 1.877713 -0.694333 -1.828908
v -1.203785 -0.694333 -1.828908
v -1.203785 0.345584 -1.828908
v 1.877713 0.345584 -1.828908
v -1.203785 -0.694333 1.828909
v 1.877713 -0.694333 1.828909
v 1.877713 0.345584 1.828909
v -1.203785 0.345584 1.828909
v -1.491945 -0.694333 -1.556557
v -1.491945 -0.694333 1.556558
v -1.491945 0.345584 1.556558
v -1.491945 0.345584 -1.556557
v 2.165872 -0.694333 1.556558
v 2.165872 -0.694333 -1.556557
v 2.165872 0.345584 -1.556557
v 2.165872 0.345584 1.556558
v 1.877713 0.345584 -1.556557
v 1.877713 0.345584 1.556558
v -1.203785 0.345584 -1.556557
v -1.203785 0.345584 1.556558
v -1.203785 -0.694333 -1.556557
v -1.203785 -0.694333 1.556558
v 1.877713 -0.694333 -1.556557
v 1.877713 -0.694333 1.556558
v -1.491945 0.697498 -1.556557
v -1.491945 0.697498 -1.828908
v -1.203785 0.697498 1.828909
v -1.491945 0.697498 1.828909
v -1.203785 0.697498 -1.828908
v -1.203785 0.697498 1.556558
v -1.491945 0.697498 1.556558
v -1.203785 0.697498 -1.556557
vt 0.636761 0.553872
vt 0.653439 0.570550
vt 0.611994 0.611995
vt 0.595316 0.595317
vt 0.411804 0.328915
vt 0.429450 0.346561
vt 0.388005 0.388006
vt 0.370359 0.370360
vt 0.568599 0.240767
vt 0.446128 0.363238
vt 0.551921 0.224089
vt 0.345578 0.017746
vt 0.223107 0.140218
vt 0.205461 0.122572
vt 0.327933 0.000101
vt 0.207411 0.983222
vt 0.329883 0.860751
vt 0.346560 0.877429
vt 0.224089 0.999900
vt 0.793556 0.465724
vt 0.671085 0.588195
vt 0.775910 0.448078
vt 0.965576 0.225057
vt 0.983222 0.207412
vt 0.999900 0.224089
vt 0.982254 0.241735
vt 0.552903 0.671086
vt 0.536226 0.654408
vt 0.577671 0.612963
vt 0.594348 0.629641
vt 0.759233 0.431401
vt 0.776878 0.413755
vt 0.793556 0.430433
vt 0.999900 0.672067
vt 0.877428 0.794538
vt 0.859783 0.776893
vt 0.982254 0.654421
vt 0.534276 0.206444
vt 0.569567 0.206444
vt 0.758265 0.017746
vt 0.774942 0.034423
vt 0.586245 0.223121
vt 0.775910 0.000100
vt 0.792588 0.016778
vt 0.000100 0.775912
vt 0.122571 0.653440
vt 0.139249 0.670118
vt 0.016778 0.792589
vt 0.370359 0.405652
vt 0.404683 0.404684
vt 0.387037 0.422329
vt 0.345592 0.463774
vt 0.328914 0.447097
vt 0.629640 0.629641
vt 0.347528 0.843106
vt 0.364206 0.859783
vt 0.140217 0.635794
vt 0.156894 0.652472
vn -1.0000 0.0000 0.0000
vn 0.0000 0.0000 -1.0000
vn 1.0000 0.0000 0.0000
vn 0.0000 0.0000 1.0000
vn 0.0000 -1.0000 0.0000
vn 0.0000 1.0000 0.0000
usemtl wall.1
s off
f 19/1/1 2/2/1 36/3/1 39/4/1
f 11/5/2 4/6/2 34/7/2 37/8/2
f 17/9/1 20/10/1 4/6/1 3/11/1
f 9/12/2 12/13/2 8/14/2 7/15/2
f 21/16/3 24/17/3 6/18/3 5/19/3
f 13/20/4 16/21/4 2/2/4 1/22/4
f 32/23/5 21/24/5 5/25/5 14/26/5
f 16/27/3 28/28/3 38/29/3 35/30/3
f 18/31/5 30/32/5 13/33/5 1/22/5
f 30/32/5 32/23/5 14/26/5 13/33/5
f 5/34/4 6/35/4 15/36/4 14/37/4
f 14/37/4 15/36/4 16/21/4 13/20/4
f 3/11/2 4/6/2 11/5/2 10/38/2
f 10/38/2 11/5/2 12/13/2 9/12/2
f 10/39/5 9/40/5 31/41/5 29/42/5
f 29/42/5 31/41/5 32/23/5 30/32/5
f 3/11/5 10/39/5 29/42/5 17/9/5
f 17/9/5 29/42/5 30/32/5 18/31/5
f 9/40/5 7/43/5 22/44/5 31/41/5
f 31/41/5 22/44/5 21/24/5 32/23/5
f 7/45/3 8/46/3 23/47/3 22/48/3
f 22/48/3 23/47/3 24/17/3 21/16/3
f 1/22/1 2/2/1 19/1/1 18/31/1
f 18/31/1 19/1/1 20/10/1 17/9/1
f 38/29/6 39/4/6 36/3/6 35/30/6
f 37/49/6 34/7/6 33/50/6 40/51/6
f 40/51/6 33/50/6 39/4/6 38/29/6
f 27/52/3 11/53/3 37/49/3 40/51/3
f 20/10/1 19/1/1 39/4/1 33/50/1
f 28/28/3 27/52/3 40/51/3 38/29/3
f 4/6/1 20/10/1 33/50/1 34/7/1
f 2/2/4 16/21/4 35/54/4 36/3/4
usemtl rooftop.1
f 24/17/6 26/55/6 15/56/6 6/18/6
f 26/55/6 28/28/6 16/27/6 15/56/6
f 12/57/6 11/53/6 27/52/6 25/58/6
f 25/58/6 27/52/6 28/28/6 26/55/6
f 8/46/6 12/57/6 25/58/6 23/47/6
f 23/47/6 25/58/6 26/55/6 24/17/6
