# Blender v2.80 (sub 75) OBJ File: 'untitled.blend'
# www.blender.org
mtllib rooftop.1.mtl
o Cube.029_Cube.023
v -1.675744 -0.757742 1.982793
v -1.675744 0.282175 1.982793
v -1.675744 -0.757742 -1.675023
v -1.675744 0.282175 -1.675023
v 1.982073 -0.757742 1.982793
v 1.982073 0.282175 1.982793
v 1.982073 -0.757742 -1.675023
v 1.982073 0.282175 -1.675023
v 1.693914 -0.757742 -1.675023
v -1.387584 -0.757742 -1.675023
v -1.387584 0.282175 -1.675023
v 1.693914 0.282175 -1.675023
v -1.387584 -0.757742 1.982793
v 1.693914 -0.757742 1.982793
v 1.693914 0.282175 1.982793
v -1.387584 0.282175 1.982793
v -1.675744 -0.757742 -1.402673
v -1.675744 -0.757742 1.710442
v -1.675744 0.282175 1.710442
v -1.675744 0.282175 -1.402673
v 1.982073 -0.757742 1.710442
v 1.982073 -0.757742 -1.402673
v 1.982073 0.282175 -1.402673
v 1.982073 0.282175 1.710442
v 1.693914 0.282175 -1.402673
v 1.693914 0.282175 1.710442
v -1.387584 0.282175 -1.402673
v -1.387584 0.282175 1.710442
v -1.387584 -0.757742 -1.402673
v -1.387584 -0.757742 1.710442
v 1.693914 -0.757742 -1.402673
v 1.693914 -0.757742 1.710442
v -1.675744 0.634089 -1.402673
v -1.675744 0.634089 -1.675023
v 1.693914 0.634089 -1.675023
v 1.982073 0.634089 -1.675023
v -1.387584 0.634089 1.982793
v -1.675744 0.634089 1.982793
v -1.387584 0.634089 -1.675023
v -1.387584 0.634089 1.710442
v -1.675744 0.634089 1.710442
v 1.982073 0.634089 -1.402673
v 1.693914 0.634089 -1.402673
v -1.387584 0.634089 -1.402673
vt 0.234893 0.664057
vt 0.356298 0.738382
vt 0.345971 0.754654
vt 0.224973 0.680684
vt 0.101621 0.882119
vt 0.221100 0.955620
vt 0.210499 0.972820
vt 0.091033 0.899332
vt 0.499231 0.210670
vt 0.623634 0.283218
vt 0.613755 0.300159
vt 0.489352 0.227611
vt 0.367120 0.437209
vt 0.491524 0.509757
vt 0.480971 0.527802
vt 0.356668 0.455133
vt 0.139076 0.351088
vt 0.121321 0.340766
vt 0.131077 0.323979
vt 0.148838 0.334301
vt 0.470896 0.544861
vt 0.513216 0.570345
vt 0.396892 0.765474
vt 0.346832 0.472001
vt 0.329046 0.461619
vt 0.338829 0.444789
vt 0.603302 0.318083
vt 0.478899 0.245535
vt 0.335187 0.771863
vt 0.214385 0.698095
vt 0.207371 0.670296
vt 0.017822 0.559630
vt 0.027593 0.542867
vt 0.217189 0.653614
vt 0.523757 0.552745
vt 0.375073 0.796979
vt 0.261455 0.980539
vt 0.000089 0.549300
vt 0.009850 0.532538
vt 0.622036 0.000089
vt 0.746439 0.072637
vt 0.736560 0.089578
vt 0.612157 0.017030
vt 0.385725 0.780019
vt 0.590503 0.596101
vt 0.576887 0.613506
vt 0.531169 0.581882
vt 0.543055 0.564008
vt 0.517552 0.982797
vt 0.399470 0.792005
vt 0.414821 0.778257
vt 0.534036 0.972494
vt 0.528585 0.999911
vt 0.544760 0.989484
vt 0.468602 0.776341
vt 0.534305 0.534531
vt 0.570959 0.947780
vt 0.788538 0.097188
vt 0.778659 0.114129
vt 0.250852 0.997720
vt 0.583889 0.964323
vt 0.772310 0.801010
vt 0.756556 0.784046
vt 0.772218 0.768611
vt 0.788538 0.785669
vn -1.0000 0.0000 0.0000
vn 0.0000 0.0000 -1.0000
vn 1.0000 0.0000 0.0000
vn 0.0000 0.0000 1.0000
vn 0.0000 -1.0000 0.0000
vn 0.0000 1.0000 0.0000
usemtl wall.1
s off
f 17/1/1 20/2/1 4/3/1 3/4/1
f 9/5/2 12/6/2 8/7/2 7/8/2
f 21/9/3 24/10/3 6/11/3 5/12/3
f 13/13/4 16/14/4 2/15/4 1/16/4
f 32/17/5 21/18/5 5/19/5 14/20/5
f 20/2/1 19/21/1 41/22/1 33/23/1
f 18/24/5 30/25/5 13/26/5 1/16/5
f 30/25/5 32/17/5 14/20/5 13/26/5
f 5/12/4 6/11/4 15/27/4 14/28/4
f 14/28/4 15/27/4 16/14/4 13/13/4
f 3/4/2 4/3/2 11/29/2 10/30/2
f 10/30/2 11/29/2 12/6/2 9/5/2
f 10/31/5 9/32/5 31/33/5 29/34/5
f 29/34/5 31/33/5 32/17/5 30/25/5
f 3/4/5 10/31/5 29/34/5 17/1/5
f 17/1/5 29/34/5 30/25/5 18/24/5
f 19/21/1 2/15/1 38/35/1 41/22/1
f 12/6/2 11/29/2 39/36/2 35/37/2
f 9/32/5 7/38/5 22/39/5 31/33/5
f 31/33/5 22/39/5 21/18/5 32/17/5
f 7/40/3 8/41/3 23/42/3 22/43/3
f 22/43/3 23/42/3 24/10/3 21/9/3
f 1/16/1 2/15/1 19/21/1 18/24/1
f 18/24/1 19/21/1 20/2/1 17/1/1
f 11/29/2 4/3/2 34/44/2 39/36/2
f 16/45/3 28/46/3 40/47/3 37/48/3
f 40/47/6 41/22/6 38/35/6 37/48/6
f 35/49/6 39/50/6 44/51/6 43/52/6
f 36/53/6 35/49/6 43/52/6 42/54/6
f 39/50/6 34/44/6 33/23/6 44/51/6
f 44/51/6 33/23/6 41/22/6 40/47/6
f 4/3/1 20/2/1 33/23/1 34/44/1
f 28/46/3 27/55/3 44/51/3 40/47/3
f 2/15/4 16/14/4 37/56/4 38/35/4
f 27/55/4 25/57/4 43/52/4 44/51/4
f 23/42/3 8/41/3 36/58/3 42/59/3
f 8/7/2 12/6/2 35/37/2 36/60/2
f 25/57/4 23/61/4 42/54/4 43/52/4
usemtl rooftop.1
f 24/62/6 26/63/6 15/64/6 6/65/6
f 26/63/6 28/46/6 16/45/6 15/64/6
f 25/57/6 27/55/6 28/46/6 26/63/6
f 23/61/6 25/57/6 26/63/6 24/62/6
