# Blender v2.80 (sub 75) OBJ File: 'untitled.blend'
# www.blender.org
mtllib rooftop.3.mtl
o Cube.030_Cube.025
v -1.828909 -0.519959 1.828908
v -1.828909 0.519959 1.828908
v -1.828909 -0.519959 -1.828909
v -1.828909 0.519959 -1.828909
v 1.828907 -0.519959 1.828908
v 1.828907 0.519959 1.828908
v 1.828907 -0.519959 -1.828909
v 1.828907 0.519959 -1.828909
v 1.540748 -0.519959 -1.828909
v -1.540750 -0.519959 -1.828909
v -1.540750 0.519959 -1.828909
v 1.540748 0.519959 -1.828909
v -1.540750 -0.519959 1.828908
v 1.540748 -0.519959 1.828908
v 1.540748 0.519959 1.828908
v -1.540750 0.519959 1.828908
v -1.828909 -0.519959 -1.556559
v -1.828909 -0.519959 1.556558
v -1.828909 0.519959 1.556558
v -1.828909 0.519959 -1.556559
v 1.828907 -0.519959 1.556558
v 1.828907 -0.519959 -1.556559
v 1.828907 0.519959 -1.556559
v 1.828907 0.519959 1.556558
v 1.540748 0.519959 -1.556559
v 1.540748 0.519959 1.556558
v -1.540750 0.519959 -1.556559
v -1.540750 0.519959 1.556558
v -1.540750 -0.519959 -1.556559
v -1.540750 -0.519959 1.556558
v 1.540748 -0.519959 -1.556559
v 1.540748 -0.519959 1.556558
vt 0.375000 0.166667
vt 0.625000 0.166667
vt 0.625000 0.250000
vt 0.375000 0.250000
vt 0.375000 0.416667
vt 0.625000 0.416667
vt 0.625000 0.500000
vt 0.375000 0.500000
vt 0.375000 0.666667
vt 0.625000 0.666667
vt 0.625000 0.750000
vt 0.375000 0.750000
vt 0.375000 0.916667
vt 0.625000 0.916667
vt 0.625000 1.000000
vt 0.375000 1.000000
vt 0.291667 0.666667
vt 0.291667 0.750000
vt 0.125000 0.666667
vt 0.208333 0.666667
vt 0.208333 0.750000
vt 0.125000 0.750000
vt 0.625000 0.833333
vt 0.375000 0.833333
vt 0.625000 0.333333
vt 0.375000 0.333333
vt 0.208333 0.500000
vt 0.291667 0.500000
vt 0.291667 0.583333
vt 0.208333 0.583333
vt 0.125000 0.500000
vt 0.125000 0.583333
vt 0.375000 0.583333
vt 0.625000 0.583333
vt 0.375000 0.000000
vt 0.625000 0.000000
vt 0.625000 0.083333
vt 0.375000 0.083333
vt 0.791667 0.666667
vt 0.875000 0.666667
vt 0.875000 0.750000
vt 0.791667 0.750000
vt 0.708333 0.666667
vt 0.708333 0.750000
vt 0.708333 0.500000
vt 0.791667 0.500000
vt 0.791667 0.583333
vt 0.708333 0.583333
vt 0.875000 0.500000
vt 0.875000 0.583333
vn -1.0000 0.0000 0.0000
vn 0.0000 0.0000 -1.0000
vn 1.0000 0.0000 0.0000
vn 0.0000 0.0000 1.0000
vn 0.0000 -1.0000 0.0000
vn 0.0000 1.0000 0.0000
usemtl wall.1
s off
f 17/1/1 20/2/1 4/3/1 3/4/1
f 9/5/2 12/6/2 8/7/2 7/8/2
f 21/9/3 24/10/3 6/11/3 5/12/3
f 13/13/4 16/14/4 2/15/4 1/16/4
f 32/17/5 21/9/5 5/12/5 14/18/5
f 18/19/5 30/20/5 13/21/5 1/22/5
f 30/20/5 32/17/5 14/18/5 13/21/5
f 5/12/4 6/11/4 15/23/4 14/24/4
f 14/24/4 15/23/4 16/14/4 13/13/4
f 3/4/2 4/3/2 11/25/2 10/26/2
f 10/26/2 11/25/2 12/6/2 9/5/2
f 10/27/5 9/28/5 31/29/5 29/30/5
f 29/30/5 31/29/5 32/17/5 30/20/5
f 3/31/5 10/27/5 29/30/5 17/32/5
f 17/32/5 29/30/5 30/20/5 18/19/5
f 9/28/5 7/8/5 22/33/5 31/29/5
f 31/29/5 22/33/5 21/9/5 32/17/5
f 7/8/3 8/7/3 23/34/3 22/33/3
f 22/33/3 23/34/3 24/10/3 21/9/3
f 1/35/1 2/36/1 19/37/1 18/38/1
f 18/38/1 19/37/1 20/2/1 17/1/1
usemtl rooftop.1
f 28/39/6 19/40/6 2/41/6 16/42/6
f 24/10/6 26/43/6 15/44/6 6/11/6
f 26/43/6 28/39/6 16/42/6 15/44/6
f 12/45/6 11/46/6 27/47/6 25/48/6
f 25/48/6 27/47/6 28/39/6 26/43/6
f 8/7/6 12/45/6 25/48/6 23/34/6
f 23/34/6 25/48/6 26/43/6 24/10/6
f 11/46/6 4/49/6 20/50/6 27/47/6
f 27/47/6 20/50/6 19/40/6 28/39/6
